<?xml version="1.0" encoding="UTF-8"?>
<svg width="20px" height="18px" viewBox="0 0 20 18" version="1.1" xmlns="http://www.w3.org/2000/svg" xmlns:xlink="http://www.w3.org/1999/xlink">
    <title>heart</title>
    <defs>
        <linearGradient x1="50%" y1="0%" x2="50%" y2="100%" id="ant-web3-icon-nft-card-icon-heart-filled-1">
            <stop stop-color="#FF8B8B" offset="0%"></stop>
            <stop stop-color="#FF1717" offset="100%"></stop>
        </linearGradient>
        <path d="M36.5161242,21.6887295 C36.2059035,20.9654036 35.7614081,20.3188293 35.1988437,19.7629615 C34.6362792,19.2094195 33.9834267,18.7768195 33.2541765,18.4721388 C32.5017755,18.1581549 31.705388,18 30.8835346,18 C29.7422002,18 28.6286467,18.3139839 27.6609433,18.9070646 C27.4294353,19.0489389 27.2095027,19.2047679 27.0011455,19.3745518 C26.7927883,19.2047679 26.5728557,19.0489389 26.3413477,18.9070646 C25.3736443,18.3139839 24.2600908,18 23.1187564,18 C22.296903,18 21.5005155,18.1581549 20.7481145,18.4721388 C20.0211794,18.7744937 19.3660117,19.2094195 18.8034473,19.7629615 C18.2385678,20.3188293 17.7963875,20.9654036 17.4861668,21.6887295 C17.1643707,22.4399651 17,23.2377168 17,24.0587266 C17,24.8332203 17.1574254,25.6402752 17.4699612,26.461285 C17.7315653,27.147398 18.1066082,27.8590949 18.5858298,28.5777692 C19.345176,29.7150887 20.3892771,30.9012501 21.6857219,32.1036922 C23.8341161,34.0969086 25.9616746,35.4737862 26.0519627,35.5296056 L26.6006366,35.8831282 C26.84372,36.0389573 27.1562558,36.0389573 27.3993392,35.8831282 L27.9480132,35.5296056 C28.0383013,35.4714604 30.1635447,34.0969086 32.314254,32.1036922 C33.6106988,30.9012501 34.6547999,29.7150887 35.4141461,28.5777692 C35.8933677,27.8590949 36.2707257,27.147398 36.5300146,26.461285 C36.8425504,25.6402752 37,24.8332203 37,24.0587266 C37.002291,23.2377168 36.8379203,22.4399651 36.5161242,21.6887295 Z" id="path-2"></path>
        <filter x="-10.0%" y="-11.1%" width="120.0%" height="122.2%" filterUnits="objectBoundingBox" id="ant-web3-icon-nft-card-icon-heart-filled-3">
            <feGaussianBlur stdDeviation="1.5" in="SourceAlpha" result="shadowBlurInner1"></feGaussianBlur>
            <feOffset dx="1" dy="1" in="shadowBlurInner1" result="shadowOffsetInner1"></feOffset>
            <feComposite in="shadowOffsetInner1" in2="SourceAlpha" operator="arithmetic" k2="-1" k3="1" result="shadowInnerInner1"></feComposite>
            <feColorMatrix values="0 0 0 0 1   0 0 0 0 1   0 0 0 0 1  0 0 0 0.746667395 0" type="matrix" in="shadowInnerInner1"></feColorMatrix>
        </filter>
    </defs>
    <g id="组件" stroke="none" stroke-width="1" fill="none" fill-rule="evenodd">
        <g id="画板" transform="translate(-17, -18)" fill-rule="nonzero">
            <g id="爱心">
                <use fill="url(#ant-web3-icon-nft-card-icon-heart-filled-1)" xlink:href="#path-2"></use>
                <use fill="black" fill-opacity="1" filter="url(#ant-web3-icon-nft-card-icon-heart-filled-3)" xlink:href="#path-2"></use>
            </g>
        </g>
    </g>
</svg>
