<?xml version="1.0" encoding="UTF-8"?>
<svg width="24px" height="24px" viewBox="0 0 24 24" version="1.1" xmlns="http://www.w3.org/2000/svg" xmlns:xlink="http://www.w3.org/1999/xlink">
    <g id="组件" stroke="none" stroke-width="1" fill="none" fill-rule="evenodd" fill-opacity="0.7225" opacity="0.849999964">
        <g id="NFT" transform="translate(-1242.000000, -1813.000000)" fill="#000000" fill-rule="nonzero">
            <g id="编组-2备份-16" transform="translate(1038.000000, 1429.000000)">
                <g id="heart-outlinedd" transform="translate(204.000000, 384.000000)">
                    <rect id="矩形" opacity="0" x="0" y="0" width="24" height="24"></rect>
                    <path d="M21.6328125,6.646875 C21.31875,5.91796875 20.86875,5.26640625 20.2992187,4.70625 C19.7296875,4.1484375 19.06875,3.7125 18.3304687,3.40546875 C17.56875,3.0890625 16.7625,2.9296875 15.9304687,2.9296875 C14.775,2.9296875 13.6476562,3.24609375 12.6679687,3.84375 C12.4335937,3.98671875 12.2109375,4.14375 12,4.31484375 C11.7890625,4.14375 11.5664062,3.98671875 11.3320312,3.84375 C10.3523437,3.24609375 9.225,2.9296875 8.06953125,2.9296875 C7.2375,2.9296875 6.43125,3.0890625 5.66953125,3.40546875 C4.93359375,3.71015625 4.2703125,4.1484375 3.70078125,4.70625 C3.12890625,5.26640625 2.68125,5.91796875 2.3671875,6.646875 C2.04140625,7.40390625 1.875,8.2078125 1.875,9.03515625 C1.875,9.815625 2.034375,10.6289062 2.35078125,11.45625 C2.615625,12.1476562 2.9953125,12.8648437 3.48046875,13.5890625 C4.24921875,14.7351562 5.30625,15.9304687 6.61875,17.1421875 C8.79375,19.1507812 10.9476562,20.5382812 11.0390625,20.5945312 L11.5945312,20.9507812 C11.840625,21.1078125 12.1570312,21.1078125 12.403125,20.9507812 L12.9585937,20.5945312 C13.05,20.5359375 15.2015625,19.1507812 17.3789062,17.1421875 C18.6914062,15.9304687 19.7484375,14.7351562 20.5171875,13.5890625 C21.0023437,12.8648438 21.384375,12.1476563 21.646875,11.45625 C21.9632812,10.6289062 22.1226807,9.815625 22.1226807,9.03515625 C22.125,8.2078125 21.9585937,7.40390625 21.6328125,6.646875 Z M12,19.096875 C12,19.096875 3.65625,13.7507813 3.65625,9.03515625 C3.65625,6.646875 5.63203125,4.7109375 8.06953125,4.7109375 C9.7828125,4.7109375 11.26875,5.6671875 12,7.0640625 C12.73125,5.6671875 14.2171875,4.7109375 15.9304688,4.7109375 C18.3679688,4.7109375 20.34375,6.646875 20.34375,9.03515625 C20.34375,13.7507813 12,19.096875 12,19.096875 Z" id="形状"></path>
                </g>
            </g>
        </g>
    </g>
</svg>
