<?xml version="1.0" encoding="utf-8"?>
<svg xmlns="http://www.w3.org/2000/svg" xmlns:xlink="http://www.w3.org/1999/xlink" viewBox="0 0 800 800">
<g>
	<defs>
		<rect id="ant-web3-icon-aave-circle-colorful-1" width="800" height="800"/>
	</defs>
	<clipPath id="ant-web3-icon-aave-circle-colorful-2">
		<use xlink:href="#ant-web3-icon-aave-circle-colorful-1"  style="overflow:visible;"/>
	</clipPath>
	<g clip-path="url(#ant-web3-icon-aave-circle-colorful-2)">
			<linearGradient id="ant-web3-icon-aave-circle-colorful-3" gradientUnits="userSpaceOnUse" x1="-597.3553" y1="900.6861" x2="-598.0993" y2="900.0601" gradientTransform="matrix(776 0 0 -776 464237 699089)">
			<stop  offset="0" style="stop-color:#B6509E"/>
			<stop  offset="1" style="stop-color:#2EBAC6"/>
		</linearGradient>
		<circle fill="url(#ant-web3-icon-aave-circle-colorful-3)" cx="400" cy="400" r="388"/>
		<path fill="#FFFFFF" d="M569.8,554.6L438.6,237.4c-7.4-16.4-18.4-24.4-32.9-24.4h-11.6c-14.5,0-25.5,8-32.9,24.4l-57.1,138.2h-43.2
			c-12.9,0.1-23.4,10.5-23.5,23.5v0.3c0.1,12.9,10.6,23.4,23.5,23.5h23.2l-54.5,131.7c-1,2.9-1.6,5.9-1.6,9c0,7.4,2.3,13.2,6.4,17.7
			s10,6.7,17.4,6.7c4.9-0.1,9.6-1.6,13.5-4.5c4.2-2.9,7.1-7.1,9.4-11.9l60-148.8h41.6c12.9-0.1,23.4-10.5,23.5-23.5v-0.6
			c-0.1-12.9-10.6-23.4-23.5-23.5h-22.2l45.8-114.1l124.8,310.4c2.3,4.8,5.2,9,9.4,11.9c3.9,2.9,8.7,4.4,13.5,4.5
			c7.4,0,13.2-2.2,17.4-6.7c4.2-4.5,6.4-10.3,6.4-17.7C571.5,560.5,571,557.4,569.8,554.6z"/>
	</g>
</g>
</svg>
