<svg id="Layer_1" data-name="Layer 1" xmlns="http://www.w3.org/2000/svg" viewBox="0 0 586.3 586.3"><title>abbc-coin-abbc</title><path d="M661.8,365.4C662,525.8,532,658.5,368.7,658.5S75.4,525.7,75.5,365.2s129.9-293,293.3-293S662.1,205.1,661.8,365.4Z" transform="translate(-75.5 -72.2)" style="fill:#fe9b00"/><path d="M594,401.8c-0.5-1-.1-1.8-0.1-2.6,1.7-17.4-9.4-32.8-26.2-36.4-11-2.3-20.8.8-29.2,8-10.2,8.7-19.9,18-29.5,27.4q-17.55,17.25-34.4,35.1c-7.9,8.4-17.1,14.9-28.1,18.7-31,10.6-64.9-6-76.7-34.8-1.4-3.5-1.3-4.2,1.5-6.6,6.5-5.7,13.1-11.3,19.6-17,0.2-.2.4-0.3,0.6-0.5,0.8-.5,1.4-1.7,2.4-1.2s0.4,1.6.5,2.4a33.19,33.19,0,0,0,28.7,31.2c15.9,2.2,31.8-7.5,36.6-22.7,5.7-18-3.8-35.9-22.2-41.8-11.2-3.6-21.4-1.2-30.3,6.2-7.3,6-14.3,12.3-21.4,18.6-4.7,4.2-9.4,8.5-14.2,12.6a10.53,10.53,0,0,0-3.5,6.1c-3.8,19.3-14.6,33.7-31.7,43.2a58.92,58.92,0,0,1-35.2,7.1,61.44,61.44,0,0,1-35.7-15.4,59.88,59.88,0,0,1-16-22.5,6.94,6.94,0,0,1-.5-1.3,3.45,3.45,0,0,1,1.1-4.3c2.3-1.9,4.5-3.8,6.8-5.7,4.7-4.1,9.4-8.2,14.2-12.2,0.8-.7,1.6-1.9,2.6-1.5s0.6,1.8.7,2.8A33.94,33.94,0,0,0,301,426.8,33.44,33.44,0,0,0,340.2,403c6-22.1-11.5-43.9-34.3-42.8a30.46,30.46,0,0,0-18.9,7.3c-6.5,5.4-12.9,11-19.2,16.6-6.5,5.7-12.9,11.5-19.4,17.2a7.35,7.35,0,0,0-2.7,5.9v43.4c0,4.1-.6,4.7-4.7,4.6a26.83,26.83,0,0,1-20.3-9.3c-2-2.3-2.4-2.3-5.1-.8-9.9,5.5-20.4,8.5-31.7,8.1-23.2-.8-40.9-11.3-52.9-31.2a58.62,58.62,0,0,1-8.4-31.1,61.28,61.28,0,0,1,14.3-39.3c9.4-11.5,21.4-19,36.1-21.4,19.6-3.1,37.6.5,52.7,14.2a70.71,70.71,0,0,1,12.4,14.9,5.5,5.5,0,0,0,2.4,2.6,5,5,0,0,0,2.3-4.4c-0.1-9.9,0-19.8,0-29.8q0-33.75-.1-67.4c0-4.4.5-4.9,5-4.9a27,27,0,0,1,26.8,24,38.66,38.66,0,0,1,.3,4.8v52.5c0.1,2.4.6,2.7,2.8,1.6a63.06,63.06,0,0,1,20.6-6.7c17.9-2.5,33.9,2,48.1,13.2a60.38,60.38,0,0,1,12.3,13.4,6.07,6.07,0,0,0,.7,1c0.7,1,1.3,2.1,2.6,2.3,0.7,0.1,2.7-2.5,2.8-3.6a27.48,27.48,0,0,0,.2-4.1V283.5c0-14.5,9-25.4,23.3-28.1a19.09,19.09,0,0,1,4.8-.5c2.1,0.1,3,.9,3.5,2.9a19.47,19.47,0,0,1,.4,4.8v73.9c0.2,1.3.6,1.7,1.9,1.2,1.7-.7,3.4-1.5,5.1-2.2,24-9.6,50.9-3.8,68.3,14.8A65.77,65.77,0,0,1,485.6,372l0.6,1.8c1,2.6,1.3,2.7,3.4.8l28.2-24.9a63.45,63.45,0,0,1,27.9-14.8A62.41,62.41,0,0,1,618,372.8a5.69,5.69,0,0,1-1.4,6.9c-6.9,6.8-13.6,13.7-20.5,20.6A6.23,6.23,0,0,1,594,401.8Z" transform="translate(-75.5 -72.2)" style="fill:#191c31"/><path d="M566.9,428.9a2.47,2.47,0,0,1-1.1,1.9c-7.3,7.3-14.6,14.6-21.8,22a4.18,4.18,0,0,1-4.9,1.1q-25.8-9.6-36.5-34.9c-1.1-2.5-.9-3.3,1.1-5,7.1-6.2,14.3-12.4,21.4-18.5a3.23,3.23,0,0,1,1.7-1c0.7,0.7.5,1.6,0.6,2.4a40.17,40.17,0,0,0,3.5,13.6c4.7,9.8,12.7,15.4,23,17.9a25,25,0,0,0,6.7.6C562.6,428.8,564.7,428.9,566.9,428.9Z" transform="translate(-75.5 -72.2)" style="fill:#191c31"/><path d="M218.4,391.7c0.5,17.8-14.7,33.3-33.2,33.5a33.43,33.43,0,0,1-33.6-33.1c-0.3-18.2,14-33.8,33.6-34.2C203.3,357.5,218.5,372.3,218.4,391.7Z" transform="translate(-75.5 -72.2)" style="fill:#ff9c00"/></svg>