<?xml version="1.0" encoding="UTF-8"?>
<svg viewBox="0 0 1024 1024" version="1.1" xmlns="http://www.w3.org/2000/svg" xmlns:xlink="http://www.w3.org/1999/xlink">
    <title>cardano-ada-logo_Filled</title>
    <g id="cardano-ada-logo_Filled" stroke="none" stroke-width="1" fill="none" fill-rule="evenodd">
        <g id="cardano-ada-logo" transform="translate(112, 143)" fill="#555555" fill-rule="nonzero">
            <path d="M219.31475,366.834282 C217.608159,396.477063 240.433805,421.854695 270.085812,423.560754 C271.152431,423.560754 272.21905,423.560754 273.285668,423.560754 C303.150999,423.560754 327.256587,399.462666 327.043264,369.606629 C327.043264,339.750591 302.937675,315.652504 273.072345,315.865761 C244.486957,315.865761 220.808016,338.257789 219.31475,366.834282 Z" id="路径"></path>
            <path d="M18.363739,352.972551 C8.76416838,352.332778 0.444540556,359.796788 0.0178929756,369.393371 C-0.408754605,378.989955 6.84425427,387.306994 16.4438248,387.733509 C26.0433954,388.373281 34.1496994,380.909272 34.7896708,371.312688 C35.4296422,361.716104 27.9633095,353.612323 18.363739,352.972551 C18.363739,352.972551 18.363739,352.972551 18.363739,352.972551 Z" id="路径"></path>
            <path d="M215.901569,54.1989166 C224.43452,49.9337683 227.847701,39.2708977 223.581225,30.7406013 C219.31475,22.2103048 208.64856,18.7981862 200.115608,23.0633344 C191.582657,27.3284827 188.169476,37.7780958 192.435952,46.3083923 C196.702428,55.0519462 207.155293,58.6773222 215.901569,54.1989166 C215.688245,54.1989166 215.901569,54.1989166 215.901569,54.1989166 Z" id="路径"></path>
            <path d="M270.512459,149.52498 C283.738534,142.914 289.071629,126.706437 282.458591,113.484477 C275.845554,100.262518 259.632946,94.9310822 246.406871,101.542062 C233.180796,108.153042 227.847701,124.360605 234.460739,137.582565 C241.073776,150.804524 257.286384,156.135959 270.512459,149.52498 Z" id="路径"></path>
            <path d="M86.6273519,214.995005 C96.8668938,221.605985 110.519616,218.833639 117.345978,208.597283 C123.959015,198.360927 121.185806,184.712453 110.946264,177.888215 C100.706722,171.277236 87.0539995,174.049582 80.2276382,184.285938 C80.2276382,184.285938 80.2276382,184.285938 80.2276382,184.285938 C73.4012769,194.522294 76.3878099,208.384025 86.6273519,214.995005 Z" id="路径"></path>
            <path d="M119.265892,343.375967 C104.333226,342.522937 91.7471229,353.82558 90.8938277,368.753599 C90.0405325,383.681618 101.346693,396.263805 116.279359,397.116835 C131.212024,397.969864 143.798128,386.667222 144.651423,371.739203 C144.651423,371.739203 144.651423,371.739203 144.651423,371.739203 C145.504718,357.024441 134.198557,344.228997 119.265892,343.375967 Z" id="路径"></path>
            <path d="M89.6138849,524.004995 C78.7343716,529.549688 74.254572,542.771647 79.8009906,553.861033 C85.3474091,564.737161 98.5734841,569.215566 109.666321,563.670874 C120.545835,558.126181 125.025634,544.904221 119.479216,533.814836 C119.479216,533.814836 119.479216,533.814836 119.479216,533.814836 C113.932797,522.938708 100.493398,518.460302 89.6138849,524.004995 C89.6138849,524.004995 89.6138849,524.004995 89.6138849,524.004995 Z" id="路径"></path>
            <path d="M194.142542,287.715783 C208.861884,297.312366 228.487673,293.260475 237.873919,278.545714 C247.47349,263.830952 243.420338,244.211271 228.700996,234.827944 C213.981655,225.231361 194.355866,229.283252 184.969619,243.998013 C175.370049,258.499517 179.423201,278.119199 194.142542,287.715783 C194.142542,287.715783 194.142542,287.715783 194.142542,287.715783 Z" id="路径"></path>
            <path d="M525.861036,147.392406 C538.233816,155.496187 555.086396,152.084069 563.1927,139.715139 C571.299004,127.346209 567.885823,110.498873 555.513043,102.395092 C543.140263,94.29131 526.287684,97.7034286 518.18138,110.072358 C518.18138,110.072358 518.18138,110.072358 518.18138,110.072358 C509.861752,122.654546 513.274933,139.288624 525.861036,147.392406 C525.861036,147.392406 525.861036,147.392406 525.861036,147.392406 Z" id="路径"></path>
            <path d="M580.898574,52.4928573 C589.004878,57.8242926 599.671068,55.478461 605.004163,47.3746794 C610.337257,39.2708977 607.990696,28.6080271 599.884392,23.2765918 C591.778088,17.9451565 581.111898,20.2909881 575.778803,28.1815123 C570.659032,36.285294 573.005594,47.161422 580.898574,52.4928573 C580.898574,52.4928573 580.898574,52.4928573 580.898574,52.4928573 Z" id="路径"></path>
            <path d="M529.914188,315.439246 C500.262181,313.733187 474.663327,336.55173 473.17006,366.19451 C471.46347,395.83729 494.289115,421.42818 523.941122,422.920982 C525.007741,422.920982 526.07436,422.920982 526.927655,422.920982 C556.579662,422.920982 580.68525,398.822894 580.68525,368.966856 C580.898574,340.603621 558.499576,316.932048 529.914188,315.439246 L529.914188,315.439246 Z" id="路径"></path>
            <path d="M288.218334,283.877149 C297.391257,302.004029 315.950427,313.519929 336.42951,313.519929 C366.081517,313.519929 390.187106,289.421842 390.187106,259.565804 C390.187106,251.248765 388.267192,242.931726 384.427363,235.254459 C370.987965,208.597283 338.562748,197.934412 312.110598,211.369629 C285.445125,225.018103 274.778935,257.43323 288.218334,283.877149 L288.218334,283.877149 Z" id="路径"></path>
            <path d="M710.386115,214.995005 C721.265628,209.450312 725.532104,196.015095 719.985686,185.138967 C714.439267,174.262839 700.999868,169.997691 690.120355,175.542384 C679.240842,181.087077 674.974366,194.309036 680.307461,205.185164 C686.067203,216.061292 699.293278,220.539698 710.386115,214.995005 C710.386115,214.995005 710.386115,214.995005 710.386115,214.995005 Z" id="路径"></path>
            <path d="M573.858889,232.055598 C558.286252,239.946122 551.886539,258.926032 559.779519,274.493823 C567.672499,290.061614 586.658317,296.459336 602.230953,288.568812 C617.80359,280.678288 624.203304,261.698378 616.310323,246.130587 C608.417343,230.562796 589.431526,224.378331 573.858889,232.055598 Z" id="路径"></path>
            <path d="M397.866762,44.3890756 C410.026218,45.0288479 420.479084,35.6455217 421.332379,23.4898493 C422.185674,11.3341768 412.586104,0.884563596 400.426648,0.0315339483 C388.267192,-0.608238287 377.814326,8.56183042 376.961031,20.7175029 C376.321059,33.0864328 385.707306,43.536046 397.866762,44.3890756 C397.866762,44.3890756 397.866762,44.3890756 397.866762,44.3890756 Z" id="路径"></path>
            <path d="M397.653438,183.646166 C415.145989,184.712453 430.078654,171.277236 430.93195,153.790128 C431.998569,136.30302 418.55917,121.375001 401.066619,120.521972 C383.574068,119.455685 368.641403,132.890902 367.788108,150.378009 C366.934812,167.865117 380.160887,182.793136 397.653438,183.646166 C397.653438,183.646166 397.653438,183.646166 397.653438,183.646166 Z" id="路径"></path>
            <path d="M226.141111,506.944402 C241.713748,499.053878 248.113461,480.073968 240.220481,464.506177 C232.327501,448.938386 213.341683,442.540664 197.769047,450.431188 C182.19641,458.321712 175.796696,477.301622 183.689677,492.869413 C191.582657,508.437204 210.568474,514.834926 226.141111,506.944402 Z" id="路径"></path>
            <path d="M418.132522,229.923024 C401.919914,254.874141 408.746275,288.142297 433.705159,304.349861 C458.664042,320.557424 491.942554,313.733187 508.155162,288.78207 C524.36777,263.830952 517.541409,230.562796 492.582525,214.355233 C483.83625,208.597283 473.596708,205.611679 463.143842,205.611679 C445.01132,205.611679 428.15874,214.781748 418.132522,229.923024 Z" id="路径"></path>
            <path d="M511.781666,455.122851 C498.342267,428.465674 465.917051,417.802804 439.464901,431.238021 C412.799427,444.673238 402.133238,477.088364 415.572637,503.532283 C429.012035,530.18946 461.437252,540.85233 487.889402,527.417113 C487.889402,527.417113 487.889402,527.417113 487.889402,527.417113 C514.341552,514.195154 525.221065,482.206542 511.99499,455.549366 C511.99499,455.336108 511.99499,455.336108 511.781666,455.122851 Z" id="路径"></path>
            <path d="M605.857458,451.284217 C591.138116,441.687634 571.512327,445.739525 562.126081,460.454286 C552.52651,475.169048 556.579662,494.788729 571.299004,504.172056 C586.018345,513.768639 605.644134,509.716748 615.030381,495.001987 C624.629951,480.500483 620.576799,460.880801 605.857458,451.284217 C605.857458,451.284217 605.857458,451.284217 605.857458,451.284217 Z" id="路径"></path>
            <path d="M709.106172,370.459658 C709.959467,355.53164 698.653307,342.949452 683.720641,342.096423 C668.787976,341.243393 656.201872,352.546036 655.348577,367.474055 C654.495282,382.402073 665.801443,394.984261 680.734108,395.83729 C680.734108,395.83729 680.734108,395.83729 680.734108,395.83729 C695.45345,396.69032 708.252877,385.17442 709.106172,370.459658 Z" id="路径"></path>
            <path d="M783.556175,351.266491 C773.956605,350.626719 765.636977,358.090728 765.210329,367.687312 C764.783682,377.283896 772.03669,385.600935 781.636261,386.027449 C791.235832,386.667222 799.342136,379.203212 799.982107,369.606629 C800.408755,360.010045 793.155746,351.906264 783.556175,351.266491 Z" id="路径"></path>
            <path d="M713.372648,524.004995 C703.133106,517.394015 689.480384,520.166361 682.654022,530.402717 C676.040985,540.639073 678.814194,554.287547 689.053736,561.111785 C699.293278,567.722764 712.946001,564.950418 719.772362,554.714062 C726.598723,544.477706 723.61219,530.615975 713.372648,524.004995 C713.372648,524.004995 713.372648,524.004995 713.372648,524.004995 Z" id="路径"></path>
            <path d="M218.888102,686.507143 C210.781798,681.175707 200.115608,683.521539 194.782514,691.412063 C189.449419,699.515845 191.795981,710.178715 199.688961,715.510151 C207.795265,720.841586 218.461454,718.495755 223.794549,710.60523 C223.794549,710.60523 223.794549,710.60523 223.794549,710.60523 C229.340968,702.714706 226.994406,691.838578 218.888102,686.507143 Z" id="路径"></path>
            <path d="M584.098431,684.801083 C575.56548,689.066232 572.152299,699.729102 576.418775,708.259399 C580.68525,716.789695 591.35144,720.201814 599.884392,715.936666 C608.417343,711.671517 611.830524,701.221904 607.564048,692.691608 C603.297572,683.948054 592.844707,680.322678 584.098431,684.801083 C584.311755,684.801083 584.098431,684.801083 584.098431,684.801083 Z" id="路径"></path>
            <path d="M381.867478,509.076976 C398.080086,484.125859 391.253725,450.857703 366.294841,434.436882 C341.335958,418.229319 308.057446,425.053556 291.631514,450.004673 C275.205583,474.95579 282.245268,508.223946 307.204151,524.644767 C315.950427,530.402717 326.189969,533.388321 336.642834,533.388321 C354.98868,533.601578 371.84126,524.43151 381.867478,509.076976 Z" id="路径"></path>
            <path d="M274.138964,591.607594 C261.766184,583.503813 244.913604,586.915931 236.8073,599.284861 C228.700996,611.653791 232.114177,628.501127 244.486957,636.604908 C256.859737,644.70869 273.712316,641.296571 281.81862,628.927642 C281.81862,628.927642 281.81862,628.927642 281.81862,628.927642 C290.138248,616.558712 286.725067,599.711376 274.138964,591.607594 Z" id="路径"></path>
            <path d="M399.786676,694.610924 C387.62722,693.971152 377.174354,703.354478 376.321059,715.510151 C375.467764,727.665823 385.067335,738.115436 397.226791,738.968466 C409.386247,739.608238 419.839113,730.43817 420.692408,718.282497 C421.332379,705.913567 411.946132,695.463954 399.786676,694.610924 C399.786676,694.610924 399.786676,694.610924 399.786676,694.610924 Z" id="路径"></path>
            <path d="M400,555.353834 C382.507449,554.287547 367.574784,567.722764 366.721489,585.209872 C365.65487,602.69698 379.094269,617.624999 396.586819,618.478028 C414.07937,619.331058 429.012035,606.109098 429.865331,588.621991 C430.93195,571.34814 417.492551,556.206864 400,555.353834 C400,555.353834 400,555.353834 400,555.353834 Z" id="路径"></path>
            <path d="M529.487541,589.47502 C516.261466,596.299258 510.928371,612.506821 517.754732,625.72878 C524.581094,638.95074 540.793702,644.282175 554.019777,637.457938 C567.245852,630.846958 572.578946,614.639395 565.965909,601.417435 C559.139548,588.195476 542.92694,582.650783 529.487541,589.47502 C529.487541,589.47502 529.487541,589.47502 529.487541,589.47502 Z" id="路径"></path>
        </g>
    </g>
</svg>
