<?xml version="1.0" encoding="UTF-8"?>
<svg viewBox="0 0 1024 1024" version="1.1" xmlns="http://www.w3.org/2000/svg" xmlns:xlink="http://www.w3.org/1999/xlink">
    <title>cardano-ada-logo_CircleColorful</title>
    <g id="cardano-ada-logo_CircleColorful" stroke="none" stroke-width="1" fill="none" fill-rule="evenodd">
        <g id="编组" transform="translate(112, 112)">
            <g id="编组-3" fill="#0033AD" stroke="#979797" stroke-width="0.78125">
                <circle id="椭圆形" cx="400" cy="400" r="399.609375"></circle>
            </g>
            <g id="cardano-ada-logo" transform="translate(102, 125)" fill="#FFFFFF" fill-rule="nonzero">
                <path d="M163.115345,273.016042 C161.846068,295.077651 178.822642,313.964928 200.876322,315.234661 C201.66962,315.234661 202.462918,315.234661 203.256216,315.234661 C225.468556,315.234661 243.397087,297.299684 243.238427,275.079358 C243.238427,252.859033 225.309896,234.924055 203.097556,235.082772 C181.837174,235.082772 164.225962,251.748016 163.115345,273.016042 Z" id="路径"></path>
                <path d="M13.6580308,262.699463 C6.51835023,262.223313 0.330627039,267.778394 0.0133079006,274.920642 C-0.304011238,282.062889 5.09041411,288.252837 12.2300947,288.57027 C19.3697753,289.04642 25.398839,283.491339 25.8748177,276.349091 C26.3507964,269.206844 20.7977115,263.175612 13.6580308,262.699463 C13.6580308,262.699463 13.6580308,262.699463 13.6580308,262.699463 Z" id="路径"></path>
                <path d="M160.576792,40.3374886 C166.923175,37.1631564 169.461728,29.2273258 166.288536,22.8786613 C163.115345,16.5299968 155.182366,13.990531 148.835984,17.1648632 C142.489601,20.3391955 139.951048,28.1163095 143.124239,34.464974 C146.297431,40.9723551 154.07175,43.6705375 160.576792,40.3374886 C160.418132,40.3374886 160.576792,40.3374886 160.576792,40.3374886 Z" id="路径"></path>
                <path d="M201.193642,111.283814 C211.030535,106.363599 214.997024,94.3011368 210.078577,84.4607069 C205.160131,74.6202769 193.102004,70.6523616 183.26511,75.5725766 C173.428217,80.4927916 169.461728,92.5552541 174.380174,102.395684 C179.298621,112.236114 191.356748,116.204029 201.193642,111.283814 Z" id="路径"></path>
                <path d="M64.429093,160.009814 C72.0447523,164.930029 82.1989647,162.866713 87.2760709,155.248316 C92.1945176,147.629919 90.1319432,137.472055 82.5162838,132.393124 C74.9006245,127.472909 64.7464121,129.536225 59.6693059,137.154622 C59.6693059,137.154622 59.6693059,137.154622 59.6693059,137.154622 C54.5921997,144.77302 56.8134336,155.089599 64.429093,160.009814 Z" id="路径"></path>
                <path d="M88.704007,255.557215 C77.5978372,254.922349 68.2369226,263.334329 67.6022843,274.444492 C66.9676461,285.554655 75.3766032,294.918935 86.4827731,295.553801 C97.5889429,296.188668 106.949857,287.776687 107.584496,276.666524 C107.584496,276.666524 107.584496,276.666524 107.584496,276.666524 C108.219134,265.715078 99.8101769,256.192081 88.704007,255.557215 Z" id="路径"></path>
                <path d="M66.6503269,389.990186 C58.5586889,394.116818 55.226838,403.957248 59.3519868,412.210511 C63.4771355,420.305059 73.3140288,423.638107 81.5643264,419.511476 C89.6559645,415.384844 92.9878154,405.544414 88.8626666,397.29115 C88.8626666,397.29115 88.8626666,397.29115 88.8626666,397.29115 C84.7375178,389.196603 74.741965,385.863554 66.6503269,389.990186 C66.6503269,389.990186 66.6503269,389.990186 66.6503269,389.990186 Z" id="路径"></path>
                <path d="M144.393516,214.132179 C155.341026,221.274427 169.937706,218.258811 176.918727,207.307365 C184.058408,196.355919 181.043876,181.75399 170.096366,174.770459 C159.148856,167.628212 144.552175,170.643827 137.571154,181.595274 C130.431474,192.388003 133.446006,206.989932 144.393516,214.132179 C144.393516,214.132179 144.393516,214.132179 144.393516,214.132179 Z" id="路径"></path>
                <path d="M391.109146,109.696648 C400.311401,115.72788 412.845507,113.188414 418.87457,103.98285 C424.903634,94.7772867 422.365081,82.2386743 413.162826,76.207443 C403.960571,70.1762118 391.426465,72.7156776 385.397401,81.9212411 C385.397401,81.9212411 385.397401,81.9212411 385.397401,81.9212411 C379.209678,91.2855212 381.748231,103.665417 391.109146,109.696648 C391.109146,109.696648 391.109146,109.696648 391.109146,109.696648 Z" id="路径"></path>
                <path d="M432.043315,39.0677557 C438.072378,43.0356711 446.005357,41.2897883 449.971846,35.2585571 C453.938335,29.2273258 452.19308,21.2914952 446.164016,17.3235799 C440.134953,13.3556645 432.201974,15.1015473 428.235485,20.9740619 C424.427655,27.0052932 426.172911,35.0998404 432.043315,39.0677557 C432.043315,39.0677557 432.043315,39.0677557 432.043315,39.0677557 Z" id="路径"></path>
                <path d="M394.123678,234.765339 C372.069997,233.495606 353.030849,250.478283 351.920232,272.539893 C350.650956,294.601502 367.62753,313.647495 389.68121,314.758511 C390.474508,314.758511 391.267805,314.758511 391.902444,314.758511 C413.956124,314.758511 431.884655,296.823534 431.884655,274.603208 C432.043315,253.493899 415.38406,235.876355 394.123678,234.765339 L394.123678,234.765339 Z" id="路径"></path>
                <path d="M214.362386,211.27528 C221.184747,224.766192 234.98813,233.336889 250.219448,233.336889 C272.273129,233.336889 290.20166,215.401912 290.20166,193.181586 C290.20166,186.991638 288.773724,180.801691 285.917851,175.087893 C275.922299,155.248316 251.806044,147.312485 232.132258,157.311632 C212.299811,167.469495 204.366833,191.59442 214.362386,211.27528 L214.362386,211.27528 Z" id="路径"></path>
                <path d="M528.349673,160.009814 C536.441311,155.883182 539.614502,145.884036 535.489354,137.789489 C531.364205,129.694941 521.368652,126.520609 513.277014,130.647241 C505.185376,134.773873 502.012185,144.614303 505.978674,152.70885 C510.262482,160.803397 520.099375,164.136446 528.349673,160.009814 C528.349673,160.009814 528.349673,160.009814 528.349673,160.009814 Z" id="路径"></path>
                <path d="M426.807549,172.707143 C415.2254,178.579658 410.465613,192.705436 416.336017,204.291749 C422.206421,215.878062 436.327123,220.63956 447.909272,214.767046 C459.49142,208.894531 464.251207,194.768752 458.380803,183.18244 C452.510399,171.596127 438.389697,166.993345 426.807549,172.707143 Z" id="路径"></path>
                <path d="M295.913404,33.0365245 C304.957,33.5126743 312.731319,26.5291434 313.365957,17.4822965 C314.000595,8.43544956 306.860915,0.658335558 297.817319,0.023469109 C288.773724,-0.452680728 280.999405,6.3721336 280.364767,15.4189805 C279.888788,24.624544 286.869809,32.401658 295.913404,33.0365245 C295.913404,33.0365245 295.913404,33.0365245 295.913404,33.0365245 Z" id="路径"></path>
                <path d="M295.754745,136.678472 C308.764829,137.472055 319.870999,127.472909 320.505638,114.458147 C321.298935,101.443384 311.303383,90.3332215 298.293298,89.6983551 C285.283213,88.904772 274.177043,98.9039186 273.542405,111.918681 C272.907767,124.933443 282.74466,136.043606 295.754745,136.678472 C295.754745,136.678472 295.754745,136.678472 295.754745,136.678472 Z" id="路径"></path>
                <path d="M168.192451,377.292857 C179.7746,371.420342 184.534387,357.294564 178.663983,345.708251 C172.793579,334.121938 158.672877,329.36044 147.090728,335.232954 C135.50858,341.105469 130.748793,355.231248 136.619197,366.81756 C142.489601,378.403873 156.610303,383.165371 168.192451,377.292857 Z" id="路径"></path>
                <path d="M310.986063,171.119977 C298.927936,189.689821 304.005042,214.449612 322.568212,226.512075 C341.131382,238.574537 365.882274,233.495606 377.940402,214.925762 C389.998529,196.355919 384.921423,171.596127 366.358253,159.533665 C359.853211,155.248316 352.237551,153.026283 344.463232,153.026283 C330.977169,153.026283 318.443063,159.851098 310.986063,171.119977 Z" id="路径"></path>
                <path d="M380.637614,338.72472 C370.642061,318.885143 346.525807,310.949313 326.85202,320.948459 C307.019574,330.947606 299.086596,355.072531 309.082149,374.753391 C319.077701,394.592967 343.193956,402.528798 362.867742,392.529651 C362.867742,392.529651 362.867742,392.529651 362.867742,392.529651 C382.541529,382.689221 390.633167,358.88173 380.796274,339.042153 C380.796274,338.883436 380.796274,338.883436 380.637614,338.72472 Z" id="路径"></path>
                <path d="M450.606484,335.867821 C439.658974,328.725573 425.062294,331.741189 418.081273,342.692635 C410.941592,353.644081 413.956124,368.24601 424.903634,375.229541 C435.851144,382.371788 450.447825,379.356173 457.428846,368.404726 C464.568526,357.611997 461.553994,343.010068 450.606484,335.867821 C450.606484,335.867821 450.606484,335.867821 450.606484,335.867821 Z" id="路径"></path>
                <path d="M527.397716,275.714225 C528.032354,264.604062 519.623397,255.239782 508.517227,254.604915 C497.411057,253.970049 488.050143,262.382029 487.415504,273.492192 C486.780866,284.602355 495.189823,293.966635 506.295993,294.601502 C506.295993,294.601502 506.295993,294.601502 506.295993,294.601502 C517.243503,295.236368 526.763077,286.665671 527.397716,275.714225 Z" id="路径"></path>
                <path d="M582.769905,261.42973 C575.630225,260.95358 569.442501,266.508661 569.125182,273.650909 C568.807863,280.793156 574.202289,286.983104 581.341969,287.300537 C588.48165,287.776687 594.510713,282.221606 594.986692,275.079358 C595.304011,267.937111 589.909586,261.905879 582.769905,261.42973 Z" id="路径"></path>
                <path d="M530.570907,389.990186 C522.955248,385.069971 512.801035,387.133287 507.723929,394.751684 C502.805482,402.370081 504.868057,412.527945 512.483716,417.606876 C520.099375,422.527091 530.253588,420.463775 535.330694,412.845378 C540.4078,405.22698 538.186566,394.910401 530.570907,389.990186 C530.570907,389.990186 530.570907,389.990186 530.570907,389.990186 Z" id="路径"></path>
                <path d="M162.798026,510.932244 C156.768962,506.964329 148.835984,508.710212 144.869495,514.582726 C140.903005,520.613958 142.648261,528.549788 148.518665,532.517704 C154.547728,536.485619 162.480707,534.739736 166.447196,528.867221 C166.447196,528.867221 166.447196,528.867221 166.447196,528.867221 C170.572345,522.994707 168.827089,514.90016 162.798026,510.932244 Z" id="路径"></path>
                <path d="M434.423208,509.662511 C428.076825,512.836844 425.538272,520.772674 428.711464,527.121339 C431.884655,533.470003 439.817634,536.009469 446.164016,532.835137 C452.510399,529.660805 455.048952,521.883691 451.875761,515.535026 C448.702569,509.027645 440.92825,506.329462 434.423208,509.662511 C434.581868,509.662511 434.423208,509.662511 434.423208,509.662511 Z" id="路径"></path>
                <path d="M284.013937,378.880023 C296.072064,360.310179 290.994958,335.550388 272.431788,323.329208 C253.868618,311.266746 229.117726,316.345678 216.900939,334.915521 C204.684152,353.485365 209.919918,378.245156 228.483087,390.466335 C234.98813,394.751684 242.603789,396.973717 250.378108,396.973717 C264.022831,397.132433 276.556937,390.307619 284.013937,378.880023 Z" id="路径"></path>
                <path d="M203.890854,440.303352 C194.688599,434.27212 182.154493,436.811586 176.12543,446.01715 C170.096366,455.222713 172.634919,467.761326 181.837174,473.792557 C191.039429,479.823788 203.573535,477.284322 209.602599,468.078759 C209.602599,468.078759 209.602599,468.078759 209.602599,468.078759 C215.790322,458.873195 213.251769,446.334583 203.890854,440.303352 Z" id="路径"></path>
                <path d="M297.34134,516.963476 C288.297745,516.487326 280.523426,523.470857 279.888788,532.517704 C279.25415,541.56455 286.39383,549.341664 295.437426,549.976531 C304.481021,550.452681 312.25534,543.627866 312.889978,534.581019 C313.365957,525.375456 306.384936,517.598342 297.34134,516.963476 C297.34134,516.963476 297.34134,516.963476 297.34134,516.963476 Z" id="路径"></path>
                <path d="M297.5,413.321528 C284.489915,412.527945 273.383745,422.527091 272.749107,435.541853 C271.955809,448.556616 281.951362,459.666778 294.961447,460.301645 C307.971532,460.936511 319.077701,451.096081 319.71234,438.081319 C320.505638,425.225274 310.510085,413.956394 297.5,413.321528 C297.5,413.321528 297.5,413.321528 297.5,413.321528 Z" id="路径"></path>
                <path d="M393.806358,438.716186 C383.969465,443.795117 380.002976,455.85758 385.080082,465.69801 C390.157188,475.53844 402.215316,479.506355 412.052209,474.427423 C421.889102,469.507208 425.855591,457.444746 420.937145,447.604316 C415.860039,437.763886 403.801911,433.637254 393.806358,438.716186 C393.806358,438.716186 393.806358,438.716186 393.806358,438.716186 Z" id="路径"></path>
            </g>
        </g>
    </g>
</svg>
