<?xml version="1.0" encoding="utf-8"?>
<!-- Generator: Adobe Illustrator 26.0.1, SVG Export Plug-In . SVG Version: 6.00 Build 0)  -->
<svg version="1.1" id="Layer_1" xmlns="http://www.w3.org/2000/svg" xmlns:xlink="http://www.w3.org/1999/xlink" x="0px" y="0px"
	 viewBox="0 0 32 32" style="enable-background:new 0 0 32 32;" xml:space="preserve">
<linearGradient id="SVGID_1_" gradientUnits="userSpaceOnUse" x1="4.6863" y1="4.5761" x2="27.3137" y2="27.2036" gradientTransform="matrix(1 0 0 -1 0 31.8898)">
	<stop  offset="0" style="stop-color:#102054"/>
	<stop  offset="1" style="stop-color:#1A45B8"/>
</linearGradient>
<path style="fill:url(#SVGID_1_);" d="M16,32c8.8,0,16-7.2,16-16c0-8.8-7.2-16-16-16C7.2,0,0,7.2,0,16C0,24.8,7.2,32,16,32z"/>
<linearGradient id="SVGID_00000096058368237691924490000014967775144578626492_" gradientUnits="userSpaceOnUse" x1="19.3922" y1="25.6148" x2="19.3922" y2="8.421" gradientTransform="matrix(1 0 0 -1 0 31.8898)">
	<stop  offset="0" style="stop-color:#FFFFFF"/>
	<stop  offset="1" style="stop-color:#FFFFFF;stop-opacity:0.6"/>
</linearGradient>
<path style="fill:url(#SVGID_00000096058368237691924490000014967775144578626492_);" d="M16,6.3L16,6.3l0,6.3l1.1,2.9l-1.1-1v3.1
	c0,0,0,0,0,0c1.8,2.3,4.1,4.2,6.8,5.6L16,6.3z"/>
<linearGradient id="SVGID_00000075122595547183323890000007325543699459544245_" gradientUnits="userSpaceOnUse" x1="12.608" y1="8.5408" x2="12.608" y2="25.4145" gradientTransform="matrix(1 0 0 -1 0 31.8898)">
	<stop  offset="0" style="stop-color:#FFFFFF"/>
	<stop  offset="1" style="stop-color:#FFFFFF;stop-opacity:0.6"/>
</linearGradient>
<path style="fill:url(#SVGID_00000075122595547183323890000007325543699459544245_);" d="M16,6.3L16,6.3l0,6.3l-1.1,2.9l1.1-1v3.1
	c0,0,0,0,0,0c-1.8,2.3-4.1,4.2-6.8,5.6L16,6.3z"/>
<path style="fill:#F5CC02;" d="M16,21.5c0.9,0,1.5-0.7,1.5-1.5c0-0.9-0.7-1.5-1.5-1.5c-0.9,0-1.5,0.7-1.5,1.5
	C14.5,20.8,15.1,21.5,16,21.5z"/>
</svg>
