<?xml version="1.0" encoding="UTF-8"?>
<svg viewBox="0 0 1024 1024"
  xmlns="http://www.w3.org/2000/svg">
  <path d="M118.784 323.84v376.32c0 24.192 12.672 46.08 33.792 58.368l326.016 188.16c20.736 11.904 46.464 11.904 67.2 0l326.016-188.16c20.736-11.904 33.792-34.176 33.792-58.368V323.84c0-24.192-12.672-46.08-33.792-58.368l-326.016-188.16c-20.736-11.904-46.464-11.904-67.2 0L152.576 265.472c-20.736 11.904-33.408 34.176-33.408 58.368h-0.384z" fill="#213147"></path>
  <path d="M583.04 584.96l-46.464 127.488c-1.152 3.456-1.152 7.296 0 11.136l79.872 219.264 92.544-53.376-110.976-304.512c-2.688-6.912-12.288-6.912-14.976 0zM676.352 370.688c-2.688-6.912-12.288-6.912-14.976 0l-46.464 127.488c-1.152 3.456-1.152 7.296 0 11.136l130.944 359.04 92.544-53.376-162.048-443.904v-0.384z" fill="#12AAFF"></path>
  <path d="M512 91.52c2.304 0 4.608 0.768 6.528 1.92l352.512 203.52c4.224 2.304 6.528 6.912 6.528 11.52v407.04c0 4.608-2.688 9.216-6.528 11.52l-352.512 203.52c-1.92 1.152-4.224 1.92-6.528 1.92s-4.608-0.768-6.528-1.92l-352.512-203.52c-4.224-2.304-6.528-6.912-6.528-11.52V308.096c0-4.608 2.688-9.216 6.528-11.52l352.512-203.52c1.92-1.152 4.224-1.92 6.528-1.92v0.384z m0-59.52c-12.672 0-24.96 3.072-36.48 9.6L123.008 245.12c-22.656 13.056-36.48 36.864-36.48 62.976v407.04c0 26.112 13.824 49.92 36.48 62.976l352.512 203.52c11.136 6.528 23.808 9.6 36.48 9.6s24.96-3.072 36.48-9.6l352.512-203.52c22.656-13.056 36.48-36.864 36.48-62.976V308.096c0-26.112-13.824-49.92-36.48-62.976L548.096 41.6c-11.136-6.528-23.808-9.6-36.48-9.6h0.384z" fill="#9DCCED"></path>
  <path d="M278.528 868.736l32.64-89.088 65.28 54.144-61.056 56.064z" fill="#213147"></path>
  <path d="M482.048 279.296H392.576c-6.528 0-12.672 4.224-14.976 10.368L185.984 814.976l92.544 53.376 211.2-578.688c1.92-5.376-1.92-10.752-7.296-10.752l-0.384 0.384zM638.72 279.296h-89.472c-6.528 0-12.672 4.224-14.976 10.368L315.392 889.472l92.544 53.376 238.08-653.184c1.92-5.376-1.92-10.752-7.296-10.752v0.384z" fill="#FFFFFF"></path>
</svg>
