<?xml version="1.0" encoding="UTF-8"?>
<svg viewBox="0 0 1024 1024" version="1.1" xmlns="http://www.w3.org/2000/svg" xmlns:xlink="http://www.w3.org/1999/xlink">
    <defs>
        <rect x="0" y="0" width="1024" height="1024" rx="28"></rect>
    </defs>
    <g stroke="none" stroke-width="1" fill="none" fill-rule="evenodd">
        <g transform="translate(-1307, -5728)" id="arbcircle">
            <g transform="translate(1307, 5728)" id="Protocol=Arbitrum-One,-Effect=None-Clipped">
                <g fill-rule="nonzero">
                    <circle fill="#000000" cx="512" cy="512" r="512"></circle>
                    <g transform="translate(219.4286, 182.8571)">
                        <path d="M366.598546,293.245189 L414.843606,213.491032 L544.885637,410.808794 L544.946853,448.676418 L544.522825,188.097584 C544.215256,181.726677 540.742413,175.898315 535.204674,172.45977 L301.080344,41.2670806 C295.606808,38.6445358 288.658134,38.6750813 283.193556,41.3499897 C282.454493,41.7121713 281.763209,42.1019895 281.100293,42.5310802 L280.283593,43.0314437 L53.0273117,171.325225 L52.1464097,171.719407 C51.0101956,172.224134 49.8665159,172.874316 48.7870378,173.621952 C44.4780835,176.629951 41.6158987,181.083768 40.6902051,186.074311 C40.5528441,186.830676 40.4468372,187.601584 40.4035387,188.381221 L40.7588857,400.727342 L161.887384,217.831393 C177.134453,193.579765 210.362373,185.763039 241.210366,186.19213 L277.409463,187.121584 L64.1072666,520.373853 L89.2502987,534.475666 L305.107112,187.460493 L400.517751,187.121584 L185.219341,542.894574 L274.938459,593.172378 L285.660081,599.173829 C290.194487,600.970192 295.538127,601.060374 300.111353,599.450194 L537.52488,465.413868 L492.133049,491.038588 L366.598546,293.245189 Z M385.003425,551.522935 L294.386982,412.962973 L349.706132,321.512819 L468.715986,504.258948 L385.003425,551.522935 Z" fill="#2D374B"></path>
                        <polygon fill="#28A0F0" points="294.360108 412.967338 384.98103 551.524389 468.690604 504.263312 349.679258 321.515728"></polygon>
                        <path d="M544.933416,448.679327 L544.872201,410.811703 L414.83017,213.493941 L366.58511,293.248099 L492.124091,491.041498 L537.515922,465.416777 C541.966716,461.896779 544.663173,456.725872 544.94536,451.149146 L544.933416,448.679327 Z" fill="#28A0F0"></path>
                        <path d="M0,484.389862 L64.0998014,520.372398 L277.400505,187.121584 L241.201406,186.19213 C210.359387,185.765948 177.131467,193.579765 161.878425,217.829939 L40.7514203,400.725886 L0,461.722233 L0,484.389862 Z" fill="#FFFFFF"></path>
                        <polygon fill="#FFFFFF" points="400.508793 187.121584 305.09666 187.460493 89.2413403 534.475666 164.69134 576.7942 185.205904 542.894574"></polygon>
                        <path d="M585.142857,186.641584 C584.347059,167.203045 573.541826,149.41105 556.621043,139.048871 L319.428487,6.1630906 C302.689856,-2.04781614 281.778139,-2.05945249 265.006663,6.15872697 C263.026873,7.1318176 34.3432318,136.340508 34.3432318,136.340508 C31.1779571,137.816871 28.1306335,139.576871 25.2639695,141.578324 C10.1587405,152.12814 0.949582448,168.517953 0,186.523767 L0,461.728051 L40.7514203,400.730251 L40.3945803,188.381221 C40.4438512,187.605948 40.5438857,186.837948 40.6827399,186.085948 C41.6039543,181.088131 44.4691251,176.634314 48.7780795,173.621952 C49.8575578,172.874316 282.441057,41.7121713 283.18161,41.3499897 C288.650668,38.6765358 295.594864,38.6445358 301.0684,41.2670806 L535.19273,172.45977 C540.730469,175.898315 544.203312,181.726677 544.509389,188.097584 L544.509389,451.141872 C544.2272,456.718597 541.96373,461.889505 537.512936,465.409505 L492.121104,491.034225 L468.699562,504.258948 L384.991481,551.520026 L300.097915,599.445829 C295.526182,601.056011 290.178063,600.965829 285.646643,599.169467 L185.207397,542.891664 L164.688353,576.789837 L254.953929,627.418185 C257.937051,629.072004 260.59618,630.53673 262.779026,631.73382 C266.1593,633.581093 268.463084,634.813093 269.275304,635.200002 C275.690959,638.235637 284.919526,640 293.238824,640 C300.862358,640 308.300754,638.637091 315.337518,635.952002 L561.916906,496.839314 C576.068074,486.155681 584.39633,470.04514 585.142857,452.594962 L585.142857,186.641584 Z" fill="#96BEDC"></path>
                    </g>
                </g>
            </g>
        </g>
    </g>
</svg>
