<?xml version="1.0" encoding="utf-8"?>
<!-- Generator: Adobe Illustrator 24.0.0, SVG Export Plug-In . SVG Version: 6.00 Build 0)  -->
<svg version="1.1" id="ant-web3-icon-arpa-circle-colorful-Layer_1" xmlns="http://www.w3.org/2000/svg" xmlns:xlink="http://www.w3.org/1999/xlink" x="0px" y="0px" viewBox="0 0 1000 1000" style="enable-background:new 0 0 1000 1000;" xml:space="preserve">

<g>
	<g>
		<g>
			<path id="ant-web3-icon-arpa-circle-colorful-SVGID_1_" d="M500,0c276.1,0,500,223.9,500,500s-223.9,500-500,500S0,776.1,0,500S223.9,0,500,0L500,0z" style="fill-rule: evenodd; clip-rule: evenodd; fill: #263145;"/>
		</g>
	</g>
	<g>
		<g>
			<polygon id="ant-web3-icon-arpa-circle-colorful-SVGID_3_" points="530.7,177 460.8,177 172,680 685.3,680 686.8,680 650,620 276,620 			" style="fill-rule: evenodd; clip-rule: evenodd; fill: #CCD9E2;"/>
		</g>
	</g>
	<g>
		<g>
			<polygon id="ant-web3-icon-arpa-circle-colorful-SVGID_5_" points="785.3,739 821,678.5 529.7,177 275,620 345,620 530.7,296.5 			" style="fill-rule: evenodd; clip-rule: evenodd; fill: #AAAAAA;"/>
		</g>
	</g>
	<g>
		<g>
			<polygon id="ant-web3-icon-arpa-circle-colorful-SVGID_7_" points="172,680 207.7,739 785.3,739 530.7,295.1 495.5,357.1 684.4,680 			" style="fill-rule: evenodd; clip-rule: evenodd; fill: #5A5967;"/>
		</g>
	</g>
</g>
</svg>
