<?xml version="1.0" encoding="UTF-8"?>
<svg viewBox="0 0 1024 1024"
  xmlns="http://www.w3.org/2000/svg">
    <g stroke="none" stroke-width="1" fill="none" fill-rule="evenodd">
        <g transform="translate(-1819, -5409)" fill="#E84142" id="arbcircle">
            <g transform="translate(1307, 5409)">
                <g transform="translate(512, 0)">
                    <path d="M1024,512.00056 C1024,794.772646 794.77258,1024 512.000415,1024 C229.230691,1024 4.23928933e-14,794.772646 4.23928933e-14,512.00056 C4.23928933e-14,229.229696 229.230691,3.02382789e-14 512.000415,3.02382789e-14 C794.77258,3.02382789e-14 1024,229.229696 1024,512.00056 Z M366.913867,715.750071 L267.548783,715.750071 C246.669201,715.750071 236.355749,715.750071 230.066851,711.72796 C223.275036,707.323779 219.124753,700.02905 218.621837,691.977504 C218.243429,684.559487 223.400765,675.500888 233.714217,657.388573 L479.05938,224.935375 C489.498561,206.571602 494.781626,197.389715 501.447712,193.993808 C508.616714,190.346444 517.169958,190.346444 524.33896,193.993808 C531.005046,197.389715 536.288112,206.571602 546.727292,224.935375 L597.16543,312.98115 L597.422992,313.430356 C608.698332,333.130765 614.415957,343.120736 616.912229,353.606299 C619.679491,365.052531 619.679491,377.127407 616.912229,388.573639 C614.396426,399.138546 608.737394,409.201757 597.291159,429.200009 L468.417567,657.011385 L468.084324,657.594866 C456.734523,677.457624 450.982719,687.525717 443.010515,695.119511 C434.331542,703.423736 423.892362,709.457512 412.446127,712.859522 C402.005725,715.750071 390.309253,715.750071 366.913867,715.750071 Z M617.843602,715.750071 L760.22148,715.750071 C781.226791,715.750071 791.794143,715.750071 798.086703,711.604672 C804.876077,707.200492 809.150868,699.776371 809.532938,691.732149 C809.894256,684.553384 804.849222,675.846338 794.964226,658.787461 C794.622438,658.206422 794.281871,657.615617 793.933979,657.013827 L722.616259,535.008987 L721.804513,533.635732 C711.782802,516.687937 706.72434,508.129813 700.226707,504.823015 C693.061366,501.17443 684.627748,501.17443 677.462408,504.823015 C670.92083,508.217701 665.638986,517.14813 655.199805,535.134716 L584.134764,657.139556 L583.89063,657.559467 C573.488069,675.517977 568.28923,684.491129 568.663976,691.854217 C569.166893,699.905762 573.317175,707.323779 580.10899,711.72796 C586.27338,715.750071 596.83829,715.750071 617.843602,715.750071 Z" id="形状"></path>
                </g>
            </g>
        </g>
    </g>
</svg>