<?xml version="1.0" encoding="UTF-8"?>
<svg viewBox="0 0 1024 1024" version="1.1" xmlns="http://www.w3.org/2000/svg" xmlns:xlink="http://www.w3.org/1999/xlink">
    <title>avalanche-avax-logo</title>
    <g id="avalanche-avax-logo" stroke="none" stroke-width="1" fill="none" fill-rule="evenodd">
        <g transform="translate(112, 112)">
            <rect id="矩形" fill="#FFFFFF" fill-rule="nonzero" x="152.596538" y="136.884154" width="494.274301" height="449.533955"></rect>
            <path d="M800,400 C800,620.916112 620.916112,800 400,800 C179.086019,800 0,620.916112 0,400 C0,179.086019 179.086019,0 400,0 C620.916112,0 800,179.086019 800,400 Z M286.651398,559.17976 L209.022636,559.17976 C192.710519,559.17976 184.652996,559.17976 179.74008,556.037284 C174.433555,552.596538 171.190945,546.89747 170.79787,540.60719 C170.502796,534.81225 174.532091,527.734754 182.589614,513.584554 L374.264714,175.731025 C382.420772,161.384288 386.547537,154.210919 391.755526,151.557923 C397.356591,148.708389 404.038881,148.708389 409.639947,151.557923 C414.847936,154.210919 418.975233,161.384288 427.130759,175.731025 L466.535286,244.516112 L466.736085,244.867111 C475.54514,260.258322 480.01225,268.063382 481.962716,276.255126 C484.124101,285.197337 484.124101,294.630626 481.962716,303.572836 C479.997337,311.826897 475.575499,319.688415 466.633289,335.312383 L365.950999,513.290013 L365.690546,513.745939 C356.823435,529.263915 352.329694,537.129161 346.101731,543.062583 C339.321438,549.549933 331.165379,554.263648 322.223169,556.921438 C314.067111,559.17976 304.928895,559.17976 286.651398,559.17976 Z M482.689747,559.17976 L593.92277,559.17976 C610.332889,559.17976 618.588549,559.17976 623.50466,555.941411 C628.809587,552.500666 632.149134,546.700399 632.447403,540.415446 C632.729694,534.806924 628.788282,528.005326 621.065246,514.677497 C620.798935,514.223702 620.532623,513.761917 620.260985,513.292144 L564.543276,417.976032 L563.909454,416.902796 C556.079893,403.66285 552.12783,396.976831 547.051931,394.392543 C541.454061,391.542477 534.865513,391.542477 529.267111,394.392543 C524.157124,397.045539 520.03036,404.02237 511.874301,418.074035 L456.354727,513.390679 L456.164581,513.718775 C448.037284,527.748069 443.975499,534.758988 444.268442,540.511318 C444.661518,546.801598 447.904128,552.596538 453.21012,556.037284 C458.025566,559.17976 466.279627,559.17976 482.689747,559.17976 Z" id="形状" fill="#555555"></path>
        </g>
    </g>
</svg>
