<?xml version="1.0" encoding="UTF-8"?>
<svg viewBox="0 0 1024 1024" version="1.1" xmlns="http://www.w3.org/2000/svg" xmlns:xlink="http://www.w3.org/1999/xlink">
    <title>avalanche-avax-logo</title>
    <g id="avalanche-avax-logo" stroke="none" stroke-width="1" fill="none" fill-rule="evenodd">
        <g id="avalanche-avax-logo备份" transform="translate(112, 157)" fill="#555555">
            <path d="M200.777922,710 L66.2623078,710 C37.9965668,710 24.0344389,710 15.5213064,704.554949 C6.3261266,698.59308 0.707311509,688.718158 0.0261870779,677.818828 C-0.485117712,667.777785 6.49686918,655.514423 20.4589971,630.996006 L352.594836,45.5884561 C366.727706,20.7294925 373.87859,8.30001072 382.903027,3.70309591 C392.608589,-1.2343653 404.187704,-1.2343653 413.893266,3.70309591 C422.917703,8.30001072 430.06951,20.7294925 444.201457,45.5884561 L512.481874,164.774155 L512.82982,165.38234 C528.094206,192.05109 535.834844,205.57512 539.214624,219.769167 C542.959885,235.263566 542.959885,251.60887 539.214624,267.103269 C535.809002,281.405295 528.146813,295.027151 512.651694,322.099204 L338.188777,630.485648 L337.737463,631.275642 C322.372477,658.16404 314.585693,671.792356 303.793839,682.07335 C292.044904,693.31415 277.912034,701.481726 262.416915,706.086947 C248.284044,710 232.449286,710 200.777922,710 Z" id="路径"></path>
            <path d="M540.474427,710 L733.21972,710 C761.655281,710 775.96074,710 784.47941,704.388829 C793.671821,698.42696 799.45861,688.376689 799.975452,677.486587 C800.464606,667.768556 793.634903,655.983251 780.252377,632.889776 C779.790911,632.103474 779.329444,631.303329 778.858749,630.48934 L682.310745,465.332647 L681.212455,463.473023 C667.645342,440.531825 660.797181,428.946788 652.001631,424.468926 C642.301607,419.530541 630.884927,419.530541 621.18398,424.468926 C612.329363,429.06584 605.178479,441.154776 591.045609,465.502458 L494.840936,630.660074 L494.511449,631.228574 C480.428417,655.537496 473.390131,667.685496 473.897744,677.652707 C474.578869,688.552038 480.197684,698.59308 489.391941,704.554949 C497.736176,710 512.038866,710 540.474427,710 Z" id="路径"></path>
        </g>
    </g>
</svg>
