<svg xmlns="http://www.w3.org/2000/svg" viewBox="0 0 1024 1024">
  <circle cx="512" cy="512" r="512" fill="#DD3F3D"/>
  <path fill="#FFF" fill-rule="nonzero" d="M497.228 128.275c-47.367 2.957-80.793 19.538-101.387 50.165-3.59 5.386-9.136 15.472-10.561 19.116l-.476 1.32 5.334-1.479c11.3-3.168 26.508-6.072 39.71-7.604 15.313-1.742 25.769-1.954 89.241-1.69 54.284.159 63.948.317 71.023 1.11 16.265 1.742 30.997 4.33 43.565 7.656 3.221.845 5.914 1.426 6.02 1.32.475-.422-6.442-13.412-9.928-18.693-19.907-30.152-50.957-46.627-95.842-50.693-8.607-.792-28.04-1.056-36.7-.528M437.768 244.5c-43.3 3.432-81.373 18.429-112.211 44.356-7.657 6.443-20.014 19.063-26.033 26.614-9.4 11.723-19.222 27.46-25.77 41.189-13.676 28.673-21.175 57.505-24.818 95.578-.898 9.188-1.32 156.146-.475 160.529 1.69 8.501 7.656 15.155 15.894 17.742 3.116 1.004 9.241 1.004 247.658 1.004h244.49l3.274-1.11c8.449-2.798 14.099-9.135 15.63-17.583.74-4.067.792-136.45.053-150.021-2.007-36.806-10.508-69.862-25.875-100.595-11.459-22.917-24.766-41.188-42.561-58.614-24.766-24.238-53.862-41.188-87.499-50.904-11.828-3.433-23.34-5.65-40.238-7.816-5.808-.739-132.7-1.056-141.519-.37m80.951 65.426c11.142 1.003 20.647 3.643 30.205 8.449 30.152 15.102 48.212 45.465 46.839 78.68-.898 21.65-9.188 40.502-24.66 56.027-12.304 12.356-25.453 19.538-42.773 23.287-4.753 1.003-7.076 1.162-16.634 1.162-9.452 0-11.881-.159-16.422-1.162-7.921-1.69-12.938-3.485-20.542-7.182-14.046-6.864-25.135-16.792-33.742-30.046-9.928-15.208-14.68-34.27-13.043-51.96 1.109-12.146 3.38-20.172 8.765-31.05 7.921-16 21.492-29.571 37.492-37.492 10.35-5.122 19.274-7.71 30.047-8.66 6.917-.634 7.868-.634 14.468-.053M265.94 687.274c-9.242 2.482-15.895 9.611-17.48 18.746-.422 2.377-.528 24.872-.422 76.78l.159 73.4 1.214 4.224c5.017 17.9 17.479 29.57 36.541 34.482 3.169.792 20.647.845 221.784 1.056 151.974.106 220.146 0 224.318-.423 20.858-1.953 36.964-15.26 42.455-35.115l1.215-4.225.158-73.663c.106-53.915 0-74.51-.422-76.833-1.795-9.188-9.188-16.792-18.376-18.693-2.007-.422-69.65-.58-245.546-.528-210.22 0-243.117.106-245.599.792"/>
</svg>
