<svg xmlns="http://www.w3.org/2000/svg" viewBox="0 0 1024 1024">
  <path fill="#DD3F3D" fill-rule="nonzero" d="M492.303.366C429.148 4.31 384.58 26.417 357.121 67.253c-4.788 7.182-12.18 20.63-14.081 25.488l-.634 1.76 7.111-1.971c15.067-4.225 35.345-8.097 52.946-10.14 20.419-2.323 34.36-2.604 118.989-2.252 72.379.211 85.263.422 94.698 1.478 21.685 2.324 41.33 5.774 58.086 10.21 4.295 1.126 7.886 1.9 8.027 1.76.633-.564-8.59-17.884-13.237-24.925-26.544-40.202-67.943-62.17-127.79-67.59C529.76.013 503.85-.339 492.304.365M413.025 155.333c-57.734 4.576-108.498 24.572-149.616 59.142-10.21 8.59-26.685 25.417-34.711 35.486-12.533 15.63-25.628 36.611-34.359 54.917-18.235 38.232-28.233 76.674-33.091 127.438-1.197 12.25-1.76 208.194-.634 214.038 2.253 11.336 10.21 20.207 21.193 23.657 4.154 1.338 12.321 1.338 330.21 1.338h325.987l4.365-1.479c11.265-3.731 18.799-12.18 20.84-23.445.986-5.422 1.057-181.933.071-200.028-2.675-49.074-14.011-93.149-34.5-134.126-15.278-30.557-33.02-54.918-56.748-78.152-33.021-32.317-71.816-54.918-116.665-67.873-15.771-4.576-31.12-7.533-53.65-10.42-7.745-.986-176.934-1.408-188.692-.493m107.934 87.235c14.856 1.338 27.53 4.858 40.273 11.265 40.203 20.136 64.282 60.62 62.452 104.907-1.197 28.867-12.251 54.002-32.88 74.702-16.406 16.476-33.937 26.051-57.03 31.05-6.337 1.338-9.435 1.549-22.179 1.549-12.603 0-15.842-.211-21.897-1.55-10.56-2.252-17.25-4.646-27.388-9.574-18.729-9.153-33.514-22.39-44.99-40.062-13.237-20.278-19.574-45.695-17.391-69.281 1.478-16.194 4.506-26.896 11.687-41.4 10.562-21.333 28.656-39.428 49.99-49.989 13.8-6.83 25.698-10.28 40.062-11.547 9.223-.845 10.49-.845 19.291-.07M183.919 745.7c-12.321 3.308-21.193 12.813-23.305 24.994-.563 3.168-.704 33.162-.563 102.372l.211 97.866 1.62 5.633c6.688 23.868 23.304 39.428 48.721 45.976 4.225 1.056 27.53 1.127 295.711 1.408 202.633.141 293.529 0 299.091-.563 27.811-2.605 49.285-20.348 56.608-46.821l1.619-5.633.211-98.218c.141-71.886 0-99.345-.563-102.443-2.394-12.25-12.25-22.39-24.502-24.924-2.675-.563-92.867-.774-327.394-.704-280.292 0-324.156.14-327.465 1.056"/>
</svg>
