<?xml version="1.0" encoding="UTF-8" standalone="no"?>
<svg viewBox="0 0 47.444706 47.444706" version="1.1" id="ant-web3-icon-band-circle-colorful-svg1" xmlns="http://www.w3.org/2000/svg" xmlns:svg="http://www.w3.org/2000/svg" xmlns:rdf="http://www.w3.org/1999/02/22-rdf-syntax-ns#ant-web3-icon-band-circle-colorful-" xmlns:cc="http://creativecommons.org/ns#ant-web3-icon-band-circle-colorful-">
  <defs id="ant-web3-icon-band-circle-colorful-defs1"/>
  <g id="ant-web3-icon-band-circle-colorful-Page-1" stroke="none" stroke-width="1" fill="none" fill-rule="evenodd" transform="translate(-0.08,-0.33411765)">
    <g id="ant-web3-icon-band-circle-colorful-BandWebsite_Desktop_UI_Home" transform="translate(-536,-4567)" fill-rule="nonzero">
      <g id="ant-web3-icon-band-circle-colorful-Logo2" transform="translate(536,4567)">
        <path d="m 23.802353,47.778824 v 0 C 10.701177,47.778824 0.08,37.157647 0.08,24.056471 v 0 C 0.08,10.955294 10.701177,0.33411765 23.802353,0.33411765 v 0 c 13.101176,0 23.722353,10.62117635 23.722353,23.72235335 v 0 C 47.52,37.157647 36.898823,47.778824 23.802353,47.778824 Z" id="ant-web3-icon-band-circle-colorful-Path" fill="#4520e6"/>
        <path d="m 31.703529,19.750588 c 0,-1.68 -0.823529,-3.167059 -2.089411,-4.08 l 3.41647,-3.41647 -2.042353,0.0094 -2.715294,2.715295 c -0.503529,-0.169412 -1.04,-0.258824 -1.6,-0.258824 H 17.327059 V 27.957647 L 28.578823,16.705882 c 1.011765,0.635294 1.689412,1.764706 1.689412,3.049412 0,1.981177 -1.614117,3.595294 -3.595294,3.595294 h -0.29647 L 13.854118,35.872941 h 2.032941 l 2.45647,-2.45647 h 8.329412 c 2.776471,0 5.030588,-2.258824 5.030588,-5.030589 0,-1.830588 -0.983529,-3.430588 -2.447058,-4.310588 1.463529,-0.889412 2.447058,-2.494117 2.447058,-4.324706 z m -12.941176,4.734118 v -8.329412 h 7.910588 c 0.136471,0 0.268235,0.0094 0.4,0.02353 z m 11.505882,3.891765 c 0,1.981176 -1.614117,3.595294 -3.595294,3.595294 h -6.894117 l 7.162352,-7.162353 c 1.854118,0.141176 3.327059,1.68 3.327059,3.567059 z" id="ant-web3-icon-band-circle-colorful-Shape" fill="#ffffff"/>
      </g>
    </g>
  </g>
  <metadata id="ant-web3-icon-band-circle-colorful-metadata1">
    <rdf:rdf>
      <cc:work rdf:about=""/>
    </rdf:rdf>
  </metadata>
</svg>
