<?xml version="1.0" encoding="UTF-8"?>
<svg viewBox="0 0 1024 1024"
  xmlns="http://www.w3.org/2000/svg">
    <g stroke="none" stroke-width="1" fill="none" fill-rule="evenodd">
        <g transform="translate(-1560, -5214)" fill="#004EFF" fill-rule="nonzero" id="形状结合">
            <path d="M2072,5214 C2354.76979,5214 2584,5443.23021 2584,5726 C2584,6008.76979 2354.76979,6238 2072,6238 C1789.23021,6238 1560,6008.76979 1560,5726 C1560,5443.23021 1789.23021,5214 2072,5214 Z M2072,5361.91111 C1881.64864,5361.91111 1725.41528,5507.9876 1709.28445,5694.15602 L2248.35556,5694.14222 L2248.35556,5756.72 L1709.18929,5756.72584 C1724.79012,5943.42717 1881.26772,6090.08889 2072,6090.08889 C2273.08074,6090.08889 2436.08889,5927.08074 2436.08889,5726 C2436.08889,5524.91926 2273.08074,5361.91111 2072,5361.91111 Z"></path>
        </g>
    </g>
</svg>