<svg id="Layer_1" data-name="Layer 1" xmlns="http://www.w3.org/2000/svg" viewBox="0 0 512 512"><title>bitforex</title><rect width="512" height="512" style="fill:#265fac"/><path d="M989.69-20c-4.92,53.68-58.11,46.94-58.11,46.94V-20H878.25V26.94H763.13V-20H710.91V26.8C658.46,30,655-19,655-19H602.56v2.16a95.35,95.35,0,0,0,92.73,95.32l15.13,0.41v66.86A102.31,102.31,0,0,0,812.72,248.06h16.65A102.63,102.63,0,0,0,931.69,145.74V78.51h15.77a94.43,94.43,0,0,0,94.43-94.43V-20h-52.2ZM878.5,140a57.45,57.45,0,1,1-114.88,1.84q0-.92,0-1.84V77.4H878.5V140Z" transform="translate(-566.22 190.08)" style="fill:#fff"/></svg>