<?xml version="1.0" encoding="utf-8"?>
<!-- Generator: Adobe Illustrator 26.0.1, SVG Export Plug-In . SVG Version: 6.00 Build 0)  -->
<svg version="1.1" id="ant-web3-icon-bico-colorful-Layer_1" xmlns="http://www.w3.org/2000/svg" xmlns:xlink="http://www.w3.org/1999/xlink" x="0px" y="0px" viewBox="0 0 200 200" style="enable-background:new 0 0 200 200;" xml:space="preserve">

<linearGradient id="ant-web3-icon-bico-colorful-SVGID_1_" gradientUnits="userSpaceOnUse" x1="0" y1="199.8898" x2="200" y2="-0.1102" gradientTransform="matrix(1 0 0 -1 0 199.8898)">
	<stop offset="0" style="stop-color:#8D3308"/>
	<stop offset="1" style="stop-color:#8D3308"/>
</linearGradient>
<rect width="200" height="200" style="fill: url(#ant-web3-icon-bico-colorful-SVGID_1_);"/>
<rect x="10" y="10" width="180" height="180"/>
<path d="M113,49.4c-3.7-2.1-8-3.4-12.5-3.4h-25C82.4,46,88,51.6,88,58.5v25V96h12.5c4.6,0,8.8-1.2,12.5-3.4
	c2.8-1.6,5.2-3.7,7.1-6.2c3.4-4.3,5.4-9.6,5.4-15.5C125.5,61.8,120.5,53.7,113,49.4z" style="fill: #D85111;"/>
<path d="M120.1,86.5c-2,2.5-4.4,4.6-7.1,6.2c-3.7,2.1-8,3.4-12.5,3.4H88V83.5v-25C88,51.6,82.4,46,75.5,46
	C68.6,46,63,51.6,63,58.5v25V96v37.5V146h12.5h31.2c2.2,0,4.2-0.2,6.2-0.6c14.3-2.9,25-15.5,25-30.6
	C138,102.3,130.7,91.5,120.1,86.5z" style="fill: #FFFFFF;"/>
</svg>
