<?xml version="1.0" encoding="utf-8"?>
<!-- Generator: Adobe Illustrator 24.0.0, SVG Export Plug-In . SVG Version: 6.00 Build 0)  -->
<svg version="1.1" id="Layer_1" xmlns="http://www.w3.org/2000/svg" xmlns:xlink="http://www.w3.org/1999/xlink" x="0px" y="0px"
	 viewBox="0 0 113 86" style="enable-background:new 0 0 113 86;" xml:space="preserve">
<style type="text/css">
	.st0{clip-path:url(#SVGID_2_);}
	.st1{fill:#FFFFFF;}
</style>
<g>
	<defs>
		<rect id="SVGID_1_" width="113" height="86"/>
	</defs>
	<clipPath id="SVGID_2_">
		<use xlink:href="#SVGID_1_"  style="overflow:visible;"/>
	</clipPath>
	<g class="st0">
		<path class="st1" d="M6,15.5c6.3,0,12.6,0,19,0c0,0.4,0,0.8,0,1.2c0,1.7-0.1,3.4,0,5.1c0.3,3.1,1.1,6.1,2.4,9
			c1.2,2.6,2.7,4.9,4.7,6.9c2.4,2.5,5.3,4.4,8.7,5.4c0.3,0.1,0.4,0.2,0.4,0.5c-0.1,1.6,0.2,3.1-0.2,4.7c-0.6,2.6-2.1,4.4-4.4,5.4
			c-1.1,0.5-2.2,0.7-3.4,0.7c-3.8,0-7.7,0-11.5,0c-1.8,0-3.5-0.3-5-1.4c-2.2-1.6-3.2-3.9-3.2-6.7c0-7.5,0-15.1,0-22.6
			c0-0.2,0-0.4,0-0.6c0-1.1-0.7-1.7-1.7-2c-2.6-0.8-4.5-2.6-5.7-5C6.1,16,6,15.8,6,15.7C6,15.7,6,15.6,6,15.5z M17.1,32.4
			c0,1.4,1,2.5,2.4,2.5c1.3,0,2.5-1.1,2.5-2.5c0-1.4-1.1-2.5-2.5-2.6C18.3,29.9,17,30.9,17.1,32.4z"/>
		<path class="st1" d="M38.1,32.4c0,1.2-1.1,2.3-2.3,2.3c-1.2,0-2.3-1.1-2.3-2.4c0-1.2,1.1-2.3,2.3-2.3
			C37.1,30.1,38.3,31.3,38.1,32.4z"/>
		<path d="M17.1,32.4c-0.1-1.5,1.2-2.5,2.4-2.5c1.4,0,2.5,1.2,2.5,2.6c0,1.4-1.2,2.5-2.5,2.5C18.1,34.9,17.1,33.8,17.1,32.4z"/>
		<path d="M109.8,58.3C109.8,58.3,109.8,58.3,109.8,58.3C109.9,58.3,109.9,58.3,109.8,58.3c0.2,0,0.2,0,0.3,0c0.1,0,0.3-0.1,0.4-0.1
			c0.1-0.1,0.1-0.1,0.2-0.2c0,0,0,0,0,0c1.1-0.7,1-1.8,1-2.9c0-5,0-10.1,0-15.1c0-1.6-0.2-3.2-0.7-4.8c-1.8-5.5-6.9-9.5-12.9-9.5
			c-6.4-0.1-12.8-0.1-19.2-0.1c-11,0-22,0-32.9-0.1c-0.1,0-0.3,0-0.4,0c-0.2,0-0.3-0.1-0.5-0.1c-0.2-0.5,0-0.8,0.5-1
			c0.2-0.1,0.3-0.1,0.5-0.2c3-1.5,5.1-4,6.4-7.1c0.5-1.1,0.9-2.3,1-3.5c0-1.4-0.7-2.2-2.1-2.2c-2.7,0-5.4,0-8.1-0.1
			c-0.3,0-0.5,0-0.8,0c0-0.3,0-0.5,0-0.8c0-1.3,0-2.6,0-3.8c0-0.6-0.1-1.2-0.2-1.7c-0.7-2.5-3.2-4.2-6.1-3.6c-2,0.4-3.8,2.3-3.9,4.3
			c-0.1,1.6-0.1,3.2-0.1,4.8c0,0.3,0,0.6,0,0.8h-9.5c0-0.3,0-0.6,0-0.9c0-1.4,0-2.8,0-4.2c-0.1-3.4-3.4-5.9-6.9-4.7
			c-2.1,0.7-3.5,2.8-3.5,5.1c0,1.3,0,2.6,0,3.9c0,0.3,0,0.5,0,0.8c-0.3,0-0.6,0-0.9,0c-2.7,0-5.4,0-8.1,0.1c-1.3,0-2.1,0.8-2,2.1
			c0.1,0.8,0.3,1.6,0.5,2.3c1.2,3.7,3.5,6.6,7,8.4c0.7,0.4,0.9,0.7,0.9,1.5c0,7.1,0,14.1,0,21.2c0,1,0.1,2,0.4,2.9
			c1.4,4.6,4.4,7.5,9,8.4c0.1,0,0.2,0.1,0.3,0.1c0,0,0.1,0,0.1,0c0,0,0.1,0,0.2,0c0.1,0,0.2,0,0.2,0.1c0,0,0,0,0,0
			c0.1,0,0.2,0,0.3,0c0.4,0,0.7,0,1.1,0c0.1,0,0.2,0,0.3,0c0.6,0,1.2,0,1.8,0c0.2,0,0.3,0,0.5,0h7.3c0,0,0,0,0,0c0.1,0,0.2,0,0.3,0
			c0,0,0,0,0,0c1,0,1.6,0.5,2.1,1.3c0.2,0.5,0.5,1.1,0.5,1.7c0,0.1,0,0.1,0,0.2c0,0.4,0,0.9,0,1.3c0,0.1,0,0.1,0,0.2
			c0.1,1.6,0.1,3.3,0.2,4.9c0.1,2.5,0.2,5,0.3,7.5c0.1,1.9,0.1,3.8,0.1,5.7c0.1,1.9,1.4,3.3,3.1,3.4c4,0,7.9,0,11.9,0
			c1.4,0,2.6-1,2.9-2.4c0.4-1.7,0.8-3.5,1.1-5.2c0.4-1.8,0.8-3.5,1.2-5.3c0.2,0,0.2-0.1,0.3-0.1c8.2,0,16.3,0,24.5,0
			c0.5,0,0.6,0.2,0.7,0.6c0.2,1.1,0.5,2.2,0.7,3.4c0.5,2.1,0.9,4.3,1.4,6.4c0.3,1.4,1.6,2.6,3,2.7c4,0,7.9,0,11.9,0
			c1.6,0,3-1.4,3.1-3.1c0.1-2,0.2-4,0.3-6.1c0.1-2.5,0.3-5,0.4-7.6c0.1-1.5,0.1-2.9,0.2-4.4c0.1-2.6,0.3-5.1,0.4-7.7
			c0.2-2.8,0.3-5.7,0.4-8.5c0.1-2.4,0.3-4.8,0.3-7.2c0-3.5-1.2-6.6-3.3-9.2c-0.1-0.1-0.2-0.3-0.3-0.5c0.2,0,0.3,0,0.4,0
			c4.3,0.6,7.7,4.6,7.7,9c0,5.3,0,10.5,0,15.8c0,1,0.1,2,0.9,2.7c0,0,0,0,0,0C108.7,58.2,109.2,58.3,109.8,58.3
			C109.8,58.3,109.8,58.3,109.8,58.3z M36.1,6.5c0-0.6,0.6-1.2,1.2-1.2c0.5,0,1.2,0.4,1.2,1c0,1.7,0,3.3,0,5h-2.4
			C36.1,9.6,36.1,8,36.1,6.5z M35.9,30.1c1.2,0,2.4,1.2,2.3,2.4c0,1.2-1.1,2.3-2.3,2.3c-1.2,0-2.3-1.1-2.3-2.4
			C33.6,31.2,34.7,30.1,35.9,30.1z M16.2,6.8c0-0.3,0-0.6,0.2-0.8c0.2-0.5,0.8-0.8,1.2-0.7c0.6,0.1,1,0.6,1,1.2c0,1.5,0,3,0,4.5
			c0,0.1,0,0.1-0.1,0.3h-2.2c0-0.2-0.1-0.3-0.1-0.5C16.2,9.5,16.2,8.1,16.2,6.8z M36.6,53.8c-1.1,0.5-2.2,0.7-3.4,0.7
			c-3.8,0-7.7,0-11.5,0c-1.8,0-3.5-0.3-5-1.4c-2.2-1.6-3.2-3.9-3.2-6.7c0-7.5,0-15.1,0-22.6c0-0.2,0-0.4,0-0.6c0-1.1-0.7-1.7-1.7-2
			c-2.6-0.8-4.5-2.6-5.7-5C6.1,16,6,15.8,6,15.7c0,0,0-0.1,0-0.2h19c0,0.4,0,0.8,0,1.2c0,1.7-0.1,3.4,0,5.1c0.3,3.1,1.1,6.1,2.4,9
			c1.2,2.6,2.7,4.9,4.7,6.9c2.4,2.5,5.3,4.4,8.7,5.4c0.3,0.1,0.4,0.2,0.4,0.5c-0.1,1.6,0.2,3.1-0.2,4.7C40.5,50.9,39,52.7,36.6,53.8
			z M98.2,41.4c-0.2,2.5-0.3,5-0.4,7.5c-0.2,3.2-0.3,6.4-0.5,9.6c-0.2,3.6-0.4,7.3-0.6,10.9c-0.1,2.2-0.3,4.4-0.4,6.6
			c-0.1,1.4-0.2,2.7-0.3,4.2h-9.2c-1.1-4.3-1.9-8.6-3-13c-0.3,0-0.5-0.1-0.7-0.1c-10.4,0-20.8,0-31.1,0c-0.8,0-0.8,0.1-1,0.8
			c-0.4,1.9-0.9,3.9-1.3,5.8c-0.4,1.8-0.8,3.7-1.2,5.5c-0.2,0.9-0.2,0.9-1,0.9c-2.6,0-5.1,0-7.6,0c-0.8,0-0.8,0-0.8-0.9
			c0-5-0.1-10-0.1-14.9c0-2.2,0-4.4-0.1-6.6c0-0.5,0.1-0.8,0.6-1c2.5-1.5,4.3-3.7,5.2-6.6c0.3-0.9,0.4-1.8,0.4-2.7
			c0-5.4,0-10.8,0-16.2c0-0.2,0-0.4,0-0.6c0-0.4,0.2-0.5,0.5-0.5c0.2,0,0.4,0,0.6,0c3.3,0,6.5,0,9.8,0v0h31.2v0.1c1.6,0,3.1,0,4.7,0
			c0.5,0,0.9,0.2,1.2,0.6c0.7,0.8,1.3,1.5,2,2.2C97.3,35.3,98.5,38.1,98.2,41.4z"/>
		<path d="M109.9,59.6L109.9,59.6L109.9,59.6h-0.1c-0.6,0-1.4-0.1-2.2-0.5l-0.5-0.2l-0.1-0.3c-0.9-1-1-2.3-1-3.4c0-4.7,0-9.4,0-14.1
			v-1.7c0-2.8-1.6-5.4-4-6.8c1.3,2.4,2,4.9,1.9,7.6c0,1.7-0.1,3.4-0.2,5c0,0.8-0.1,1.5-0.1,2.3l-0.1,3c-0.1,1.9-0.2,3.7-0.3,5.6
			c-0.1,1.5-0.2,2.9-0.3,4.4c-0.1,1.1-0.1,2.2-0.2,3.3c0,0.8-0.1,1.6-0.1,2.4c0,0.7-0.1,1.3-0.1,2c-0.1,1.5-0.2,2.9-0.2,4.4
			l-0.3,4.6c-0.1,1.5-0.2,3.1-0.2,4.6c-0.1,2.3-2.1,4.2-4.3,4.2c-4,0-7.9,0-11.9,0c-2,0-3.8-1.6-4.2-3.6c-0.3-1.4-0.6-2.9-0.9-4.3
			l-0.6-2.7c-0.2-0.8-0.3-1.5-0.5-2.3c-6.1,0-12.1,0-18.1,0H56l-0.2,0.7c-0.3,1.2-0.6,2.4-0.8,3.7c-0.1,0.7-0.3,1.3-0.4,2
			c-0.2,1.1-0.5,2.1-0.7,3.2c-0.5,2-2.2,3.4-4.1,3.4c-2.1,0-4.1,0-6.1,0c-2,0-3.9,0-5.8,0c-2.4,0-4.3-2-4.3-4.6c0-0.9,0-1.9-0.1-2.8
			c0-1,0-1.9-0.1-2.9c0-1.7-0.1-3.4-0.2-5.1l-0.3-7.5l0-0.1c0-0.4,0-0.8,0-1.2l0-0.1v-0.2c0-0.2-0.1-0.5-0.4-1.2
			c-0.2-0.4-0.5-0.6-1-0.6l-0.1,0c-0.1,0-0.2,0-0.2,0l-1.1,0h-6.2c-0.1,0-0.3,0-0.4,0l-0.1,0H23c-0.5,0-1,0-1.5,0h0h0
			c-0.1,0-0.1,0-0.2,0c-0.4,0-0.8,0-1.1,0l-0.8-0.1l-0.5-0.2c-5-1-8.4-4.1-9.9-9.2c-0.3-0.9-0.4-2-0.4-3.3c0-6.8,0-13.9,0-21.2
			c0-0.2,0-0.3,0-0.3c0,0-0.1,0-0.2-0.1c-3.7-1.9-6.2-4.9-7.6-9.1c-0.3-0.8-0.5-1.7-0.6-2.6c-0.1-0.9,0.2-1.8,0.8-2.4
			c0.6-0.6,1.5-1,2.4-1c2,0,4,0,6,0l1.8,0V9.9c0-1.1,0-2.2,0-3.2c0-2.9,1.7-5.4,4.3-6.3c2-0.7,4.1-0.4,5.8,0.8c1.6,1.2,2.6,3,2.7,5
			c0,1,0,2,0,2.9c0,0.3,0,0.6,0,1h7.1c0-0.4,0-0.8,0-1.2c0-1.1,0-2.2,0.1-3.3C31.3,3,33.4,0.7,36,0.1c3.3-0.7,6.6,1.3,7.5,4.5
			c0.2,0.6,0.2,1.2,0.3,2c0,0.9,0,1.7,0,2.6c0,0.3,0,0.6,0,0.8l2.9,0c1.6,0,3.2,0,4.8,0c1,0,1.9,0.3,2.5,0.9
			c0.6,0.6,0.9,1.5,0.8,2.5c0,1.5-0.6,2.8-1.1,4c-1.2,2.8-3,5-5.3,6.6l7.6,0c7.7,0,15.3,0,23,0c7.1,0,13.1,0,19.2,0.1
			c6.4,0.1,12,4.2,14,10.4c0.5,1.5,0.7,3.2,0.8,5.2c0,3.1,0,6.2,0,9.3c0,1.9,0,3.9,0,5.8c0,0.8,0,1.8-0.5,2.7L109.9,59.6z
			 M35.3,63.3l0.3,7.2c0.1,1.7,0.1,3.4,0.2,5.1c0,1,0,1.9,0.1,2.9c0,0.9,0,1.9,0.1,2.8c0,1.2,0.9,2.1,1.9,2.2c3.7,0,7.6,0,11.9,0
			c0.8,0,1.6-0.6,1.8-1.5c0.2-1.1,0.5-2.1,0.7-3.2c0.1-0.7,0.3-1.4,0.4-2c0.3-1.2,0.6-2.4,0.8-3.7l0.5-2.3l0.8-0.2
			c0.1,0,0.3-0.1,0.5-0.1h6c6.2,0,12.3,0,18.5,0c0,0,0,0,0,0c1,0,1.7,0.6,1.9,1.6c0.2,0.9,0.4,1.8,0.6,2.6l0.6,2.7
			c0.3,1.5,0.6,2.9,0.9,4.4c0.2,0.9,1,1.7,1.9,1.7c4,0,7.9,0,11.9,0c0.9,0,1.8-0.9,1.9-1.9c0.1-1.5,0.2-3.1,0.2-4.6l0.3-4.6
			c0.1-1.5,0.2-2.9,0.2-4.4c0-0.7,0.1-1.3,0.1-2c0-0.8,0.1-1.6,0.1-2.4c0.1-1.1,0.1-2.2,0.2-3.3c0.1-1.5,0.2-2.9,0.3-4.4
			c0.1-1.9,0.2-3.7,0.3-5.6l0.1-3c0-0.8,0.1-1.5,0.1-2.3c0.1-1.6,0.2-3.3,0.2-4.9c0-3-1-5.9-3-8.4c-0.1-0.1-0.2-0.3-0.3-0.4L97,29.4
			l2.2-0.2c0.1,0,0.3,0,0.5,0c4.8,0.7,8.8,5.2,8.8,10.2v1.7c0,4.7,0,9.4,0,14.1c0,0.8,0.1,1.3,0.4,1.7c0.2,0.1,0.4,0.1,0.6,0.1
			l0.4,0c0,0,0.1,0,0.1,0c0,0,0,0,0.1,0l0.1,0c0.5-0.3,0.5-0.7,0.5-1.8c0-2,0-3.9,0-5.9c0-3.1,0-6.2,0-9.3c0-1.7-0.2-3.1-0.6-4.4
			c-1.7-5.1-6.4-8.6-11.7-8.7c-6.1-0.1-12.1-0.1-19.2-0.1c-7.7,0-15.3,0-23,0l-9.9,0H46c-0.2,0-0.3,0-0.5,0c-0.2,0-0.3-0.1-0.5-0.1
			l-0.8-0.2L44,25.8c-0.4-1.1,0.1-2.1,1.2-2.5c0.1-0.1,0.3-0.1,0.4-0.2c2.6-1.4,4.6-3.5,5.9-6.5c0.4-1,0.8-2,0.9-3
			c0-0.4,0-0.6-0.2-0.7c-0.1-0.1-0.4-0.2-0.7-0.2c-1.6,0-3.2,0-4.8,0l-3.3,0c-0.2,0-0.4,0-0.6,0l-1.4-0.1l-0.1-1.4
			c0-0.2,0-0.4,0-0.6c0-0.4,0-0.9,0-1.3c0-0.8,0-1.7,0-2.5c0-0.4,0-1-0.2-1.4c-0.5-1.7-2.3-3.2-4.7-2.8c-1.5,0.3-2.9,1.8-3,3.2
			c-0.1,1-0.1,2.1-0.1,3.2c0,0.5,0,1,0,1.5c0,0.2,0,0.4-0.1,0.6l-0.1,1.4H21.4v-2.1c0-0.4,0-0.9,0-1.3c0-0.9,0-1.9,0-2.8
			c0-1.3-0.6-2.4-1.7-3.1c-1-0.7-2.4-0.9-3.6-0.5c-1.6,0.5-2.6,2.1-2.6,3.9c0,1.1,0,2.2,0,3.3v0.7c0,0.2,0,0.4,0,0.6l-0.1,1.4
			l-4.1,0c-2,0-4,0-6,0c-0.3,0-0.5,0.1-0.7,0.2c-0.1,0.1-0.1,0.4-0.1,0.6c0,0.7,0.3,1.4,0.5,2c1.1,3.5,3.3,6.1,6.3,7.6
			c1.1,0.6,1.6,1.4,1.6,2.6c0,7.3,0,14.4,0,21.2c0,1,0.1,1.9,0.3,2.6c1.3,4.2,3.9,6.7,8.1,7.5c0.2,0,0.4,0.1,0.5,0.2c0,0,0,0,0,0
			c0,0,0,0,0.1,0c0,0,0.1,0,0.1,0c0.1,0,0.1,0,0.2,0c0.3,0,0.6,0,1,0c0,0,0.1,0,0.2,0c0.5,0,1,0,1.6,0h0.2c0.2,0,0.4,0,0.6,0h8.5
			v0.1c1,0.2,1.8,0.9,2.3,1.9c0.2,0.5,0.6,1.3,0.6,2.1c0,0.1,0,0.2,0,0.4c0,0.4,0,0.8,0,1.2C35.3,63.1,35.3,63.2,35.3,63.3z
			 M19.3,59.6C19.3,59.6,19.4,59.6,19.3,59.6L19.3,59.6z M39.9,81.5c-1.5,0-2-0.6-2-2.1l-0.1-15.8c0-1.9,0-3.9-0.1-5.8
			c0-0.9,0.4-1.6,1.2-2.1c2.3-1.4,3.9-3.4,4.7-5.9c0.2-0.7,0.3-1.5,0.3-2.4c0-4.1,0-8.1,0-12.2v-4.1V31c0-0.1,0-0.2,0-0.4
			c0-0.7,0.2-1.1,0.5-1.3c0.2-0.2,0.6-0.5,1.3-0.5h2.5c2.3,0,4.6,0,7,0H56h32.4V29c1.1,0,2.3,0,3.4,0c0,0,0,0,0,0
			c0.9,0,1.6,0.3,2.1,1c0.6,0.7,1.3,1.4,2,2.2c2.6,2.6,3.8,5.8,3.5,9.4c-0.1,1.7-0.2,3.5-0.3,5.2l-0.6,11.8
			c-0.2,3.6-0.4,7.3-0.6,10.9c-0.1,1.8-0.2,3.6-0.3,5.5l-0.4,6.5H86l-0.2-0.9c-0.6-2.3-1.1-4.7-1.6-7c-0.4-1.7-0.8-3.4-1.2-5.1
			c-10.2,0-20.4,0-30.7,0c-0.3,1.2-0.5,2.4-0.8,3.6l-0.6,2.5c-0.4,1.7-0.8,3.4-1.2,5.2c-0.3,1.4-0.8,1.8-2.2,1.8L39.9,81.5z
			 M40.2,57.8c0,2,0,3.9,0.1,5.8L40.3,79h7.1c0.4-1.7,0.8-3.4,1.1-5.1l0.6-2.5c0.3-1.2,0.6-2.4,0.8-3.7c0.3-1.2,0.7-1.8,2.1-1.8
			c10.4,0,20.8,0,31.1,0c0.2,0,0.4,0,0.6,0l1.1,0.1l0.2,0.9c0.5,2,0.9,4,1.4,6c0.4,2,0.9,4,1.4,6H95l0.3-4.2
			c0.1-1.8,0.2-3.6,0.3-5.4c0.2-3.6,0.4-7.3,0.6-10.9l0.6-11.8c0.1-1.8,0.2-3.5,0.3-5.3c0.2-2.9-0.7-5.3-2.8-7.5
			c-0.7-0.8-1.5-1.5-2.1-2.3c-0.1-0.1-0.1-0.1-0.3-0.1c-1.6,0-3.1,0-4.7,0h-1.2v-0.1l-29.9,0c-2.6,0-5.2,0-7.8,0h-1.8v4
			c0,4.1,0,8.1,0,12.2c0,1.1-0.2,2.2-0.5,3.1C44.9,53.7,43,56.1,40.2,57.8z M45.6,31.3C45.6,31.3,45.6,31.3,45.6,31.3L45.6,31.3z
			 M21.7,55.7c-2.3,0-4.1-0.5-5.7-1.7c-2.5-1.8-3.7-4.4-3.8-7.7c0-5.3,0-10.6,0-15.8v-7c0-0.1,0-0.3,0-0.4c0-0.3-0.1-0.6-0.8-0.8
			c-2.8-0.9-4.9-2.8-6.4-5.6c-0.1-0.2-0.2-0.4-0.2-0.6c-0.1-0.3-0.1-0.6,0-0.7l0.2-1l1-0.1h20.2v2.4c0,0.5,0,1.1,0,1.6
			c0,1.2,0,2.3,0.1,3.4c0.2,2.8,1,5.7,2.3,8.5c1.1,2.5,2.6,4.8,4.4,6.6c2.5,2.6,5.1,4.2,8.1,5.1c1.3,0.4,1.3,1.4,1.3,1.7
			c0,0.5,0,1,0,1.5c0,1.1,0.1,2.2-0.2,3.4c-0.6,2.9-2.4,5-5.1,6.3c-1.1,0.5-2.3,0.8-3.9,0.8h-4.2C26.6,55.6,24.2,55.6,21.7,55.7
			C21.7,55.7,21.7,55.7,21.7,55.7z M7.9,16.7c1.1,1.6,2.5,2.7,4.3,3.2c2.1,0.7,2.5,2.2,2.5,3.1c0,0.2,0,0.4,0,0.5v6.9
			c0,5.3,0,10.5,0,15.8c0,2.4,0.9,4.3,2.7,5.7c1.1,0.8,2.5,1.2,4.3,1.2c2.4,0,4.9,0,7.3,0h4.2c1.2,0,2.1-0.2,2.9-0.5
			c2-0.9,3.3-2.4,3.7-4.6c0.2-0.9,0.2-1.8,0.1-2.8c0-0.3,0-0.7,0-1c-3.2-1-6.1-2.9-8.7-5.6c-2-2-3.6-4.5-4.9-7.3
			c-1.4-3.1-2.2-6.2-2.5-9.4c-0.1-1.2-0.1-2.5-0.1-3.6c0-0.5,0-1,0-1.5H7.9z M35.9,36L35.9,36c-0.9,0-1.8-0.4-2.5-1.1
			c-0.7-0.7-1-1.6-1-2.5c0-1.9,1.6-3.5,3.5-3.5c0,0,0,0,0,0c1,0,2,0.5,2.6,1.3c0.6,0.7,0.9,1.6,0.8,2.4C39.3,34.4,37.7,36,35.9,36z
			 M35.8,31.3c-0.5,0-1,0.5-1,1.1c0,0.2,0.1,0.5,0.3,0.7c0.2,0.2,0.5,0.4,0.8,0.4c0.5,0,1-0.5,1-1.1l0-0.1c0-0.2-0.1-0.4-0.2-0.6
			C36.5,31.5,36.1,31.3,35.8,31.3C35.8,31.3,35.8,31.3,35.8,31.3z M19.5,12.6h-4.2l-0.2-1.1c0-0.1-0.1-0.3-0.1-0.6
			c0-1.4,0-2.7,0-4.1c0-0.5,0.1-1,0.3-1.3c0.4-1,1.6-1.6,2.6-1.4c1.2,0.2,2,1.2,2,2.4c0,1.2,0,2.4,0,3.5l0,1c0,0.3-0.1,0.5-0.1,0.6
			L19.5,12.6z M17.5,6.5C17.5,6.5,17.5,6.5,17.5,6.5C17.5,6.5,17.5,6.5,17.5,6.5C17.5,6.5,17.5,6.5,17.5,6.5z M39.7,12.5h-4.8V9.9
			c0-1.2,0-2.3,0-3.4c0-1.3,1-2.3,2.3-2.4c0.6,0,1.3,0.2,1.8,0.6c0.5,0.4,0.7,1,0.8,1.6c0,1.2,0,2.4,0,3.6L39.7,12.5z"/>
		<path class="st1" d="M95.1,33c-0.7-0.7-1.4-1.5-2-2.2c-0.3-0.4-0.7-0.6-1.2-0.6c-1.1,0-2.2,0-3.2,0v-0.1H58.6c-0.3,0-0.5,0-0.8,0
			c-3.9,0-7.8,0-11.7,0c-0.2,0-0.4,0-0.6,0c-0.4,0-0.5,0.2-0.5,0.5c0,0.2,0,0.4,0,0.6c0,5.4,0,10.8,0,16.2c0,0.9-0.1,1.9-0.4,2.7
			c-0.9,2.8-2.6,5-5.2,6.6c-0.4,0.3-0.6,0.5-0.6,1c0,2.2,0,4.4,0.1,6.6c0,5,0.1,10,0.1,14.9c0,0.8,0,0.9,0.8,0.9c2.6,0,5.1,0,7.6,0
			c0.8,0,0.8,0,1-0.9c0.4-1.8,0.8-3.7,1.2-5.5c0.4-1.9,0.9-3.9,1.3-5.8c0.2-0.8,0.2-0.8,1-0.8c10.4,0,20.8,0,31.1,0
			c0.2,0,0.5,0,0.7,0.1c1,4.4,1.9,8.7,3,13c3.1,0,6.1,0,9.2,0c0.1-1.5,0.2-2.8,0.3-4.2c0.1-2.2,0.3-4.4,0.4-6.6
			c0.2-3.6,0.4-7.3,0.6-10.9c0.2-3.2,0.3-6.4,0.5-9.6c0.1-2.5,0.2-5,0.4-7.5C98.5,38.1,97.3,35.3,95.1,33z"/>
		<path d="M61.4,43.7c4.5,0,8.2-3.7,8.2-8.3S66,27,61.4,27c-4.5,0-8.2,3.7-8.2,8.3S56.9,43.7,61.4,43.7z"/>
		<path d="M84.9,60.2c3.8,0,6.9-3.1,6.9-7c0-3.9-3.1-7-6.9-7c-3.8,0-6.9,3.1-6.9,7C78,57.1,81.1,60.2,84.9,60.2z"/>
		<path d="M61.6,69.8c3.8-0.1,7.6,0.4,11.3,0.9c0.1,0,0.2,0,0.3,0c0.1-0.6,0.1-1.1,0.1-1.7c0-6.2-4.9-11.2-11-11.2
			c-6.1,0-11,5-11,11.2c0,1.1,0.2,2.1,0.4,3.1C54.3,69.6,58.3,69.9,61.6,69.8z"/>
		<path d="M66.8,26.5c-0.3,0-0.5,0-0.7-0.1c-1,1.1-1.5,2.3-1.5,3.7c0,3.7,4.1,6.7,9.2,6.7c5.1,0,9.2-3,9.2-6.7
			c0-1.3-0.5-2.6-1.4-3.6H66.8z"/>
		<path class="st1" d="M33.6,32.4c-0.1-1.5,1.2-2.5,2.4-2.5c1.4,0,2.5,1.2,2.5,2.6c0,1.4-1.2,2.5-2.5,2.5
			C34.6,34.9,33.6,33.8,33.6,32.4z"/>
		<path class="st1" d="M18.8,10.2c-1.1,0-2.2,0-3.3,0c0-0.2-0.1-0.4-0.1-0.6c0-1.7,0-1.2,0-3c0-0.4,0.1-0.8,0.2-1.1
			c0.3-0.6,1.2-1,1.8-0.9C18.3,4.8,19,5.4,19,6.3c0,1.9,0,1.6,0,3.6C19,9.9,18.9,10,18.8,10.2z"/>
		<path class="st1" d="M39,10.2c-1.1,0-2.2,0-3.3,0c0-0.2-0.1-0.4-0.1-0.6c0-1.7,0-1.2,0-3c0-0.4,0.1-0.8,0.2-1.1
			c0.3-0.6,1.2-1,1.8-0.9c0.9,0.1,1.5,0.8,1.5,1.6c0,1.9,0,1.6,0,3.6C39.1,9.9,39,10,39,10.2z"/>
	</g>
</g>
</svg>
