<?xml version="1.0" encoding="UTF-8"?>
<svg viewBox="0 0 1024 1024" version="1.1" xmlns="http://www.w3.org/2000/svg" xmlns:xlink="http://www.w3.org/1999/xlink">
    <title>bitcoin-btc-logo_Colorful</title>
    <g id="bitcoin-btc-logo_Colorful" stroke="none" stroke-width="1" fill="none" fill-rule="evenodd">
        <g id="bitcoin-btc-logo" transform="translate(194, 123)" fill="#F7931A" fill-rule="nonzero">
            <path d="M586.463816,312.76317 C598.695956,231.013508 536.429798,187.069987 451.285453,157.755289 L478.906899,47.0182165 L411.467916,30.2214924 L384.579437,138.043009 C366.850044,133.623135 348.643021,129.458484 330.547144,125.329865 L357.63088,16.7967241 L290.233952,-5.68726593e-14 L262.597487,110.701041 C247.926129,107.362114 233.516115,104.062222 219.535669,100.585174 L219.613772,100.236868 L126.614062,77.0235193 L108.674392,149.020632 C108.674392,149.020632 158.708409,160.484682 157.654018,161.1903 C184.963051,168.003273 189.901568,186.073113 189.081486,200.395668 L157.617971,326.551257 C159.498452,327.028676 161.93767,327.719281 164.629222,328.800228 C162.379253,328.241739 159.985094,327.632205 157.500816,327.037683 L113.399626,503.763603 C110.062223,512.056872 101.591045,524.502783 82.4978526,519.77664 C83.1737445,520.755498 33.4821784,507.549922 33.4821784,507.549922 L5.68434189e-14,584.711562 L87.7607969,606.579732 C104.087339,610.672319 120.086449,614.954073 135.842238,618.980603 L107.935416,730.987789 L175.296297,747.784513 L202.932762,636.966369 C221.335043,641.959746 239.193606,646.565784 256.676675,650.90759 L229.133332,761.203276 L296.575319,778 L324.479137,666.202998 C439.476872,687.957068 525.945965,679.186379 562.341988,575.217239 C591.669685,491.509861 560.882062,443.227536 500.382234,411.741936 C544.447377,401.584031 577.638171,372.614636 586.487847,312.772178 L586.46682,312.757165 L586.463816,312.76317 Z M432.202444,528.074754 C411.336184,611.634553 270.168628,566.464664 224.4,555.137722 L261.47686,407.009259 C307.24248,418.396148 454.010062,440.930138 432.205452,528.074754 L432.202444,528.074754 Z M452.648253,311.671531 C433.656757,387.639097 316.428003,349.04417 278.4,339.580429 L311.93894,205.305556 C349.966943,214.769296 472.431937,232.432549 452.654255,311.671531 L452.648253,311.671531 Z" id="形状"></path>
        </g>
    </g>
</svg>
