<?xml version="1.0" encoding="UTF-8"?>
<svg viewBox="0 0 1024 1024"
  xmlns="http://www.w3.org/2000/svg">
  <path d="M977.18386063 627.59992156c-64.0512 256.92409781-324.27395156 413.28234187-581.22708282 349.21334719C139.1104175 912.76113125-17.24876313 652.52339469 46.83147125 395.62083875c64.02497531-256.95219469 324.24585375-413.32167844 581.12031188-349.26954094 256.93533655 64.05213655 413.28515156 324.31797094 349.22552156 581.25424406l0.00468281-0.00562031h0.00281061z" fill="#F7931A"></path>
  <path d="M723.47693469 443.2565075c9.54567844-63.82267312-39.04437094-98.12885813-105.48761063-121.01619563l21.55457625-86.45244842-52.62673219-13.1131322-20.98232156 84.17654719c-13.83523875-3.45038063-28.04323875-6.70126875-42.16507312-9.92499563l21.134985-84.7328775-52.59395062-13.11219562-21.56581501 86.42435156c-11.44881937-2.60651719-22.69346343-5.18306343-33.60468282-7.89728813l0.06181407-0.27160969-72.57318937-18.12292688-13.99914188 56.20823439s39.04437094 8.95000969 38.22204844 9.50072156c21.31012688 5.31980531 25.16417531 19.42665375 24.52448812 30.60760969l-24.55352155 98.49131718c1.46762906 0.37182469 3.3717075 0.91129781 5.47153124 1.75516125-1.75609781-0.43551187-3.624585-0.91223437-5.56331719-1.37678062L354.31712937 592.37307313c-2.60464406 6.474615-9.216 16.19075156-24.1152 12.50154187 0.52823438 0.76331719-38.25014625-9.54567844-38.25014626-9.54567845l-26.12698498 60.24117095 68.48499468 17.0720775c12.74037094 3.1946925 25.22505375 6.53736562 37.51960969 9.68148375l-21.77654625 87.4442925 52.56585374 13.11313125 21.56581407-86.51613656a2004.20089781 2004.20089781 0 0 0 41.94029344 10.8831225l-21.49463439 86.10965811 52.62954095 13.1121947 21.77561063-87.28038938c89.73892687 16.98403875 157.21521938 10.13666343 185.61810656-71.0325075 22.8864-65.35118062-1.13982469-103.04499469-48.35121938-127.62661499 34.38673125-7.93006875 60.288-30.54673125 67.19344407-77.26548281l-0.01592157-0.01217532-0.00280968 0.00468281z m-120.23883 168.6069075c-16.26474187 65.35118062-126.29572687 30.02411719-161.96932688 21.1658925l28.89927844-115.84905375c35.67172687 8.90505375 150.0672 26.52878062 133.07192156 94.68316125h-0.00280968z m16.27504406-169.55379563c-14.83551187 59.4432-106.41576562 29.24394188-136.12331719 21.83836125l26.20003969-105.06801937c29.70848812 7.40464406 125.37787313 21.22677094 109.92702375 83.22965812h-0.00374625z" fill="#FFFFFF"></path>
</svg>
