<?xml version="1.0" encoding="UTF-8"?>
<svg viewBox="0 0 1024 1024"
  xmlns="http://www.w3.org/2000/svg">
  <g stroke="none" stroke-width="1" fill="none" fill-rule="evenodd">
    <circle fill="#000000" cx="513" cy="512" r="512"></circle>
    <g fill="#FFFFFF">
      <rect fill-opacity="0" x="0" y="0" width="1024" height="1024"></rect>
      <path d="M748.7587,449.879542 C758.641651,383.260901 708.340375,347.449477 639.558066,323.558506 L661.870059,233.315911 L607.393854,219.625271 L585.671694,307.489736 C571.351403,303.892142 556.642226,300.497197 542.026428,297.133246 L563.903435,208.689447 L509.457963,195 L487.131786,285.211601 C475.277208,282.48897 463.640127,279.798523 452.344649,276.966225 L452.407298,276.684902 L377.279851,257.769527 L362.788167,316.439611 C362.788167,316.439611 403.206492,325.779285 402.353067,326.35862 C424.416834,331.912359 428.403819,346.635309 427.737154,358.306624 L402.322333,461.113376 C403.842423,461.504368 405.812867,462.067012 407.985438,462.943166 C406.169839,462.490189 404.23013,461.988337 402.228954,461.504368 L366.604941,605.520124 C363.905186,612.279019 357.062415,622.417365 341.640472,618.56825 C342.183024,619.366922 302.043659,608.602752 302.043659,608.602752 L275,671.481948 L345.891052,689.301833 C359.078958,692.6336 372.004453,696.122715 384.726638,699.407993 L362.182968,790.684089 L416.596525,804.373537 L438.923884,714.067765 C453.787908,718.136215 468.218128,721.891159 482.337473,725.426764 L460.086944,815.310554 L514.563149,829 L537.108002,737.896749 C630.000173,755.622463 699.853403,748.472576 729.255211,663.752726 C752.947814,595.537936 728.075545,556.190906 679.200978,530.532133 C714.794258,522.255762 741.605056,498.646113 748.7587,449.879542 Z M624.290969,625.875488 C607.456503,694.089086 493.554935,657.213166 456.627144,647.966471 L486.541952,527.043015 C523.469743,536.3362 641.885482,554.735419 624.290969,625.875488 Z M641.140803,448.893721 C625.780327,510.943253 530.979179,479.418423 500.22631,471.689201 L527.347982,362.015077 C558.10085,369.744299 657.137211,384.168047 641.140803,448.893721 Z" fill-rule="nonzero"></path>
    </g>
  </g>
</svg>