<?xml version="1.0" encoding="UTF-8"?>
<svg viewBox="0 0 1024 1024"
  xmlns="http://www.w3.org/2000/svg">
    <g stroke="none" stroke-width="1" fill="none" fill-rule="evenodd">
      <g>
        <rect fill-opacity="0" fill="#FFFFFF" x="0" y="0" width="1024" height="1024"></rect>
        <path d="M774.620197,443.020816 C785.605878,369.046805 729.692038,329.281438 653.235071,302.752663 L678.036614,202.546375 L617.48201,187.344149 L593.336115,284.909738 C577.41798,280.914934 561.067569,277.145152 544.820956,273.409787 L569.138976,175.2009 L508.618536,160 L483.801227,260.171872 C470.623928,257.148635 457.688393,254.161136 445.132578,251.016123 L445.202217,250.70374 L361.69213,229.699917 L345.583478,294.84777 C345.583478,294.84777 390.511638,305.218639 389.562988,305.861937 C414.088607,312.028865 418.520456,328.377378 417.779405,341.337324 L389.528825,455.494979 C391.218525,455.92914 393.408829,456.553906 395.823813,457.526796 C393.805632,457.023806 391.649492,456.466545 389.425026,455.92914 L349.826124,615.845689 C346.825133,623.350836 339.218853,634.608557 322.076146,630.334461 C322.679235,631.221314 278.061162,619.268671 278.061162,619.268671 L248,689.090365 L326.801001,708.877745 C341.4604,712.577373 355.828108,716.451722 369.969821,720.099727 L344.910752,821.453626 L405.395716,836.654527 L430.214338,736.378086 C446.736874,740.895734 462.777203,745.065261 478.47197,748.991233 L453.73875,848.799101 L514.293353,864 L539.353737,762.838031 C642.610718,782.520843 720.258098,774.581535 752.940529,680.507759 C779.276728,604.761367 751.629238,561.070029 697.301298,532.578267 C736.866039,523.388102 766.668357,497.171709 774.620197,443.020816 Z M636.264487,638.448491 C617.551649,714.193559 490.941064,673.246165 449.892909,662.978542 L483.14558,528.703916 C524.193735,539.023162 655.822178,559.45384 636.264487,638.448491 Z M654.994409,441.92615 C637.920026,510.826577 532.541066,475.821088 498.356825,467.238482 L528.504704,345.455227 C562.688945,354.037833 672.775679,370.054109 654.994409,441.92615 Z" fill="#000000" fill-rule="nonzero"></path>
      </g>
  </g>
</svg>
