<?xml version="1.0" encoding="UTF-8"?>
<svg width="1024px" height="1024px" viewBox="0 0 1024 1024" version="1.1" xmlns="http://www.w3.org/2000/svg" xmlns:xlink="http://www.w3.org/1999/xlink">
    <title>bitcoin-btc-logo_Circle Filled</title>
    <g id="bitcoin-btc-logo_Circle-Filled" stroke="none" stroke-width="1" fill="none" fill-rule="evenodd">
        <g id="bnb-bnb-logo" transform="translate(112, 112)">
            <path d="M400,0 C620.929487,0 800,179.070513 800,400 C800,620.929487 620.929487,800 400,800 C179.070513,800 0,620.929487 0,400 C0,179.070513 179.070513,0 400,0 L400,0 Z" id="路径" fill="#555555"></path>
            <path d="M219.839744,400 L220.128205,505.769231 L310,558.653846 L310,620.576923 L167.532051,537.019231 L167.532051,369.070513 L219.839744,400 L219.839744,400 Z M219.839744,294.230769 L219.839744,355.865385 L167.5,324.903846 L167.5,263.269231 L219.839744,232.307692 L272.435897,263.269231 L219.839744,294.230769 L219.839744,294.230769 Z M347.532051,263.269231 L399.871795,232.307692 L452.467949,263.269231 L399.871795,294.230769 L347.532051,263.269231 L347.532051,263.269231 Z" id="形状" fill="#FFFFFF" fill-rule="nonzero"></path>
            <path d="M257.660256,483.846154 L257.660256,421.923077 L310,452.884615 L310,514.519231 L257.660256,483.846154 L257.660256,483.846154 Z M347.532051,580.833333 L399.871795,611.794872 L452.467949,580.833333 L452.467949,642.467949 L399.871795,673.429487 L347.532051,642.467949 L347.532051,580.833333 L347.532051,580.833333 Z M527.532051,263.269231 L579.871795,232.307692 L632.467949,263.269231 L632.467949,324.903846 L579.871795,355.865385 L579.871795,294.230769 L527.532051,263.269231 L527.532051,263.269231 L527.532051,263.269231 Z M579.871795,505.769231 L580.160256,400 L632.5,369.038462 L632.5,536.987179 L490.032051,620.544872 L490.032051,558.621795 L579.871795,505.769231 L579.871795,505.769231 L579.871795,505.769231 Z" id="形状" fill="#FFFFFF" fill-rule="nonzero"></path>
            <polygon id="路径" fill="#FFFFFF" fill-rule="nonzero" points="542.339744 483.846154 490 514.519231 490 452.884615 542.339744 421.923077"></polygon>
            <path d="M542.339744,316.153846 L542.628205,378.076923 L452.5,430.961538 L452.5,536.987179 L400.160256,567.660256 L347.820513,536.987179 L347.820513,430.961538 L257.692308,378.076923 L257.692308,316.153846 L310.25641,285.192308 L399.839744,338.333333 L489.967949,285.192308 L542.564103,316.153846 L542.339744,316.153846 L542.339744,316.153846 Z M257.660256,210.416667 L399.871795,126.570513 L542.339744,210.416667 L490,241.378205 L399.871795,188.237179 L310,241.378205 L257.660256,210.416667 L257.660256,210.416667 Z" id="形状" fill="#FFFFFF" fill-rule="nonzero"></path>
        </g>
    </g>
</svg>