<?xml version="1.0" encoding="UTF-8"?>
<svg viewBox="0 0 1024 1024" version="1.1" xmlns="http://www.w3.org/2000/svg" xmlns:xlink="http://www.w3.org/1999/xlink">
    <title>bnb-bnb-logo_CircleColorful</title>
    <g id="bnb-bnb-logo_CircleColorful" stroke="none" stroke-width="1" fill="none" fill-rule="evenodd">
        <g id="bnb-bnb-logo" transform="translate(172, 112)" fill="#F0B90B" fill-rule="nonzero">
            <path d="M76.5398401,400 L76.9616763,554.729809 L208.387097,632.094713 L208.387097,722.681983 L0.046870692,600.445434 L0.046870692,354.753253 L76.5398401,400 L76.5398401,400 Z M76.5398401,245.270191 L76.5398401,335.435471 L0,290.141836 L0,199.976556 L76.5398401,154.682921 L153.454646,199.976556 L76.5398401,245.270191 L76.5398401,245.270191 Z M263.272677,199.976556 L339.812517,154.682921 L416.727323,199.976556 L339.812517,245.270191 L263.272677,199.976556 L263.272677,199.976556 Z" id="形状"></path>
            <path d="M131.847257,522.658539 L131.847257,432.071269 L208.387097,477.364904 L208.387097,567.530184 L131.847257,522.658539 L131.847257,522.658539 Z M263.272677,664.541085 L339.812517,709.83472 L416.727323,664.541085 L416.727323,754.706365 L339.812517,800 L263.272677,754.706365 L263.272677,664.541085 L263.272677,664.541085 Z M526.498484,199.976556 L603.038324,154.682921 L679.953129,199.976556 L679.953129,290.141836 L603.038324,335.435471 L603.038324,245.270191 L526.498484,199.976556 L526.498484,199.976556 L526.498484,199.976556 Z M603.038324,554.729809 L603.46016,400 L680,354.706365 L680,600.398546 L471.659774,722.635096 L471.659774,632.047826 L603.038324,554.729809 L603.038324,554.729809 L603.038324,554.729809 Z" id="形状"></path>
            <polygon id="路径" points="548.152743 522.658539 471.612903 567.530184 471.612903 477.364904 548.152743 432.071269"></polygon>
            <path d="M548.152743,277.341461 L548.57458,367.928731 L416.774194,445.293635 L416.774194,600.398546 L340.234353,645.270191 L263.694513,600.398546 L263.694513,445.293635 L131.894127,367.928731 L131.894127,277.341461 L208.762062,232.047826 L339.765647,309.787833 L471.566033,232.047826 L548.480838,277.341461 L548.152743,277.341461 L548.152743,277.341461 Z M131.847257,122.658539 L339.812517,0 L548.152743,122.658539 L471.612903,167.952174 L339.812517,90.2121674 L208.387097,167.952174 L131.847257,122.658539 L131.847257,122.658539 Z" id="形状"></path>
        </g>
    </g>
</svg>
