<?xml version="1.0" encoding="UTF-8"?>
<svg viewBox="0 0 1024 1024"
  xmlns="http://www.w3.org/2000/svg">
  <path d="M512 32c265.115385 0 480 214.884615 480 480s-214.884615 480-480 480S32 777.115385 32 512 246.884615 32 512 32z" fill="#F0B90B"></path>
  <path d="M295.8076925 512l0.34615406 126.92307655 107.84615344 63.46153876v74.30769281l-170.96153814-100.26923157v-201.53846155l62.76923064 37.115385z m0-126.92307655v73.9615378l-62.8076925-37.15384594V347.92307655l62.8076925-37.15384592L358.92307719 347.92307655 295.8076925 385.07692345z m153.23076938-37.15384688l62.80769156-37.15384594 63.1153847 37.15384594-63.1153847 37.15384688-62.80769156-37.15384688z" fill="#FFFFFF"></path>
  <path d="M341.1923075 612.61538469v-74.30769281l62.8076925 37.15384687v73.9615378l-62.8076925-36.80769186z m107.84615438 116.38461562l62.80769156 37.15384594 63.1153847-37.15384594v73.96153781l-63.1153847 37.15384688-62.80769156-37.15384688v-73.96153781z m216-381.07692376l62.80769156-37.15384593 63.11538468 37.15384595v73.96153874l-63.11538468 37.15384594V385.07692345l-62.80769156-37.15384688z m62.80769156 291.00000002l0.34615406-126.92307657 62.8076925-37.15384594v201.53846156l-170.96153814 100.26923063v-74.30769281l107.80769158-63.42307689z" fill="#FFFFFF"></path>
  <path d="M682.8076925 612.61538469l-62.8076925 36.80769188V575.46153875l62.8076925-37.15384688v74.30769282z" fill="#FFFFFF"></path>
  <path d="M682.8076925 411.38461531l0.34615406 74.30769281-108.15384656 63.46153782v127.23076968l-62.8076925 36.80769188-62.80769251-36.80769188v-127.23076968l-108.15384562-63.46153781V411.38461531l63.07692282-37.15384593 107.50000031 63.76923093 108.15384562-63.76923093 63.11538469 37.15384593h-0.26923031zM341.1923075 284.49999969l170.65384594-100.61538469 170.96153906 100.61538469-62.8076925 37.15384687-108.15384656-63.76923094-107.84615344 63.76923094-62.8076925-37.15384687z" fill="#FFFFFF"></path>
</svg>
