<?xml version="1.0" encoding="utf-8"?>
<!-- Generator: Adobe Illustrator 24.0.0, SVG Export Plug-In . SVG Version: 6.00 Build 0)  -->
<svg version="1.1" id="ant-web3-icon-bzrx-colorful-Layer_1" xmlns="http://www.w3.org/2000/svg" xmlns:xlink="http://www.w3.org/1999/xlink" x="0px" y="0px" viewBox="0 0 80 80" enable-background="new 0 0 80 80" xml:space="preserve">

<linearGradient id="ant-web3-icon-bzrx-colorful-SVGID_1_" gradientUnits="userSpaceOnUse" x1="74.8" y1="7.2" x2="10.8" y2="71.2" gradientTransform="matrix(1 0 0 -1 0 82)">
	<stop offset="0.1594" stop-color="#003CDA"/>
	<stop offset="1" stop-color="#33DFCC"/>
</linearGradient>
<path d="M0,16C0,7.2,7.2,0,16,0h48c8.8,0,16,7.2,16,16v48c0,8.8-7.2,16-16,16H16C7.2,80,0,72.8,0,64V16z" fill=" url(#ant-web3-icon-bzrx-colorful-SVGID_1_)"/>
<path d="M32,0h-8v18.4h8V0z" fill=" #FFFFFF"/>
<path d="M45.5,56.7H34.9c-6,0-10.9-4.9-10.9-10.9V38h8v7.7c0,1.6,1.3,2.9,2.9,2.9h10.6c1.6,0,2.9-1.3,2.9-2.9V35.2
	c0-1.6-1.3-2.9-2.9-2.9H0v-8h45.5c6,0,10.9,4.9,10.9,10.9v10.6C56.4,51.8,51.5,56.7,45.5,56.7z" fill=" #FFFFFF"/>
</svg>
