<?xml version="1.0" encoding="utf-8"?>
<!-- Generator: Adobe Illustrator 26.0.1, SVG Export Plug-In . SVG Version: 6.00 Build 0)  -->
<svg version="1.1" id="Layer_1" xmlns="http://www.w3.org/2000/svg" xmlns:xlink="http://www.w3.org/1999/xlink" x="0px" y="0px"
	 viewBox="0 0 844.6 844.7" style="enable-background:new 0 0 844.6 844.7;" xml:space="preserve">
<style type="text/css">
	.st0{fill:#FFFFFF;}
	.st1{fill:url(#SVGID_1_);}
	.st2{fill:#EFC700;}
	.st3{display:none;}
	.st4{display:inline;fill:#423F4C;}
	.st5{display:inline;}
	.st6{fill:#423F4C;}
	.st7{opacity:0.51;fill:#383642;enable-background:new    ;}
	.st8{font-family:'ArialMT';}
	.st9{font-size:7.4647px;}
	.st10{fill:#79777F;}
	.st11{fill:#8F8C99;}
	.st12{fill:#2B293A;}
	.st13{fill:#595563;}
	.st14{fill:#FEFEFE;}
	.st15{fill:#643747;}
	.st16{fill:#F38181;}
	.st17{fill:#DD6B6B;}
	.st18{display:inline;fill:#595563;}
	.st19{clip-path:url(#SVGID_00000055689539932778511430000013934807047875748020_);fill:#FEFEFE;}
	.st20{clip-path:url(#SVGID_00000176746924489059800820000004151622772703205822_);}
	.st21{fill:url(#SVGID_00000147917487418964773840000004493021537748092058_);}
	.st22{display:none;opacity:0.5;fill:url(#SVGID_00000181784294987931146650000012685754665913836178_);enable-background:new    ;}
	.st23{opacity:0.45;}
	.st24{fill:#FFE600;}
	.st25{fill:#FFFBDE;}
	.st26{fill:none;stroke:#000000;stroke-miterlimit:10;}
	.st27{display:inline;opacity:0.85;}
	.st28{clip-path:url(#SVGID_00000119110602850762128150000013181054902278891449_);fill:#2B293A;}
	.st29{clip-path:url(#SVGID_00000177448073693030246290000009284140806542812545_);}
	.st30{fill:url(#SVGID_00000071543085423764624130000005097640495034236553_);}
	.st31{opacity:0.3;fill:url(#SVGID_00000115476760214700024020000002348481263586257321_);enable-background:new    ;}
	.st32{display:inline;fill:#FFFBDE;}
	.st33{opacity:0.85;}
	.st34{clip-path:url(#SVGID_00000009561337992923414290000006538414706476469928_);fill:#2B293A;}
	.st35{clip-path:url(#SVGID_00000142144887947080398790000013141996636363812534_);}
	.st36{fill:url(#SVGID_00000146467369615204206160000006250379733675455131_);}
	.st37{opacity:0.3;fill:url(#SVGID_00000040536491671964836880000006774919522757186222_);enable-background:new    ;}
</style>
<g>
	<g>
		<path class="st0" d="M776.4,192.1c-2.4-18.6-5.9-36.2-10.4-52.3c-11.7-42.2-30.6-76.2-56-101l-3.8-3.8l-5.2-1.5
			c-15.4-4.4-46.8-3.5-86.2,12.9C555.6,16,489.2,0,422.3,0c-67,0-133.4,16-192.6,46.4c-39.4-16.4-70.8-17.3-86.2-12.9l-5.2,1.5
			l-3.8,3.7c-25.4,24.8-44.3,58.8-56,101.1c-4.5,16.2-8,33.8-10.4,52.5C23.5,260.8,0,340.3,0,422.4c0,57,11.2,112.3,33.2,164.4
			c21.3,50.3,51.7,95.5,90.5,134.2c38.8,38.8,83.9,69.2,134.2,90.5c52.1,22,107.4,33.2,164.4,33.2s112.3-11.2,164.4-33.2
			c50.3-21.3,95.5-51.7,134.2-90.5c38.8-38.8,69.2-83.9,90.5-134.2c22-52.1,33.2-107.4,33.2-164.4
			C844.6,340.1,821,260.6,776.4,192.1z"/>
		
			<linearGradient id="SVGID_1_" gradientUnits="userSpaceOnUse" x1="15" y1="420.1898" x2="829.6" y2="420.1898" gradientTransform="matrix(1 0 0 -1 0 842.4899)">
			<stop  offset="0" style="stop-color:#FFC900"/>
			<stop  offset="1" style="stop-color:#FF9700"/>
		</linearGradient>
		<circle class="st1" cx="422.3" cy="422.3" r="407.3"/>
		<path class="st2" d="M830.4,421.7c0-98.8-35.2-189.3-93.7-259.9l-68.1-42.1l-46.5,49L172.9,680.1L382.3,827c13.4,1.3,27,2,40.7,2
			C648,829,830.4,646.6,830.4,421.7z"/>
	</g>
	<g class="st3">
		<path class="st4" d="M158.9,266c-1.5,11.5-10.5,18.2-18.6,23.3C106.1,310.9,72,332.4,37.8,354c20.6,6.1,41.2,12.1,61.9,18.2
			c-23.7,12.9-47.4,25.7-71,38.6c13.1,9.3,26.2,18.6,39.4,28c-14.5,2.4-29,4.8-43.5,7.2c43.5,69.7,87,139.4,130.5,209"/>
		<path class="st5" d="M123.5,306.9c8.4-5.3,17.1-10.2,25.1-16.1c7.8-5.8,14.6-13.3,16-23.2c0.4-3.1-0.8-6.6-4.2-7.4
			c-2.8-0.6-6.9,0.9-7.4,4.2c-0.3,1.8-0.7,3.6-1.3,5.3c-0.1,0.2-0.2,0.5-0.3,0.7c-0.2,0.4-0.4,0.8-0.6,1.2c-0.5,0.9-1.1,1.8-1.8,2.7
			c0,0,0,0-0.1,0.1c-0.3,0.4-0.7,0.8-1.1,1.2c-0.5,0.6-1.1,1.2-1.7,1.7c-0.6,0.6-1.3,1.2-2,1.8c-0.3,0.3-0.7,0.6-1,0.8
			c-0.1,0.1-0.2,0.1-0.2,0.2c-0.1,0-0.1,0.1-0.3,0.2c-7.7,5.5-16,10.3-24,15.4c-18,11.3-35.9,22.7-53.9,34
			c-10.1,6.4-20.2,12.7-30.2,19.1c-4.4,2.8-3.6,9.5,1.4,11c15.9,4.7,31.9,9.4,47.8,14.1c-19.5,10.6-39,21.2-58.4,31.8
			c-4.3,2.3-3.5,7.9,0,10.4c9,6.4,18.1,12.8,27.1,19.3c-9.9,1.6-19.9,3.3-29.8,4.9c-3.8,0.6-5.5,5.8-3.6,8.8
			c17,27.3,34,54.5,51.1,81.8c16.9,27,33.8,54.1,50.6,81.1c9.6,15.4,19.2,30.8,28.8,46.2c1.7,2.7,5.4,3.8,8.2,2.2
			c2.7-1.6,3.9-5.4,2.2-8.2c-17-27.3-34-54.5-51.1-81.8c-16.9-27-33.8-54.1-50.6-81.1c-8.1-12.9-16.1-25.8-24.2-38.7
			c11.8-1.9,23.5-3.9,35.3-5.8c2.3-0.4,4-2.9,4.3-5c0.3-2.5-0.9-4.5-2.9-6c-10.4-7.4-20.7-14.7-31.1-22.1
			c20.9-11.4,41.8-22.7,62.8-34.1c4.6-2.5,3.4-9.5-1.4-11c-16.3-4.8-32.7-9.6-49-14.4c14.6-9.2,29.2-18.4,43.8-27.7
			C105.1,318.5,114.3,312.7,123.5,306.9z M149.1,274.3C149.2,274.1,149.7,273.6,149.1,274.3L149.1,274.3z"/>
	</g>
	<path class="st3" d="M490.7,337.6c3.1,2.9,10,4,13.9,0.1c10.3-10.1,53.4-40.6,82.8-34.7c2.2,0.4,4.3-0.9,4.8-3l0,0
		c0.6-2.1-0.6-4.3-2.7-5c-12-3.8-71.7,1.3-98.8,28.9C487,327.7,487.6,334.7,490.7,337.6z"/>
	<path class="st3" d="M348.8,338.6c-3.1,2.9-10,4-13.9,0.1c-10.3-10.1-53.4-40.6-82.8-34.7c-2.2,0.4-4.3-0.9-4.8-3l0,0
		c-0.6-2.1,0.6-4.3,2.7-5c12-3.8,71.7,1.3,98.8,28.9C352.5,328.7,351.9,335.7,348.8,338.6z"/>
	<g>
		<g class="st3">
			<path class="st4" d="M161.3,261.1c-1.5,11.5-10.6,18.2-18.7,23.3C108.4,306,74.2,327.6,40,349.2c20.6,6.1,41.3,12.2,61.9,18.2
				c-23.7,12.9-47.4,25.8-71.1,38.6c13.1,9.3,26.3,18.7,39.4,28c-14.5,2.4-29,4.8-43.6,7.2c43.6,69.8,87.1,139.5,130.7,209.3"/>
			<path class="st5" d="M126,302c8.4-5.3,17.1-10.2,25.1-16.1c7.8-5.8,14.6-13.3,16.1-23.3c0.4-3.1-0.8-6.6-4.2-7.4
				c-2.8-0.6-6.9,0.9-7.4,4.2c-0.3,1.8-0.7,3.6-1.3,5.3c-0.1,0.2-0.2,0.5-0.3,0.7c-0.2,0.4-0.4,0.8-0.6,1.2
				c-0.5,0.9-1.1,1.8-1.8,2.7c0,0,0,0-0.1,0.1c-0.3,0.4-0.7,0.8-1.1,1.2c-0.5,0.6-1.1,1.2-1.7,1.7c-0.6,0.6-1.3,1.2-2,1.8
				c-0.3,0.3-0.7,0.6-1,0.8c-0.1,0.1-0.2,0.1-0.2,0.2c-0.1,0-0.1,0.1-0.3,0.2c-7.7,5.5-16,10.3-24,15.4c-18,11.4-36,22.7-54,34.1
				c-10.1,6.4-20.2,12.7-30.3,19.1c-4.4,2.8-3.6,9.5,1.4,11c16,4.7,31.9,9.4,47.9,14.1c-19.5,10.6-39,21.2-58.5,31.8
				c-4.3,2.3-3.5,7.9,0,10.4c9,6.4,18.1,12.9,27.1,19.3c-10,1.6-19.9,3.3-29.9,4.9c-3.8,0.6-5.5,5.8-3.6,8.8
				c17,27.3,34.1,54.6,51.1,81.9c16.9,27.1,33.8,54.1,50.7,81.2c9.6,15.4,19.2,30.8,28.9,46.2c1.7,2.7,5.4,3.8,8.2,2.2
				c2.7-1.6,3.9-5.5,2.2-8.2c-17-27.3-34.1-54.6-51.1-81.9c-16.9-27.1-33.8-54.1-50.7-81.2c-8.1-12.9-16.1-25.8-24.2-38.8
				c11.8-1.9,23.5-3.9,35.3-5.8c2.3-0.4,4-2.9,4.3-5c0.3-2.5-0.9-4.6-2.9-6C62.7,421.4,52.3,414,42,406.7
				c21-11.4,41.9-22.8,62.9-34.1c4.7-2.5,3.4-9.6-1.4-11c-16.4-4.8-32.7-9.6-49.1-14.5c14.6-9.2,29.2-18.5,43.9-27.7
				C107.5,313.7,116.7,307.8,126,302z M151.5,269.4C151.7,269.2,152.1,268.7,151.5,269.4L151.5,269.4z"/>
		</g>
		<path class="st3" d="M493.6,332.8c3.1,2.9,10,4,13.9,0.1c10.3-10.2,53.5-40.7,82.9-34.8c2.2,0.4,4.3-0.9,4.9-3l0,0
			c0.6-2.1-0.6-4.3-2.7-5c-12-3.8-71.8,1.3-98.9,28.9C489.9,322.9,490.5,329.9,493.6,332.8z"/>
		<path class="st3" d="M351.5,333.8c-3.1,2.9-10,4-13.9,0.1c-10.3-10.2-53.5-40.7-82.9-34.8c-2.2,0.4-4.3-0.9-4.9-3l0,0
			c-0.6-2.1,0.6-4.3,2.7-5c12-3.8,71.8,1.3,98.9,28.9C355.2,323.9,354.7,330.9,351.5,333.8z"/>
		<g>
			<g>
				<path class="st6" d="M710.4,635.7l107.5-121l-45.1-9.6l44.1-21l-67.6-44.8l68-12l-83.9-74.9c0,0,4.8,46.5-6.2,146.1
					S710.4,635.7,710.4,635.7z"/>
				<path d="M709.4,641.6c-0.5-0.1-1.1-0.3-1.6-0.5c-2.4-1.1-3.8-3.7-3.4-6.4c0.1-0.4,6-38.6,16.8-136.9
					c10.7-97.6,6.2-144.4,6.2-144.8c-0.2-2.5,1-4.8,3.2-6c2.2-1.1,4.9-0.8,6.7,0.9l83.9,74.9c1.7,1.5,2.4,3.9,1.8,6.1
					c-0.6,2.2-2.5,3.9-4.7,4.3l-53.1,9.4l55.1,36.5c1.8,1.2,2.8,3.3,2.7,5.4c-0.2,2.2-1.5,4.1-3.4,5l-28.1,13.4l27.8,5.9
					c2.1,0.4,3.8,2,4.5,4s0.2,4.3-1.2,5.9l-107.5,121C713.5,641.3,711.4,642,709.4,641.6z M740.2,366.5c0.7,20.8,0.5,64.1-7,132.6
					c-6.5,59.5-11.3,97.1-14.1,117.7l87.4-98.4l-35-7.4c-2.5-0.5-4.4-2.6-4.7-5.2c-0.3-2.6,1.1-5,3.4-6.1l34.5-16.5L746,444.3
					c-2-1.4-3.1-3.8-2.6-6.2s2.4-4.3,4.8-4.7l55.8-9.8L740.2,366.5z"/>
			</g>
			<g>
				<path class="st6" d="M139.8,635.7l-107.5-121l45.1-9.6l-44.1-21l67.6-44.8l-68-12l83.9-74.9c0,0-4.8,46.5,6.2,146.1
					C133.9,598.1,139.8,635.7,139.8,635.7z"/>
				<path d="M135.4,639.7l-107.5-121c-1.4-1.6-1.9-3.8-1.2-5.9c0.7-2,2.4-3.6,4.5-4l27.8-5.9l-28.1-13.4c-2-0.9-3.3-2.8-3.4-5
					c-0.2-2.2,0.9-4.2,2.7-5.4l55.1-36.5l-53.1-9.4c-2.3-0.4-4.1-2.1-4.7-4.3c-0.6-2.2,0.1-4.6,1.8-6.1l83.9-74.9
					c1.8-1.6,4.5-2,6.7-0.9c2.2,1.1,3.5,3.5,3.2,6c0,0.5-4.5,47.2,6.2,144.8c10.8,98.3,16.8,136.5,16.8,136.9c0.4,2.6-1,5.2-3.4,6.4
					c-0.5,0.2-1,0.4-1.6,0.5C138.8,642,136.8,641.3,135.4,639.7z M46.2,423.6l55.8,9.8c2.4,0.4,4.3,2.3,4.8,4.7s-0.5,4.9-2.6,6.2
					l-58.7,38.9L80,499.7c2.3,1.1,3.7,3.6,3.4,6.1c-0.3,2.6-2.2,4.6-4.7,5.2l-35,7.4l87.4,98.4c-2.8-20.6-7.6-58.2-14.1-117.7
					c-7.5-68.5-7.7-111.8-7-132.6L46.2,423.6z"/>
			</g>
			<text transform="matrix(0.6978 -0.7163 0.7163 0.6978 769.3947 557.0723)" class="st7 st8 st9">CatCoinBSC</text>
			<path class="st10" d="M756.6,475.4c-1.6,80.5-28.2,142.1-79.1,183.1c-55.2,44.5-137.8,66.2-252.4,66.2S227.9,703,172.7,658.5
				c-50.9-41-77.5-102.6-79.1-183.1c-0.2-11.2,0-23.1,0.8-35.1c0.1-1.8,0.3-3.5,0.4-5.3c0.5-5.7,1.1-11.4,1.8-16.7
				c1.4-11.3,3.3-22.4,5.5-32.9c20.4-97.3,72.7-164.3,155.8-200.1c0,0-9.5-1.9-26.9,4.1c-9.6-70.1-46.7-116.5-64.9-135.6
				c8.6,0,21.4,1.3,38.2,6.6c28.9,9,75.3,31.8,134.7,88.7c-17.2,3.4-26.9,18.3-26.9,18.3c10.5-2.5,21.3-4.7,32.5-6.5
				c11.4-1.8,23.3-3.2,35.4-4.2c14.5-1.2,29.6-1.8,45.1-1.8c15.5,0,30.6,0.6,45.1,1.8c12.1,1,24,2.4,35.4,4.2
				c11.2,1.8,22,3.9,32.5,6.5c0,0-9.7-14.8-26.9-18.3C570.6,92.2,617,69.5,645.9,60.4c16.8-5.2,29.6-6.6,38.2-6.6
				c-18.2,19-55.4,65.5-64.9,135.6c-17.4-6-26.9-4.1-26.9-4.1c83.1,35.8,135.4,102.8,155.8,200.1c2.2,10.5,4.1,21.5,5.5,32.9
				c0.7,5.4,1.3,11,1.8,16.7c0.2,1.7,0.3,3.5,0.4,5.3C756.6,452.4,756.8,464.2,756.6,475.4z"/>
			<path class="st11" d="M681.3,63.2c0,0-91.5,12-154.9,71.8l39.9-39.7l56.8-32.1L689,45.9L681.3,63.2z"/>
			<path class="st6" d="M379.5,150.5l-0.8,80c0,0-29.6-19.8-35.1-75.7C355.3,152.9,367.2,151.5,379.5,150.5z"/>
			<path class="st6" d="M153.5,419c0,0-31-1.5-63-1.6c1.5-11.5,3.3-22.7,5.6-33.4C112.2,387.9,135.1,397,153.5,419z"/>
			<path class="st6" d="M153.5,457.4c0,0-33.2,12.2-66.1,18.2c-0.2-11.4,0-23.4,0.8-35.8c0.1-1.8,0.3-3.6,0.5-5.4
				C109.9,433.5,136.6,437.2,153.5,457.4z"/>
			<path class="st6" d="M470.7,150.5l0.8,80c0,0,29.6-19.8,35.1-75.7C494.9,152.9,482.9,151.5,470.7,150.5z"/>
			<path class="st6" d="M426.8,343.9c0,0-32-111.2-27.9-193.5c0,0,19.4-9.7,26.2,2.7c6.8-12.5,26.2-2.7,26.2-2.7
				C455.4,232.7,426.8,343.9,426.8,343.9z"/>
			<path class="st6" d="M696.7,419c0,0,31-1.5,63-1.6c-1.5-11.5-3.3-22.7-5.6-33.4C738,387.9,715,397,696.7,419z"/>
			<path class="st6" d="M696.7,457.4c0,0,33.2,12.2,66.1,18.2c0.2-11.4,0-23.4-0.8-35.8c-0.1-1.8-0.3-3.6-0.5-5.4
				C740.2,433.5,713.6,437.2,696.7,457.4z"/>
			<path class="st10" d="M215.7,174.2c1.4,6.5,2.5,13.2,3.4,20.2c-11.3,5.4-25,13.7-40.6,26.7c-2.6,2.3-5.1,4.6-7.5,7
				c-15.1-1.4-29.1-7.1-38.9-16c15.8-15.4,32.1-25.8,49.8-31.6l9.9-3.2l-6.9-7.7c-8.1-9-12.6-19.3-13.5-31.3c11-0.1,25,1.5,36,6.3
				c1.8,5,3.5,10.1,5,15.4L215.7,174.2z"/>
			<path class="st6" d="M152.2,57.6c9.2,9,31.6,33.3,48.3,70.5c-13-3.3-26.9-3.9-36.8-3.1l-6.1,0.5l-0.1,6.1
				c-0.3,14.7,3.5,27.9,11.2,39.3c-18.1,7.5-34.9,19.5-51,36.4l-4.2,4.4l4,4.6c10,11.6,25.1,19.9,41.9,23.5l-0.8,0.8
				c-25.7,28.5-45.2,63-58.3,103.1c-3.1-22.9-6.7-58-6.1-96.7C94.9,187.3,105.8,106.9,152.2,57.6z"/>
			<path class="st10" d="M634.5,174.2c-1.4,6.5-2.5,13.2-3.4,20.2c11.3,5.4,25,13.7,40.6,26.7c2.6,2.3,5.1,4.6,7.5,7
				c15.1-1.4,29.1-7.1,38.9-16c-15.8-15.4-32.1-25.8-49.8-31.6l-9.9-3.2l6.9-7.7c8.1-9,12.6-19.3,13.5-31.3c-11-0.1-25,1.5-36,6.3
				c-1.8,5-3.5,10.1-5,15.4L634.5,174.2z"/>
			<path class="st6" d="M698,57.6c-9.2,9-31.6,33.3-48.3,70.5c13-3.3,26.9-3.9,36.8-3.1l6.1,0.5l0.1,6.1
				c0.3,14.7-3.5,27.9-11.2,39.3c18.1,7.5,34.9,19.5,51,36.4l4.2,4.4l-4,4.6c-10,11.6-25.1,19.9-41.9,23.5l0.8,0.8
				c25.7,28.5,45.2,63,58.3,103.1c3.1-22.9,6.7-58,6.1-96.7C755.2,187.3,744.4,106.9,698,57.6z"/>
			<path class="st12" d="M121.9,212.4l27.1,15.7l19.7,11.1C125.7,285,102.8,357,102.8,357l-9.4-13.1c7.3-55.5,49.5-97.8,49.5-97.8
				c-25-5.3-41.5-33.6-41.5-33.6c11.5-26.8,55.3-45.2,55.3-45.2c-11.1-19.2-6.5-49.8-6.5-49.8s20.5-3.2,35.9,0.1
				c-14.3-25.3-41.4-56.7-41.4-56.7l7.9-6.9l25.6,22.4l22.2,42.8h3l6.2,19.9c-20.3-9.9-44.6-6-44.6-6c-1.9,19.7,13,42.3,13,42.3
				C155.1,177.8,121.9,212.4,121.9,212.4z"/>
			<path class="st13" d="M195.1,139.2c0,0,11.6,30.5,13,49.5c0,0-42,22.4-52.7,39.3l18.2,5.3l51.5-36.7l-12.3-57.5h-17.7V139.2z"/>
			<path class="st11" d="M168.8,63.2c0,0,91.5,12,154.9,71.8l-39.9-39.7L227,63.2l-65.9-17.3L168.8,63.2z"/>
			<path class="st12" d="M728.2,212.4l-27.1,15.7l-19.8,11.1c43,45.8,65.9,117.8,65.9,117.8l9.4-13.1c-7.3-55.5-49.5-97.8-49.5-97.8
				c25-5.3,41.5-33.6,41.5-33.6c-11.5-26.8-55.3-45.2-55.3-45.2c11.1-19.2,6.5-49.8,6.5-49.8s-20.5-3.2-35.9,0.1
				c14.3-25.3,41.4-56.7,41.4-56.7l-7.9-6.9L672,76.3l-22.2,42.8h-3l-6.2,19.9c20.3-9.9,44.6-6,44.6-6c1.9,19.7-13,42.3-13,42.3
				C695.1,177.8,728.2,212.4,728.2,212.4z"/>
			<path class="st13" d="M655.1,139.2c0,0-11.6,30.5-13,49.5c0,0,42,22.4,52.7,39.3l-18.2,5.3l-51.5-36.7l12.3-57.5h17.7V139.2z"/>
			<path d="M768.3,439.4L768.3,439.4c-0.1-1.9-0.3-3.7-0.5-5.5c-0.5-5.9-1.2-11.7-1.9-17.2c-1.5-11.7-3.4-23.1-5.7-33.9
				c-0.7-3.5-1.5-6.9-2.3-10.3c1.7-9.1,11.4-62.5,10.6-125.3c-0.5-40.5-5.2-76.9-13.9-108.3c-11-39.7-28.5-71.4-52.1-94.4l-1.1-1.1
				l-1.5-0.4c-3.1-0.9-78-20.5-204.3,103.9c-8-1.1-16.2-1.9-24.4-2.6c-14.8-1.2-30.3-1.8-46.1-1.8c-15.8,0-31.3,0.6-46.1,1.8
				c-8.3,0.7-16.4,1.6-24.4,2.6C228.2,22.4,153.4,42,150.3,42.9l-1.5,0.4l-1.1,1.1c-23.6,23-41.1,54.7-52.1,94.4
				c-8.7,31.4-13.4,67.8-13.9,108.3c-0.8,62.8,8.9,116.3,10.6,125.3c-0.8,3.4-1.6,6.9-2.3,10.3c-2.3,10.8-4.2,22.2-5.7,33.9
				c-0.7,5.5-1.3,11.3-1.9,17.2c-0.2,1.8-0.3,3.6-0.5,5.4v0.1c-0.8,12.5-1,24.7-0.8,36.3c1.7,84.3,29.8,149.2,83.7,192.6
				c30.4,24.5,69.7,42.7,116.7,54c41,9.9,89.3,14.9,143.6,14.9s102.6-5,143.6-14.9c47-11.4,86.3-29.5,116.7-54
				c53.9-43.4,82.1-108.2,83.7-192.6C769.3,464.2,769.1,451.9,768.3,439.4z M698,57.6c46.4,49.2,57.3,129.7,58.1,189.4
				c0.5,38.7-3,73.8-6.1,96.7c-13.1-40.1-32.6-74.6-58.3-103.1l-0.8-0.8c16.8-3.6,32-11.9,41.9-23.5l4-4.6l-4.2-4.4
				c-16.2-16.9-32.9-28.9-51-36.4c7.7-11.4,11.5-24.6,11.2-39.3l-0.1-6.1l-6.1-0.5c-9.9-0.8-23.8-0.2-36.8,3.1
				C666.3,90.9,688.7,66.7,698,57.6z M668.3,180.5c17.7,5.8,34,16.2,49.8,31.6c-9.8,8.8-23.8,14.6-38.9,16c-2.4-2.4-4.9-4.7-7.5-7
				c-15.7-13-29.3-21.4-40.6-26.7c0.9-6.9,2-13.7,3.4-20.2L638,160c1.5-5.3,3.2-10.5,5-15.4c11-4.8,25-6.4,36-6.3
				c-0.9,12-5.4,22.3-13.5,31.3l-6.9,7.7L668.3,180.5z M94.2,247.1c0.8-59.7,11.6-140.2,58.1-189.4c9.2,9,31.6,33.3,48.3,70.5
				c-13-3.3-26.9-3.9-36.8-3.1l-6.1,0.5l-0.1,6.1c-0.3,14.7,3.5,27.9,11.2,39.3c-18.1,7.5-34.9,19.5-51,36.4l-4.2,4.4l4,4.6
				c10,11.6,25.1,19.9,41.9,23.5l-0.8,0.8c-25.7,28.5-45.2,63-58.3,103.1C97.2,320.9,93.6,285.8,94.2,247.1z M184.7,169.6
				c-8.1-9-12.6-19.3-13.5-31.3c11-0.1,25,1.5,36,6.3c1.8,5,3.5,10.1,5,15.4l3.5,14.2c1.4,6.5,2.5,13.2,3.4,20.2
				c-11.3,5.4-25,13.7-40.6,26.7c-2.6,2.3-5.1,4.6-7.5,7c-15.1-1.4-29.1-7.1-38.9-16c15.8-15.4,32.1-25.8,49.8-31.6l9.9-3.2
				L184.7,169.6z M756.6,475.4c-1.6,80.5-28.2,142.1-79.1,183.1c-55.2,44.5-137.8,66.2-252.4,66.2S227.9,703,172.7,658.5
				c-50.9-41-77.5-102.6-79.1-183.1c-0.2-11.2,0-23.1,0.8-35.1c0.1-1.8,0.3-3.6,0.4-5.3c0.5-5.7,1.1-11.4,1.8-16.7
				c1.4-11.4,3.3-22.4,5.5-32.9c20.4-97.3,72.6-164.3,155.8-200.1c0,0-9.5-1.9-26.9,4.1c-9.6-70.1-46.7-116.5-64.9-135.6
				c8.6,0,21.4,1.4,38.2,6.6c28.9,9,75.3,31.8,134.7,88.7c-17.2,3.4-26.9,18.3-26.9,18.3c10.5-2.6,21.3-4.7,32.5-6.5
				c11.4-1.8,23.3-3.3,35.4-4.2c14.5-1.2,29.7-1.8,45.1-1.8s30.6,0.6,45.1,1.8c12.1,1,24,2.4,35.4,4.2c11.2,1.8,22,3.9,32.5,6.5
				c0,0-9.6-14.9-26.9-18.3C570.6,92.2,617,69.5,645.9,60.4c16.8-5.2,29.6-6.5,38.2-6.6c-18.2,19-55.3,65.5-64.9,135.6
				c-17.4-6-26.9-4.1-26.9-4.1c83.1,35.8,135.4,102.8,155.8,200.1c2.2,10.4,4.1,21.5,5.5,32.9c0.7,5.4,1.3,11,1.8,16.7
				c0.2,1.7,0.3,3.5,0.4,5.3C756.6,452.4,756.8,464.2,756.6,475.4z"/>
			<path class="st14" d="M689.9,598.2c-2.3,14.1-35.7,31.3-55,29.5c-5.9-0.6-1.4-10.6,2.2-12.6c32.4-17.9,42.4-39,28.5-35.8
				s-54.9-33.2-30.7-26s51.9-36.2,43.9-29.9s-59.9-4.3-92.1-23c-23.8-13.8-73.8-16.3-98.3-16.7c-3.3-20-10.6-35.1-30.8-42.3
				c1-13.1,4.1-21.4,4.1-21.4c-11.9,3.2-20.4,9.4-26.5,17.1c-0.6,0-1.3-0.1-2-0.1c-1.2-16.7-5.4-33.9-20.2-45.2
				c0,0-6.2,19.4-11.7,47.1c-27.1,5.7-35.9,22.2-39.7,44.9c-26.2,0.8-68.3,4.2-89.6,16.5c-32.2,18.7-84,29.3-92.1,23
				c-8-6.3,19.7,37,43.9,29.9c24.2-7.2-16.8,29.2-30.7,26c-13.9-3.2-3.9,17.9,28.5,35.8c3.6,2,8.1,12,2.2,12.6
				c-19.3,1.8-52.7-15.4-55-29.5c-2.2-13.4,0.8,122,222.3,127.3c4.4,0.1,8.8,0.2,13.4,0.2h49.7c5.6,0,11.1-0.1,16.5-0.2
				C689.1,719,692.1,584.9,689.9,598.2z"/>
			<g>
				<path d="M465.1,590.7c-17-6.8-33.3-23.2-33.3-23.2l1.8-16.2l-7.4-11.5l0,0l0,0l-7.3,11.3l1.5,16.4c0,0-17.3,13.7-34.4,21.2
					c-13.5,6-39-11-39-11s22.4,26.3,44.4,21.3c14.8-3.4,34.8-17.5,34.8-17.5s21.3,15.1,34.8,18.5c21.8,5.5,45.1-20.3,45.1-20.3
					S478.9,596.2,465.1,590.7z"/>
				<path d="M441.2,527.8c0,10.7-4.2,26.6-15,26.6c-10.5,0-15-15.9-15-26.6c0-10.7,6.7-19.4,15-19.4S441.2,517.1,441.2,527.8z"/>
				<g>
					<path class="st15" d="M440.7,533.9c1.7-5.7,11.8-13.3,15.7-14.8c-0.3-8.8-20.4-13.3-23.7-2
						C429.4,528.4,434.8,533.5,440.7,533.9z"/>
					<path class="st15" d="M411.8,533.9c-1.7-5.7-11.8-13.3-15.7-14.8c0.3-8.8,20.4-13.3,23.7-2
						C423.1,528.4,417.8,533.5,411.8,533.9z"/>
					<path class="st16" d="M447.2,497.6c-5.6,0-14.7,3.2-21,3.3c-6.3,0-15.2-3.3-20.7-3.3c-4.6,0-20.6,3.8-14.6,15.5
						c1.8,3.6,3.3,5.1,5.3,6c3.6-1.6,13.9-3.5,20.5,5c-1.7,1.9-4.1,6-4.8,9.8c3.3,7.8,7.6,13.7,14.1,13.9l0,0c0.1,0,0.1,0,0.1,0
						c0.1,0,0.1,0,0.1,0l0,0c6.5-0.2,11.1-6.2,14.4-13.9c-0.7-3.8-3.1-7.9-4.8-9.8c6.6-8.5,16.9-6.6,20.5-5c2.1-0.9,3.5-2.4,5.3-6
						C467.7,501.4,451.7,497.6,447.2,497.6z"/>
					<path class="st17" d="M426.3,521.9c-1,0-1.8,11.5-1.9,25.7c0.5,0.1,1,0.2,1.6,0.2l0,0c0.1,0,0.1,0,0.1,0c0.1,0,0.1,0,0.1,0l0,0
						c0.6,0,1.2-0.1,1.9-0.3C428.1,533.4,427.3,521.9,426.3,521.9z"/>
				</g>
			</g>
			<g>
				<g class="st3">
					<path class="st18" d="M209.5,364.1c0,0,1.1-9.4-3.9-20.2c-6-13-15-19-15-19s137.2,20.2,153.1,52s12,45.6,12,45.6
						s-12.3-53.9-72.7-59.3C222.6,357.8,209.5,364.1,209.5,364.1z"/>
					<g class="st5">
						<path d="M190.6,408c-3,53,76.1,76.1,123.1,60.4c8.8-2.9,19-6.3,29.5-8.9c3,3.9,11.3,1.8,10.8-2.8c0.1-6.9,4.4-40.9-1-55.3
							c-18.6-43.8-102.7-47.8-143.5-43.3C199.4,369.6,191.5,392.9,190.6,408z"/>
						<g>
							<g>
								<defs>
									<path id="SVGID_00000112607653115742387600000010940624443273382784_" d="M213.2,368.1c7.9-10.9,111.2-2.4,126.5,27.8
										c7.1,14.1,10.1,28.7,1,47c-1,2-32,23-68,23C206.3,466,182.6,410,213.2,368.1z"/>
								</defs>
								<clipPath id="SVGID_00000002347305094444013770000004293999043656273584_">
									<use xlink:href="#SVGID_00000112607653115742387600000010940624443273382784_"  style="overflow:visible;"/>
								</clipPath>
								<path style="clip-path:url(#SVGID_00000002347305094444013770000004293999043656273584_);fill:#FEFEFE;" d="M347.7,356.9
									c15.6,8.8,23.7,86.6,23,101.1c-0.6,14.5-74.1,29.4-97.1,33c-73.3,5.7-116.9-84.1-86.1-155.1
									C226.2,329.1,320.5,335.1,347.7,356.9z"/>
							</g>
							<g>
								<defs>
									<path id="SVGID_00000085241625288540863130000018128259761685086888_" d="M213.2,368.1c7.9-10.9,111.2-2.4,126.5,27.8
										c7.1,14.1,10.1,28.7,1,47c-1,2-32,23-68,23C206.3,466,182.6,410,213.2,368.1z"/>
								</defs>
								<clipPath id="SVGID_00000016055877052972223200000007816021861932290945_">
									<use xlink:href="#SVGID_00000085241625288540863130000018128259761685086888_"  style="overflow:visible;"/>
								</clipPath>
								<g style="clip-path:url(#SVGID_00000016055877052972223200000007816021861932290945_);">
									<g>
										
											<linearGradient id="SVGID_00000027577616535814637600000001444310549068467868_" gradientUnits="userSpaceOnUse" x1="779.7" y1="433.4898" x2="952" y2="433.4898" gradientTransform="matrix(1 0 0 -1 -590 842.4899)">
											<stop  offset="0" style="stop-color:#FFD800"/>
											<stop  offset="1" style="stop-color:#FFB700"/>
										</linearGradient>
										<path style="fill:url(#SVGID_00000027577616535814637600000001444310549068467868_);" d="M362,407.5
											c0-36.8-34.3-65.2-87.2-65.2s-85.1,31.3-85.1,68.2s32.2,65.2,85.1,65.2S362,444.4,362,407.5z"/>
									</g>
									
										<radialGradient id="SVGID_00000028320389676506752340000016814436139844058242_" cx="866.65" cy="426.4898" r="43.868" gradientTransform="matrix(1 0 0 -1 -590 842.4899)" gradientUnits="userSpaceOnUse">
										<stop  offset="0" style="stop-color:#FFB700;stop-opacity:0"/>
										<stop  offset="0.1743" style="stop-color:#FFF200"/>
										<stop  offset="0.8095" style="stop-color:#FFEF00"/>
										<stop  offset="1" style="stop-color:#FFD800;stop-opacity:0"/>
									</radialGradient>
									
										<path style="display:none;opacity:0.5;fill:url(#SVGID_00000028320389676506752340000016814436139844058242_);enable-background:new    ;" d="
										M314.7,414.9c0-27.1-15.2-47.9-38.5-47.9s-37.6,23-37.6,50.1c0,27.1,14.2,47.9,37.6,47.9C299.5,465,314.7,442,314.7,414.9z
										"/>
									<g class="st23">
										<path class="st24" d="M281.1,401.8c0-1.3,6-2,13.7-2s14.3,0.8,14.3,2s-6,2.1-13.7,2.1S281.1,403.1,281.1,401.8z
											 M295,396.1c7.7-1.5,13.6-3.5,13.5-4.8c-0.1-1.2-6.7-0.7-14.4,0.8c-7.7,1.5-13.6,3.5-13.5,4.7
											C280.8,398.2,287.4,397.7,295,396.1z M295.1,388.4c7.6-2.6,11-4.5,10.8-5.7s-4.4-0.7-11.9,1.9c-7.6,2.6-13.3,5.4-13.2,6.6
											C281,392.4,287.6,391,295.1,388.4z M294.7,381.6c7.4-3.6,9.5-5.2,9.3-6.4c-0.2-1.2-3.2-0.8-10.6,2.8s-13,7.1-12.8,8.3
											C280.8,387.4,287.2,385.2,294.7,381.6z M293.4,375.8c7.4-3.6,7.2-5.5,7-6.7s-0.8-0.5-8.2,3.1c-7.4,3.6-11.9,7.1-11.6,8.3
											C280.8,381.7,286,379.4,293.4,375.8z M291.1,369.4c7.1-5.2,5.5-4.9,5.2-6c-0.3-1.1,0.3-2.5-6.8,2.8
											c-7.1,5.2-10,8.7-9.7,9.9C280.2,377.1,284.1,374.6,291.1,369.4z M286.7,365.9c4.1-4.2,3.1-4,2.7-5.1
											c-0.4-1.1-0.2-2.2-4.3,2c-4.1,4.2-5.6,7.1-5.2,8.2S282.6,370.1,286.7,365.9z M283.9,361.5c2.6-2.7,1.9-2.8,1.5-3.8
											s-0.4-2.1-3,0.6s-3.4,4.9-3,6C279.8,365.4,281.3,364.2,283.9,361.5z M280.7,405.2c-0.1,1.2,5.8,3.2,13.5,4.7
											s14.3,2.1,14.4,0.8c0.1-1.2-5.8-3.2-13.5-4.8C287.4,404.5,280.8,404,280.7,405.2z M280.9,410.9c-0.2,1.2,5.6,4,13.2,6.6
											c7.6,2.6,11.8,3.1,11.9,1.9c0.2-1.2-3.2-3.1-10.8-5.7C287.6,411.1,281,409.7,280.9,410.9z M280.5,415.9
											c-0.2,1.2,5.4,4.7,12.8,8.3s10.4,4,10.6,2.8s-1.9-2.8-9.3-6.4C287.2,417,280.8,414.7,280.5,415.9z M280.5,421.7
											c-0.2,1.2,4.2,4.7,11.6,8.3s8,4.3,8.2,3.1s0.4-3.1-7-6.7C286,422.7,280.8,420.5,280.5,421.7z M279.9,426.1
											c-0.3,1.1,2.6,4.6,9.7,9.9c7.1,5.2,6.4,3.9,6.8,2.8c0.3-1.1,1.8-0.8-5.2-6C284.1,427.5,280.2,425,279.9,426.1z
											 M279.9,431.1c-0.4,1.1,1.1,4,5.2,8.2s3.9,3,4.3,2c0.4-1.1,1.4-0.9-2.7-5.1C282.6,432,280.3,430.1,279.9,431.1z
											 M279.4,437.8c-0.4,1.1,0.4,3.3,3,6s2.6,1.7,3,0.6c0.4-1.1,1.1-1.2-1.5-3.8C281.3,437.9,279.8,436.8,279.4,437.8z"/>
										<path class="st24" d="M251.7,403.9c-8.7,0-15.4-0.8-15.4-2.1c0-1.3,7.4-2,16.1-2s15.4,0.8,15.4,2S260.4,403.9,251.7,403.9
											z M268.3,396.9c0.1-1.2-6.5-3.2-15.1-4.7s-16-2.1-16.1-0.8c-0.1,1.2,6.5,3.2,15.1,4.8
											C260.8,397.7,268.2,398.2,268.3,396.9z M268.1,391.2c0.2-1.2-6.3-4-14.8-6.6c-8.5-2.6-13.2-3.1-13.4-1.9
											c-0.2,1.2,3.6,3.1,12.1,5.7C260.5,391,267.9,392.4,268.1,391.2z M268.5,386.2c0.2-1.2-6-4.7-14.4-8.3
											c-8.3-3.6-11.6-4-11.9-2.8c-0.2,1.2,2.1,2.8,10.4,6.4C261,385.2,268.2,387.4,268.5,386.2z M268.5,380.5
											c0.2-1.2-4.7-4.7-13.1-8.3c-8.3-3.6-9-4.3-9.2-3.1s-0.5,3.1,7.9,6.7C262.4,379.4,268.2,381.7,268.5,380.5z M269.1,376
											c0.4-1.1-2.9-4.6-10.8-9.9c-7.9-5.2-7.2-3.9-7.6-2.8c-0.4,1.1-2.1,0.8,5.9,6S268.8,377.1,269.1,376z M269.1,371
											c0.5-1.1-1.2-4-5.8-8.2s-4.3-3-4.8-2c-0.5,1.1-1.6,0.9,3,5.1C266.1,370.1,268.7,372.1,269.1,371z M269.8,364.3
											c0.5-1.1-0.4-3.3-3.4-6c-2.9-2.7-2.9-1.7-3.3-0.6c-0.4,1.1-1.3,1.2,1.7,3.8S269.3,365.4,269.8,364.3z M252.2,406
											c-8.6,1.5-15.2,3.5-15.1,4.8c0.1,1.2,7.5,0.7,16.1-0.8s15.2-3.5,15.1-4.7C268.2,404,260.8,404.5,252.2,406z M252.1,413.8
											c-8.5,2.6-12.3,4.5-12.1,5.7s4.9,0.7,13.4-1.9c8.5-2.6,14.9-5.4,14.8-6.6S260.6,411.1,252.1,413.8z M252.6,420.5
											c-8.3,3.6-10.7,5.2-10.4,6.4c0.2,1.2,3.5,0.8,11.9-2.8c8.3-3.6,14.6-7.1,14.4-8.3C268.2,414.7,261,417,252.6,420.5z
											 M254,426.3c-8.3,3.6-8.1,5.5-7.9,6.7s0.9,0.5,9.2-3.1c8.3-3.6,13.3-7.1,13.1-8.3C268.2,420.5,262.4,422.7,254,426.3z
											 M256.6,432.7c-7.9,5.2-6.2,4.9-5.9,6c0.4,1.1-0.3,2.5,7.6-2.8c7.9-5.2,11.2-8.7,10.8-9.9
											C268.8,425,264.5,427.5,256.6,432.7z M261.5,436.2c-4.6,4.2-3.5,4-3,5.1s0.2,2.2,4.8-2c4.6-4.2,6.2-7.1,5.8-8.2
											C268.7,430,266.1,432,261.5,436.2z M264.7,440.6c-2.9,2.7-2.1,2.8-1.7,3.8c0.5,1.1,0.4,2.1,3.3-0.6c2.9-2.7,3.8-4.9,3.4-6
											S267.7,437.9,264.7,440.6z"/>
									</g>
									<path d="M285.2,401.3c0-23.8-4.6-42.2-11.6-42.2s-11.4,20.3-11.4,44.1c0,23.8,4.3,42.2,11.4,42.2S285.2,425.2,285.2,401.3z
										"/>
									<g>
										<path class="st25" d="M329,398.9c0-30.8-20.1-54.6-51.1-54.6S228,370.5,228,401.4c0,30.9,18.9,54.6,49.9,54.6
											S329,429.7,329,398.9z"/>
										<path d="M321.4,399.1c0-26.2-17.1-46.4-43.4-46.4s-42.3,22.3-42.3,48.5s16,46.4,42.3,46.4
											C304.3,447.5,321.4,425.3,321.4,399.1z"/>
									</g>
								</g>
							</g>
							<g>
								<path id="SVGID_00000070821056891464816580000011851473245830986127_" class="st26" d="M213.2,368.1
									c7.9-10.9,111.2-2.4,126.5,27.8c7.1,14.1,10.1,28.7,1,47c-1,2-32,23-68,23C206.3,466,182.6,410,213.2,368.1z"/>
							</g>
						</g>
					</g>
					<g class="st27">
						<path class="st0" d="M282,416.4c-3,6.3-1.5,13.2,3.3,15.5s11.1-1,14.1-7.2c3-6.3,1.5-13.2-3.3-15.5
							C291.3,406.9,285,410.1,282,416.4z"/>
						<path class="st0" d="M243.5,397c-2.7,3.2-2.8,7.5-0.3,9.7c2.6,2.2,6.8,1.3,9.5-1.9c2.7-3.2,2.8-7.5,0.3-9.7
							C250.4,392.9,246.2,393.8,243.5,397z"/>
					</g>
					<g class="st5">
						<path d="M352.4,458.2l-6.9-1.4l0.7-3.4c0.1-0.6,11.8-59-9.1-79.9c-25.3-25.3-110.6-45.1-146.8-47l-1.8-0.1
							c-1.1-0.1-2.2-0.6-2.9-1.4l-2-2.4c-1.2-1.4-0.1-3.5,1.7-3.4l5.4,0.3c38.1,2,124.5,22.2,151.4,49.1
							c23.6,23.5,11.5,83.7,11,86.2L352.4,458.2z"/>
					</g>
				</g>
				<g>
					<path class="st13" d="M637.6,364.1c0,0-1.1-9.4,3.9-20.2c6-13,15-19,15-19s-137.2,20.2-153.1,52s-12,45.6-12,45.6
						s12.3-53.9,72.7-59.3C624.5,357.9,637.6,364.1,637.6,364.1z"/>
					<g>
						<path d="M656.6,408c3,53-76.1,76.1-123.1,60.4c-8.8-2.9-19-6.3-29.5-8.9c-3,3.9-11.3,1.8-10.8-2.8c-0.1-6.9-4.4-40.9,1-55.3
							c18.6-43.8,102.7-47.8,143.5-43.3C647.7,369.6,655.7,392.9,656.6,408z"/>
						<g>
							<g>
								<defs>
									<path id="SVGID_00000105417810771862153860000004872224606687436469_" d="M574.5,466c-36,0-67.1-21-68-23
										c-9.1-18.3-6.1-32.9,1-47c15.3-30.3,118.6-38.7,126.5-27.8C664.6,410,640.9,466,574.5,466z"/>
								</defs>
								<clipPath id="SVGID_00000063618085691302659900000016425362639379514503_">
									<use xlink:href="#SVGID_00000105417810771862153860000004872224606687436469_"  style="overflow:visible;"/>
								</clipPath>
								<path style="clip-path:url(#SVGID_00000063618085691302659900000016425362639379514503_);fill:#2B293A;" d="M499.4,356.9
									c-15.6,8.8-23.7,86.6-23,101.1c0.6,14.5,74.1,29.4,97.1,33c73.3,5.7,116.9-84.1,86.1-155.1
									C621,329.1,526.6,335.1,499.4,356.9z"/>
							</g>
							<g>
								<defs>
									<path id="SVGID_00000092445649793003498500000018369092325071332510_" d="M574.5,466c-36,0-67.1-21-68-23
										c-9.1-18.3-6.1-32.9,1-47c15.3-30.3,118.6-38.7,126.5-27.8C664.6,410,640.9,466,574.5,466z"/>
								</defs>
								<clipPath id="SVGID_00000181073745927223840800000000521902237884792974_">
									<use xlink:href="#SVGID_00000092445649793003498500000018369092325071332510_"  style="overflow:visible;"/>
								</clipPath>
								<g style="clip-path:url(#SVGID_00000181073745927223840800000000521902237884792974_);">
									<g>
										
											<linearGradient id="SVGID_00000072989753723458682430000007900849750035693202_" gradientUnits="userSpaceOnUse" x1="8562.6328" y1="428.8899" x2="8733.833" y2="428.8899" gradientTransform="matrix(-1 0 0 -1 9225.5322 842.4899)">
											<stop  offset="0" style="stop-color:#FFD800"/>
											<stop  offset="1" style="stop-color:#FFB700"/>
										</linearGradient>
										<path style="fill:url(#SVGID_00000072989753723458682430000007900849750035693202_);" d="M491.7,412.2
											c0-34,34.9-60.2,88.7-60.2s82.5,5,82.5,39.1c0,34.1-28.8,84.1-82.5,84.1S491.7,446.3,491.7,412.2z"/>
									</g>
									<g>
										
											<linearGradient id="SVGID_00000152954535636824273840000011812402345942954644_" gradientUnits="userSpaceOnUse" x1="492.2" y1="450.0898" x2="654.4" y2="450.0898" gradientTransform="matrix(1 0 0 -1 0 842.4899)">
											<stop  offset="0" style="stop-color:#FFD800"/>
											<stop  offset="1" style="stop-color:#FFB700"/>
										</linearGradient>
										
											<path style="opacity:0.3;fill:url(#SVGID_00000152954535636824273840000011812402345942954644_);enable-background:new    ;" d="
											M566,458.8c0.6-7.7,1.9-13.6,3.1-13.5c1.2,0.1,1.5,6.7,0.9,14.5c-0.6,7.7-1.8,13.6-3.1,13.5
											C565.7,473.2,565.4,466.5,566,458.8z M559.1,457.7c1.4-7.6,3.3-13.3,4.5-13.1s0.8,6.8-0.6,14.5
											c-1.4,7.6-3.3,13.3-4.5,13.1S557.7,465.3,559.1,457.7z M552.3,455.8c2.2-7.4,4.7-12.9,5.9-12.6c1.2,0.4,0.1,6.9-2.1,14.3
											s-4.6,12.9-5.8,12.6C549,469.8,550.1,463.3,552.3,455.8z M545.8,453.3c3-7.2,6-12.4,7.2-11.9s-0.7,6.9-3.6,14
											c-3,7.2-6,12.4-7.1,11.9C541.1,466.9,542.9,460.5,545.8,453.3z M539.6,450.1c3.7-6.8,7.3-11.7,8.4-11.1
											c1.1,0.6-1.4,6.8-5.1,13.6c-3.7,6.8-7.2,11.7-8.3,11.1C533.5,463.1,535.9,456.9,539.6,450.1z M533.8,446.3
											c4.4-6.4,8.4-10.8,9.5-10.1c1,0.7-2.1,6.6-6.5,13s-8.4,10.9-9.4,10.2C526.3,458.5,529.4,452.6,533.8,446.3z M528.3,441.8
											c5-5.9,9.5-9.9,10.5-9.1s-2.8,6.3-7.8,12.2c-5,5.9-9.5,9.9-10.4,9.1C519.7,453.3,523.3,447.7,528.3,441.8z M523.4,436.9
											c5.6-5.3,10.5-8.8,11.4-7.9c0.9,0.9-3.4,6-9,11.3c-5.6,5.3-10.5,8.9-11.3,8C513.6,447.3,517.8,442.2,523.4,436.9z
											 M519.1,431.4c6.1-4.7,11.4-7.7,12.1-6.7c0.8,1-4,5.6-10.2,10.3c-6.1,4.7-11.3,7.7-12.1,6.7S512.9,436.1,519.1,431.4z
											 M515.3,425.5c6.6-4,12.1-6.5,12.8-5.4c0.7,1.1-4.6,5.2-11.2,9.2s-12.1,6.5-12.7,5.4S508.7,429.6,515.3,425.5z
											 M512.1,419.3c7-3.3,12.7-5.2,13.3-4c0.5,1.1-5.1,4.7-12.1,8s-12.7,5.2-13.2,4.1C499.6,426.3,505.1,422.6,512.1,419.3z
											 M509.6,412.7c7.3-2.6,13.2-3.8,13.6-2.6c0.4,1.2-5.5,4.1-12.8,6.7c-7.3,2.6-13.2,3.9-13.6,2.7
											C496.4,418.3,502.3,415.3,509.6,412.7z M507.9,406c7.5-1.8,13.5-2.4,13.8-1.2c0.3,1.2-5.9,3.5-13.5,5.3
											s-13.5,2.5-13.8,1.2C494.1,410.1,500.3,407.8,507.9,406z M506.8,399.1c7.7-1,13.7-1,13.9,0.3c0.2,1.2-6.3,2.9-14,3.9
											s-13.7,1-13.9-0.2C492.7,401.7,499.1,400.1,506.8,399.1z M506.5,392.1c7.7-0.2,13.7,0.5,13.8,1.7c0,1.3-6.5,2.2-14.3,2.4
											c-7.7,0.2-13.7-0.4-13.8-1.7C492.2,393.3,498.7,392.3,506.5,392.1z M506.9,385.1c7.7,0.6,13.6,1.9,13.5,3.1
											s-6.7,1.5-14.5,0.9c-7.7-0.6-13.6-1.8-13.5-3.1C492.5,384.8,499.2,384.5,506.9,385.1z M508,378.2
											c7.6,1.4,13.3,3.3,13.1,4.5s-6.8,0.8-14.5-0.6c-7.6-1.4-13.3-3.3-13.1-4.5C493.8,376.4,500.4,376.8,508,378.2z
											 M509.8,371.5c7.4,2.2,12.9,4.7,12.6,5.9c-0.4,1.2-6.9,0.1-14.3-2.1c-7.4-2.2-12.9-4.6-12.6-5.8
											C495.9,368.2,502.4,369.3,509.8,371.5z M512.4,364.9c7.2,3,12.4,6,11.9,7.2s-6.9-0.7-14-3.6c-7.2-3-12.4-6-11.9-7.1
											C498.9,360.3,505.2,362,512.4,364.9z M515.6,358.7c6.8,3.7,11.7,7.3,11.1,8.4c-0.6,1.1-6.8-1.4-13.6-5.1
											s-11.7-7.2-11.1-8.3C502.6,352.6,508.8,355,515.6,358.7z M519.4,352.9c6.4,4.4,10.8,8.4,10.1,9.5c-0.7,1-6.6-2.1-13-6.5
											c-6.4-4.4-10.9-8.4-10.2-9.4C507.1,345.4,513,348.5,519.4,352.9z M523.8,347.5c5.9,5,9.9,9.5,9.1,10.5
											c-0.8,1-6.3-2.8-12.2-7.8s-9.9-9.5-9.1-10.4C512.4,338.9,518,342.4,523.8,347.5z M528.8,342.5c5.3,5.6,8.8,10.5,7.9,11.4
											c-0.9,0.9-6-3.4-11.3-9c-5.3-5.6-8.9-10.5-8-11.3C518.4,332.7,523.5,336.9,528.8,342.5z M534.3,338.2
											c4.7,6.1,7.7,11.4,6.7,12.1c-1,0.8-5.6-4-10.3-10.2C526,334,523,328.8,524,328C524.9,327.3,529.6,332,534.3,338.2z
											 M540.2,334.4c4,6.6,6.5,12.1,5.4,12.8s-5.2-4.6-9.2-11.2c-4-6.6-6.5-12.1-5.4-12.7C532,322.6,536.1,327.8,540.2,334.4z
											 M546.4,331.2c3.3,7,5.2,12.7,4,13.3c-1.1,0.5-4.7-5.1-8-12.1s-5.2-12.7-4.1-13.2C539.5,318.6,543.1,324.2,546.4,331.2z
											 M552.9,328.8c2.6,7.3,3.8,13.2,2.6,13.6c-1.2,0.4-4.1-5.5-6.7-12.8c-2.6-7.3-3.9-13.2-2.7-13.6
											C547.4,315.5,550.4,321.5,552.9,328.8z M559.7,327c1.8,7.5,2.4,13.5,1.2,13.8s-3.5-5.9-5.3-13.5
											c-1.8-7.5-2.5-13.5-1.2-13.8C555.6,313.2,557.9,319.5,559.7,327z M566.6,325.9c1,7.7,1,13.7-0.3,13.9
											c-1.2,0.2-2.9-6.3-3.9-14s-1-13.7,0.2-13.9C563.9,311.8,565.6,318.2,566.6,325.9z M573.6,325.6c0.2,7.7-0.5,13.7-1.7,13.8
											c-1.3,0-2.2-6.5-2.4-14.3c-0.2-7.7,0.4-13.7,1.7-13.8C572.4,311.3,573.4,317.8,573.6,325.6z M580.6,326
											c-0.6,7.7-1.9,13.6-3.1,13.5c-1.2-0.1-1.5-6.7-0.9-14.5s1.8-13.6,3.1-13.5C581,311.6,581.2,318.3,580.6,326z M587.5,327.1
											c-1.4,7.6-3.3,13.3-4.5,13.1c-1.2-0.2-0.8-6.8,0.6-14.5s3.3-13.3,4.5-13.1C589.3,312.9,588.9,319.5,587.5,327.1z
											 M594.2,329c-2.2,7.4-4.7,12.9-5.9,12.6c-1.2-0.4-0.1-6.9,2.1-14.3c2.2-7.4,4.6-12.9,5.8-12.6
											C597.5,315,596.4,321.5,594.2,329z M600.7,331.5c-3,7.2-6,12.4-7.2,11.9s0.7-6.9,3.6-14c3-7.2,6-12.4,7.1-11.9
											C605.5,317.9,603.7,324.3,600.7,331.5z M607,334.7c-3.7,6.8-7.3,11.7-8.4,11.1c-1.1-0.6,1.4-6.8,5.1-13.6
											c3.7-6.8,7.2-11.7,8.3-11.1C613.1,321.7,610.7,327.9,607,334.7z M612.8,338.5c-4.4,6.4-8.4,10.8-9.5,10.1
											c-1.1-0.7,2.1-6.6,6.5-13c4.4-6.4,8.4-10.9,9.4-10.2C620.3,326.3,617.2,332.2,612.8,338.5z M618.2,343
											c-5,5.9-9.5,9.9-10.5,9.1s2.8-6.3,7.8-12.2s9.5-9.9,10.4-9.1C626.9,331.5,623.3,337.1,618.2,343z M623.1,347.9
											c-5.6,5.3-10.5,8.8-11.4,7.9c-0.9-0.9,3.4-6,9-11.3s10.5-8.9,11.3-8C632.8,337.4,628.8,342.6,623.1,347.9z M627.5,353.4
											c-6.1,4.7-11.4,7.7-12.1,6.7c-0.8-1,4-5.6,10.2-10.3c6.2-4.7,11.3-7.7,12.1-6.7C638.4,344,633.7,348.7,627.5,353.4z
											 M631.3,359.3c-6.6,4-12.1,6.5-12.8,5.4c-0.7-1.1,4.6-5.2,11.2-9.2s12.1-6.5,12.7-5.4
											C643.1,351.1,637.9,355.2,631.3,359.3z M634.4,365.5c-7,3.3-12.7,5.2-13.3,4s5.1-4.7,12.1-8s12.7-5.2,13.2-4.1
											C647,358.6,641.4,362.2,634.4,365.5z M636.9,372.1c-7.3,2.6-13.2,3.8-13.6,2.6c-0.4-1.2,5.5-4.1,12.8-6.7
											c7.3-2.6,13.2-3.9,13.6-2.7C650.2,366.5,644.2,369.5,636.9,372.1z M638.7,378.8c-7.5,1.8-13.5,2.4-13.8,1.2
											s5.9-3.5,13.5-5.3c7.5-1.8,13.5-2.5,13.8-1.2C652.4,374.7,646.2,377,638.7,378.8z M639.8,385.7c-7.7,1-13.7,1-13.9-0.3
											c-0.2-1.2,6.3-2.9,14-3.9s13.7-1,13.9,0.2C653.9,383.1,647.4,384.7,639.8,385.7z M640.1,392.7c-7.7,0.2-13.7-0.5-13.8-1.7
											c0-1.3,6.5-2.2,14.3-2.4c7.8-0.2,13.7,0.4,13.8,1.7C654.4,391.5,647.8,392.5,640.1,392.7z M639.7,399.7
											c-7.7-0.6-13.6-1.9-13.5-3.1s6.7-1.5,14.5-0.9c7.7,0.6,13.6,1.8,13.5,3.1C654.1,400,647.4,400.3,639.7,399.7z
											 M638.6,406.6c-7.6-1.4-13.3-3.3-13.1-4.5s6.8-0.8,14.5,0.6c7.6,1.4,13.3,3.3,13.1,4.5C652.8,408.4,646.2,408,638.6,406.6
											z M636.7,413.3c-7.4-2.2-12.9-4.7-12.6-5.9c0.4-1.2,6.9-0.1,14.3,2.1c7.4,2.2,12.9,4.6,12.6,5.8
											C650.7,416.6,644.2,415.5,636.7,413.3z M634.2,419.9c-7.2-3-12.4-6-11.9-7.2s6.9,0.7,14,3.6c7.1,2.9,12.4,6,11.9,7.1
											C647.7,424.5,641.3,422.8,634.2,419.9z M631,426.1c-6.8-3.7-11.7-7.3-11.1-8.4c0.6-1.1,6.8,1.4,13.6,5.1
											s11.7,7.2,11.1,8.3C644,432.2,637.8,429.8,631,426.1z M627.1,431.9c-6.4-4.4-10.8-8.4-10.1-9.5c0.7-1,6.6,2.1,13,6.5
											c6.4,4.4,10.9,8.4,10.2,9.4C639.4,439.4,633.5,436.3,627.1,431.9z M622.7,437.3c-5.9-5-9.9-9.5-9.1-10.5
											c0.8-1,6.3,2.8,12.2,7.8s9.9,9.5,9.1,10.4S628.6,442.4,622.7,437.3z M617.8,442.3c-5.3-5.6-8.8-10.5-7.9-11.4
											c0.9-0.9,6,3.4,11.3,9s8.9,10.5,8,11.3C628.2,452.1,623.1,447.9,617.8,442.3z M612.3,446.6c-4.7-6.1-7.7-11.4-6.7-12.1
											c1-0.8,5.6,4,10.3,10.2c4.7,6.1,7.7,11.3,6.7,12.1C621.7,457.5,617,452.8,612.3,446.6z M606.4,450.4
											c-4-6.6-6.5-12.1-5.4-12.8s5.2,4.6,9.2,11.2s6.5,12.1,5.4,12.7C614.6,462.2,610.5,457,606.4,450.4z M600.2,453.6
											c-3.3-7-5.2-12.7-4-13.3c1.1-0.5,4.7,5.1,8,12.1s5.2,12.7,4.1,13.2C607.1,466.2,603.5,460.6,600.2,453.6z M593.6,456
											c-2.6-7.3-3.8-13.2-2.6-13.6c1.2-0.4,4.1,5.5,6.7,12.8s3.9,13.2,2.7,13.6C599.2,469.3,596.2,463.3,593.6,456z
											 M586.9,457.8c-1.8-7.5-2.4-13.5-1.2-13.8s3.5,5.9,5.3,13.5s2.5,13.5,1.2,13.8C591,471.6,588.7,465.3,586.9,457.8z
											 M580,458.9c-1-7.7-1-13.7,0.3-13.9c1.2-0.2,2.9,6.3,3.9,14s1,13.7-0.2,13.9S581,466.6,580,458.9z M573,459.2
											c-0.2-7.7,0.5-13.7,1.7-13.8c1.3,0,2.2,6.5,2.4,14.3c0.2,7.7-0.4,13.7-1.7,13.8C574.2,473.5,573.2,467,573,459.2z"/>
										<g>
											<path class="st25" d="M521.7,399.4c0-30.8,20.1-54.6,51.1-54.6s49.9,26.2,49.9,57.1c0,30.9-18.9,54.6-49.9,54.6
												S521.7,430.2,521.7,399.4z"/>
											<path d="M529.3,399.6c0-26.2,17.1-46.4,43.4-46.4s42.3,22.3,42.3,48.5s-16,46.4-42.3,46.4S529.3,425.8,529.3,399.6z"/>
										</g>
										<g class="st3">
											<path class="st32" d="M629.2,392.1c0-33.7-22-59.7-55.9-59.7s-54.5,28.7-54.5,62.4c0,33.7,20.6,59.7,54.5,59.7
												S629.2,425.8,629.2,392.1z"/>
											<path class="st5" d="M620.9,392.3c0-28.6-18.7-50.7-47.5-50.7s-46.3,24.4-46.3,53c0,28.6,17.5,50.7,46.3,50.7
												C602.2,445.3,620.9,420.9,620.9,392.3z"/>
										</g>
										<g class="st33">
											<path class="st0" d="M584.9,418.9c-3,6.3-1.5,13.2,3.3,15.5c4.8,2.3,11.1-1,14.1-7.2c3-6.3,1.5-13.2-3.3-15.5
												C594.2,409.4,587.9,412.6,584.9,418.9z"/>
											<path class="st0" d="M546.5,399.5c-2.7,3.2-2.8,7.5-0.3,9.7c2.6,2.2,6.8,1.3,9.5-1.9c2.7-3.2,2.8-7.5,0.3-9.7
												C553.4,395.4,549.2,396.3,546.5,399.5z"/>
										</g>
									</g>
								</g>
							</g>
							<g>
								<path id="SVGID_00000013171973287231838860000000913527234250322855_" class="st26" d="M574.5,466c-36,0-67.1-21-68-23
									c-9.1-18.3-6.1-32.9,1-47c15.3-30.3,118.6-38.7,126.5-27.8C664.6,410,640.9,466,574.5,466z"/>
							</g>
						</g>
					</g>
					<g>
						<path d="M494.7,458.2l6.9-1.4l-0.7-3.4c-0.1-0.6-11.8-59,9.1-79.9c25.3-25.3,110.6-45.1,146.8-47l1.8-0.1
							c1.1-0.1,2.2-0.6,2.9-1.4l2-2.4c1.2-1.4,0.1-3.5-1.7-3.4l-5.4,0.3c-38.1,2-124.5,22.2-151.4,49.1
							c-23.6,23.5-11.5,83.7-11,86.2L494.7,458.2z"/>
					</g>
				</g>
				<g>
					<path class="st13" d="M209.6,364.1c0,0,1.1-9.4-3.9-20.2c-6-13-15-19-15-19s137.2,20.2,153.1,52s12,45.6,12,45.6
						s-12.3-53.9-72.7-59.3C222.7,357.8,209.6,364.1,209.6,364.1z"/>
					<g>
						<path d="M190.7,408c-3,53,76.1,76.1,123.1,60.4c8.8-2.9,19-6.3,29.5-8.9c3,3.9,11.3,1.8,10.8-2.8c0.1-6.9,4.4-40.9-1-55.3
							c-18.6-43.8-102.7-47.8-143.5-43.3C199.5,369.6,191.5,392.9,190.7,408z"/>
						<g>
							<g>
								<defs>
									<path id="SVGID_00000138567706746249945100000004812757010479153596_" d="M213.3,368.1c7.9-10.9,111.2-2.4,126.5,27.8
										c7.1,14.1,10.1,28.7,1,47c-1,2-32,23-68,23C206.4,466,182.7,410,213.3,368.1z"/>
								</defs>
								<clipPath id="SVGID_00000036246778528979802470000017051953164969607348_">
									<use xlink:href="#SVGID_00000138567706746249945100000004812757010479153596_"  style="overflow:visible;"/>
								</clipPath>
								<path style="clip-path:url(#SVGID_00000036246778528979802470000017051953164969607348_);fill:#2B293A;" d="M499.4,356.9
									c-15.6,8.8-23.7,86.6-23,101.1c0.6,14.5,74.1,29.4,97.1,33c73.3,5.7,116.9-84.1,86.1-155.1
									C621,329.1,526.6,335.1,499.4,356.9z"/>
							</g>
							<g>
								<defs>
									<path id="SVGID_00000038373814282783248840000017670629102880820415_" d="M213.3,368.1c7.9-10.9,111.2-2.4,126.5,27.8
										c7.1,14.1,10.1,28.7,1,47c-1,2-32,23-68,23C206.4,466,182.7,410,213.3,368.1z"/>
								</defs>
								<clipPath id="SVGID_00000090989892069780712650000001209557657999528369_">
									<use xlink:href="#SVGID_00000038373814282783248840000017670629102880820415_"  style="overflow:visible;"/>
								</clipPath>
								<g style="clip-path:url(#SVGID_00000090989892069780712650000001209557657999528369_);">
									<g>
										
											<linearGradient id="SVGID_00000160908310556998539770000002424289227441054381_" gradientUnits="userSpaceOnUse" x1="5761.2324" y1="428.8899" x2="5932.4326" y2="428.8899" gradientTransform="matrix(1 0 0 -1 -5576.9326 842.4899)">
											<stop  offset="0" style="stop-color:#FFD800"/>
											<stop  offset="1" style="stop-color:#FFB700"/>
										</linearGradient>
										<path style="fill:url(#SVGID_00000160908310556998539770000002424289227441054381_);" d="M355.5,412.2
											c0-34-34.9-60.2-88.7-60.2s-82.5,5-82.5,39.1c0,34.1,28.8,84.1,82.5,84.1S355.5,446.3,355.5,412.2z"/>
									</g>
									<g>
										
											<linearGradient id="SVGID_00000121993334046246069310000016681231777352632973_" gradientUnits="userSpaceOnUse" x1="3293.5" y1="450.0898" x2="3455.7012" y2="450.0898" gradientTransform="matrix(-1 0 0 -1 3648.6001 842.4899)">
											<stop  offset="0" style="stop-color:#FFD800"/>
											<stop  offset="1" style="stop-color:#FFB700"/>
										</linearGradient>
										
											<path style="opacity:0.3;fill:url(#SVGID_00000121993334046246069310000016681231777352632973_);enable-background:new    ;" d="
											M280.3,473.3c-1.2,0.1-2.5-5.8-3.1-13.5s-0.4-14.4,0.9-14.5c1.2-0.1,2.5,5.8,3.1,13.5
											C281.9,466.5,281.6,473.2,280.3,473.3z M288.8,472.2c-1.2,0.2-3.1-5.5-4.5-13.1s-1.9-14.2-0.6-14.5s3.1,5.5,4.5,13.1
											S290,471.9,288.8,472.2z M297,470.2c-1.2,0.4-3.6-5.1-5.8-12.6s-3.3-14-2.1-14.3c1.2-0.4,3.7,5.1,5.9,12.6
											C297.1,463.3,298.2,469.8,297,470.2z M305,467.3c-1.2,0.5-4.1-4.7-7.1-11.9s-4.8-13.5-3.6-14s4.2,4.7,7.2,11.9
											S306.2,466.9,305,467.3z M312.7,463.7c-1.1,0.6-4.6-4.3-8.3-11.1c-3.7-6.8-6.2-13-5.1-13.6s4.7,4.3,8.4,11.1
											C311.3,456.9,313.8,463.1,312.7,463.7z M319.9,459.2c-1,0.7-5-3.8-9.4-10.2s-7.5-12.2-6.5-13c1-0.7,5.1,3.7,9.5,10.1
											C317.9,452.6,320.9,458.5,319.9,459.2z M326.6,454.1c-1,0.8-5.4-3.2-10.4-9.1s-8.7-11.4-7.8-12.2
											c0.9-0.8,5.4,3.2,10.5,9.1C323.9,447.7,327.6,453.3,326.6,454.1z M332.8,448.2c-0.9,0.9-5.7-2.6-11.3-8
											c-5.6-5.3-9.9-10.4-9-11.3c0.9-0.9,5.7,2.6,11.4,7.9C329.4,442.2,333.7,447.3,332.8,448.2z M338.3,441.8
											c-0.8,1-6-2-12.1-6.7s-10.9-9.3-10.2-10.3c0.8-1,6,2,12.1,6.7C334.3,436.1,339.1,440.8,338.3,441.8z M343.1,434.8
											c-0.7,1.1-6.1-1.4-12.7-5.4s-11.8-8.1-11.2-9.2c0.7-1.1,6.2,1.4,12.8,5.4C338.6,429.6,343.8,433.7,343.1,434.8z
											 M347.2,427.3c-0.5,1.1-6.3-0.8-13.2-4.1c-7-3.3-12.6-6.9-12.1-8c0.5-1.1,6.3,0.7,13.3,4
											C342.1,422.6,347.7,426.2,347.2,427.3z M350.4,419.5c-0.4,1.2-6.3-0.1-13.6-2.7c-7.3-2.6-13.3-5.5-12.8-6.7
											c0.4-1.2,6.3,0,13.6,2.6C344.9,415.3,350.8,418.3,350.4,419.5z M352.8,411.3c-0.3,1.2-6.3,0.6-13.8-1.2
											c-7.5-1.8-13.8-4.1-13.5-5.3s6.3-0.6,13.8,1.2C346.8,407.8,353.1,410.1,352.8,411.3z M354.4,403
											c-0.2,1.2-6.2,1.2-13.9,0.2c-7.7-1-14.1-2.6-14-3.9c0.2-1.2,6.2-1.3,13.9-0.3C348.1,400.1,354.5,401.7,354.4,403z
											 M355.1,394.5c0,1.3-6,1.9-13.8,1.7c-7.7-0.2-14.3-1.1-14.3-2.4s6-1.9,13.8-1.7C348.5,392.3,355.1,393.3,355.1,394.5z
											 M354.8,386c0.1,1.2-5.8,2.5-13.5,3.1c-7.7,0.6-14.4,0.4-14.5-0.9c-0.1-1.2,5.8-2.5,13.5-3.1
											C348.1,384.5,354.7,384.8,354.8,386z M353.7,377.6c0.2,1.2-5.5,3.1-13.1,4.5c-7.6,1.4-14.2,1.9-14.5,0.6s5.5-3.1,13.1-4.5
											C346.9,376.8,353.5,376.4,353.7,377.6z M351.7,369.4c0.4,1.2-5.1,3.6-12.6,5.8c-7.4,2.2-14,3.3-14.3,2.1
											c-0.4-1.2,5.1-3.7,12.6-5.9C344.8,369.3,351.4,368.2,351.7,369.4z M348.9,361.4c0.5,1.2-4.7,4.1-11.9,7.1
											s-13.5,4.8-14,3.6c-0.5-1.2,4.7-4.2,11.9-7.2C342,362,348.4,360.2,348.9,361.4z M345.2,353.7c0.6,1.1-4.3,4.6-11.1,8.3
											c-6.8,3.7-13,6.2-13.6,5.1c-0.6-1.1,4.3-4.7,11.1-8.4C338.5,355,344.6,352.6,345.2,353.7z M340.8,346.5
											c0.7,1-3.8,5-10.2,9.4c-6.4,4.4-12.2,7.5-13,6.5c-0.7-1,3.7-5.1,10.1-9.5C334.2,348.5,340.1,345.4,340.8,346.5z
											 M335.6,339.7c0.8,1-3.2,5.4-9.1,10.4s-11.4,8.7-12.2,7.8s3.2-5.4,9.1-10.5C329.3,342.3,334.8,338.8,335.6,339.7z
											 M329.8,333.6c0.9,0.9-2.6,5.7-8,11.3s-10.4,9.9-11.3,9c-0.9-0.9,2.6-5.7,7.9-11.4C323.8,336.9,328.9,332.7,329.8,333.6z
											 M323.3,328c1,0.8-2,6-6.7,12.1c-4.7,6.1-9.3,11-10.3,10.2s2-6,6.7-12.1C317.7,332,322.3,327.3,323.3,328z M316.3,323.2
											c1.1,0.7-1.4,6.1-5.4,12.7c-4,6.6-8.1,11.8-9.2,11.2c-1.1-0.7,1.4-6.2,5.4-12.8S315.3,322.6,316.3,323.2z M308.9,319.2
											c1.1,0.5-0.8,6.3-4.1,13.2c-3.3,7-6.9,12.6-8,12.1s0.7-6.3,4-13.3C304.2,324.2,307.8,318.6,308.9,319.2z M301,315.9
											c1.2,0.4-0.1,6.3-2.7,13.6s-5.5,13.3-6.7,12.8c-1.2-0.4,0-6.3,2.6-13.6C296.9,321.5,299.9,315.5,301,315.9z M292.9,313.5
											c1.2,0.3,0.6,6.3-1.2,13.8c-1.8,7.5-4.1,13.8-5.3,13.5c-1.2-0.3-0.6-6.3,1.2-13.8C289.4,319.5,291.7,313.2,292.9,313.5z
											 M284.5,312c1.2,0.2,1.2,6.2,0.2,13.9c-1,7.7-2.6,14.1-3.9,14c-1.2-0.2-1.3-6.2-0.3-13.9
											C281.6,318.2,283.3,311.8,284.5,312z M276.1,311.3c1.3,0,1.9,6,1.7,13.8c-0.2,7.7-1.1,14.3-2.4,14.3s-1.9-6-1.7-13.8
											C273.8,317.8,274.8,311.3,276.1,311.3z M267.6,311.5c1.2-0.1,2.5,5.8,3.1,13.5s0.4,14.4-0.9,14.5
											c-1.3,0.1-2.5-5.8-3.1-13.5S266.3,311.6,267.6,311.5z M259.2,312.6c1.2-0.2,3.1,5.5,4.5,13.1c1.4,7.6,1.9,14.2,0.6,14.5
											s-3.1-5.5-4.5-13.1C258.4,319.5,257.9,312.9,259.2,312.6z M250.9,314.6c1.2-0.4,3.6,5.1,5.8,12.6c2.2,7.4,3.3,14,2.1,14.3
											c-1.2,0.4-3.7-5.1-5.9-12.6C250.8,321.5,249.7,315,250.9,314.6z M242.9,317.5c1.2-0.5,4.1,4.7,7.1,11.9s4.8,13.5,3.6,14
											c-1.2,0.5-4.2-4.7-7.2-11.9C243.4,324.3,241.8,317.9,242.9,317.5z M235.3,321.1c1.1-0.6,4.6,4.3,8.3,11.1
											c3.7,6.8,6.2,13,5.1,13.6c-1.1,0.6-4.7-4.3-8.4-11.1C236.6,327.9,234.2,321.7,235.3,321.1z M228,325.6
											c1-0.7,5,3.8,9.4,10.2s7.5,12.2,6.5,13c-1,0.7-5.1-3.7-9.5-10.1C230.1,332.2,227,326.3,228,325.6z M221.3,330.7
											c1-0.8,5.4,3.2,10.4,9.1c5,5.9,8.7,11.4,7.8,12.2c-0.9,0.8-5.4-3.2-10.5-9.1C224,337.1,220.3,331.5,221.3,330.7z
											 M215.1,336.6c0.9-0.9,5.7,2.6,11.3,8c5.6,5.3,9.9,10.4,9,11.3c-0.9,0.9-5.7-2.6-11.4-7.9
											C218.5,342.6,214.3,337.5,215.1,336.6z M209.6,343c0.8-1,6,2,12.1,6.7s10.9,9.3,10.2,10.3c-0.8,1-6-2-12.1-6.7
											C213.6,348.7,208.8,344,209.6,343z M204.8,350c0.7-1.1,6.1,1.4,12.7,5.4s11.8,8.1,11.2,9.2c-0.6,1.1-6.2-1.4-12.8-5.4
											S204.1,351.1,204.8,350z M200.7,357.5c0.5-1.1,6.3,0.8,13.2,4.1c7,3.3,12.6,6.9,12.1,8c-0.5,1.1-6.3-0.7-13.3-4
											S200.2,358.6,200.7,357.5z M197.5,365.3c0.4-1.2,6.3,0.1,13.6,2.7c7.3,2.6,13.3,5.5,12.8,6.7c-0.4,1.2-6.3,0-13.6-2.6
											C203,369.5,197.1,366.5,197.5,365.3z M195.1,373.5c0.3-1.2,6.3-0.6,13.8,1.2s13.8,4.1,13.5,5.3c-0.3,1.2-6.3,0.6-13.8-1.2
											C201.1,377,194.8,374.7,195.1,373.5z M193.5,381.8c0.2-1.2,6.2-1.2,13.9-0.2c7.7,1,14.1,2.6,14,3.9
											c-0.2,1.2-6.2,1.3-13.9,0.3C199.8,384.7,193.4,383.1,193.5,381.8z M192.9,390.3c0-1.3,6-1.9,13.8-1.7
											c7.7,0.2,14.3,1.1,14.3,2.4s-6,1.9-13.8,1.7C199.4,392.5,192.8,391.5,192.9,390.3z M193.1,398.8
											c-0.1-1.2,5.8-2.5,13.5-3.1c7.7-0.6,14.4-0.4,14.5,0.9c0.1,1.2-5.8,2.5-13.5,3.1C199.8,400.3,193.2,400,193.1,398.8z
											 M194.2,407.2c-0.2-1.2,5.5-3.1,13.1-4.5c7.6-1.4,14.2-1.9,14.5-0.6c0.2,1.2-5.5,3.1-13.1,4.5
											C201.1,408,194.4,408.4,194.2,407.2z M196.2,415.4c-0.4-1.2,5.1-3.6,12.6-5.8c7.4-2.2,14-3.3,14.3-2.1
											c0.4,1.2-5.1,3.7-12.6,5.9C203.1,415.5,196.5,416.6,196.2,415.4z M199,423.4c-0.5-1.2,4.7-4.1,11.9-7.1
											c7.2-3,13.5-4.8,14-3.6s-4.7,4.2-11.9,7.2S199.5,424.6,199,423.4z M202.7,431.1c-0.6-1.1,4.3-4.6,11.1-8.3
											c6.8-3.7,13-6.2,13.6-5.1c0.6,1.1-4.3,4.7-11.1,8.4C209.5,429.8,203.3,432.2,202.7,431.1z M207.1,438.3
											c-0.7-1,3.8-5,10.2-9.4c6.4-4.4,12.2-7.5,13-6.5c0.7,1-3.7,5.1-10.1,9.5C213.7,436.3,207.8,439.4,207.1,438.3z
											 M212.3,445.1c-0.8-1,3.2-5.4,9.1-10.4s11.4-8.7,12.2-7.8c0.8,1-3.2,5.4-9.1,10.5C218.6,442.4,213.1,446,212.3,445.1z
											 M218.1,451.2c-0.9-0.9,2.6-5.7,8-11.3c5.3-5.6,10.4-9.9,11.3-9c0.9,0.9-2.6,5.7-7.9,11.4
											C224.2,447.9,219,452.1,218.1,451.2z M224.6,456.8c-1-0.8,2-6,6.7-12.1s9.3-10.9,10.3-10.2c1,0.8-2,6-6.7,12.1
											S225.6,457.5,224.6,456.8z M231.6,461.6c-1.1-0.7,1.4-6.1,5.4-12.7s8.1-11.8,9.2-11.2c1.1,0.7-1.4,6.2-5.4,12.8
											C236.8,457,232.7,462.2,231.6,461.6z M239,465.6c-1.1-0.5,0.8-6.3,4.1-13.2c3.3-7,6.9-12.6,8-12.1s-0.7,6.3-4,13.3
											C243.7,460.6,240.2,466.2,239,465.6z M246.9,468.9c-1.2-0.4,0.1-6.3,2.7-13.6s5.5-13.3,6.7-12.8c1.2,0.4,0,6.3-2.6,13.6
											C251,463.3,248.1,469.3,246.9,468.9z M255,471.3c-1.2-0.3-0.6-6.3,1.2-13.8s4.1-13.8,5.3-13.5c1.2,0.3,0.6,6.3-1.2,13.8
											C258.6,465.3,256.2,471.6,255,471.3z M263.4,472.8c-1.2-0.2-1.2-6.2-0.2-13.9s2.6-14.1,3.9-14c1.2,0.2,1.3,6.2,0.3,13.9
											C266.3,466.6,264.6,473,263.4,472.8z M271.8,473.5c-1.3,0-1.9-6-1.7-13.8c0.2-7.7,1.1-14.3,2.4-14.3s1.9,6,1.7,13.8
											C274.1,467,273.1,473.5,271.8,473.5z"/>
										<g>
											<path class="st25" d="M325.6,399.4c0-30.8-20.1-54.6-51.1-54.6s-49.9,26.2-49.9,57.1c0,30.9,18.9,54.6,49.9,54.6
												S325.6,430.2,325.6,399.4z"/>
											<path d="M318,399.6c0-26.2-17.1-46.4-43.4-46.4s-42.3,22.3-42.3,48.5s16,46.4,42.3,46.4C300.9,448,318,425.8,318,399.6z"
												/>
										</g>
										<g class="st3">
											<path class="st32" d="M629.2,392.1c0-33.7-22-59.7-55.9-59.7s-54.5,28.7-54.5,62.4c0,33.7,20.6,59.7,54.5,59.7
												S629.2,425.8,629.2,392.1z"/>
											<path class="st5" d="M620.9,392.3c0-28.6-18.7-50.7-47.5-50.7s-46.3,24.4-46.3,53c0,28.6,17.5,50.7,46.3,50.7
												C602.2,445.3,620.9,420.9,620.9,392.3z"/>
										</g>
										<g class="st33">
											<path class="st0" d="M286,418.9c-3,6.3-1.5,13.2,3.3,15.5c4.8,2.3,11.1-1,14.1-7.2c3-6.3,1.5-13.2-3.3-15.5
												C295.3,409.4,289,412.6,286,418.9z"/>
											<path class="st0" d="M251.5,399.5c-2.7,3.2-2.8,7.5-0.3,9.7c2.6,2.2,6.8,1.3,9.5-1.9c2.7-3.2,2.8-7.5,0.3-9.7
												C258.4,395.4,254.2,396.3,251.5,399.5z"/>
										</g>
									</g>
								</g>
							</g>
							<g>
								<path id="SVGID_00000124135939317171431890000013248329006791661755_" class="st26" d="M213.3,368.1
									c7.9-10.9,111.2-2.4,126.5,27.8c7.1,14.1,10.1,28.7,1,47c-1,2-32,23-68,23C206.4,466,182.7,410,213.3,368.1z"/>
							</g>
						</g>
					</g>
					<g>
						<path d="M352.5,458.2l-6.9-1.4l0.7-3.4c0.1-0.6,11.8-59-9.1-79.9c-25.3-25.3-110.6-45.1-146.8-47l-1.8-0.1
							c-1.1-0.1-2.2-0.6-2.9-1.4l-2-2.4c-1.2-1.4-0.1-3.5,1.7-3.4l5.4,0.3c38.1,2,124.5,22.2,151.4,49.1
							c23.6,23.5,11.5,83.7,11,86.2L352.5,458.2z"/>
					</g>
				</g>
			</g>
		</g>
	</g>
</g>
</svg>
