<?xml version="1.0" encoding="utf-8"?>
<!-- Generator: Adobe Illustrator 23.0.3, SVG Export Plug-In . SVG Version: 6.00 Build 0)  -->
<svg version="1.1" id="Calque_1" xmlns="http://www.w3.org/2000/svg" xmlns:xlink="http://www.w3.org/1999/xlink" x="0px" y="0px"
	 viewBox="0 0 256 256" style="enable-background:new 0 0 256 256;" xml:space="preserve">
<style type="text/css">
	.st0{fill:#EDF0F2;}
	.st1{fill:url(#SVGID_1_);}
	.st2{fill:#FFFFFF;}
	.st3{fill:url(#SVGID_2_);}
</style>
<g>
	<g>
		<circle class="st0" cx="128.1" cy="128.2" r="127.9"/>
		
			<linearGradient id="SVGID_1_" gradientUnits="userSpaceOnUse" x1="92.0939" y1="243.6545" x2="132.1881" y2="21.3615" gradientTransform="matrix(1 0 0 -1 0 258)">
			<stop  offset="0" style="stop-color:#27D3A2"/>
			<stop  offset="1" style="stop-color:#9388FD"/>
		</linearGradient>
		<path class="st1" d="M209.3,226.9c-19.5,16.1-43.4,26-68.6,28.4c-33.7,3.3-67.4-6.9-93.7-28.4c-26.2-21.5-42.8-52.5-46.2-86.3
			c-2.5-25.2,2.5-50.5,14.4-72.8c11.9-22.3,30.2-40.6,52.5-52.5c22.3-11.9,47.6-17,72.8-14.5c25.2,2.5,49,12.3,68.6,28.4l-25.8,31.5
			c-13.3-10.9-29.6-17.7-46.8-19.3c-17.2-1.7-34.4,1.8-49.6,9.9c-15.2,8.1-27.6,20.6-35.8,35.8c-8.1,15.2-11.5,32.5-9.8,49.6
			c2.3,23,13.6,44.2,31.5,58.8c17.9,14.7,40.9,21.6,63.9,19.3c17.2-1.7,33.4-8.5,46.7-19.4L209.3,226.9z"/>
		<path class="st2" d="M128.5,232.9c57.7,0,104.4-46.8,104.4-104.4C232.9,70.8,186.2,24,128.5,24C70.8,24,24,70.8,24,128.5
			C24,186.2,70.8,232.9,128.5,232.9z"/>
	</g>
	
		<linearGradient id="SVGID_2_" gradientUnits="userSpaceOnUse" x1="128.9998" y1="178.712" x2="128.9998" y2="83.1" gradientTransform="matrix(1 0 0 -1 0 258)">
		<stop  offset="0" style="stop-color:#283947"/>
		<stop  offset="1" style="stop-color:#657786"/>
	</linearGradient>
	<path class="st3" d="M174,115h-9.7c-5.3-14.8-19.6-24.9-38.5-24.9h-31V115H84v8.9h10.8v9.4H84v8.9h10.8v24.6h31
		c18.6,0,32.8-10,38.3-24.6h9.9v-8.9h-7.7c0.2-1.6,0.3-3.2,0.3-4.8v-0.2c0-1.5-0.1-2.9-0.2-4.3h7.6L174,115L174,115z M103.5,98.1
		h22.3c13.8,0,24.1,6.8,28.9,16.9h-51.2V98.1L103.5,98.1z M125.8,158.8h-22.3v-16.6h51.2C149.9,152.2,139.6,158.8,125.8,158.8z
		 M157.6,128.7c0,1.6-0.1,3.1-0.3,4.6h-53.8v-9.4h53.8c0.2,1.5,0.3,3,0.3,4.5V128.7z"/>
</g>
</svg>
