<?xml version="1.0" encoding="UTF-8"?>
<svg viewBox="0 0 1024 1024" version="1.1" xmlns="http://www.w3.org/2000/svg" xmlns:xlink="http://www.w3.org/1999/xlink">
    <defs>
        <linearGradient x1="74.9554145%" y1="95.83573%" x2="19.7903626%" y2="-4.1682894%" id="ant-web3-icon-chrome-circle-colorful-1">
            <stop stop-color="#1E8E3E" offset="0%"></stop>
            <stop stop-color="#34A853" offset="100%"></stop>
        </linearGradient>
        <linearGradient x1="21.2933549%" y1="100.176733%" x2="59.7868226%" y2="0.180966551%" id="ant-web3-icon-chrome-circle-colorful-2">
            <stop stop-color="#FCC934" offset="0%"></stop>
            <stop stop-color="#FBBC04" offset="100%"></stop>
        </linearGradient>
        <linearGradient x1="1.83307774e-05%" y1="49.999873%" x2="100%" y2="49.999873%" id="ant-web3-icon-chrome-circle-colorful-3">
            <stop stop-color="#D93025" offset="0%"></stop>
            <stop stop-color="#EA4335" offset="100%"></stop>
        </linearGradient>
    </defs>
    <g stroke="none" stroke-width="1" fill="none" fill-rule="evenodd">
        <g transform="translate(-2423.000000, -5178.000000)" fill-rule="nonzero">
            <g transform="translate(2423.000000, 5178.000000)">
                <path d="M512.007311,767.989827 C653.398962,767.989827 768.019094,653.36824 768.019094,511.974795 C768.019094,370.581351 653.398962,255.959764 512.007311,255.959764 C370.615661,255.959764 255.995528,370.581351 255.995528,511.974795 C255.995528,653.36824 370.615661,767.989827 512.007311,767.989827 Z" fill="#FFFFFF"></path>
                <path d="M290.294605,640.039203 L68.6173343,256.078425 C23.6686547,333.906995 0,422.198858 0,512.075576 C0,601.952294 23.6564637,690.245783 68.5996167,768.077603 C113.542932,845.909424 178.185826,910.53737 256.028037,955.462725 C333.870249,1000.38646 422.167494,1024.02436 512.043071,1024 L733.720017,640.039203 L733.720017,639.972558 C711.267377,678.9096 678.957878,711.247143 640.040836,733.732577 C601.123794,756.218012 556.972733,768.059723 512.026817,768.066225 C467.0809,768.072727 422.924963,756.245645 384.00142,733.769963 C345.079501,711.295907 312.758623,678.968117 290.294605,640.039203 Z" fill="url(#ant-web3-icon-chrome-circle-colorful-1)"></path>
                <path d="M733.703762,640.022948 L512.028442,1023.98373 C601.90402,1023.99673 690.198014,1000.34582 768.033723,955.409084 C845.869433,910.473976 910.503062,845.837902 955.435974,767.999579 C1000.36726,690.159632 1024.01462,601.862892 1024,511.986174 C1023.98374,422.109456 1000.30549,333.822469 955.344948,255.998776 L511.991056,255.998776 L511.93579,256.032911 C556.881707,256.010155 601.040895,267.824232 639.972566,290.283659 C678.904237,312.744711 711.234868,345.059497 733.713515,383.981909 C756.192162,422.902696 768.025596,467.057568 768.025596,512.002429 C768.023971,556.948915 756.187286,601.102162 733.707013,640.022948 L733.703762,640.022948 Z" fill="url(#ant-web3-icon-chrome-circle-colorful-2)"></path>
                <path d="M512.007311,714.709441 C623.942165,714.709441 714.684119,623.966336 714.684119,512.030062 C714.684119,400.093789 623.942165,309.350683 512.007311,309.350683 C400.072458,309.350683 309.332129,400.093789 309.332129,512.030062 C309.332129,623.966336 400.072458,714.709441 512.007311,714.709441 Z" fill="#1A73E8"></path>
                <path d="M512.008937,256.015031 L955.362828,256.015031 C910.434792,178.173458 845.806039,113.532019 767.973581,68.5910595 C690.141122,23.6502622 601.847129,0 511.971551,0 C422.095973,0 333.806855,23.6754573 255.980899,68.6274705 C178.153317,113.579321 113.534155,178.23035 68.6183096,256.0768 L290.294605,640.037578 L290.351497,640.068462 C267.859846,601.154177 256.010157,557.005808 255.995528,512.059321 C255.980899,467.112835 267.802954,422.954712 290.270223,384.027423 C312.735866,345.100134 345.05837,312.77397 383.981914,290.303165 C422.907083,267.830734 467.06302,256.005278 512.008937,256.015031 Z" fill="url(#ant-web3-icon-chrome-circle-colorful-3)"></path>
            </g>
        </g>
    </g>
</svg>
