<?xml version="1.0" encoding="UTF-8"?>
<svg viewBox="0 0 1024 1024"
  xmlns="http://www.w3.org/2000/svg">
    <g stroke="none" stroke-width="1" fill="none" fill-rule="evenodd">
        <g transform="translate(125.000000, 171.000000)" id="coinbase_wallet_logo_bg">
            <g transform="translate(-125.000000, -171.000000)">
                <circle fill="#0052FF" fill-rule="nonzero" cx="512" cy="512" r="512"></circle>
                <path d="M153.6,512 C153.6,709.9392 314.0608,870.4 512,870.4 C709.9392,870.4 870.4,709.9392 870.4,512 C870.4,314.0608 709.9392,153.6 512,153.6 C314.0608,153.6 153.6,314.0608 153.6,512 Z M420.409344,396.515328 C407.213056,396.515328 396.515328,407.213056 396.515328,420.409344 L396.515328,603.590656 C396.515328,616.786944 407.213056,627.484672 420.409344,627.484672 L603.590656,627.484672 C616.786944,627.484672 627.484672,616.786944 627.484672,603.590656 L627.484672,420.409344 C627.484672,407.213056 616.786944,396.515328 603.590656,396.515328 L420.409344,396.515328 Z" fill="#FFFFFF"></path>
            </g>
        </g>
    </g>
</svg>
