<?xml version="1.0" encoding="utf-8"?>
<!-- Generator: Adobe Illustrator 26.0.1, SVG Export Plug-In . SVG Version: 6.00 Build 0)  -->
<svg version="1.1" id="ant-web3-icon-cow-circle-colorful-Layer_1" xmlns="http://www.w3.org/2000/svg" xmlns:xlink="http://www.w3.org/1999/xlink" x="0px" y="0px" viewBox="0 0 600 600" enable-background="new 0 0 600 600" xml:space="preserve">

<path d="M0,0h600v600H0V0z" fill="#FFFFFF"/>
<linearGradient id="ant-web3-icon-cow-circle-colorful-SVGID_1_" gradientUnits="userSpaceOnUse" x1="17.6782" y1="198.1874" x2="578.1832" y2="400.1014" gradientTransform="matrix(1 0 0 -1 0 599.8898)">
	<stop offset="0" stop-color="#3B3C44"/>
	<stop offset="0.521" stop-color="#1C1D22"/>
	<stop offset="0.766" stop-color="#0E0D0D"/>
	<stop offset="1" stop-color="#000000"/>
</linearGradient>
<path d="M600,300c0,165.7-134.3,300-300,300S0,465.7,0,300S134.3,0,300,0S600,134.3,600,300z" fill=" url(#ant-web3-icon-cow-circle-colorful-SVGID_1_)"/>
<linearGradient id="ant-web3-icon-cow-circle-colorful-SVGID_00000023976467625729153770000003855256142524735384_" gradientUnits="userSpaceOnUse" x1="83" y1="279.8898" x2="516.4041" y2="279.8898" gradientTransform="matrix(1 0 0 -1 0 599.8898)">
	<stop offset="0.344" stop-color="#FFFFFF"/>
	<stop offset="0.495" stop-color="#8D9ACA"/>
	<stop offset="1" stop-color="#FF784A"/>
</linearGradient>
<path fill="url(#ant-web3-icon-cow-circle-colorful-SVGID_00000023976467625729153770000003855256142524735384_)" d="M499.6,254.4l-59.7-9.8l44-18.4l12.3-49
	L481.4,151l-75.3-22l35.9,51.5h0l0.4,0.6l-21.3,5.3l-65.2-44.7l-56.2,6.7l-56.2-6.7l-65.2,44.7l-21.3-5.3l0.4-0.6h0l35.9-51.5
	L118,151l-14.7,26.2l12.3,49l44,18.4l-59.7,9.8L83,299.8l49.7,24l41.7-14.7l5.9,43.8l28.9,67.4l14.3,37.2l73.2,51.4v0.1l2.8,2
	l0.1-0.1l0.1,0l2.8-2v-0.1l73.2-51.4l14.3-37.2l29-67.4l5.9-43.8l41.7,14.7l49.7-24L499.6,254.4L499.6,254.4L499.6,254.4z
	 M473.1,161.5l6.8,12.1l-24.4,4.5l-19.1-27.3L473.1,161.5L473.1,161.5L473.1,161.5z M426.1,237v-39.1l24-6l19.1,27.1L426.1,237
	L426.1,237z M463.3,189.2l17.9-3.3l-5.3,21.2L463.3,189.2L463.3,189.2z M465.9,310.5l-39.9-14v-41.6l64.4,10.5l10.5,28.2
	L465.9,310.5L465.9,310.5L465.9,310.5z M352.7,154.5l61,41.8v35.3l-39.8,20.7l-64.6-92.6L352.7,154.5L352.7,154.5L352.7,154.5z
	 M366.9,446.1L310,430.3l46.4-38.1l18.1,34L366.9,446.1L366.9,446.1z M289.4,430.3l-56.9,15.8l-7.7-19.9l18.1-34L289.4,430.3
	L289.4,430.3z M192.4,349.6l-6-44.2l46.2-12.1l16.8,57.4l-13.9,29.1l-16.7,31.3L192.4,349.6L192.4,349.6L192.4,349.6z M241,278.3
	l-5.5-18.4l64.2-92.6l64.2,92.6l-5.5,18.4H241L241,278.3z M334.7,357.5l-20.1,53.1l-14.9,12.3l-14.9-12.3l-20.1-53.1L334.7,357.5
	L334.7,357.5L334.7,357.5z M260.7,345.1l-15.9-54.5h109.8l-15.9,54.5H260.7L260.7,345.1z M290.1,159.6l-64.6,92.6l-39.8-20.7v-35.3
	l61-41.8L290.1,159.6L290.1,159.6z M356.4,456l-56.7,39.8L243,456l56.7-15.7L356.4,456z M407,349.6l-26.4,61.6l-16.7-31.3L350,350.7
	l16.8-57.4l46.2,12.1L407,349.6L407,349.6L407,349.6z M133.5,310.5l-35-16.9l10.5-28.2l64.4-10.5v41.5L133.5,310.5L133.5,310.5
	L133.5,310.5z M123.5,207.1l-5.3-21.2l17.9,3.3L123.5,207.1z M163.1,150.7L144,178.1l-24.4-4.5l6.8-12.1L163.1,150.7L163.1,150.7z
	 M130.3,219l19.1-27.1l24,6V237L130.3,219L130.3,219z"/>
</svg>
