<?xml version="1.0" encoding="utf-8"?>
<!-- Generator: Adobe Illustrator 26.0.1, SVG Export Plug-In . SVG Version: 6.00 Build 0)  -->
<svg version="1.1" id="Layer_1" xmlns="http://www.w3.org/2000/svg" xmlns:xlink="http://www.w3.org/1999/xlink" x="0px" y="0px"
	 viewBox="0 0 124.2 143.6" style="enable-background:new 0 0 124.2 143.6;" xml:space="preserve">
<style type="text/css">
	.st0{fill:#1682FE;}
	.st1{fill:#60D8A4;}
	.st2{fill:#F4BB3B;}
	.st3{fill:#FF5A5A;}
	.st4{fill:#3A3A3A;}
</style>
<rect x="71.8" y="28" class="st0" width="10" height="15.1"/>
<rect x="43.1" class="st0" width="10" height="15.1"/>
<rect x="14.4" y="14.4" class="st1" width="10" height="15.1"/>
<rect y="71.8" class="st2" width="10.1" height="43.1"/>
<rect y="28.7" class="st1" width="10.1" height="43.1"/>
<rect x="86.1" y="42.4" class="st0" width="10" height="15.1"/>
<rect x="86.1" y="86.1" class="st3" width="10" height="15.1"/>
<rect x="71.8" y="100.5" class="st3" width="10" height="15.1"/>
<rect x="43.1" y="128.5" class="st3" width="10" height="15.1"/>
<rect x="14.4" y="114.1" class="st2" width="10" height="15.1"/>
<path class="st4" d="M124.2,57.4V28.7h-14.4V14.4H81.1V0H52.4v14.4H23.7v14.4H9.3v86.1h14.4v14.4h28.7v14.4h28.7v-14.4h28.7v-14.4
	h14.4V86.1H95.5v14.4H81.1v14.4H52.4v-14.4H38.1V43.1h14.4V28.7h28.7v14.4h14.4v14.4H124.2z"/>
</svg>
