<?xml version="1.0" encoding="utf-8"?>
<!-- Generator: Adobe Illustrator 21.0.0, SVG Export Plug-In . SVG Version: 6.00 Build 0)  -->
<svg version="1.1" id="ant-web3-icon-dcr-colorful-Laag_1" xmlns="http://www.w3.org/2000/svg" xmlns:xlink="http://www.w3.org/1999/xlink" x="0px" y="0px" viewBox="0 0 102.6 79.1" style="enable-background:new 0 0 102.6 79.1;" xml:space="preserve">

<title>dcr</title>
<g id="ant-web3-icon-dcr-colorful-Laag_3">
	<g id="ant-web3-icon-dcr-colorful-Layer_1-2">
		
			<linearGradient id="ant-web3-icon-dcr-colorful-_Pad__1_" gradientUnits="userSpaceOnUse" x1="-7558.0513" y1="912.3351" x2="-7500.7217" y2="912.3351" gradientTransform="matrix(1 0 0 1 7603.2002 -872.83)">
			<stop offset="0" style="stop-color:#62D0C9"/>
			<stop offset="1" style="stop-color:#7DE2AC"/>
		</linearGradient>
		<path id="ant-web3-icon-dcr-colorful-_Pad_" d="M45.1,49.1h25.3c9.4,0,17.1-7.6,17.1-17.1S79.9,15,70.5,15h-8.1L45.1,0h25.3
			c17.7-0.1,32.1,14.2,32.1,31.9c0.1,13.1-7.9,24.9-20.1,29.8l20,17.3H79.6L45.1,49.1z" style="fill: url(#ant-web3-icon-dcr-colorful-_Pad__1_);"/>
		<path id="ant-web3-icon-dcr-colorful-_Pad_2" d="M57.5,30H32.2c-9.4,0-17.1,7.6-17.1,17.1s7.6,17.1,17.1,17.1h8.1l17.2,15H32.2
			C14.5,79.2,0.1,64.9,0,47.3c-0.1-13.2,7.9-25,20.1-29.9L0.1,0H23L57.5,30z" style="fill: #4971FA;"/>
		
			<linearGradient id="ant-web3-icon-dcr-colorful-_Pad_3_1_" gradientUnits="userSpaceOnUse" x1="-7603.021" y1="912.3806" x2="-7545.6909" y2="912.3806" gradientTransform="matrix(1 0 0 1 7603.2002 -872.83)">
			<stop offset="0" style="stop-color:#3268FB"/>
			<stop offset="1" style="stop-color:#4795FA"/>
		</linearGradient>
		<path id="ant-web3-icon-dcr-colorful-_Pad_3" d="M57.5,30H32.2c-9.4,0-17.1,7.6-17.1,17.1s7.6,17.1,17.1,17.1h8.1l17.2,15H32.2
			C14.5,79.2,0.1,64.9,0,47.3c-0.1-13.2,7.9-25,20.1-29.9L0.1,0H23L57.5,30z" style="fill: url(#ant-web3-icon-dcr-colorful-_Pad_3_1_);"/>
	</g>
</g>
</svg>
