<?xml version="1.0" encoding="utf-8"?>
<!-- Generator: Adobe Illustrator 24.0.0, SVG Export Plug-In . SVG Version: 6.00 Build 0)  -->
<svg version="1.1" id="ant-web3-icon-ddx-colorful-Layer_1" xmlns="http://www.w3.org/2000/svg" xmlns:xlink="http://www.w3.org/1999/xlink" x="0px" y="0px" viewBox="0 0 472.4 168" style="enable-background:new 0 0 472.4 168;" xml:space="preserve">

<path d="M0,0h72c42,0,76,34,76,76l0,0H0V0z" style="fill: #2D1680;"/>
<path d="M163,0h72c42,0,76,34,76,76l0,0H163V0z" style="fill: #2D1680;"/>
<path d="M0,168h72c42,0,76-34,76-76l0,0H0V168z" style="fill: #2D1680;"/>
<path d="M163,168h72c42,0,76-34,76-76l0,0H163V168z" style="fill: #2D1680;"/>
<path d="M305,0h53.3L472,168h-56.3L305,0z" style="fill: #2D1680;"/>
<path d="M424.5,66l-44-64.5h89L424.5,66z" style="opacity: 0.9329; fill: #EF88AA; stroke: #EF88AA; stroke-width: 3; stroke-dasharray: 229.2358,245.7249; enable-background: new;"/>
<path d="M350,103l-43.5,62.5h85L350,103z" style="opacity: 0.9329; fill: #EF88AA; stroke: #EF88AA; stroke-width: 5; stroke-dasharray: 220.3232,236.1712; enable-background: new;"/>
</svg>
