<?xml version="1.0" encoding="utf-8"?>
<!-- Generator: Adobe Illustrator 24.0.0, SVG Export Plug-In . SVG Version: 6.00 Build 0)  -->
<svg version="1.1" id="ant-web3-icon-divi-circle-colorful-svg22" inkscape:version="1.0rc1 (09960d6f05, 2020-04-09)" sodipodi:docname="divi.svg" xmlns:cc="http://creativecommons.org/ns#ant-web3-icon-divi-circle-colorful-" xmlns:dc="http://purl.org/dc/elements/1.1/" xmlns:inkscape="http://www.inkscape.org/namespaces/inkscape" xmlns:rdf="http://www.w3.org/1999/02/22-rdf-syntax-ns#ant-web3-icon-divi-circle-colorful-" xmlns:sodipodi="http://sodipodi.sourceforge.net/DTD/sodipodi-0.dtd" xmlns:svg="http://www.w3.org/2000/svg" xmlns="http://www.w3.org/2000/svg" xmlns:xlink="http://www.w3.org/1999/xlink" x="0px" y="0px" viewBox="0 0 39.7 39.7" enable-background="new 0 0 39.7 39.7" xml:space="preserve">


<linearGradient id="ant-web3-icon-divi-circle-colorful-rect10_1_" gradientUnits="userSpaceOnUse" x1="39.655" y1="2.345" x2="1.427487e-06" y2="42" gradientTransform="matrix(1 0 0 -1 0 42)">
	<stop offset="0" stop-color="#4B81EB"/>
	<stop offset="1" stop-color="#6752F4"/>
</linearGradient>
<path id="ant-web3-icon-divi-circle-colorful-rect10" d="M19.8,0L19.8,0c11,0,19.8,8.9,19.8,19.8l0,0c0,11-8.9,19.8-19.8,19.8l0,0C8.9,39.7,0,30.8,0,19.8
	l0,0C0,8.9,8.9,0,19.8,0z" fill-rule="evenodd" clip-rule="evenodd" fill="url(#ant-web3-icon-divi-circle-colorful-rect10_1_)"/>
<path id="ant-web3-icon-divi-circle-colorful-path12" inkscape:connector-curvature="0" d="M9,9.4h11.8c4.8,0,9.7,3.4,9.7,10.3S25.6,30,20.8,30h-8.7V18.9
	h5.1V25h3.4c2.2,0,4.8-2.5,4.8-5.3c0-2.8-2.5-5.3-4.8-5.3h-5.6C12.5,14.4,10.5,12.7,9,9.4z" style="fill-rule: evenodd; clip-rule: evenodd; fill: #FFFFFF;"/>
</svg>
