<?xml version="1.0" encoding="utf-8"?>
<!-- Generator: Adobe Illustrator 26.0.1, SVG Export Plug-In . SVG Version: 6.00 Build 0)  -->
<svg version="1.1" id="Layer_1" xmlns="http://www.w3.org/2000/svg" xmlns:xlink="http://www.w3.org/1999/xlink" x="0px" y="0px"
	 viewBox="0 0 120 120" style="enable-background:new 0 0 120 120;" xml:space="preserve">
<style type="text/css">
	.st0{fill:#E94C70;}
	.st1{fill:#FFFFFF;}
</style>
<path class="st0" d="M60,0L60,0c33.1,0,60,26.9,60,60l0,0c0,33.1-26.9,60-60,60l0,0C26.9,120,0,93.1,0,60l0,0C0,26.9,26.9,0,60,0z"
	/>
<path class="st1" d="M96.1,64l-13.7-5.9c9.3-8.7,7.5-19,4.9-23.6c-0.3-0.5-0.7-0.8-1.2-1c-0.5-0.2-1.1-0.2-1.6,0.1l-13.4,5.7
	c-1.8-11.5-10.7-16-15.7-16.8c-0.6-0.1-1.1,0-1.6,0.3c-0.5,0.3-0.8,0.8-0.9,1.3l-3.4,14.1c-10.4-5.8-19.5-1.6-23.2,1.9
	c-0.4,0.4-0.7,0.9-0.7,1.5c0,0.6,0.2,1.1,0.5,1.5l9.5,11.1c-11.4,4.6-13.6,14.4-13,19.5c0.1,0.5,0.3,1,0.7,1.4
	c0.4,0.4,0.9,0.6,1.5,0.6h0.1l14.7-0.4c-3.1,11.5,3.3,19.2,7.7,21.9c0.5,0.3,1,0.4,1.6,0.3c0.5-0.1,1-0.4,1.4-0.8l7.6-9.7
	c1.8,2.4,4.2,4.4,6.9,5.8c2.7,1.4,5.7,2.1,8.8,2.1c1.3,0,2.7-0.1,4-0.5c0.5-0.1,1-0.5,1.3-0.9c0.3-0.4,0.4-1,0.3-1.5l-2-14.3
	c0.8,0.1,1.5,0.1,2.3,0.1c3.7,0.1,7.4-0.9,10.6-2.8c3.2-1.9,5.7-4.7,7.4-8.1c0.1-0.3,0.2-0.6,0.2-0.8c0-0.3-0.1-0.6-0.2-0.8
	c-0.1-0.3-0.3-0.5-0.5-0.7C96.7,64.2,96.4,64.1,96.1,64L96.1,64z M84.2,38.4c1.2,3.6,2.3,11.7-7.6,18.7c-1.8,1.3-3.9,2.1-6,2.6
	c-2.2,0.4-4.4,0.5-6.6,0c2.2-1.8,4-4.1,5.3-6.7s2-5.4,2.1-8.2c0-0.4,0-0.7,0-1L84.2,38.4z M56.7,27.3c3.6,1.2,10.8,5.4,10.3,17.5
	c-0.1,2.2-0.7,4.3-1.6,6.3c-1,2-2.3,3.7-4,5.2c-0.1-2.9-0.8-5.7-2.1-8.2c-1.3-2.6-3.1-4.9-5.3-6.7l-0.6-0.5L56.7,27.3z M31,42.2
	c3.3-2,10.9-5.1,20.2,2.6c1.7,1.4,3.1,3.2,4,5.1c1,2,1.6,4.1,1.7,6.3c-2.4-1.6-5-2.8-7.8-3.4c-2.8-0.6-5.7-0.6-8.6,0l-0.3,0.1
	L31,42.2z M27,71.3c0.4-3.7,2.5-11.6,14.5-14.3c2.2-0.4,4.4-0.5,6.6,0c2.2,0.4,4.2,1.3,6.1,2.5c-2.8,0.8-5.3,2.2-7.5,4.1
	c-2.2,1.9-4,4.1-5.2,6.7c-0.1,0.2-0.2,0.3-0.2,0.5L27,71.3z M48,92.3c-2.8-2.5-7.8-9.1-2.6-20.1c1.8-3.8,5.1-6.7,9.1-8.1
	c-1.2,2.5-1.8,5.2-1.9,7.9c-0.1,2.7,0.3,5.5,1.3,8c0.4,1.1,0.9,2.1,1.4,3.1L48,92.3z M74.5,90.5c-3.8,0.3-12-0.6-16.4-12
	c-0.8-2.1-1.1-4.2-1-6.4c0.1-2.2,0.7-4.3,1.6-6.3c1.2,2.6,3,4.9,5.2,6.7c2.2,1.9,4.7,3.3,7.5,4.1c0.4,0.1,0.8,0.2,1.2,0.3L74.5,90.5
	z M72.5,72.4c-2.1-0.7-4.1-1.7-5.8-3.2c-1.7-1.4-3.1-3.2-4-5.1c1.5,0.3,3,0.4,4.6,0.4c4,0,7.9-1.1,11.2-3.3l13.6,5.8
	C89.9,70.1,84,75.7,72.5,72.4L72.5,72.4z"/>
</svg>
