<?xml version="1.0" encoding="utf-8"?>
<!-- Generator: Adobe Illustrator 26.0.1, SVG Export Plug-In . SVG Version: 6.00 Build 0)  -->
<svg version="1.1" id="ant-web3-icon-edu-circle-colorful-Layer_1" xmlns="http://www.w3.org/2000/svg" xmlns:xlink="http://www.w3.org/1999/xlink" x="0px" y="0px" viewBox="0 0 60 60" style="enable-background:new 0 0 60 60;" xml:space="preserve">

<g id="ant-web3-icon-edu-circle-colorful-icon_logo" transform="translate(-347.682 -127.304)">
	<g id="ant-web3-icon-edu-circle-colorful-Group_40313" transform="translate(347.682 127.304)">
		<g id="ant-web3-icon-edu-circle-colorful-Group_40312" transform="translate(0)">
			<g id="ant-web3-icon-edu-circle-colorful-Group_39074" transform="translate(0)">
				<path id="ant-web3-icon-edu-circle-colorful-Path_32914" d="M29.6,0C13.1,0.2-0.2,13.8,0,30.4S13.8,60.2,30.4,60C46.8,59.8,60,46.5,60,30
					C59.9,13.3,46.3-0.1,29.6,0z" style="fill: #00EDBE;"/>
			</g>
		</g>
	</g>
	<g id="ant-web3-icon-edu-circle-colorful-Group_45823" transform="translate(59.986)">
		<g id="ant-web3-icon-edu-circle-colorful-Group_45822">
			<path id="ant-web3-icon-edu-circle-colorful-Path_95273" d="M329.4,146.2c-0.1-1.5,0.3-3,1.1-4.3h-24.5c-0.9,0-1.7,0.7-1.7,1.7c0,0,0,0,0,0v5.2
				c0,0.9,0.8,1.7,1.7,1.7l0,0h24.5C329.6,149.2,329.3,147.7,329.4,146.2" style="fill: #141BEB;"/>
			<path id="ant-web3-icon-edu-circle-colorful-Path_95274" d="M300.4,157.4c0.1,1.5-0.3,3-1.1,4.3h24.5c0.9,0,1.7-0.7,1.7-1.7v0v-5.2
				c0-0.9-0.8-1.7-1.7-1.7c0,0,0,0,0,0h-24.5C300.1,154.4,300.5,155.9,300.4,157.4" style="fill: #141BEB;"/>
			<path id="ant-web3-icon-edu-circle-colorful-Path_95275" d="M329.4,168.6c-0.1-1.5,0.3-3,1.1-4.3h-24.5c-0.9,0-1.7,0.7-1.7,1.7l0,0v5.2
				c0,0.9,0.8,1.7,1.7,1.7l0,0h24.5C329.6,171.6,329.3,170.1,329.4,168.6" style="fill: #141BEB;"/>
		</g>
	</g>
</g>
</svg>
