<?xml version="1.0" encoding="utf-8"?>
<!-- Generator: Adobe Illustrator 24.0.0, SVG Export Plug-In . SVG Version: 6.00 Build 0)  -->
<svg version="1.1" id="Layer_1" xmlns="http://www.w3.org/2000/svg" xmlns:xlink="http://www.w3.org/1999/xlink" x="0px" y="0px"
	 viewBox="0 0 141.7 141.7" style="enable-background:new 0 0 141.7 141.7;" xml:space="preserve">
<style type="text/css">
	.st0{fill:#7866D5;}
	.st1{fill:#FFFFFF;}
</style>
<circle class="st0" cx="70.9" cy="70.9" r="70.9"/>
<g>
	<path class="st1" d="M99.6,36.4c2.4,0.3,4.9,0.5,7.3,0.9c4.7,0.9,6.3,3.3,5.5,8.1c-0.2,1.8-1.6,3.2-3.4,3.5
		c-1.1,0.2-2.3,0.3-3.4,0.2c-15.6,0-31.1,0.1-46.7,0.1c-2.3,0-4.7,0.2-7,0.6C44.2,51,41.2,54.2,40.6,62c-0.3,3.6-0.3,3.6,3.4,3.6h62
		c0.6,0,1.2,0,1.8,0c1,0,1.9,0.3,2.8,0.8c2.8,1.8,2.1,4.7,2,7.3c-0.1,2.1-1.4,3.3-3.6,3.7c-0.9,0.2-1.8,0.2-2.8,0.2
		c-21.2,0-42.4,0-63.6,0c-2.3,0-2.3,0-2.1,2.3c0.1,2.1,0.3,4.2,0.8,6.3c1,3.8,3.3,6.2,7.2,7.3c4.2,1.2,8.6,1.4,12.9,1.5
		C76.5,95,91.7,95,106.9,95c1.9,0,3.7,0.2,4.9,2c1.9,3,0.9,6.9-2.1,8.8c-0.4,0.3-0.8,0.5-1.3,0.6c-3.3,1.1-6.7,1.3-10.2,1.4
		c-14.3,0.3-28.5,0.3-42.7,0c-4.4-0.1-8.8-0.6-13.1-1.5c-10.1-2.1-15.2-7.3-16.9-17.5c-0.4-2.3-0.6-4.7-0.9-7.1V63.1
		c0.2-1.8,0.4-3.7,0.6-5.5c1.3-11.5,6.5-17.2,17.8-19.8c4-0.9,8.2-1.1,12.2-1.5L99.6,36.4z"/>
	<path class="st1" d="M76.8,109.8c-7.2,0-14.3-0.1-21.4-0.2c-4.5-0.1-9-0.6-13.4-1.6c-10.9-2.3-16.5-8.1-18.3-18.9
		c-0.3-1.7-0.5-3.4-0.6-5c-0.1-0.7-0.2-1.4-0.3-2.2l0-0.2l0-18.8l0.2-1.8c0.1-1.3,0.3-2.5,0.4-3.7c1.4-12.3,7.2-18.6,19.3-21.3
		c3.2-0.7,6.3-1,9.4-1.3c1-0.1,2-0.2,3-0.3l0.2,0h44.5l0.1,0c0.7,0.1,1.5,0.2,2.2,0.2c1.7,0.2,3.4,0.3,5.2,0.7
		c5.7,1.1,7.9,4.3,6.9,10.1c-0.3,2.5-2.3,4.6-5,5c-1.2,0.2-2.4,0.3-3.7,0.3C90,50.9,74.4,51,58.9,51c-2.2,0-4.5,0.2-6.7,0.6
		c-6.9,1.1-9.2,3.6-9.8,10.6c0,0.6-0.1,1.2-0.1,1.7c0.4,0,1.1,0,1.7,0h63.8l0,0c1.3,0,2.6,0.4,3.7,1c3.4,2.2,3.1,5.5,2.9,7.9
		c0,0.3-0.1,0.7-0.1,1c-0.2,2.8-1.9,4.7-5,5.3c-1.1,0.2-2.1,0.2-3.1,0.2H42.7c-0.1,0-0.3,0-0.4,0c0,0.1,0,0.2,0,0.3l0,0.1
		c0.1,2.1,0.3,4.1,0.8,6.1c0.8,3.1,2.7,5,5.9,5.9c4.3,1.2,8.7,1.4,12.5,1.4c11.8,0.1,23.8,0.1,35.5,0.1h10c1.5,0,4.6,0,6.4,2.9
		c1.2,1.9,1.5,4.1,1,6.2s-1.8,3.9-3.7,5.1c-0.5,0.3-1.1,0.6-1.7,0.8c-3.7,1.2-7.5,1.4-10.7,1.5C91.2,109.7,84,109.8,76.8,109.8z
		 M26.4,81.6c0.1,0.7,0.2,1.4,0.2,2.1c0.2,1.6,0.4,3.2,0.6,4.8c1.6,9.4,6.1,14,15.5,16c4.2,0.9,8.5,1.4,12.8,1.5
		c14.1,0.3,28.5,0.3,42.7,0c2.9-0.1,6.4-0.3,9.6-1.3c0.3-0.1,0.6-0.3,0.9-0.4c1-0.7,1.8-1.7,2.1-2.9c0.3-1.2,0.1-2.4-0.6-3.5
		c-0.6-0.9-1.4-1.2-3.3-1.2h-10c-11.6,0-23.7,0-35.5-0.1c-4,0-8.7-0.2-13.4-1.6c-4.5-1.2-7.3-4.1-8.4-8.6c-0.5-2.2-0.8-4.5-0.8-6.7
		l0-0.1c-0.1-1.4-0.2-2.4,0.6-3.3c0.8-0.9,1.9-0.9,3.3-0.9h63.6c0.8,0,1.7,0,2.5-0.2c1.6-0.3,2-1,2.1-2c0-0.4,0.1-0.7,0.1-1.1
		c0.2-2.5,0.2-3.7-1.2-4.6c-0.5-0.3-1.2-0.5-1.8-0.5l0,0H44c-2.2,0-3.5,0-4.5-1c-1-1-0.8-2.4-0.7-4.5c0.7-8.6,4.3-12.5,12.8-13.8
		c2.4-0.4,4.8-0.6,7.3-0.7c15.6,0,31.1-0.1,46.7-0.1c1.1,0,2.1,0,3.1-0.2c1-0.1,1.8-0.9,1.9-1.9c0.7-4-0.3-5.3-4.1-6.1
		c-1.6-0.3-3.2-0.5-4.8-0.6c-0.7-0.1-1.5-0.2-2.2-0.2H55.3c-1,0.1-2,0.2-3,0.3c-3.1,0.3-6,0.5-9,1.2C32.8,42,28.2,47.1,27,57.9
		c-0.1,1.2-0.3,2.4-0.4,3.7l-0.2,1.7L26.4,81.6L26.4,81.6z"/>
</g>
</svg>
