<svg xmlns="http://www.w3.org/2000/svg" viewBox="0 0 1543 2499.2"><defs/><title>e</title><g id="ant-web3-icon-etc-colorful-Layer_2"><g id="ant-web3-icon-etc-colorful-svg8"><g id="ant-web3-icon-etc-colorful-layer5"><g id="ant-web3-icon-etc-colorful-g1627"><path id="ant-web3-icon-etc-colorful-path1599" d="M0,1361.05c271.87,144.38,555.56,295.51,774.67,412.45L1543,1361.05c-278.2,413.29-510,757.36-768.33,1138.15C515.88,2119.25,230.08,1700,0,1361.05Zm29.55-114L775.51,849l736.25,395.14L775.93,1642.63ZM774.67,721.47,0,1129.28,771.29,0,1543,1131.81,774.67,721.47Z" style="fill: #3ab83a;"/><path id="ant-web3-icon-etc-colorful-path1593" d="M774.67,1773.5,1543,1361.05C1264.8,1774.34,774.67,2499.2,774.67,2499.2ZM775.51,849l736.25,395.14L775.93,1642.63,775.51,849Zm-.84-127.5L771.29,0,1543,1131.81Z" style="fill: #0b8311;"/><path id="ant-web3-icon-etc-colorful-path1603" d="M29.55,1247.06l746,61.22,736.25-63.75L775.93,1643.05Z" style="fill: #0b8311;"/><path id="ant-web3-icon-etc-colorful-path1606" d="M775.51,1308.28l736.25-63.75L775.93,1643.05l-.42-334.77Z" style="fill: #146714;"/></g></g></g></g></svg>