<?xml version="1.0" encoding="UTF-8"?>
<svg viewBox="0 0 1024 1024"
  xmlns="http://www.w3.org/2000/svg">
  <path d="M213.546655,488.330295 C213.546655,464.629327 232.995864,445.159207 256.630346,445.159207 L256.630346,445.159207 L329.298172,445.159207 C352.973686,445.159207 373.243537,464.629327 373.243537,489.192895 L373.243537,489.192895 L373.243537,763.540849 C381.696147,760.994125 391.831073,758.4474 403.689346,755.900676 C419.732892,751.669827 431.591165,737.293156 431.591165,720.328685 L431.591165,379.930198 C431.591165,356.229229 451.040374,335.896509 475.53653,335.896509 L548.204356,335.896509 C571.879871,335.896509 592.149722,355.366629 592.149722,379.930198 L592.149722,695.806192 C592.149722,695.806192 609.916615,688.166018 627.642477,680.566921 C641.183066,674.651948 649.635676,661.959401 649.635676,646.679054 L649.635676,269.887052 C649.635676,246.186084 669.084885,225.853364 692.760399,225.853364 L765.428225,225.853364 C789.103739,225.853364 808.552949,245.323484 808.552949,269.887052 L808.552949,580.669597 C871.085849,534.951785 935.342098,479.909674 986.057757,413.859141 C1001.28066,394.389021 1005.50697,368.962852 997.054357,345.261883 C904.075647,77.6915028 611.680995,-64.5964612 344.603141,28.5643651 C77.5252861,121.725191 -64.445735,414.680665 28.4919421,682.292121 C38.6268676,712.770663 52.1674564,741.565081 68.2110024,769.496898 C80.8899173,791.513743 104.565431,804.206289 129.923261,801.659565 C143.46385,800.796964 160.36907,799.11284 181.459563,796.566116 C200.047098,794.881991 213.587687,778.78012 213.587687,760.131524 L213.546655,488.330295 L213.546655,488.330295 Z" fill="#21325B"></path>
  <path d="M212.955752,926.013867 C441.201227,1092.43897 760.425953,1041.74509 926.314862,812.823489 C989.489219,724.95956 1024,619.350723 1024,511.242027 C1024,499.398428 1023.14132,487.595811 1022.32353,475.752212 C836.235181,755.367692 491.740712,886.302978 212.955752,926.013867 L212.955752,926.013867 Z" fill="#979695"></path>
</svg>
