<svg id="ant-web3-icon-etp-colorful-svg4852" xmlns="http://www.w3.org/2000/svg" viewBox="0 0 551.8 515"><g id="ant-web3-icon-etp-colorful-layer1"><g id="ant-web3-icon-etp-colorful-g5474" transform="translate(-3.163 -281.382) scale(1.60742)"><ellipse id="ant-web3-icon-etp-colorful-path5411" transform="rotate(-1.146 56.626 428.783)" cx="56.6" cy="428.8" rx="34.9" ry="34.9" style="fill: #de2813;"/><circle id="ant-web3-icon-etp-colorful-circle5413" cx="25.7" cy="358.2" r="23.7" style="fill: #e71619;"/><circle id="ant-web3-icon-etp-colorful-circle5415" cx="39.3" cy="281.7" r="20.9" style="fill: #eb6617; fill-opacity: 0;"/><circle id="ant-web3-icon-etp-colorful-circle5417" cx="83.2" cy="218.5" r="18" style="fill: #ec6816;"/><circle id="ant-web3-icon-etp-colorful-circle5419" cx="157" cy="188.8" r="13.7" style="fill: #f2961b;"/><circle id="ant-web3-icon-etp-colorful-circle5421" cx="233.8" cy="199.6" r="11.4" style="fill: #f1c621;"/><circle id="ant-web3-icon-etp-colorful-circle5423" cx="295.8" cy="248.9" r="8.5" style="fill: #f3c620;"/><circle id="ant-web3-icon-etp-colorful-circle5425" cx="325.4" cy="321.2" r="19.8" style="fill: #156192;"/><circle id="ant-web3-icon-etp-colorful-circle5427" cx="314.7" cy="397.5" r="17.7" style="fill: #2090c0;"/><circle id="ant-web3-icon-etp-colorful-circle5429" cx="267.6" cy="458.3" r="13.8" style="fill: #338dcc;"/><circle id="ant-web3-icon-etp-colorful-circle5431" cx="194" cy="486.3" r="9.1" style="fill: #38bae8;"/><circle id="ant-web3-icon-etp-colorful-circle5433" cx="120.7" cy="475.6" r="6.3" style="fill: #36bbe6;"/><ellipse id="ant-web3-icon-etp-colorful-circle5435" transform="rotate(-3.17 39.484 281.585) scale(1.00003)" cx="39.5" cy="281.6" rx="33.6" ry="33.6" style="fill: #eb6617;"/><path id="ant-web3-icon-etp-colorful-rect5437" d="M115.5 310.2l27.9-15.9-.1 92.5-27.8 15.7v-92.3z" style="fill: #3f3f3f;"/><path id="ant-web3-icon-etp-colorful-path5444" d="M226.7 310.2l27.9-15.9-.1 92.5-27.8 15.7v-92.3z" style="fill: #3f3f3f;"/><path id="ant-web3-icon-etp-colorful-path5446" d="M171 310.2l27.9-15.9-.1 92.5-27.8 15.7v-92.3z" style="fill: #3f3f3f;"/><path id="ant-web3-icon-etp-colorful-rect5448" d="M88.5 293.7l27.3-16.1 27.6 16.7-27.9 15.9-27-16.5z" style="fill: #686a69;"/><path id="ant-web3-icon-etp-colorful-path5451" d="M143.9 293.7l27.3-16.1 27.6 16.7-27.8 15.9-27.1-16.5z" style="fill: #686a69;"/><path id="ant-web3-icon-etp-colorful-path5453" d="M199.7 293.8l27.3-16.1 27.6 16.7-27.9 15.9-27-16.5z" style="fill: #686a69;"/></g></g></svg>
