<?xml version="1.0" encoding="UTF-8"?>
<svg viewBox="0 0 1024 1024" version="1.1" xmlns="http://www.w3.org/2000/svg" xmlns:xlink="http://www.w3.org/1999/xlink">
    <g stroke="none" stroke-width="1" fill="none" fill-rule="evenodd">
        <g transform="translate(-1488, -5527)" id="arbcircle">
            <g transform="translate(1307, 5409)">
                <g transform="translate(181, 118)">
                    <g fill="#2C69FF" fill-rule="nonzero">
                        <rect x="0" y="0" width="1024" height="1024" rx="512"></rect>
                    </g>
                    <g id="fantom-logo-white-Clipped">
                        <g>
                            <g transform="translate(256, 201.1429)" id="形状">
                                <path d="M227.893228,5.95552431 C243.663841,-1.98517477 267.66042,-1.98517477 283.431035,5.95552431 L444.356182,86.9830005 C453.854036,91.7653339 459.070352,98.89172 460.005133,106.248334 L460.158226,106.248334 L460.158226,513.534996 C459.949371,521.558981 454.683882,529.529538 444.356182,534.731527 L283.431035,615.758226 C267.66042,623.699639 243.663841,623.699639 227.893228,615.758226 L66.9685861,534.731527 C56.6839762,529.553823 51.748499,521.524981 51.5041584,513.534996 C51.4798257,512.748142 51.4767841,512.092429 51.5001029,511.548429 L51.4990892,108.864386 C51.4841625,108.423359 51.4841625,107.982817 51.4945267,107.544218 L51.5041584,106.248334 L51.5761426,106.247849 C52.2909149,98.8106061 57.2704951,91.8663623 66.9685861,86.9830005 L227.893228,5.95552431 Z M434.82487,333.471349 L283.431035,409.700171 C267.66042,417.641099 243.663841,417.641099 227.893228,409.700171 L76.8304159,333.641348 L76.8304159,512.728713 L227.893228,588.388279 C236.423351,592.735413 245.276895,596.970834 253.933751,597.509976 L255.662384,597.563693 C264.683216,597.592547 273.440951,593.225984 282.321869,589.092564 L434.82487,512.077857 L434.82487,333.471349 Z M25.3298059,504.680443 C25.3298059,520.281554 27.2322661,530.53982 31.0095589,537.767236 C34.1403628,543.756081 38.8378867,548.3315 47.4153061,553.902632 L47.9049505,554.218346 C49.7873362,555.427772 51.8610377,556.695484 54.3850456,558.181767 L57.3617426,559.92062 L66.5022098,565.180897 L53.3924752,585.843141 L43.1618028,579.951439 L41.4421925,578.946011 C38.4840998,577.2023 36.0323802,575.711161 33.7455144,574.23945 C9.29964356,558.526623 0.182618234,541.400371 0.00272240031,505.763584 L0,504.680443 L25.3298059,504.680443 Z M242.993679,224.306304 C241.822162,224.690017 240.724151,225.133473 239.722962,225.637645 L78.7983208,306.665315 C78.629513,306.750314 78.4683088,306.834342 78.3152159,306.9174 L78.1788515,306.993172 L78.4313029,307.130628 L78.7983208,307.320541 L239.722962,388.348213 C240.724151,388.852383 241.822162,389.295839 242.993679,389.679552 L242.993679,224.306304 Z M268.331088,224.306304 L268.331088,389.679552 C269.502607,389.295839 270.600618,388.852383 271.601298,388.348213 L432.526448,307.320541 C432.695256,307.235542 432.856459,307.151514 433.009552,307.068456 L433.145916,306.993172 L432.892959,306.855228 L432.526448,306.665315 L271.601298,225.637645 C270.600618,225.133473 269.502607,224.690017 268.331088,224.306304 Z M434.82487,135.140021 L290.466218,207.827023 L434.82487,280.514022 L434.82487,135.140021 Z M76.8304159,135.310021 L76.8304159,280.344024 L220.854495,207.827023 L76.8304159,135.310021 Z M271.601298,27.3075798 C263.232887,23.0938708 248.091882,23.0938708 239.722962,27.3075798 L78.7983208,108.335444 C78.629513,108.420444 78.4683088,108.504473 78.3152159,108.58753 L78.1788515,108.662815 L78.4313029,108.800758 L78.7983208,108.990672 L239.722962,190.018342 C248.091882,194.231905 263.232887,194.231905 271.601298,190.018342 L432.526448,108.990672 C432.695256,108.905672 432.856459,108.821644 433.009552,108.738101 L433.145916,108.662815 L432.892959,108.524873 L432.526448,108.335444 L271.601298,27.3075798 Z M458.607525,36.1931224 L468.8384,42.083368 L470.557908,43.0898147 C473.515849,44.8304656 475.967365,46.3258798 478.254638,47.795697 C502.700356,63.5070177 511.817505,80.63667 511.994931,116.270543 L512,117.356113 L486.670193,117.356113 C486.670193,101.751115 484.767684,91.4947917 480.990543,84.2688344 C477.859739,78.2799888 473.162011,73.703112 464.584744,68.1339229 L464.095049,67.8177236 C462.212816,66.6078117 460.138962,65.3405855 457.614954,63.8509029 L454.638257,62.1130205 L445.49779,56.8546878 L458.607525,36.1931224 Z" fill="#FFFFFF" fill-rule="nonzero"></path>
                            </g>
                        </g>
                    </g>
                </g>
            </g>
        </g>
    </g>
</svg>
