<?xml version="1.0" encoding="utf-8"?>
<!-- Generator: Adobe Illustrator 24.0.0, SVG Export Plug-In . SVG Version: 6.00 Build 0)  -->
<svg version="1.1" id="ant-web3-icon-flow-circle-colorful-svg32" xmlns:cc="http://creativecommons.org/ns#ant-web3-icon-flow-circle-colorful-" xmlns:dc="http://purl.org/dc/elements/1.1/" xmlns:inkscape="http://www.inkscape.org/namespaces/inkscape" xmlns:rdf="http://www.w3.org/1999/02/22-rdf-syntax-ns#ant-web3-icon-flow-circle-colorful-" xmlns:sodipodi="http://sodipodi.sourceforge.net/DTD/sodipodi-0.dtd" xmlns:svg="http://www.w3.org/2000/svg" xmlns="http://www.w3.org/2000/svg" xmlns:xlink="http://www.w3.org/1999/xlink" x="0px" y="0px" viewBox="0 0 256 256" style="enable-background:new 0 0 256 256;" xml:space="preserve">


<g id="ant-web3-icon-flow-circle-colorful-Layer_2_1_">
	<g id="ant-web3-icon-flow-circle-colorful-Layer_1-2">
		<g id="ant-web3-icon-flow-circle-colorful-g43" transform="scale(2.56)">
			<circle id="ant-web3-icon-flow-circle-colorful-circle20" cx="50" cy="50" r="50" style="fill: #00EF8B;"/>
			<rect id="ant-web3-icon-flow-circle-colorful-rect22" x="57.8" y="42.2" width="14.1" height="14.1" style="fill: #FFFFFF;"/>
			<path id="ant-web3-icon-flow-circle-colorful-path24" d="M43.7,61.6c0,2.9-2.4,5.3-5.3,5.3s-5.3-2.4-5.3-5.3c0-2.9,2.4-5.3,5.3-5.3c0,0,0,0,0,0h5.3V42.2
				h-5.3C27.7,42.2,19,50.9,19,61.6S27.7,81,38.4,81s19.4-8.7,19.4-19.4l0,0v-5.3H43.7V61.6z" style="fill: #FFFFFF;"/>
			<path id="ant-web3-icon-flow-circle-colorful-path26" d="M63.1,35.1H79V21H63.1c-10.7,0-19.4,8.7-19.4,19.4v1.8h14.1v-1.8C57.8,37.5,60.2,35.1,63.1,35.1
				z" style="fill: #FFFFFF;"/>
			<polygon id="ant-web3-icon-flow-circle-colorful-polygon28" points="57.8,42.2 57.8,42.2 43.7,42.2 43.7,56.3 57.8,56.3 			" style="fill: #16FF99;"/>
		</g>
	</g>
</g>
</svg>
