<svg xmlns="http://www.w3.org/2000/svg" viewBox="0 0 30.71 30.71"><title>flux-flux-logo</title><g id="ant-web3-icon-flux-circle-colorful-Layer_2"><g id="ant-web3-icon-flux-circle-colorful-Flux_white-blue"><path id="ant-web3-icon-flux-circle-colorful-Path_81" d="M15.46,0A15.36,15.36,0,1,1,0,15.36,15.36,15.36,0,0,1,15.46,0Z" style="fill:#2b61d1"/><g id="ant-web3-icon-flux-circle-colorful-Group_179"><path id="ant-web3-icon-flux-circle-colorful-Path_73" d="M17.29,24.27l-1.76,1-3.78-2.18,1.72-1,0,0,.07,0Z" style="fill:#fff"/><path id="ant-web3-icon-flux-circle-colorful-Path_74" d="M24.05,10.53v2.05l-3.72-2.15-1-.58-1,.58-4.74,2.74-1,.58V15L10.74,13.9l-1-.58-1,.58L7,14.89V10.53l8.52-4.91Z" style="fill:#fff"/><path id="ant-web3-icon-flux-circle-colorful-Path_75" d="M24.05,14.91v5.47l-4.73,2.73h0l-4.73-2.73V14.91l4.74-2.73Z" style="fill:#fff"/><path id="ant-web3-icon-flux-circle-colorful-Path_76" d="M12.46,17.22v3.15L9.73,21.94,7,20.37V17.22l2.72-1.57Z" style="fill:#fff"/></g></g></g></svg>