<?xml version="1.0" encoding="utf-8"?>
<!-- Generator: Adobe Illustrator 24.3.0, SVG Export Plug-In . SVG Version: 6.00 Build 0)  -->
<svg version="1.1" id="Layer_1" xmlns="http://www.w3.org/2000/svg" xmlns:xlink="http://www.w3.org/1999/xlink" x="0px" y="0px"
	 viewBox="0 0 283.46 283.46" style="enable-background:new 0 0 283.46 283.46;" xml:space="preserve">
<style type="text/css">
	.st0{fill:#FFFFFF;}
</style>
<g>
	<g>
		<path class="st0" d="M141.73,283.46c-19.13,0-37.69-3.75-55.17-11.14c-16.88-7.14-32.03-17.36-45.05-30.37
			c-13.01-13.01-23.23-28.17-30.37-45.05C3.75,179.42,0,160.86,0,141.73s3.75-37.69,11.14-55.17c7.14-16.88,17.36-32.03,30.37-45.05
			C54.53,28.5,69.68,18.28,86.56,11.14C104.04,3.75,122.6,0,141.73,0s37.69,3.75,55.17,11.14c16.88,7.14,32.03,17.36,45.05,30.37
			c13.01,13.01,23.23,28.17,30.37,45.05c7.39,17.48,11.14,36.04,11.14,55.17s-3.75,37.69-11.14,55.17
			c-7.14,16.88-17.36,32.03-30.37,45.05c-13.01,13.01-28.17,23.23-45.05,30.37C179.42,279.72,160.86,283.46,141.73,283.46z"/>
	</g>
	<g>
		<circle cx="141.73" cy="141.73" r="134.22"/>
	</g>
	<path class="st0" d="M225.65,141.73c0-7.04-1.7-13.68-4.8-19.44l19.84-19.84l-16.7-16.7l-20.23,20.23
		c-0.15-0.07-0.29-0.14-0.44-0.21c-7.29-3.37-15.48-4.43-23.71-3.06c-8.44,1.41-16.73,5.4-23.96,11.54c-4.7,4-9.94,8.47-14,11.94
		c-4.19-3.58-9.44-8.06-14-11.94c-7.23-6.14-15.51-10.13-23.96-11.54c-8.22-1.37-16.42-0.31-23.71,3.06
		c-0.11,0.05-0.22,0.11-0.33,0.16L59.48,85.75l-16.7,16.7l19.74,19.74c-3.14,5.79-4.86,12.46-4.86,19.54
		c0,7.08,1.72,13.76,4.86,19.54l-19.74,19.74l16.7,16.7l20.18-20.18c0.11,0.05,0.22,0.11,0.33,0.16c7.29,3.37,15.48,4.43,23.71,3.06
		c8.44-1.41,16.73-5.4,23.96-11.54c4.43-3.77,9.69-8.25,14-11.94c4.19,3.58,9.44,8.06,14,11.94c7.23,6.14,15.51,10.13,23.96,11.54
		c2.34,0.39,4.67,0.58,6.98,0.58c5.83,0,11.51-1.23,16.73-3.64c0.15-0.07,0.29-0.14,0.44-0.21l20.23,20.23l16.7-16.7l-19.84-19.84
		C223.95,155.41,225.65,148.78,225.65,141.73z M112.36,151.22c-7.36,6.25-15.75,8.14-22.45,5.04c-5.49-2.54-8.63-7.83-8.63-14.52
		s3.15-11.99,8.63-14.52c2.12-0.98,4.42-1.46,6.8-1.46c5.12,0,10.63,2.23,15.65,6.5c3.57,3.03,7.56,6.43,11.13,9.48
		C119.84,144.84,115.84,148.25,112.36,151.22z M170.95,151.22c-3.57-3.03-7.56-6.43-11.13-9.48c3.49-2.98,7.47-6.38,11.13-9.48
		c7.36-6.25,15.75-8.14,22.45-5.04c5.49,2.54,8.63,7.83,8.63,14.52s-3.15,11.99-8.63,14.52
		C186.7,159.36,178.31,157.47,170.95,151.22z"/>
</g>
</svg>
