<svg xmlns="http://www.w3.org/2000/svg" viewBox="0 0 2000.03 1739.27"><defs/><title>ftx--logo</title><g id="ant-web3-icon-ftt-colorful-Layer_2"><g id="ant-web3-icon-ftt-colorful-Layer_1-2"><path d="M565.41.11q717.21-.22,1434.51,0,.22,231.83,0,463.58-717.23.22-1434.51,0Q565.18,231.86,565.41.11Z" style="fill: #02a6c2;"/><path d="M.6,638.1q231.39-1.2,462.86,0,1.2,231.39,0,462.86Q232,1102.15.6,1101-.6,869.57.6,638.1Z" style="fill: #5fcade;"/><path d="M565.77,638.1q517.67-1.1,1035.27,0,1.1,231.39,0,462.86-517.66,1.08-1035.27,0Q564.69,869.56,565.77,638.1Z" style="fill: #5fcade;"/><path d="M566.2,1276.23q231-2.51,461.92,0,2.4,230.85.07,461.92-231,2.28-461.91-.08Q563.88,1507.24,566.2,1276.23Z" style="fill: #abebf4;"/></g></g></svg>