<?xml version="1.0" encoding="utf-8"?>
<!-- Generator: Adobe Illustrator 26.0.1, SVG Export Plug-In . SVG Version: 6.00 Build 0)  -->
<svg version="1.1" id="Layer_1" xmlns="http://www.w3.org/2000/svg" xmlns:xlink="http://www.w3.org/1999/xlink" x="0px" y="0px"
	 viewBox="0 0 33 33" style="enable-background:new 0 0 33 33;" xml:space="preserve">
<style type="text/css">
	.st0{fill-rule:evenodd;clip-rule:evenodd;fill:#181818;stroke:#FFFFFF;}
	.st1{fill:#FFFFFF;}
	.st2{fill:#F7D509;}
</style>
<g transform="translate(1 1)">
	<path class="st0" d="M5.5-0.5h20c3.3,0,6,2.7,6,6v20c0,3.3-2.7,6-6,6h-20c-3.3,0-6-2.7-6-6v-20C-0.5,2.2,2.2-0.5,5.5-0.5z"/>
	<g transform="translate(6 8.75)">
		<path class="st1" d="M1.8,5.6h-2.3V4.2h2.3c0,0,0-0.1,0-0.1c0-0.4,0-0.8,0-1.2c0-0.8,0.2-1.5,0.7-2.1c0.5-0.7,1.1-1,1.9-1.2
			C5-0.5,5.6-0.5,6.3-0.5C6.9-0.4,7.6-0.2,8.2,0c0,0,0.1,0,0.1,0L7.9,1.3c-0.1,0-0.2-0.1-0.3-0.1C6.9,0.8,6,0.8,5.2,0.9
			c-1,0.2-1.6,0.8-1.7,1.8C3.4,3,3.4,3.4,3.4,3.7c0,0.2,0,0.3,0,0.5h4v1.3h-4v8.3H1.8V5.6z"/>
		<path class="st2" d="M14.7,9.8C14.7,9.8,14.7,9.8,14.7,9.8C14.7,9.8,14.7,9.8,14.7,9.8c0.4-0.7,0.8-1.5,1.2-2.2
			C16,7.3,16.2,7,16.3,6.7h-1.5c0,0-0.7,1.5-1,2.2h0c-0.3-0.7-1.1-2.2-1.1-2.2l-1.6,0c0,0,1.2,2.1,1.7,3c0,0,0,0,0,0l0,0
			c-0.5,0.9-1.7,3-1.7,3l1.6,0c0,0,0.7-1.5,1.1-2.1h0c0.3,0.7,1,2.1,1,2.1h1.5C16.2,12.5,15.1,10.5,14.7,9.8z M10.5,13.3
			c-0.3,0.2-0.5,0.4-0.8,0.6c-2.2-2-2.5-6,0-8.4C10,5.8,10.3,6,10.5,6.2c-0.1,0.1-0.1,0.2-0.2,0.2C9.8,7.1,9.4,7.8,9.3,8.6
			c-0.1,0.5-0.1,1-0.1,1.6c0,0.6,0.2,1.2,0.4,1.7C9.8,12.4,10.1,12.8,10.5,13.3C10.5,13.2,10.5,13.3,10.5,13.3z M16.9,13.3
			c0.3,0.2,0.5,0.4,0.8,0.6c2.2-2,2.5-6,0-8.4c-0.3,0.2-0.5,0.4-0.8,0.7C17,6.3,17,6.4,17.1,6.5c0.5,0.6,0.9,1.3,1.1,2.2
			c0.1,0.5,0.1,1,0.1,1.6c0,0.6-0.2,1.2-0.4,1.7C17.6,12.4,17.3,12.8,16.9,13.3C17,13.2,16.9,13.3,16.9,13.3z"/>
	</g>
</g>
</svg>
