<?xml version="1.0" encoding="utf-8"?>
<!-- Generator: Adobe Illustrator 24.0.0, SVG Export Plug-In . SVG Version: 6.00 Build 0)  -->
<svg version="1.1" id="Layer_1" xmlns="http://www.w3.org/2000/svg" xmlns:xlink="http://www.w3.org/1999/xlink" x="0px" y="0px"
	 viewBox="0 0 1831.7 1999.8" style="enable-background:new 0 0 1831.7 1999.8;" xml:space="preserve">
<style type="text/css">
	.st0{fill-rule:evenodd;clip-rule:evenodd;fill:#367EC7;}
	.st1{fill-rule:evenodd;clip-rule:evenodd;fill:#F72222;}
	.st2{fill-rule:evenodd;clip-rule:evenodd;fill:#FFFFFF;}
</style>
<g>
	<path class="st0" d="M1204,239.4c0,57.2-6.5,113.1-16.1,161.2c-4.9,24.4-10.9,49-17.2,71.4l-21.4,67.2
		c-16.5,49.8-46,103.2-76.9,144.6c-25.2,33.7-50.5,67.1-81.5,95.8l-48.7,39.9c-38.3,28.7-79.2,55.6-122.8,75.8
		c-26.6,12.3-53.9,19.6-82.7,29c-49.6,16.2-97.7,21.5-149.1,28.2c-55.3,7.2-117.5,4.6-174.2,4.9l-101.3-5.1
		c-56.8-6.3-55.6-1.4-122-18c-34.9-8.7-73.8-21.7-103.4-36.6c-8.6-4.3-13.6-7.4-21.8-11.8c-14-7.6-44.5-33.9-52.5-36.3
		c-4.5-1.4-11.9-3.1-11.9,1.5c0,41.3,56.3,133.1,88.2,168.8l46.9,48.8c3.9,3.8,4.8,4.1,8.7,7.2l44.6,35.2c25.2,18.9,53,33.2,80,49.4
		c7.1,4.2,13.6,7,21.1,10.8l15.6,7.5c81.9,37.8,160.6,62.4,249.3,80.4c16.3,3.3,38.9,8.8,55.4,10.2c0.7,32.1-3.5,63.7-8.9,95.7
		c-7.6,46-19.9,85.5-32.7,128.7c-16.8,56.5-59.4,134-94.7,178.3c-17.2,21.5-32.8,38-54,55.9c-5.1,4.3-9.5,7.7-14.9,11.7
		c-65.2,48.8-88.2,56.2-170.7,56.2c-41.6,0-85.4-9-124.9-20.5c-17.6-5.1-35.3-14.4-49.6-23c-10.8-6.5-35.4-25.1-45.3-27.4L0,1738.6
		c3,28.2,31.8,87.3,45.9,112.7c68.6,123.3,204.5,148.3,339.1,148.3c8.6,0,17.7,0.7,26.1-0.5c22.8-3.1,50.5-3,73.5-6.3
		c33.1-4.8,59.7-9.1,89.7-16.6c83.6-21,150.8-57.4,224.3-94.8l34.1-19.1c11.8-7,22.2-12.3,33.9-19.3l66.9-39.4
		c11.8-7.1,21.7-13,33.2-19.9l148.2-92.9c5.8-3.7,10.1-7,15.9-10.6l163.8-103.9c38.5-24.3,79.6-46.7,121.5-64.7
		c7.1-3,11.6-5,18.7-7.8c42.3-16.8,78.2-32.4,128.9-32.4c71.8,0,111.5,23.7,146.4,80.5c21.7,35.4,33.9,85.2,42.8,127.3
		c5.4,25.5,3.1,22.5,21.7,35l10.9-22.8c2.8-8.4,6.4-16.9,9.3-26.2c5.7-18.2,11-34.2,16.3-52.8c25.2-87.8,31.3-190.4-5.8-276.3
		c-13.3-30.9-31.6-59.6-57.2-81l-2.9-2.4c-1.4-1.2-1.6-1.4-2.8-2.5c-26-23.7-57.1-40-94.6-52.5c-5.9-2-7.6-2-14.1-3.6
		c-125.5-31.1-243.9-10.9-362.4,36.2c-11.8,4.7-62.8,27.7-70.9,28.4c1.4-5.3,15-28.7,18.8-34.4c7.4-11.2,13.7-21.9,20.1-33
		c28.3-49.2,48.2-95,68.5-147.8c10.3-27,18.7-52.1,28-80.1c18-54.1,33.4-111,42.9-173.4c26-170.4,33-418.7-59.8-571.5
		c-24.1-39.7-44.7-63.4-73.7-96.5c-9.9-11.3-22.4-20.2-32.8-31.1c-5-5.3-4.6-7.3-13.8-7.5c-3.9,16.6-5,17.2-2.5,34.4
		C1201.9,158.8,1204,198.1,1204,239.4L1204,239.4L1204,239.4z"/>
	<path class="st1" d="M507.4,179c-5.2-5-12.9-18.7-16.1-26.5c-5.3-12.9,7.5-15.1,18.4-20.8c17.9-9.4,38.1-18.2,58.7-24.7
		c100.8-31.5,215.4-10,294.6,55.1c26.4,21.7,40.7,28.1,28.7,43.2c-24.2,30.3-19.3,21-54.5-8.5c-10.4-8.7-23.4-17.9-36.3-25.7
		c-70.3-42.5-176.9-46.6-252.1-10.9C539,164.8,515.1,178.7,507.4,179L507.4,179L507.4,179z M273.4,402.5
		c0,83.1,33.1,180.4,84.1,245.6c7.7,9.9,14.5,16.4,22,25.8c17.7,21.9,22,28-11.1,54l-83.8,56.3c-16.7,9.9-58.5,34.1-71.9,45.1
		c-5.3,4.4-9.5,6.5-10.2,14.6c20.2,10.7,59.9,7.1,86.9,7.1c43.6,0,81.2-1.7,124.1-1.7l120.5-7.1c33.2-1.6,81.4-7.4,112.9-12.9
		c72.5-12.7,151.2-33.9,214.4-71c24.3-14.2,62.1-40.4,81-60.8c3.2-3.4,4.5-5,7.7-8.2c5.3-5.3,11.2-10.4,15.9-16
		c14.6-17.4,28.7-35.3,40.6-55.2c62.7-104.7,82.1-207.3,49.9-328.5c-11.3-42.6-36.3-90.8-62.6-127.1l-60.6-67
		c-15.8-14.1-57.3-41.3-76.7-51C766-0.7,678.3-11.7,578.3,12.5c-37.5,9.1-73.3,23.6-106.3,42.6c-35.3,20.3-83.4,58.7-107.5,91
		C308.4,221.3,273.4,306.3,273.4,402.5L273.4,402.5L273.4,402.5z"/>
	<path class="st2" d="M507.4,179c7.7-0.3,31.6-14.2,41.4-18.9c75.1-35.7,181.7-31.6,252.1,10.9c13,7.8,25.9,17,36.3,25.7
		c35.2,29.5,30.3,38.8,54.5,8.5c12-15-2.3-21.5-28.7-43.2C783.7,97,669.1,75.5,568.3,107c-20.6,6.4-40.8,15.3-58.7,24.7
		c-10.8,5.7-23.7,7.8-18.4,20.8C494.5,160.3,502.2,174,507.4,179L507.4,179L507.4,179z"/>
</g>
</svg>
