<?xml version="1.0" encoding="utf-8"?>
<!-- Generator: Adobe Illustrator 24.0.0, SVG Export Plug-In . SVG Version: 6.00 Build 0)  -->
<svg version="1.1" id="Layer_1" xmlns="http://www.w3.org/2000/svg" xmlns:xlink="http://www.w3.org/1999/xlink" x="0px" y="0px"
	 viewBox="0 0 22 22" style="enable-background:new 0 0 22 22;" xml:space="preserve">
<style type="text/css">
	.st0{fill-rule:evenodd;clip-rule:evenodd;fill:#06803F;}
</style>
<path class="st0" d="M21.9,8c0,0,0,0.1-0.1,0.1c-0.2,0.8-2.5,5.2-3.3,6l-0.1,0.1L17.6,15l4.4,2.1l0,0c-2.5,2.9-6.4,4.8-10.9,4.8
	c-4.5,0-8.4-1.9-10.9-4.8L0,16.9L4.2,15l-0.4-0.4l-0.5-0.4c-0.6-0.5-2.8-4.8-3.1-5.9c0,0-0.1-0.1-0.1-0.1c1.3,0.9,4.9,1.8,9.2,2
	l0.4,0l0.4,0l0.7,0l0.7,0l0.3,0l0.4,0c4.3-0.2,7.7-1,9.2-1.9l0.1-0.1L21.9,8L21.9,8L21.9,8z M5,11l0.3,1c0.2,0.6,0.4,1.2,0.6,1.7
	l0.2,0.4l0.5,0.9c0.1,0.1,0.1,0.2,0.2,0.3l0.1,0.1l0.4,0.3c0.7,0.4,1.4,0.8,2.3,1l0.3,0.1l0.9,0.2l0.2,0h0.1l0.2,0l0.9-0.2
	c0.9-0.2,1.6-0.5,2.3-0.9l0.3-0.2l0.4-0.3c0.1-0.1,0.2-0.2,0.2-0.3l0.1-0.1l0.5-0.9c0.3-0.6,0.5-1.1,0.7-1.7l0.1-0.5L17,11
	c-0.6,1.1-1.7,1.8-3,2l-0.2,0l-0.2,0c-1-0.1-1.9-0.7-2.4-1.5l-0.1-0.2L11,11.3l-0.1,0.2c-0.5,0.8-1.4,1.3-2.4,1.5l-0.2,0l-0.2,0
	l-0.2,0C6.6,12.9,5.5,12.1,5,11z M11,0c0.8,0,1.9,0.6,3.5,1.9l0.2,0.2l0.7,0.6l1.9,1.6l1.3,0.4c0.2,0.1,0.4,0.1,0.6,0.2l0.4,0.1
	L19.9,5l0.4,0.1l0.2,0.1l0.2,0.1C21.6,5.6,22,6,22,6.5l0,0.1l0,0.1l-0.1,0.1l-0.1,0.1c-1.4,1-5,1.9-9.4,2.1L12,9l-0.3,0l-0.7,0
	l-0.7,0L9.8,9C5.2,8.8,1.5,7.9,0.1,6.9C0,6.8,0,6.6,0,6.5c0-0.6,0.5-1,1.5-1.4C1.3,4.9,1.3,4.8,1.1,4.6C1.4,4.3,1.9,4,2.3,3.9
	C3.1,3.8,3.6,4,4.1,4.1C3.7,3.9,2.9,3.1,2.7,2.8C2.3,2,2.6,1.4,2.8,1.1l0-0.1l0.1-0.1L3,0.8l0.1,0c0.2,0,1,0,1.3,0.3
	C5,2,4.9,3,5.2,3.5c0.2-0.5,0.1-1,0.5-1.6C6,1.2,7.2,0.4,8.1,0.6c0,0.3,0.2,0.5,0.1,0.9C9.4,0.5,10.3,0,11,0z"/>
</svg>
