<?xml version="1.0" encoding="utf-8"?>
<!-- Generator: Adobe Illustrator 24.0.0, SVG Export Plug-In . SVG Version: 6.00 Build 0)  -->
<svg version="1.1" id="Layer_1" xmlns="http://www.w3.org/2000/svg" xmlns:xlink="http://www.w3.org/1999/xlink" x="0px" y="0px"
	 viewBox="0 0 65 65" style="enable-background:new 0 0 65 65;" xml:space="preserve">
<path d="M32.5,0C14.6,0,0,14.6,0,32.5S14.6,65,32.5,65S65,50.4,65,32.5C65,14.6,50.4,0,32.5,0z M46.1,25.2h-2l-6.2,7.2l6.2,7.2h2
	v5.8H33v-5.8h2L30.9,35h-1.7v4.8h2.3v5.8H18.8v-5.8h2.8v-7.2v-7.3h-2.8v-5.8H22v2.2h1.7v-2.2h3.1v2.2h1.7v-2.2h3.1v5.7h-2.3v4.8h1.7
	l4.1-4.8h-2v-5.7h13.2L46.1,25.2L46.1,25.2z"/>
</svg>
