<?xml version="1.0" encoding="utf-8"?>
<!-- Generator: Adobe Illustrator 26.0.1, SVG Export Plug-In . SVG Version: 6.00 Build 0)  -->
<svg version="1.1" id="ant-web3-icon-ldo-circle-colorful-Layer_1" xmlns:xodm="http://www.corel.com/coreldraw/odm/2003" xmlns="http://www.w3.org/2000/svg" xmlns:xlink="http://www.w3.org/1999/xlink" x="0px" y="0px" viewBox="0 0 2500 2500" enable-background="new 0 0 2500 2500" xml:space="preserve">

<g id="ant-web3-icon-ldo-circle-colorful-Layer_x0020_1">
	<g id="ant-web3-icon-ldo-circle-colorful-_2090755387392">
		<path d="M1250,0L1250,0c690,0,1250,560,1250,1250l0,0c0,690-560,1250-1250,1250l0,0C560,2500,0,1940,0,1250l0,0
			C0,560,560,0,1250,0z" fill=" none"/>
		<g>
			<g>
				<defs>
					<path id="ant-web3-icon-ldo-circle-colorful-SVGID_1_" d="M1250,0L1250,0c690,0,1250,560,1250,1250l0,0c0,690-560,1250-1250,1250l0,0C560,2500,0,1940,0,1250l0,0
						C0,560,560,0,1250,0z"/>
				</defs>
				<clipPath id="ant-web3-icon-ldo-circle-colorful-SVGID_00000160188587584686621390000014387546349215543718_">
					<use xlink:href="#ant-web3-icon-ldo-circle-colorful-SVGID_1_" overflow="visible"/>
				</clipPath>
				<g clip-path="url(#ant-web3-icon-ldo-circle-colorful-SVGID_00000160188587584686621390000014387546349215543718_)">
					<path id="ant-web3-icon-ldo-circle-colorful-_1" d="M0,0l2500,2500 M2500,0L0,2500" style="fill: none; stroke: #000000; stroke-miterlimit: 22.9256;"/>
				</g>
			</g>
		</g>
		
			<linearGradient id="ant-web3-icon-ldo-circle-colorful-SVGID_00000165228026751743658530000016517460302465612473_" gradientUnits="userSpaceOnUse" x1="1250" y1="-1656" x2="1250" y2="843.9999" gradientTransform="matrix(1 0 0 1 0 1656)">
			<stop offset="0" stop-color="#F89791"/>
			<stop offset="1" stop-color="#F7C882"/>
		</linearGradient>
		<path fill="url(#ant-web3-icon-ldo-circle-colorful-SVGID_00000165228026751743658530000016517460302465612473_)" d="M1250,0L1250,0c690,0,1250,560,1250,1250
			l0,0c0,690-560,1250-1250,1250l0,0C560,2500,0,1940,0,1250l0,0C0,560,560,0,1250,0z"/>
		<g>
			<g>
				<defs>
					<path id="ant-web3-icon-ldo-circle-colorful-SVGID_00000163036181998440552620000014268914133738242734_" d="M1249,1472l-557-318l-15,23c-171,263-133,607,92,828
						c265,260,695,260,960,0c225-221,263-565,92-828l-15-23L1249,1472z"/>
				</defs>
				<clipPath id="ant-web3-icon-ldo-circle-colorful-SVGID_00000129916768327263564950000008320770272134965387_">
					<use xlink:href="#ant-web3-icon-ldo-circle-colorful-SVGID_00000163036181998440552620000014268914133738242734_" overflow="visible"/>
				</clipPath>
				<g clip-path="url(#ant-web3-icon-ldo-circle-colorful-SVGID_00000129916768327263564950000008320770272134965387_)">
					<g>
						
							<radialGradient id="ant-web3-icon-ldo-circle-colorful-SVGID_00000041998727016348714760000012056648825883767482_" cx="4255.8911" cy="1058.0284" r="594" gradientTransform="matrix(-1.242690e-02 -1.5265 1.8194 -2.651850e-02 -624.3724 8621.4365)" gradientUnits="userSpaceOnUse">
							<stop offset="0" stop-color="#C5C6AB"/>
							<stop offset="1" stop-color="#7985AB"/>
						</radialGradient>
						
							<circle style="fill-rule:evenodd;clip-rule:evenodd;fill:url(#ant-web3-icon-ldo-circle-colorful-SVGID_00000041998727016348714760000012056648825883767482_);" cx="1249" cy="1541" r="679"/>
					</g>
				</g>
			</g>
		</g>
		<path d="M1249,1472l-557-318l-15,23c-171,263-133,607,92,828c265,260,695,260,960,0c225-221,263-565,92-828l-15-23
			L1249,1472z" fill=" none"/>
		
			<radialGradient id="ant-web3-icon-ldo-circle-colorful-SVGID_00000126316947920773211430000009595244327353372847_" cx="1249" cy="-620.0001" r="24" gradientTransform="matrix(1 0 0 1 0 1656)" gradientUnits="userSpaceOnUse">
			<stop offset="0" style="stop-color:#0066FF;stop-opacity:0"/>
			<stop offset="1" style="stop-color:#00C2FF;stop-opacity:0.4"/>
		</radialGradient>
		<polygon fill="url(#ant-web3-icon-ldo-circle-colorful-SVGID_00000126316947920773211430000009595244327353372847_)" points="1249,762 769,1036 1249,1310 
			1729,1036 		"/>
		
			<radialGradient id="ant-web3-icon-ldo-circle-colorful-SVGID_00000040537778241883717370000000066377911240089534_" cx="1248.5" cy="-503.5001" r="28.008" gradientTransform="matrix(1 0 0 1 0 1656)" gradientUnits="userSpaceOnUse">
			<stop offset="0" style="stop-color:#AEE6F9;stop-opacity:0.8588"/>
			<stop offset="1" stop-color="#C8D6DC"/>
		</radialGradient>
		<polygon fill="url(#ant-web3-icon-ldo-circle-colorful-SVGID_00000040537778241883717370000000066377911240089534_)" points="1250,833 692,1154 1249,1472 
			1805,1154 		"/>
		
			<linearGradient id="ant-web3-icon-ldo-circle-colorful-SVGID_00000103958340582352094870000003712943117012806833_" gradientUnits="userSpaceOnUse" x1="1009" y1="-1406" x2="1009" y2="-406.0001" gradientTransform="matrix(1 0 0 1 0 1656)">
			<stop offset="0" stop-color="#77D4FF"/>
			<stop offset="1" style="stop-color:#93D6F2;stop-opacity:0.898"/>
		</linearGradient>
		<polygon fill="url(#ant-web3-icon-ldo-circle-colorful-SVGID_00000103958340582352094870000003712943117012806833_)" points="1249,300 769,1036 1249,1310 		
			"/>
		
			<linearGradient id="ant-web3-icon-ldo-circle-colorful-SVGID_00000027599097175920634010000007977452326395958914_" gradientUnits="userSpaceOnUse" x1="1489" y1="-1406" x2="1489" y2="-406.0001" gradientTransform="matrix(1 0 0 1 0 1656)">
			<stop offset="0" stop-color="#506AAC"/>
			<stop offset="1" style="stop-color:#96CFEF;stop-opacity:0.8196"/>
		</linearGradient>
		<polygon fill="url(#ant-web3-icon-ldo-circle-colorful-SVGID_00000027599097175920634010000007977452326395958914_)" points="1249,1310 1729,1036 1249,300 		
			"/>
	</g>
</g>
</svg>
