<svg xmlns="http://www.w3.org/2000/svg" width="200" height="200" viewBox="0 0 200 200" version="1.1"><path d="M 117.402 42.243 L 117.500 46.500 140.251 46.529 L 163.001 46.558 140.557 46.260 L 118.113 45.963 117.708 41.974 L 117.304 37.985 117.402 42.243 M 82 42.500 L 82 46 59.500 46 L 37 46 37 59.443 L 37 72.885 32.750 73.268 L 28.500 73.651 33.250 73.825 L 38 74 38 60.500 L 38 47 60.500 47 L 83 47 83 43 C 83 40.800, 82.775 39, 82.500 39 C 82.225 39, 82 40.575, 82 42.500 M 82 100 L 82 127 100 127 L 118 127 118 123 L 118 119 104.500 119 L 91 119 91 96 L 91 73 86.500 73 L 82 73 82 100 M 164.750 73.706 C 165.988 73.944, 168.012 73.944, 169.250 73.706 C 170.488 73.467, 169.475 73.272, 167 73.272 C 164.525 73.272, 163.512 73.467, 164.750 73.706 M 83 100 L 83 126 100 126 L 117 126 117 123.029 L 117 120.058 103.750 119.779 L 90.500 119.500 90.231 96.750 L 89.962 74 86.481 74 L 83 74 83 100 M 32.993 126.709 L 37 127.115 37 140.557 L 37 154 59.443 154 L 81.885 154 82.268 158.250 L 82.651 162.500 82.825 157.750 L 83 153 60.529 153 L 38.058 153 37.779 139.750 L 37.500 126.500 33.243 126.402 L 28.985 126.304 32.993 126.709 M 164.750 126.706 C 165.988 126.944, 168.012 126.944, 169.250 126.706 C 170.488 126.467, 169.475 126.272, 167 126.272 C 164.525 126.272, 163.512 126.467, 164.750 126.706 M 117.398 154.405 C 117.102 155.177, 117.044 157.315, 117.270 159.155 C 117.641 162.185, 117.695 162.102, 117.840 158.269 L 118 154.038 140.750 153.749 L 163.500 153.461 140.719 153.230 C 121.923 153.040, 117.843 153.246, 117.398 154.405" stroke="none" fill="#646464" fill-rule="evenodd"/><path d="M 29 55.500 L 29 73 33 73 L 37 73 37 59.500 L 37 46 59.395 46 L 81.790 46 82.171 42 L 82.553 38 55.776 38 L 29 38 29 55.500 M 118 42 L 118 46 140.500 46 L 163 46 163 59.500 L 163 73 167 73 L 171 73 171 55.500 L 171 38 144.500 38 L 118 38 118 42 M 83 100 L 83 126 100 126 L 117 126 117 123.029 L 117 120.058 103.750 119.779 L 90.500 119.500 90.231 96.750 L 89.962 74 86.481 74 L 83 74 83 100 M 29 144.500 L 29 162 55.500 162 L 82 162 82 158 L 82 154 59.500 154 L 37 154 37 140.500 L 37 127 33 127 L 29 127 29 144.500 M 163 140.500 L 163 154 140.500 154 L 118 154 118 158 L 118 162 144.500 162 L 171 162 171 144.500 L 171 127 167 127 L 163 127 163 140.500" stroke="none" fill="#040404" fill-rule="evenodd"/></svg>