<svg id="Layer_1" data-name="Layer 1" xmlns="http://www.w3.org/2000/svg" xmlns:xlink="http://www.w3.org/1999/xlink" viewBox="0 0 11.85 10.29"><defs><linearGradient id="linear-gradient" x1="-845.05" y1="493.61" x2="-844.22" y2="493.61" gradientTransform="matrix(11.85, 0, 0, -10.29, 10018.24, 5085.24)" gradientUnits="userSpaceOnUse"><stop offset="0" stop-color="#7cb7ff"/><stop offset="1" stop-color="#ba6df6"/></linearGradient></defs><title>lto-network-lto-logo</title><path d="M7.12.1,6,1.22l.23.23a.33.33,0,0,0,.47,0L7.82.33,7.59.1a.33.33,0,0,0-.47,0ZM4.27.1,4,.33,5.17,1.45a.32.32,0,0,0,.46,0l.23-.23L4.73.1a.32.32,0,0,0-.46,0ZM8.18,1.57,6.05,3.7l.43.44a.63.63,0,0,0,.88,0L9.49,2l-.43-.43a.62.62,0,0,0-.87,0Zm-5.39,0L2.36,2,4.49,4.13a.61.61,0,0,0,.88,0L5.8,3.7,3.67,1.57a.63.63,0,0,0-.88,0Zm2.9-.05-.22.23.46.46.46-.46-.23-.23a.32.32,0,0,0-.46,0Zm4,2.13L6.14,7.19l.71.72a1,1,0,0,0,1.46,0l3.54-3.54-.71-.72a1,1,0,0,0-1.46,0Zm-9,0L0,4.36,3.54,7.91A1,1,0,0,0,5,7.91l.72-.72L2.18,3.65a1,1,0,0,0-1.46,0Zm4.77.62-.43.43.87.87L6.8,4.7l-.43-.43a.62.62,0,0,0-.88,0ZM5.2,8.13l-.72.71,1.45,1.45L7.37,8.84l-.71-.71a1,1,0,0,0-1.46,0Z" style="fill:url(#linear-gradient)"/></svg>