<?xml version="1.0" encoding="UTF-8" standalone="no"?>
<svg
   viewBox="0 0 31.999968 40.234638"
   fill="none"
   version="1.1"
   id="svg4"
   xmlns="http://www.w3.org/2000/svg"
   xmlns:svg="http://www.w3.org/2000/svg">
  <defs
     id="defs4" />
  <path
     d="m 0,12.541888 v 15.158601 c 0,2.509599 1.333007,4.824299 3.487527,6.071299 l 9.93554,5.7673 c 1.5965,0.9274 3.5573,0.9274 5.1538,0 l 9.9356,-5.7673 c 2.1545,-1.2548 3.4875,-3.569499 3.4875,-6.071299 V 12.541888 c 0,-2.5095 -1.333,-4.8242395 -3.4875,-6.0712195 l -9.9356,-5.77509 c -1.5965,-0.927438 -3.5573,-0.927438 -5.1538,0 l -9.93554,5.76729 C 1.333007,7.7176485 0,10.032389 0,12.541888 Z"
     fill="#dc2626"
     id="path1" />
  <path
     d="m 28.131867,19.719388 -3.6503,-1.2469 c -1.3408,-0.4599 -2.3405,-1.5977 -2.6195,-2.992799 l -1.5423,-7.6533505 c -0.0387,-0.19484 -0.2092,-0.33513 -0.4107,-0.33513 -0.2015,0 -0.372,0.14029 -0.4108,0.33513 l -1.5422,7.6533495 c -0.279,1.3951 -1.2788,2.5329 -2.6196,2.9928 l -3.6502,1.2469 c -0.1705,0.0546 -0.279,0.2183 -0.279,0.3975 0,0.1793 0.1162,0.3351 0.279,0.3975 l 3.6502,1.247 c 1.3408,0.4598 2.3406,1.5977 2.6196,2.9927 l 1.5422,7.6534 c 0.0388,0.1948 0.2093,0.3351 0.4108,0.3351 0.2015,0 0.372,-0.1403 0.4107,-0.3351 l 1.5423,-7.6534 c 0.279,-1.395 1.2787,-2.5329 2.6195,-2.9927 l 3.6503,-1.247 c 0.1705,-0.0546 0.279,-0.2182 0.279,-0.3975 0,-0.1792 -0.1163,-0.3351 -0.279,-0.3975 z"
     fill="#fffdf7"
     id="path2" />
  <path
     d="m 8.493327,12.697888 1.28654,0.436401 c 0.4727,0.1637 0.8292,0.5611 0.9222,1.0599 l 0.5425,2.7044 c 0.0155,0.0702 0.0775,0.1169 0.1473,0.1169 0.0697,0 0.1317,-0.0467 0.1472,-0.1169 l 0.5425,-2.7044 c 0.1008,-0.491 0.4495,-0.8962 0.93,-1.0599 l 1.2866,-0.436401 c 0.062,-0.0234 0.1007,-0.078 0.1007,-0.140299 0,-0.0624 -0.0387,-0.1169 -0.1007,-0.1403 l -1.2866,-0.436501 c -0.4727,-0.1636 -0.8292,-0.5611 -0.93,-1.0599 l -0.5425,-2.7043695 c -0.0155,-0.07015 -0.0775,-0.11691 -0.1472,-0.11691 -0.0698,0 -0.1318,0.04676 -0.1473,0.11691 l -0.5425,2.7043695 c -0.1007,0.491 -0.4495,0.8963 -0.9222,1.0599 l -1.28654,0.436501 c -0.062,0.0234 -0.10075,0.0779 -0.10075,0.1403 0,0.0623 0.03875,0.116899 0.10075,0.140299"
     fill="#fffdf7"
     id="path3" />
  <path
     d="m 11.500667,25.978189 -1.72823,-0.584501 c -0.63551,-0.2182 -1.10826,-0.756 -1.24001,-1.418499 l -0.72851,-3.624 c -0.0155,-0.0935 -0.10075,-0.155901 -0.19375,-0.155901 -0.093,0 -0.17825,0.0624 -0.19375,0.1559 l -0.7285,3.624 c -0.13175,0.6625 -0.60451,1.2003 -1.24001,1.4185 l -1.72827,0.584501 c -0.0775,0.0234 -0.13175,0.101299 -0.13175,0.187 0,0.0858 0.05425,0.1637 0.13175,0.1871 l 1.72827,0.5845 c 0.6355,0.2182 1.10826,0.756 1.24001,1.4185 l 0.7285,3.624 c 0.0155,0.0935 0.10075,0.1559 0.19375,0.1559 0.093,0 0.1705,-0.0702 0.19375,-0.1559 l 0.72851,-3.624 c 0.13175,-0.6625 0.6045,-1.2003 1.24001,-1.4185 l 1.72823,-0.5845 c 0.0775,-0.0234 0.1318,-0.1013 0.1318,-0.1871 0,-0.0857 -0.0543,-0.1636 -0.1318,-0.187 z"
     fill="#fffdf7"
     id="path4" />
</svg>
