<?xml version="1.0" encoding="UTF-8"?>
<svg viewBox="0 0 1024 1024" version="1.1" xmlns="http://www.w3.org/2000/svg" xmlns:xlink="http://www.w3.org/1999/xlink">
    <title>polygon-matic-logo</title>
    <g id="polygon-matic-logo" stroke="none" stroke-width="1" fill="none" fill-rule="evenodd">
        <g id="编组" transform="translate(112, 112)" fill="#555555">
            <circle id="椭圆形" cx="400" cy="400" r="400"></circle>
        </g>
        <g transform="translate(237, 270)" fill="#FFFFFF" fill-rule="nonzero" id="路径">
            <path d="M416.449086,147.928783 C406.396867,142.183976 393.472585,142.183976 381.984334,147.928783 L301.56658,195.323442 L246.997389,225.48368 L168.015666,272.878338 C157.963446,278.623145 145.039164,278.623145 133.550914,272.878338 L71.8015666,235.537092 C61.7493473,229.792285 54.5691906,218.302671 54.5691906,205.376855 L54.5691906,133.566766 C54.5691906,122.077151 60.3133159,110.587537 71.8015666,103.406528 L133.550914,67.5014837 C143.603133,61.7566766 156.527415,61.7566766 168.015666,67.5014837 L229.765013,104.84273 C239.817232,110.587537 246.997389,122.077151 246.997389,135.002967 L246.997389,182.397626 L301.56658,150.801187 L301.56658,101.970326 C301.56658,90.4807122 295.822454,78.9910979 284.334204,71.810089 L169.451697,4.30860534 C159.399478,-1.43620178 146.475196,-1.43620178 134.986945,4.30860534 L17.232376,73.2462908 C5.74412533,78.9910979 0,90.4807122 0,101.970326 L0,236.973294 C0,248.462908 5.74412533,259.952522 17.232376,267.133531 L133.550914,334.635015 C143.603133,340.379822 156.527415,340.379822 168.015666,334.635015 L246.997389,288.676558 L301.56658,257.080119 L380.548303,211.121662 C390.600522,205.376855 403.524804,205.376855 415.013055,211.121662 L476.762402,247.026706 C486.814621,252.771513 493.994778,264.261128 493.994778,277.186944 L493.994778,348.997033 C493.994778,360.486647 488.250653,371.976261 476.762402,379.15727 L416.449086,415.062315 C406.396867,420.807122 393.472585,420.807122 381.984334,415.062315 L320.234987,379.15727 C310.182768,373.412463 303.002611,361.922849 303.002611,348.997033 L303.002611,303.038576 L248.43342,334.635015 L248.43342,382.029674 C248.43342,393.519288 254.177546,405.008902 265.665796,412.189911 L381.984334,479.691395 C392.036554,485.436202 404.960836,485.436202 416.449086,479.691395 L532.767624,412.189911 C542.819843,406.445104 550,394.95549 550,382.029674 L550,245.590504 C550,234.10089 544.255875,222.611276 532.767624,215.430267 L416.449086,147.928783 Z"></path>
        </g>
    </g>
</svg>
