<?xml version="1.0" encoding="UTF-8"?>
<svg viewBox="0 0 1024 1024" version="1.1" xmlns="http://www.w3.org/2000/svg" xmlns:xlink="http://www.w3.org/1999/xlink">
    <title>polygon-matic-logo</title>
    <g id="polygon-matic-logo" stroke="none" stroke-width="1" fill="none" fill-rule="evenodd">
        <g transform="translate(112, 160)" fill="#555555" fill-rule="nonzero" id="路径">
            <path d="M605.744125,215.169139 C591.122715,206.813056 572.32376,206.813056 555.613577,215.169139 L438.642298,284.106825 L359.26893,327.976261 L244.386423,396.913947 C229.765013,405.27003 210.966057,405.27003 194.255875,396.913947 L104.438642,342.599407 C89.8172324,334.243323 79.3733681,317.531157 79.3733681,298.72997 L79.3733681,194.278932 C79.3733681,177.566766 87.7284595,160.854599 104.438642,150.409496 L194.255875,98.1839763 C208.877285,89.8278932 227.67624,89.8278932 244.386423,98.1839763 L334.203655,152.498516 C348.825065,160.854599 359.26893,177.566766 359.26893,196.367953 L359.26893,265.305638 L438.642298,219.347181 L438.642298,148.320475 C438.642298,131.608309 430.287206,114.896142 413.577023,104.451039 L246.475196,6.26706231 C231.853786,-2.08902077 213.05483,-2.08902077 196.344648,6.26706231 L25.0652742,106.540059 C8.35509138,114.896142 0,131.608309 0,148.320475 L0,344.688427 C0,361.400593 8.35509138,378.11276 25.0652742,388.557864 L194.255875,486.74184 C208.877285,495.097923 227.67624,495.097923 244.386423,486.74184 L359.26893,419.893175 L438.642298,373.934718 L553.524804,307.086053 C568.146214,298.72997 586.94517,298.72997 603.655352,307.086053 L693.472585,359.311573 C708.093995,367.667656 718.537859,384.379822 718.537859,403.181009 L718.537859,507.632047 C718.537859,524.344214 710.182768,541.05638 693.472585,551.501484 L605.744125,603.727003 C591.122715,612.083086 572.32376,612.083086 555.613577,603.727003 L465.796345,551.501484 C451.174935,543.145401 440.73107,526.433234 440.73107,507.632047 L440.73107,440.783383 L361.357702,486.74184 L361.357702,555.679525 C361.357702,572.391691 369.712794,589.103858 386.422977,599.548961 L555.613577,697.732938 C570.234987,706.089021 589.033943,706.089021 605.744125,697.732938 L774.934726,599.548961 C789.556136,591.192878 800,574.480712 800,555.679525 L800,357.222552 C800,340.510386 791.644909,323.79822 774.934726,313.353116 L605.744125,215.169139 Z"></path>
        </g>
    </g>
</svg>
