<?xml version="1.0" encoding="utf-8"?>
<!-- Generator: Adobe Illustrator 26.0.1, SVG Export Plug-In . SVG Version: 6.00 Build 0)  -->
<svg version="1.1" id="ant-web3-icon-merge-colorful-Layer_1" xmlns="http://www.w3.org/2000/svg" xmlns:xlink="http://www.w3.org/1999/xlink" x="0px" y="0px" viewBox="0 0 221.8 166.4" style="enable-background:new 0 0 221.8 166.4;" xml:space="preserve">

<path d="M63,147.3v-39.2l-9.9,26.5L63,147.3z" style="fill: #205E2F;"/>
<path d="M41.6,119.6l11.4,15l9.9-26.5v-0.4L41.6,119.6z" style="fill: #43B649;"/>
<path d="M41.6,166.2l21.3-18.8L53,134.7L41.6,166.2z" style="fill: #1E3B1C;"/>
<path d="M33.2,116.4l8.1,50l0.4-0.2l11.4-31.6l-11.4-15L33.2,116.4z" style="fill: #139146;"/>
<path d="M76.8,99.8l34.2,19.4L93.8,90.3L76.8,99.8z" style="fill: #55B8E9;"/>
<path d="M93.8,90.3l17.2,28.9V80.6L93.8,90.3z" style="fill: #4C8CB2;"/>
<path d="M76.2,61v38.6l0.6,0.2l17-9.5L76.4,61.2L76.2,61z" style="fill: #4091CE;"/>
<path d="M111,80.4L76.4,61.2l17.4,29.1l17.2-9.7V80.4z" style="fill: #50B2D8;"/>
<path d="M41.6,41.5V80l17.2-9.5L41.6,41.5z" style="fill: #076DB5;"/>
<path d="M58.8,70.5L41.6,80l34.6,19.6L58.8,70.5z" style="fill: #408FCD;"/>
<path d="M76.2,61l-16.3-9.1L41.6,41.5l17.2,28.9L76.2,61L76.2,61z" style="fill: #257DC1;"/>
<path d="M76.2,61.2l-17.4,9.3l17.4,29.1V61.2z" style="fill: #076DB5;"/>
<path d="M41.6,80L20.9,49L0,56.7L41.6,80z" style="fill: #17B175;"/>
<path d="M0,18.1v38.6L20.9,49L0.2,18.3L0,18.1z" style="fill: #0CA2C6;"/>
<path d="M0.2,18.3L20.9,49l20.5-7.7L17,27.6L0.2,18.3z" style="fill: #2D84C6;"/>
<path d="M41.6,80V41.5l-0.2-0.2L20.9,49L41.6,80z" style="fill: #0CA0D2;"/>
<path d="M0,96.4v46.5v0.2l20.9-11.7l-20.7-35H0z" style="fill: #139146;"/>
<linearGradient id="ant-web3-icon-merge-colorful-SVGID_1_" gradientUnits="userSpaceOnUse" x1="0.2442" y1="697.7898" x2="41.4442" y2="697.7898" gradientTransform="matrix(1 0 0 1 0 -583.8898)">
	<stop offset="0" style="stop-color:#1E3B1C"/>
	<stop offset="0.3548" style="stop-color:#43B649"/>
	<stop offset="1" style="stop-color:#000000"/>
</linearGradient>
<path d="M0.2,96.4l20.7,35l20.5-11.7L0.2,96.4z" style="fill: url(#ant-web3-icon-merge-colorful-SVGID_1_);"/>
<linearGradient id="ant-web3-icon-merge-colorful-SVGID_00000173130186851901483360000002026463705709516948_" gradientUnits="userSpaceOnUse" x1="0.1315" y1="732.6898" x2="41.5607" y2="732.6898" gradientTransform="matrix(1 0 0 1 0 -583.8898)">
	<stop offset="0" style="stop-color:#1E3B1C"/>
	<stop offset="1" style="stop-color:#000000"/>
</linearGradient>
<path style="fill:url(#ant-web3-icon-merge-colorful-SVGID_00000173130186851901483360000002026463705709516948_);" d="M0,143.1l17,9.5l7.7,4.2l17,9.5l-20.7-35
	L0,143.1z"/>
<path d="M20.9,131.4l20.7,35v-46.7L20.9,131.4z" style="fill: #205E2F;"/>
<path d="M0.4,56.9L0,56.7v39.7l21.1-8.3L0.4,56.9z" style="fill: #76C043;"/>
<path d="M0,96.4l41.4,23.3h0.2V119L21.1,88L0,96.4z" style="fill: #56B947;"/>
<path d="M0.4,56.9l20.7,31.2L41.4,80L0.4,56.9z" style="fill: #34B44A;"/>
<path d="M21.2,88.1l20.5,31V97V80h-0.2L21.2,88.1z" style="fill: #64BC46;"/>
<path d="M54.7,97.2l-13,22.5L63,107.8L54.7,97.2z" style="fill: #56B947;"/>
<path d="M41.6,80.2v39.5l13-22.5L41.6,80.2z" style="fill: #76C043;"/>
<path d="M41.6,80v0.2l13,17l4.3-7.3L41.6,80z" style="fill: #34B44A;"/>
<path d="M54.7,97.2l8.3,10.5V91.9l-3.9-2L54.7,97.2z" style="fill: #64BC46;"/>
<path d="M76,22.9L32.5,0.1l4.6,20.4L76,23.1V22.9z" style="fill: #1B3F71;"/>
<path d="M37.1,20.5l4.6,21l0.4,0.2l34-18.6L37.1,20.5z" style="fill: #025999;"/>
<path d="M32.5,0.1L0,17.9l37.1,2.6L32.5,0.1z" style="fill: #0C2949;"/>
<path d="M0,17.9v0.2l41.6,23.5l-4.6-21L0,17.9z" style="fill: #0E4C85;"/>
<path d="M76.2,61l0.4,0.2l0.2-0.2l34-19.6l-34.6,0.2V61z" style="fill: #358ACA;"/>
<path d="M76.2,41.5l34.6-0.2L76,22.9L76.2,41.5z" style="fill: #257DC1;"/>
<path d="M76.2,61V41.5L42,41.7L76.2,61z" style="fill: #408FCD;"/>
<path d="M42.1,41.7l34.2-0.2l-0.2-18.6L42.1,41.7z" style="fill: #076DB5;"/>
<path d="M159,147.3v-39.2l9.7,26.5L159,147.3z" style="fill: #472A7D;"/>
<path d="M180.4,119.6l-11.6,15l-9.7-26.5v-0.4L180.4,119.6z" style="fill: #5C2D90;"/>
<path d="M180.4,166.2l-21.3-18.8l9.7-12.7L180.4,166.2z" style="fill: #22134C;"/>
<path d="M188.8,116.4l-8.1,50l-0.4-0.2l-11.6-31.6l11.6-15L188.8,116.4z" style="fill: #362265;"/>
<path d="M145.2,99.8l-34.4,19.4l17.4-28.9L145.2,99.8z" style="fill: #F8993A;"/>
<path d="M128.2,90.3l-17.4,28.9V80.6L128.2,90.3z" style="fill: #7E8281;"/>
<path d="M145.6,61v38.6l-0.4,0.2l-17-9.5l17.2-29.1L145.6,61z" style="fill: #E76C24;"/>
<path d="M111,80.4l34.4-19.2l-17.2,29.1l-17.4-9.7L111,80.4z" style="fill: #C87237;"/>
<path d="M180.4,41.5v38.4L163,70.4L180.4,41.5z" style="fill: #F05423;"/>
<path d="M163,70.5l17.4,9.5l-34.8,19.6L163,70.5z" style="fill: #E43925;"/>
<path d="M145.6,61l16.4-9.1l18.4-10.3L163,70.5l-17.4-9.3V61z" style="fill: #F3732A;"/>
<path d="M145.6,61.2l17.4,9.3l-17.4,29.1V61.2z" style="fill: #F15722;"/>
<path d="M180.4,80l20.7-31l20.7,7.7L180.4,80z" style="fill: #AC2E7F;"/>
<path d="M221.8,18.1v38.6L201.1,49l20.5-30.8L221.8,18.1z" style="fill: #C23C5D;"/>
<path d="M221.6,18.3L201.1,49l-20.5-7.7L205,27.5L221.6,18.3z" style="fill: #BE3F26;"/>
<path d="M180.4,80V41.5l0.2-0.2l20.5,7.7L180.4,80z" style="fill: #DE2D26;"/>
<path d="M221.8,96.4v46.5v0.2l-20.7-11.7L221.8,96.4z" style="fill: #362265;"/>
<path d="M221.8,96.4l-20.7,35l-20.5-11.7L221.8,96.4z" style="fill: #5C2D90;"/>
<path d="M221.8,143.1l-16.8,9.5l-7.9,4.2l-16.8,9.5l20.7-35L221.8,143.1z" style="fill: #22134C;"/>
<path d="M201.1,131.4l-20.7,35v-46.7L201.1,131.4z" style="fill: #472A7D;"/>
<path d="M221.3,56.9l0.4-0.2v39.7l-20.9-8.3L221.3,56.9z" style="fill: #8E52A0;"/>
<path d="M221.8,96.4l-41.2,23.3h-0.2V119l20.5-31L221.8,96.4z" style="fill: #71449A;"/>
<path d="M221.4,56.9l-20.5,31.2L180.6,80L221.4,56.9z" style="fill: #8D3293;"/>
<path d="M200.9,88.1l-20.5,31V97V80h0.2L200.9,88.1z" style="fill: #824D9E;"/>
<path d="M167.1,97.2l13.3,22.5l-21.3-11.9L167.1,97.2z" style="fill: #71449A;"/>
<path d="M180.4,80.2v39.5l-13.3-22.5L180.4,80.2z" style="fill: #8E52A0;"/>
<path d="M180.4,80v0.2l-13.3,17l-4.1-7.3L180.4,80z" style="fill: #8D3293;"/>
<path d="M167.1,97.2l-8.1,10.5V91.9l3.9-2L167.1,97.2z" style="fill: #824D9E;"/>
<path d="M145.8,22.9L189.3,0l-4.4,20.5l-39.1,2.6V22.9z" style="fill: #AB2823;"/>
<path d="M184.9,20.5l-4.6,21l-0.4,0.2l-34.2-18.6L184.9,20.5z" style="fill: #DE2D26;"/>
<path d="M189.3,0.1l32.5,17.8l-36.9,2.6L189.3,0.1z" style="fill: #8E1E1C;"/>
<path d="M221.8,17.9v0.2l-41.4,23.5l4.6-21L221.8,17.9z" style="fill: #DF4326;"/>
<path d="M145.6,61l-0.4,0.2V61L111,41.4l34.8,0.2L145.6,61z" style="fill: #F15722;"/>
<path d="M145.8,41.5L111,41.3l34.8-18.4V41.5z" style="fill: #F3732A;"/>
<path d="M145.6,61l0.2-19.4l34.2,0.2L145.6,61z" style="fill: #E43925;"/>
<path d="M179.9,41.7l-34.2-0.2V22.9L179.9,41.7z" style="fill: #F05423;"/>
<path d="M110.8,80.4h0.2l34.2-19.2h-34.4V80.4z" style="fill: #F8993A;"/>
<path d="M111,41.3l-0.2,0.2v19.6h34.4V61L111,41.3z" style="fill: #E76C24;"/>
<path d="M111,80.4V61.2H76.6L111,80.4z" style="fill: #55B8E9;"/>
<path d="M110.8,41.3l-34,19.6l-0.2,0.2H111V41.5L110.8,41.3z" style="fill: #4091CE;"/>
</svg>
