<?xml version="1.0" encoding="UTF-8"?>
<svg viewBox="0 -38 1024 1024"
  xmlns="http://www.w3.org/2000/svg">
  <polygon stroke="#E17726" fill="#E17726" points="973.439619 5.40903513e-14 573.220702 295.975563 647.842951 121.496141"></polygon>
  <path d="M50.5603807,5.40903513e-14 L447.124331,298.411576 L376.157049,121.800643 L50.5603807,5.40903513e-14 Z M829.372992,686.042122 L722.76978,848.645981 L950.900654,911.373312 L1016.0809,689.696141 L829.372992,686.042122 L829.372992,686.042122 Z M8.22367638,689.696141 L73.0993456,911.373312 L300.621059,848.645981 L194.627008,686.042122 L8.22367638,689.696141 L8.22367638,689.696141 Z" stroke="#E27625" fill="#E27625"></path>
  <path d="M288.437835,411.381672 L225.085068,506.995177 L450.474717,517.348232 L443.164783,274.66045 L288.437835,411.686174 L288.437835,411.381672 Z M735.562165,411.686174 L578.398572,271.615434 L573.220702,517.348232 L798.610351,506.995177 L735.562165,411.686174 L735.562165,411.686174 Z M300.621059,848.645981 L437.377751,782.873633 L319.809637,691.523151 L300.621059,848.645981 Z M586.926829,782.569132 L722.76978,848.645981 L704.494943,691.21865 L586.926829,782.569132 Z" stroke="#E27625" fill="#E27625"></path>
  <path d="M722.76978,848.645981 L586.926829,782.873633 L597.891731,871.1791 L596.673409,908.632797 L722.76978,848.645981 Z M300.621059,848.645981 L427.326591,908.632797 L426.412849,871.1791 L437.377751,782.873633 L300.621059,848.645981 Z" stroke="#D5BFB2" fill="#D5BFB2"></path>
  <path d="M429.458656,632.754341 L316.763831,599.868167 L396.56395,563.327974 L429.763236,632.754341 L429.458656,632.754341 Z M594.236764,632.754341 L627.740631,563.023473 L707.84533,599.563666 L594.236764,633.058842 L594.236764,632.754341 Z" stroke="#233447" fill="#233447"></path>
  <path d="M300.621059,848.645981 L320.418798,686.042122 L194.627008,689.696141 L300.621059,848.645981 Z M703.581202,686.042122 L722.76978,848.645981 L829.372992,689.696141 L703.581202,686.042122 Z M798.914932,506.995177 L573.525283,517.348232 L594.236764,633.058842 L627.740631,563.023473 L707.84533,599.563666 L798.914932,506.995177 L798.914932,506.995177 Z M316.763831,599.868167 L396.56395,563.327974 L429.763236,632.754341 L450.779298,517.04373 L225.389649,506.995177 L316.763831,599.868167 L316.763831,599.868167 Z" stroke="#CC6228" fill="#CC6228"></path>
  <path d="M225.389649,506.995177 L319.809637,691.21865 L316.763831,599.868167 L225.389649,506.995177 Z M707.84533,599.868167 L704.190363,691.21865 L798.610351,506.995177 L707.84533,599.868167 Z M450.779298,517.348232 L429.458656,633.058842 L456.261749,769.475563 L462.353361,589.515113 L450.779298,517.348232 Z M573.220702,517.348232 L562.2558,589.210611 L567.738251,769.475563 L594.236764,632.754341 L573.220702,517.04373 L573.220702,517.348232 Z" stroke="#E27525" fill="#E27525"></path>
  <path d="M594.236764,632.754341 L567.738251,769.475563 L586.926829,782.873633 L704.190363,691.523151 L707.84533,599.868167 L594.236764,632.754341 Z M316.763831,599.868167 L319.809637,691.21865 L437.377751,782.569132 L456.261749,769.475563 L429.763236,632.754341 L316.45925,599.868167 L316.763831,599.868167 Z" stroke="#F5841F" fill="#F5841F"></path>
  <polygon stroke="#C0AC9D" fill="#C0AC9D" points="596.977989 908.632797 597.891731 871.1791 587.53599 862.653055 436.46401 862.653055 426.412849 871.1791 427.326591 908.632797 300.621059 848.645981 345.089827 885.186174 434.941106 947 588.754313 947 678.910173 884.881672 722.76978 848.645981 596.673409 908.632797"></polygon>
  <polygon stroke="#161616" fill="#161616" points="586.926829 782.569132 567.738251 769.475563 456.261749 769.475563 437.377751 782.873633 426.412849 871.1791 436.46401 862.653055 587.53599 862.653055 597.891731 871.1791 586.926829 782.873633"></polygon>
  <path d="M990.496133,315.159164 L1024,152.250804 L973.439619,5.40903513e-14 L586.622249,286.231511 L735.562165,411.381672 L945.722784,472.586495 L992.019036,418.689711 L971.916716,404.073633 L1003.89768,374.841479 L979.531231,355.962379 L1011.5122,331.602251 L990.191553,315.159164 L990.496133,315.159164 Z M0,151.946302 L34.113028,315.159164 L12.1832243,331.297749 L44.7733492,355.657878 L20.4069007,374.841479 L52.0832838,404.073633 L31.9809637,418.689711 L78.2772159,472.586495 L288.437835,411.686174 L437.377751,285.92701 L50.5603807,5.40903513e-14 L0,151.946302 Z" stroke="#763E1A" fill="#763E1A"></path>
  <path d="M945.722784,472.586495 L735.562165,411.686174 L798.914932,506.995177 L704.494943,691.21865 L829.372992,689.696141 L1016.0809,689.696141 L945.722784,472.586495 Z M288.437835,411.381672 L78.2772159,472.586495 L8.22367638,689.696141 L194.931588,689.696141 L319.809637,691.21865 L225.389649,506.995177 L288.742415,411.381672 L288.437835,411.381672 Z M573.220702,517.348232 L586.926829,285.92701 L647.842951,121.496141 L376.157049,121.496141 L437.073171,285.92701 L450.779298,517.348232 L455.957168,589.819614 L455.957168,769.475563 L567.738251,769.475563 L568.347412,589.819614 L573.220702,517.348232 Z" stroke="#F5841F" fill="#F5841F"></path> 
</svg>
