<?xml version="1.0" encoding="UTF-8"?>
<svg viewBox="0 0 1024 1024" version="1.1" xmlns="http://www.w3.org/2000/svg" xmlns:xlink="http://www.w3.org/1999/xlink">
    <title>near-protocol-near-logo</title>
    <g id="near-protocol-near-logo" stroke="none" stroke-width="1" fill="none" fill-rule="evenodd">
        <g id="编组" transform="translate(112, 112)" fill="#555555">
            <circle id="椭圆形" cx="400" cy="400" r="400"></circle>
        </g>
        <g transform="translate(263, 262)" fill="#FFFFFF" fill-rule="nonzero" id="路径">
            <path d="M400.665927,25.5044444 L296.337403,180.194444 C289.123196,190.728889 302.99667,203.481111 312.985572,194.61 L415.649279,105.344444 C418.423973,103.126667 422.308546,104.79 422.308546,108.671111 L422.308546,387.556667 C422.308546,391.437778 417.314095,393.101111 415.09434,390.328889 L104.328524,18.8511111 C94.3396226,6.65333333 79.9112098,0 63.81798,0 L52.7192009,0 C23.8623751,0 0,23.8411111 0,53.2266667 L0,445.773333 C0,475.158889 23.8623751,499 53.2741398,499 C71.5871254,499 88.7902331,489.574444 98.7791343,473.495556 L203.107658,318.805556 C210.321865,308.271111 196.448391,295.518889 186.459489,304.39 L83.7957825,393.101111 C81.0210877,395.318889 77.136515,393.655556 77.136515,389.774444 L77.136515,111.443333 C77.136515,107.562222 82.1309656,105.898889 84.3507214,108.671111 L395.116537,480.148889 C405.105438,492.346667 420.08879,499 435.627081,499 L446.72586,499 C476.137625,499 500,475.158889 500,445.773333 L500,53.2266667 C500,23.8411111 476.137625,0 446.72586,0 C427.857936,0 410.654828,9.42555556 400.665927,25.5044444 Z"></path>
        </g>
    </g>
</svg>
