<?xml version="1.0" encoding="UTF-8"?>
<svg viewBox="0 0 1024 1024" version="1.1" xmlns="http://www.w3.org/2000/svg" xmlns:xlink="http://www.w3.org/1999/xlink">
    <title>near-protocol-near-logo</title>
    <g id="near-protocol-near-logo" stroke="none" stroke-width="1" fill="none" fill-rule="evenodd">
        <g transform="translate(112, 112)" fill="#555555" fill-rule="nonzero" id="路径">
            <path d="M641.866815,40.8888889 L474.732519,288.888889 C463.175361,305.777778 485.400666,326.222222 501.402886,312 L665.870144,168.888889 C670.315205,165.333333 676.538291,168 676.538291,174.222222 L676.538291,621.333333 C676.538291,627.555556 668.537181,630.222222 664.981132,625.777778 L167.134295,30.2222222 C151.132075,10.6666667 128.017758,0 102.236404,0 L84.4561598,0 C38.227525,0 0,38.2222222 0,85.3333333 L0,714.666667 C0,761.777778 38.227525,800 85.345172,800 C114.682575,800 142.241953,784.888889 158.244173,759.111111 L325.378468,511.111111 C336.935627,494.222222 314.710322,473.777778 298.708102,488 L134.240844,630.222222 C129.795782,633.777778 123.572697,631.111111 123.572697,624.888889 L123.572697,178.666667 C123.572697,172.444444 131.573807,169.777778 135.129856,174.222222 L632.976693,769.777778 C648.978912,789.333333 672.982242,800 697.874584,800 L715.654828,800 C762.772475,800 801,761.777778 801,714.666667 L801,85.3333333 C801,38.2222222 762.772475,0 715.654828,0 C685.428413,0 657.869034,15.1111111 641.866815,40.8888889 Z"></path>
        </g>
    </g>
</svg>
