<?xml version="1.0" encoding="utf-8"?>
<!-- Generator: Adobe Illustrator 24.0.0, SVG Export Plug-In . SVG Version: 6.00 Build 0)  -->
<svg version="1.1" id="Layer_1" xmlns="http://www.w3.org/2000/svg" xmlns:xlink="http://www.w3.org/1999/xlink" x="0px" y="0px"
	 viewBox="0 0 1000 1000" style="enable-background:new 0 0 1000 1000;" xml:space="preserve">
<style type="text/css">
	.st0{fill-rule:evenodd;clip-rule:evenodd;}
	.st1{fill:#FFFFFF;}
</style>
<g>
	<g>
		<g>
			<path id="SVGID_1_" class="st0" d="M500,0c276.1,0,500,223.9,500,500s-223.9,500-500,500S0,776.1,0,500S223.9,0,500,0L500,0z"/>
		</g>
	</g>
	<g>
		<g>
			<path id="SVGID_3_" class="st1" d="M714.5,432.3C737.3,324.1,687,269,592.1,269c-57,0-104.4,20.9-147.2,59.8l9.5-43.7
				c0,0-15.2-6.6-45.6-6.6c-33.2,0-49.4,6.6-49.4,6.6L268,714.4c0,0,13.3,6.6,46.5,6.6c30.4,0,48.4-6.6,48.4-6.6l65.8-307.7
				c33.2-38,78.8-60.8,120.6-60.8c60.8,0,81.6,30.4,70.3,83.6l-61.1,284.9c0,0,14.2,6.6,46.5,6.6c31.3,0,48.4-6.6,48.4-6.6
				L714.5,432.3L714.5,432.3z"/>
		</g>
	</g>
</g>
</svg>
