<?xml version="1.0" encoding="utf-8"?>
<!-- Generator: Adobe Illustrator 26.0.1, SVG Export Plug-In . SVG Version: 6.00 Build 0)  -->
<svg version="1.1" id="ant-web3-icon-oct-colorful-Layer_1" xmlns="http://www.w3.org/2000/svg" xmlns:xlink="http://www.w3.org/1999/xlink" x="0px" y="0px" viewBox="0 0 233.3 291.7" style="enable-background:new 0 0 233.3 291.7;" xml:space="preserve">

<path d="M233.2,178.8v-35.6c0-4.6,0-9.1,0-13.7c0-4.6,0-9.2,0-13.9c-0.1-9.9-1.3-19.7-3.9-29.3
	C216.6,38,173.5,2.9,123.4,0.2c-21.6-1.1-42,3.1-61.2,13.3C24.6,33.3,0.6,72.1,0.1,114.7C0,130.2,0,145.8,0,161.3
	c0,6.2,0,12.4,0,18.6c0,0.5,0,1,0,1.5c0.4,4.7,3.6,8.6,8.1,9.9c4.4,1.2,9.3-0.6,12-4.4c1.5-2.2,2.1-4.6,2.1-7.3
	c0-20.6,0-41.2,0-61.9c0-6.5,0.5-13,1.8-19.4c10.1-51.2,60.2-84.7,111.3-74.4C179.1,33,211,71.9,211,116.5v61.9v0c0,1,0,2.1,0,3.1
	c0.4,5.4,4.6,9.7,9.9,10.2c5.8,0.5,10.7-3,11.9-8.5C233.1,181.8,233.2,180.3,233.2,178.8z M180.6,203c0-2.5,0-5,0-7.5
	c0,0-0.1,0-0.1,0v-16c0-3.8,0-7.6-0.1-11.5c-0.1-2.5-1-4.6-2.6-6.5c-3.1-3.5-8-4.6-12.4-3c-4.3,1.6-6.9,5.3-6.9,10.3
	c0,16.9-0.1,33.8,0,50.7c0,8.1,1.6,16,5.2,23.4c5.2,10.6,13.2,18.1,24.7,21.4c6.3,1.9,12.8,2,19.3,0.8c4.9-0.9,9.8-2.4,14.3-4.7
	c5.6-2.9,7.5-9.3,4.8-15.1c-2.6-5.5-8.4-7.5-14.4-5.3c-1.8,0.7-3.7,1.2-5.6,1.7l0,0h0l0,0h0l0,0c-1,0.3-2,0.5-3,0.8
	c-5.8,1.7-15.1-1.7-19.1-8.5c-2.2-3.8-3.9-7.8-3.9-12.3C180.6,215.5,180.6,209.2,180.6,203z M127.6,224.6v54.8c0,1.4,0,2.9-0.3,4.3
	c-1.2,4.9-5.9,8.3-11.1,8.1c-5.3-0.2-9.5-3.8-10.4-8.9c-0.2-1.3-0.3-2.7-0.3-4V170.3c0-1.4,0.1-2.9,0.4-4.3c1.2-5.6,6.2-9,12.3-8.4
	c5.8,0.6,9.6,5.9,9.6,10.4c-0.1,15.1-0.1,30.2-0.1,45.3v0v0C127.6,217,127.6,220.8,127.6,224.6z M75,253v-41.5c0-6.5,0-13,0-19.5
	c0-2.4,0-4.8,0-7.2c0-5.6,0.1-11.3-0.1-16.9c-0.1-5.5-4.4-9.9-9.6-10.3c-5.9-0.5-10.8,2.8-12.1,8.3c-0.3,1.3-0.4,2.6-0.4,4V253v0
	c0,0.7,0,1.4,0,2.2c0.5,5.5,4.6,9.7,9.9,10.2c5.6,0.5,10.6-2.7,11.9-8.1C74.9,255.9,75,254.4,75,253z M83.8,116.9
	c-9.4,0-16.7-7.3-16.6-16.6c0-9.3,7.4-16.6,16.8-16.5c9.2,0.1,16.4,7.3,16.4,16.5C100.4,109.6,93.2,116.8,83.8,116.9z M132.8,100.2
	c-0.1,9.3,7.2,16.7,16.6,16.7c9.1,0,16.5-7.4,16.6-16.4c0-9.3-7.3-16.7-16.6-16.7C140.1,83.8,132.9,91,132.8,100.2z" style="fill-rule: evenodd; clip-rule: evenodd; fill: #0F1369;"/>
</svg>
