<svg viewBox="0 0 256 256" fill="none" xmlns="http://www.w3.org/2000/svg">
<g clip-path="url(#ant-web3-icon-ogn-circle-colorful-clip0_77_51)">
<path fill-rule="evenodd" clip-rule="evenodd" d="M128 0C198.696 0 256 57.3085 256 128C256 198.696 198.696 256 128 256C57.3134 256 0 198.696 0 128C0 57.3134 57.3085 0 128 0Z" fill="#0074F0"/>
<path fill-rule="evenodd" clip-rule="evenodd" d="M164.08 112.569C165.02 117.27 165.515 122.427 165.515 127.995C165.515 157.977 151.45 175.878 127.892 175.878C118.068 175.878 109.778 172.73 103.528 166.732L185.534 84.6163C183.337 80.7213 180.833 77.0788 178.012 73.753C176.824 72.3574 175.577 71.0459 174.305 69.7789L174.315 69.7641C174.146 69.6007 173.968 69.4424 173.805 69.279C173.424 68.9079 173.063 68.5218 172.677 68.1655L172.652 68.1803C160.749 57.0647 145.437 51.2 127.892 51.2C107.616 51.2 90.3187 58.9998 77.8766 73.753C66.177 87.6303 59.7333 106.897 59.7333 127.995C59.7333 142.021 62.5939 155.215 67.9339 166.568L91.7292 142.743C90.9027 138.23 90.482 133.31 90.482 127.995C90.482 114.197 93.2881 103.037 98.8212 94.8312C105.305 85.2052 115.361 80.1126 127.892 80.1126C137.647 80.1126 145.768 83.1959 151.945 88.922L70.1016 170.879C72.3535 174.967 74.9517 178.773 77.8717 182.242C78.4606 182.935 79.0644 183.603 79.6732 184.266L79.688 184.281C80.3908 185.048 81.1084 185.791 81.8359 186.513L82.1131 186.79C82.3457 187.018 82.5684 187.26 82.806 187.483L82.8307 187.463C94.7432 198.812 110.169 204.8 127.887 204.8C148.179 204.8 165.505 197 178.007 182.242C189.771 168.35 196.254 149.083 196.254 128C196.254 113.761 193.285 100.364 187.742 88.8774L164.075 112.574L164.08 112.569Z" fill="white"/>
</g>
<defs>
<clipPath id="ant-web3-icon-ogn-circle-colorful-clip0_77_51">
<rect width="256" height="256" fill="white"/>
</clipPath>
</defs>
</svg>
