<svg width="300" height="300" viewBox="0 0 300 300" fill="none" xmlns="http://www.w3.org/2000/svg">
<mask id="mask0_78_162" style="mask-type:alpha" maskUnits="userSpaceOnUse" x="0" y="0" width="300" height="300">
<path fill-rule="evenodd" clip-rule="evenodd" d="M0 0H300V300H0V0Z" fill="white"/>
</mask>
<g mask="url(#mask0_78_162)">
<path fill-rule="evenodd" clip-rule="evenodd" d="M149.498 0.000859042C232.34 -0.276521 299.722 66.6551 299.999 149.497C300.277 232.34 233.345 299.721 150.503 299.999C67.6604 300.276 0.278608 233.345 0.000859042 150.502C-0.276522 67.6603 66.6551 0.27824 149.498 0.000859042Z" fill="#030C17"/>
</g>
<path opacity="0.1" fill-rule="evenodd" clip-rule="evenodd" d="M243.748 243.122C295.173 191.33 294.914 107.674 243.122 56.2495C191.33 4.82543 107.674 5.08329 56.2495 56.8757L243.748 243.122Z" fill="white"/>
<path fill-rule="evenodd" clip-rule="evenodd" d="M231.076 105.316L214.021 88.1132L204.738 97.5434C204.701 97.5066 204.664 97.4698 204.628 97.4329L197.076 105.058L150.625 152.135L121.229 122.335C115.151 128.67 111.136 136.996 110.252 146.205L150.625 187.13L196.303 140.827C196.892 143.774 197.187 146.831 197.187 149.962C197.187 175.969 176.005 197.15 149.999 197.15C123.992 197.15 102.811 175.969 102.811 149.962C102.811 123.955 123.992 102.774 149.999 102.774C160.681 102.774 170.554 106.347 178.473 112.352L198.697 91.8337C185.509 80.7827 168.528 74.0784 149.999 74.0784C108.189 74.0784 74.1519 108.116 74.1519 149.925C74.1519 191.772 108.189 225.772 149.999 225.772C191.808 225.772 225.846 191.735 225.846 149.925C225.846 138.432 223.267 127.565 218.699 117.804L231.076 105.316Z" fill="white"/>
<mask id="mask1_78_162" style="mask-type:alpha" maskUnits="userSpaceOnUse" x="110" y="122" width="41" height="66">
<path fill-rule="evenodd" clip-rule="evenodd" d="M110.289 146.205L150.625 187.13H150.662V152.136L121.266 122.334C115.188 128.67 111.173 136.958 110.289 146.205Z" fill="white"/>
</mask>
<g mask="url(#mask1_78_162)">
<path fill-rule="evenodd" clip-rule="evenodd" d="M110.289 146.205L150.625 187.13H150.662V152.136L121.266 122.334C115.188 128.67 111.173 136.958 110.289 146.205Z" fill="url(#paint0_linear_78_162)"/>
</g>
<defs>
<linearGradient id="paint0_linear_78_162" x1="90.0771" y1="151.637" x2="132.36" y2="166.361" gradientUnits="userSpaceOnUse">
<stop stop-color="#1C313F"/>
<stop offset="1" stop-color="white"/>
</linearGradient>
</defs>
</svg>
