<svg id="ant-web3-icon-okb-colorful-Layer_1" xmlns="http://www.w3.org/2000/svg" viewBox="0 0 212 212"><title>okb-okb-logo</title><g id="ant-web3-icon-okb-colorful-Path-raw"><circle id="ant-web3-icon-okb-colorful-Oval" cx="106" cy="48" r="48" style="fill:#88bdf3"/><circle id="ant-web3-icon-okb-colorful-Oval-Copy" cx="106" cy="164" r="48" style="fill:#3075ee"/><circle id="ant-web3-icon-okb-colorful-Oval-Copy-2" cx="164" cy="106" r="48" style="fill:#5795f1"/><circle id="ant-web3-icon-okb-colorful-Oval-Copy-3" cx="48" cy="106" r="48" style="fill:#205fec"/><path id="ant-web3-icon-okb-colorful-Combined-Shape" d="M94.7,94.7A48,48,0,0,1,59.4,59.4,48.31,48.31,0,0,1,94.7,94.7Z" style="fill:#134bef"/><path id="ant-web3-icon-okb-colorful-Combined-Shape-2" d="M59.3,152.7a48,48,0,0,1,35.3-35.3A48.31,48.31,0,0,1,59.3,152.7Z" style="fill:#0932e8"/><path id="ant-web3-icon-okb-colorful-Combined-Shape-3" d="M117.3,117.3a48,48,0,0,1,35.3,35.3A48.31,48.31,0,0,1,117.3,117.3Z" style="fill:#164bea"/><path id="ant-web3-icon-okb-colorful-Combined-Shape-4" d="M152.7,59.3a48,48,0,0,1-35.3,35.3A48.31,48.31,0,0,1,152.7,59.3Z" style="fill:#3170f1"/></g></svg>