<?xml version="1.0" encoding="UTF-8"?>
<svg xmlns="http://www.w3.org/2000/svg" viewBox="0 0 1024 1024">
  <g stroke="none" stroke-width="1" fill="none" fill-rule="evenodd">
    <rect fill="#99EC2B" fill-rule="nonzero" x="0" y="0" width="1024" height="1024"></rect>
    <path d="M403.403776,223.762432 L236.594176,223.762432 C229.508096,223.762432 223.763456,229.507072 223.763456,236.593152 L223.763456,403.402752 C223.763456,410.489856 229.508096,416.234496 236.594176,416.234496 L403.403776,416.234496 C410.49088,416.234496 416.23552,410.489856 416.23552,403.402752 L416.23552,236.593152 C416.23552,229.507072 410.49088,223.762432 403.403776,223.762432 Z M595.959808,416.234496 L429.150208,416.234496 C422.064128,416.234496 416.318464,421.98016 416.318464,429.06624 L416.318464,595.87584 C416.318464,602.962944 422.064128,608.707584 429.150208,608.707584 L595.959808,608.707584 C603.046912,608.707584 608.791552,602.962944 608.791552,595.87584 L608.791552,429.06624 C608.791552,421.98016 603.046912,416.234496 595.959808,416.234496 Z M621.541376,223.762432 L788.350976,223.762432 C795.437056,223.762432 801.18272,229.507072 801.18272,236.593152 L801.18272,403.402752 C801.18272,410.489856 795.437056,416.234496 788.350976,416.234496 L621.541376,416.234496 C614.454272,416.234496 608.709632,410.489856 608.709632,403.402752 L608.709632,236.593152 C608.709632,229.507072 614.454272,223.762432 621.541376,223.762432 Z M403.4048,608.708608 L236.594176,608.708608 C229.508096,608.708608 223.763456,614.453248 223.763456,621.540352 L223.763456,788.349952 C223.763456,795.436032 229.508096,801.181696 236.594176,801.181696 L403.4048,801.181696 C410.49088,801.181696 416.23552,795.436032 416.23552,788.349952 L416.23552,621.540352 C416.23552,614.453248 410.49088,608.708608 403.4048,608.708608 Z M621.541376,608.708608 L788.350976,608.708608 C795.437056,608.708608 801.18272,614.453248 801.18272,621.540352 L801.18272,788.349952 C801.18272,795.436032 795.437056,801.181696 788.350976,801.181696 L621.541376,801.181696 C614.454272,801.181696 608.709632,795.436032 608.709632,788.349952 L608.709632,621.540352 C608.709632,614.453248 614.454272,608.708608 621.541376,608.708608 Z" fill="#000000"></path>
  </g>
</svg>
