<?xml version="1.0" encoding="UTF-8"?>
<svg xmlns="http://www.w3.org/2000/svg" viewBox="0 0 2500 2500" style="enable-background:new 0 0 2500 2500;">
<style type="text/css">
  .ant-web3-icon-tokenpocket-colorful-s0{fill-rule:evenodd;clip-rule:evenodd;}
  .ant-web3-icon-tokenpocket-colorful-st1{fill:#FFFFFF;}
</style>
<g>
  <g>
    <rect y="0" class="ant-web3-icon-tokenpocket-colorful-s0" width="2500" height="2500"></rect>
    <g>
      <path class="ant-web3-icon-tokenpocket-colorful-st1" d="M1463,1015h-404c-17,0-31,14-31,31v404c0,17,14,31,31,31h404c17,0,31-14,31-31v-404     C1494,1029,1480,1015,1463,1015z"></path>
      <path class="ant-web3-icon-tokenpocket-colorful-st1" d="M996,549H592c-17,0-31,14-31,31v404c0,17,14,31,31,31h404c17,0,31-14,31-31V580C1027,563,1013,549,996,549z"></path>
      <path class="ant-web3-icon-tokenpocket-colorful-st1" d="M1930,549h-404c-17,0-31,14-31,31v404c0,17,14,31,31,31h404c17,0,31-14,31-31V580     C1961,563,1947,549,1930,549z"></path>
      <path class="ant-web3-icon-tokenpocket-colorful-st1" d="M996,1482H592c-17,0-31,14-31,31v404c0,17,14,31,31,31h404c17,0,31-14,31-31v-404     C1027,1496,1013,1482,996,1482z"></path>
      <path class="ant-web3-icon-tokenpocket-colorful-st1" d="M1930,1482h-404c-17,0-31,14-31,31v404c0,17,14,31,31,31h404c17,0,31-14,31-31v-404     C1961,1496,1947,1482,1930,1482z"></path>
    </g>
  </g>
</g>
</svg>
