<?xml version="1.0" encoding="UTF-8"?>
<svg viewBox="0 0 1024 1024"
  xmlns="http://www.w3.org/2000/svg">
  <path d="M512 512m-480 0a480 480 0 1 0 960 0 480 480 0 1 0-960 0Z" fill="#FF0420"></path>
  <path d="M372.032 639.488c-28.608 0-52.032-6.72-70.272-20.16-18.048-13.632-27.072-33.216-27.072-58.368 0-5.376 0.576-11.712 1.728-19.392 3.072-17.28 7.488-38.016 13.248-62.4 16.32-66.048 58.56-99.072 126.528-99.072 18.432 0 35.136 3.072 49.728 9.408 14.592 5.952 26.112 15.168 34.56 27.456 8.448 12.096 12.672 26.496 12.672 43.2 0 4.992-0.576 11.328-1.728 19.008-3.648 21.312-7.872 42.24-13.056 62.4-8.448 32.832-22.848 57.6-43.584 73.92-20.544 16.128-48.192 24-82.752 24z m5.184-51.84c13.44 0 24.768-4.032 34.176-11.904 9.6-7.872 16.512-19.968 20.544-36.48 5.568-22.656 9.792-42.24 12.672-59.136 0.96-4.992 1.536-10.176 1.536-15.552 0-21.888-11.328-32.832-34.176-32.832-13.44 0-24.96 4.032-34.56 11.904-9.408 7.872-16.128 19.968-20.16 36.48-4.416 16.128-8.64 35.712-13.056 59.136-0.96 4.8-1.536 9.792-1.536 15.168-0.192 22.272 11.52 33.216 34.56 33.216zM529.856 636.032c-2.688 0-4.608-0.768-6.144-2.496-1.152-1.92-1.536-4.032-1.152-6.528l49.728-234.24c0.384-2.688 1.728-4.8 4.032-6.528 2.112-1.728 4.416-2.496 6.912-2.496H679.04c26.688 0 48 5.568 64.128 16.512 16.32 11.136 24.576 27.072 24.576 48 0 5.952-0.768 12.288-2.112 18.816-5.952 27.648-18.048 48-36.48 61.248-18.048 13.248-42.816 19.776-74.304 19.776h-48.576l-16.512 78.912c-0.576 2.688-1.728 4.8-4.032 6.528-2.112 1.728-4.416 2.496-6.912 2.496h-48.96z m127.488-137.664c10.176 0 18.816-2.688 26.304-8.256 7.68-5.568 12.672-13.44 15.168-23.808 0.768-4.032 1.152-7.68 1.152-10.752 0-6.912-2.112-12.288-6.144-15.936-4.032-3.84-11.136-5.76-20.928-5.76h-43.2l-13.632 64.512h41.28z" fill="#FFFFFF"></path>
</svg>
