<?xml version="1.0" encoding="UTF-8"?>
<svg viewBox="0 0 1024 1024"
  xmlns="http://www.w3.org/2000/svg">
  <g stroke="none" stroke-width="1" fill="none" fill-rule="evenodd">
        <g transform="translate(0, 86)" fill="#AB9FF2" fill-rule="nonzero">
            <path d="M121.169384,852.713545 C251.842805,852.713545 350.044964,739.070871 408.650426,649.269584 C401.522571,669.137983 397.561691,689.004652 397.561691,708.077415 C397.561691,760.528811 427.657463,797.878702 487.053372,797.878702 C568.625022,797.878702 655.740175,726.356272 700.882104,649.269584 C697.7134,660.396372 696.130777,670.727524 696.130777,680.263041 C696.130777,716.819026 716.720436,739.866507 758.69539,739.866507 C890.952472,739.866507 1024,505.42909 1024,300.397318 C1024,140.661931 943.220526,0 740.48053,0 C384.099887,0 0,435.496201 0,716.819026 C0,827.282617 59.3967738,852.713545 121.169384,852.713545 Z M617.726102,282.914096 C617.726102,243.179028 639.901843,215.364654 672.370684,215.364654 C704.049079,215.364654 726.22482,243.179028 726.22482,282.914096 C726.22482,322.649163 704.049079,351.257443 672.370684,351.257443 C639.901843,351.257443 617.726102,322.649163 617.726102,282.914096 Z M787.205081,282.914096 C787.205081,243.179028 809.380822,215.364654 841.849663,215.364654 C873.528058,215.364654 895.703799,243.179028 895.703799,282.914096 C895.703799,322.649163 873.528058,351.257443 841.849663,351.257443 C809.380822,351.257443 787.205081,322.649163 787.205081,282.914096 Z"></path>
        </g>
    </g>
</svg>
