<?xml version="1.0" encoding="UTF-8"?>
<svg viewBox="0 0 1024 1024"
  xmlns="http://www.w3.org/2000/svg">
    <g stroke="none" stroke-width="1" fill="none" fill-rule="evenodd">
        <g transform="translate(128, 192)" fill="currentColor" fill-rule="nonzero">
            <path d="M90.877038,639.535159 C188.882104,639.535159 262.533723,554.303154 306.48782,486.952188 C301.141929,501.853487 298.171268,516.753489 298.171268,531.058061 C298.171268,570.396608 320.743097,598.409027 365.290029,598.409027 C426.468767,598.409027 491.805131,544.767204 525.661578,486.952188 C523.28505,495.297279 522.098083,503.045643 522.098083,510.197281 C522.098083,537.61427 537.540327,554.89988 569.021543,554.89988 C668.214354,554.89988 768,379.071817 768,225.297988 C768,105.496448 707.415394,0 555.360397,0 C288.074915,0 0,326.622151 0,537.61427 C0,620.461963 44.5475804,639.535159 90.877038,639.535159 Z M463.294576,212.185572 C463.294576,182.384271 479.926382,161.52349 504.278013,161.52349 C528.036809,161.52349 544.668615,182.384271 544.668615,212.185572 C544.668615,241.986872 528.036809,263.443082 504.278013,263.443082 C479.926382,263.443082 463.294576,241.986872 463.294576,212.185572 Z M590.403811,212.185572 C590.403811,182.384271 607.035616,161.52349 631.387247,161.52349 C655.146043,161.52349 671.777849,182.384271 671.777849,212.185572 C671.777849,241.986872 655.146043,263.443082 631.387247,263.443082 C607.035616,263.443082 590.403811,241.986872 590.403811,212.185572 Z"></path>
        </g>
    </g>
</svg>
