<svg xmlns="http://www.w3.org/2000/svg" xmlns:xlink="http://www.w3.org/1999/xlink" fill="none" version="1.1" width="16" height="16" viewBox="0 0 16 16"><defs><linearGradient x1="1.3322676295501878e-15" y1="0.5003494620323181" x2="1" y2="0.5003494620323181" id="master_svg0_162_30134"><stop offset="17.000000178813934%" stop-color="#FFFFFF" stop-opacity="1"/><stop offset="83.99999737739563%" stop-color="#FFFFFF" stop-opacity="0"/></linearGradient><linearGradient x1="2.6645352591003757e-15" y1="0.49974700808525085" x2="1" y2="0.49974700808525085" id="master_svg1_162_30130"><stop offset="17.000000178813934%" stop-color="#FFFFFF" stop-opacity="1"/><stop offset="83.99999737739563%" stop-color="#FFFFFF" stop-opacity="0"/></linearGradient></defs><g><rect x="0" y="0" width="16" height="16" rx="8" fill="#0007B9" fill-opacity="1"/><path d="M10.707273987499999,5.317694734204101L7.7447673875,3.9750919342041016L5.7294921875,4.443219754204102L5.7294921875,4.579123914204102L8.2719137875,5.928585034204102L10.707273987499999,5.317694734204101Z" fill="url(#master_svg0_162_30134)" fill-opacity="1" style="mix-blend-mode:passthrough"/><path d="M11.600163474999999,9.624319684204101L7.938914575,7.939935684204102L4.966796875,8.741652784204101L4.966796875,8.937918964204101L8.094039675,10.659412384204101L11.600163474999999,9.627093184204101L11.600163474999999,9.624319684204101Z" fill="url(#master_svg1_162_30130)" fill-opacity="1" style="mix-blend-mode:passthrough"/><path d="M5.7294921875,4.578472371704102L7.7447673875,4.108968371704101L9.9961270875,3.5859392717041016L9.9961270875,2.2241153717041016L5.7294921875,3.1631123417041014L5.7294921875,4.578472371704102Z" fill="#FFFFFF" fill-opacity="1" style="mix-blend-mode:passthrough"/><path d="M10.706508175,5.316888809204102L8.271137275000001,5.927789629204102L4.966796875,6.7569523092041015L4.966796875,8.935587609204102L7.938913575,8.133880409204101L10.706508175,7.387075209204101L10.706508175,5.316888809204102Z" fill="#FFFFFF" fill-opacity="1" style="mix-blend-mode:passthrough"/><path d="M1.4638671875,12.6105823842041C2.1736057375,13.615489684204102,3.1084854875000003,14.451543284204101,4.1971141875,15.040449184204101L11.6006441875,12.637995984204101L11.6006441875,9.627435684204102L8.0931243875,10.659861884204101L1.4638671875,12.6105823842041Z" fill="#FFFFFF" fill-opacity="1" style="mix-blend-mode:passthrough"/></g></svg>