<svg xmlns="http://www.w3.org/2000/svg" xmlns:xlink="http://www.w3.org/1999/xlink" fill="none" version="1.1" width="7.125" height="9" viewBox="0 0 7.125 9"><defs><linearGradient x1="1.3322676295501878e-15" y1="0.5003494620323181" x2="1" y2="0.5003494620323181" id="master_svg0_283_17417"><stop offset="17.000000178813934%" stop-color="#0012B8" stop-opacity="1"/><stop offset="83.99999737739563%" stop-color="#FFFFFF" stop-opacity="0"/></linearGradient><linearGradient x1="1.3322676295501878e-15" y1="0.5003494620323181" x2="1" y2="0.5003494620323181" id="master_svg1_283_17417"><stop offset="17.000000178813934%" stop-color="#0012B8" stop-opacity="1"/><stop offset="83.99999737739563%" stop-color="#FFFFFF" stop-opacity="0"/></linearGradient></defs><g><g><path d="M6.496837175,2.17197764171875L4.414546275,1.22918701171875L2.998046875,1.55791157171875L2.998046875,1.65334499171875L4.785067775,2.6009515117187503L6.496837175,2.17197764171875Z" fill="url(#master_svg0_283_17417)" fill-opacity="1" style="mix-blend-mode:passthrough"/></g><g><path d="M7.12487224375,5.196739833203125L4.55144854375,4.013946533203125L2.46240234375,4.576921223203125L2.46240234375,4.714741523203125L4.66048334375,5.923593233203125L7.12487224375,5.198687333203125L7.12487224375,5.196739833203125Z" fill="url(#master_svg1_283_17417)" fill-opacity="1" style="mix-blend-mode:passthrough"/></g><g><path d="M2.998046875,1.6532557L4.414546475,1.3235648L5.996985475,0.9562878L5.996985475,0L2.998046875,0.65937412L2.998046875,1.6532557Z" fill="#0007B9" fill-opacity="1" style="mix-blend-mode:passthrough"/></g><g><path d="M6.49673894375,2.171844482421875L4.78496194375,2.600825842421875L2.46240234375,3.183073082421875L2.46240234375,4.712935182421875L4.55144814375,4.149967182421875L6.49673894375,3.625552282421875L6.49673894375,2.171844482421875Z" fill="#0007B9" fill-opacity="1" style="mix-blend-mode:passthrough"/></g><g><path d="M0,7.29371217421875C0.49886215,7.99936937421875,1.1559719,8.58645557421875,1.9211493,8.99999187421875L7.1249533,7.31296257421875L7.1249533,5.19891357421875L4.6595831,5.92389470421875L0,7.29371217421875Z" fill="#0007B9" fill-opacity="1" style="mix-blend-mode:passthrough"/></g></g></svg>