<?xml version="1.0" encoding="utf-8"?>
<!-- Generator: Adobe Illustrator 24.0.0, SVG Export Plug-In . SVG Version: 6.00 Build 0)  -->
<svg version="1.1" id="ant-web3-icon-pnk-colorful-Layer_1" xmlns="http://www.w3.org/2000/svg" xmlns:xlink="http://www.w3.org/1999/xlink" x="0px" y="0px" viewBox="0 0 807.9 714.1" style="enable-background:new 0 0 807.9 714.1;" xml:space="preserve">

<g>
	<polygon points="641.4,18.1 236,0 0,294.8 165.4,688.9 574.8,713.7 807.9,382.2 	" style="opacity: 0.7; fill: #45464D; enable-background: new;"/>
	<g>
		<polygon points="807.9,382.6 577,148.4 516.2,597.7 		" style="fill: #656569;"/>
		
			<linearGradient id="ant-web3-icon-pnk-colorful-SVGID_1_" gradientUnits="userSpaceOnUse" x1="157.357" y1="351.118" x2="576.977" y2="351.118" gradientTransform="matrix(1 0 0 -1 0 724.16)">
			<stop offset="0" style="stop-color:#A3A2A5"/>
			<stop offset="0.2705" style="stop-color:#9F9EA0"/>
			<stop offset="0.5607" style="stop-color:#929194"/>
			<stop offset="0.8592" style="stop-color:#7C7C80"/>
			<stop offset="1" style="stop-color:#707073"/>
		</linearGradient>
		<polygon points="157.4,329.9 577,148.4 516.2,597.7 		" style="fill: url(#ant-web3-icon-pnk-colorful-SVGID_1_);"/>
		
			<linearGradient id="ant-web3-icon-pnk-colorful-SVGID_2_" gradientUnits="userSpaceOnUse" x1="154.5822" y1="400.2483" x2="452.7339" y2="695.5228" gradientTransform="matrix(1 0 0 -1 0 724.16)">
			<stop offset="0" style="stop-color:#969598"/>
			<stop offset="0.3396" style="stop-color:#908F92"/>
			<stop offset="0.7917" style="stop-color:#7F7F82"/>
			<stop offset="1" style="stop-color:#757578"/>
		</linearGradient>
		<polygon points="577,148.4 236,0.4 157.4,329.9 		" style="fill: url(#ant-web3-icon-pnk-colorful-SVGID_2_);"/>
		
			<linearGradient id="ant-web3-icon-pnk-colorful-SVGID_3_" gradientUnits="userSpaceOnUse" x1="177.5621" y1="404.4149" x2="336.8316" y2="88.5752" gradientTransform="matrix(1 0 0 -1 0 724.16)">
			<stop offset="0" style="stop-color:#9E9EA0"/>
			<stop offset="0.2759" style="stop-color:#9B9B9D"/>
			<stop offset="0.494" style="stop-color:#919194"/>
			<stop offset="0.6923" style="stop-color:#808083"/>
			<stop offset="0.8777" style="stop-color:#69696D"/>
			<stop offset="1" style="stop-color:#55565A"/>
		</linearGradient>
		<polygon points="157.4,329.9 165.4,689.3 516.2,597.7 		" style="fill: url(#ant-web3-icon-pnk-colorful-SVGID_3_);"/>
		<polygon points="577,148.4 641.4,18.5 236,0.4 		" style="fill: #757578;"/>
		<polygon points="641.4,18.5 807.9,382.6 577,148.4 		" style="fill: #6C6D70;"/>
		<polygon points="807.9,382.6 574.8,714.1 516.2,597.7 		" style="fill: #6C6D70;"/>
		<polygon points="574.8,714.1 165.4,689.3 516.2,597.7 		" style="fill: #55565A;"/>
		<polygon points="236,0.4 0,295.3 157.4,329.9 		" style="fill: #55565A;"/>
		<polygon points="0,295.3 165.4,689.3 157.4,329.9 		" style="fill: #656569;"/>
		<polygon points="534,210.3 491.5,532.4 240.8,338.5 		" style="opacity: 0.7; fill: #151A22; enable-background: new;"/>
		<polygon points="500.1,146.1 265.8,45.1 216.5,257.4 		" style="opacity: 0.7; fill: #151A22; enable-background: new;"/>
		<polygon points="440.7,581.1 186,399.2 192.2,645.7 		" style="opacity: 0.7; fill: #23262E; enable-background: new;"/>
		<polygon points="765.1,381.8 591.6,205.6 545.8,544.4 		" style="opacity: 0.7; fill: #23262E; enable-background: new;"/>
		<polygon points="500.4,620.8 538.2,693.1 285.6,676.9 		" style="opacity: 0.7; fill: #43444B; enable-background: new;"/>
		<polygon points="731.2,461.7 543.2,601.9 580.6,674.9 		" style="opacity: 0.7; fill: #34363D; enable-background: new;"/>
		<polygon points="642.3,69.4 741.7,282.6 605.8,144.4 		" style="opacity: 0.7; fill: #34363D; enable-background: new;"/>
		<polygon points="596.8,33.5 555,110 358.1,23.8 		" style="opacity: 0.7; fill: #36383F; enable-background: new;"/>
		<polygon points="202.6,68.2 147.2,303.1 35.4,279.4 		" style="opacity: 0.7; fill: #3B3C43; enable-background: new;"/>
		<polygon points="140.4,344.5 145.3,596.9 28.1,320.7 		" style="opacity: 0.7; fill: #45464D; enable-background: new;"/>
	</g>
</g>
</svg>
