<?xml version="1.0" encoding="UTF-8"?>
<svg viewBox="0 0 1024 1024"
  xmlns="http://www.w3.org/2000/svg">
    <defs>
        <linearGradient x1="8.49650828%" y1="76.8030115%" x2="94.4474873%" y2="21.2940613%" id="ant-web3-icon-polygon-circle-colorful-1">
            <stop stop-color="#A726C1" offset="0%"></stop>
            <stop stop-color="#803BDF" offset="88%"></stop>
            <stop stop-color="#7B3FE4" offset="100%"></stop>
        </linearGradient>
    </defs>
    <g stroke="none" stroke-width="1" fill="none" fill-rule="evenodd">
        <g transform="translate(-1647, -5565)" fill-rule="nonzero" id="polygoncircle">
            <g transform="translate(1647, 5565)">
                <circle fill="#E8DBFF" cx="512" cy="512" r="512"></circle>
                <path d="M660.07464,622.486301 L804.929811,538.84284 C812.60218,534.410845 817.34776,526.174023 817.34776,517.310032 L817.34776,350.044016 C817.34776,341.200931 812.581275,332.943204 804.929811,328.511208 L660.07464,244.867747 C652.40227,240.435752 642.890205,240.456658 635.217835,244.867747 L490.362664,328.511208 C482.690294,332.943204 477.944714,341.200931 477.944714,350.044016 L477.944714,648.973745 L376.364215,707.614062 L274.783716,648.973745 L274.783716,531.672206 L376.364215,473.031889 L443.366788,511.707321 L443.366788,433.018497 L388.782165,401.513699 C385.01915,399.339512 380.712588,398.189702 376.34331,398.189702 C371.974031,398.189702 367.66747,399.339512 363.92536,401.513699 L219.070189,485.15716 C211.39782,489.589155 206.65224,497.825977 206.65224,506.689968 L206.65224,673.955984 C206.65224,682.799069 211.418725,691.056796 219.070189,695.488792 L363.92536,779.132253 C371.576824,783.543342 381.109795,783.543342 388.782165,779.132253 L533.637336,695.509697 C541.309706,691.077702 546.055286,682.819975 546.055286,673.976889 L546.055286,375.04716 L547.894982,374.001878 L647.635785,316.406843 L749.216284,375.04716 L749.216284,492.3487 L647.635785,550.989016 L580.73774,512.355396 L580.73774,591.04422 L635.217835,622.507207 C642.890205,626.918297 652.40227,626.918297 660.07464,622.507207 L660.07464,622.507207 L660.07464,622.486301 Z" fill="url(#ant-web3-icon-polygon-circle-colorful-1)"></path>
            </g>
        </g>
    </g>
</svg>
