<?xml version="1.0" encoding="UTF-8"?>
<svg viewBox="0 0 1024 1024"
  xmlns="http://www.w3.org/2000/svg">
  <path d="M861.05201926 325.41246313c-19.94065312-11.39465906-45.57863532-11.39465906-68.36795249 0L633.15884364 419.41839781l-108.24925782 59.82195844-156.67655812 94.00593469c-19.94065312 11.39465906-45.57863532 11.39465906-68.36795251 0L177.37249332 499.18100844c-19.94065312-11.39465906-34.18397625-34.18397625-34.18397625-59.82195845v-142.43323405c0-22.78931719 11.39465906-45.57863532 34.18397625-59.82195844l122.49258187-71.2166175c19.94065312-11.39465906 45.57863532-11.39465906 68.36795251 0L490.72560958 239.95252251c19.94065312 11.39465906 34.18397625 34.18397625 34.18397624 59.82195843v94.00593469l108.24925781-62.67062344V234.2551925c0-22.78931719-11.39465906-45.57863532-34.18397623-59.82195844l-227.8931747-133.88724c-19.94065312-11.39465906-45.57863532-11.39465906-68.3679525 0L69.1232355 177.28189906C46.33391833 188.67655813 34.93925926 211.46587531 34.93925926 234.2551925v267.77448094c0 22.78931719 11.39465906 45.57863532 34.18397624 59.82195844l230.74183969 133.88724093c19.94065312 11.39465906 45.57863532 11.39465906 68.36795251 0l156.67655812-91.15727062 108.24925781-62.6706225 156.67655812-91.15727063c19.94065312-11.39465906 45.57863532-11.39465906 68.3679525 0l122.49258188 71.2166175c19.94065312 11.39465906 34.18397625 34.18397625 34.18397626 59.82195844v142.43323406c0 22.78931719-11.39465906 45.57863532-34.18397626 59.82195845L861.05201926 855.264095c-19.94065312 11.39465906-45.57863532 11.39465906-68.36795249 0l-122.49258188-71.21661749c-19.94065312-11.39465906-34.18397625-34.18397625-34.18397626-59.82195845V633.06824935l-108.24925781 62.67062346v94.00593469c0 22.78931719 11.39465906 45.57863532 34.18397626 59.82195844l230.74183969 133.88724c19.94065312 11.39465906 45.57863532 11.39465906 68.36795249 0l230.74183969-133.88724c19.94065312-11.39465906 34.18397625-34.18397625 34.18397624-59.82195844V519.12166156c0-22.78931719-11.39465906-45.57863532-34.18397624-59.82195843L861.05201926 325.41246313z" fill="#8247E5"></path>
</svg>
