<?xml version="1.0" encoding="UTF-8"?>
<svg width="1024px" height="1024px" viewBox="0 0 1024 1024" version="1.1" xmlns="http://www.w3.org/2000/svg" xmlns:xlink="http://www.w3.org/1999/xlink">
    <title>polygon_Circle Filled</title>
    <g id="polygon_Circle-Filled" stroke="none" stroke-width="1" fill="none" fill-rule="evenodd">
        <g id="编组" transform="translate(112, 112)">
            <path d="M800,400 C800,620.916112 620.916112,800 400,800 C179.086019,800 0,620.916112 0,400 C0,179.086019 179.086019,0 400,0 C620.916112,0 800,179.086019 800,400 Z" id="路径" fill="#555555"></path>
            <polygon id="路径" fill="#FFFFFF" fill-rule="nonzero" points="333.287479 321.998138 283.215609 292.916201 133 380.162011 133 554.054004 283.215609 641 433.431218 554.054004 433.431218 283.621974 516.784391 235.351955 600.137563 283.621974 600.137563 380.162011 516.784391 428.43203 466.712521 399.350093 466.712521 476.702048 516.784391 505.783985 667 418.837989 667 244.945996 516.784391 158 366.568782 244.945996 366.568782 515.378026 283.215609 563.648045 199.862437 515.378026 199.862437 418.538175 283.215609 370.268156 333.287479 399.350093"></polygon>
        </g>
    </g>
</svg>