<?xml version="1.0" encoding="UTF-8"?>
<svg viewBox="0 0 1024 1024"
  xmlns="http://www.w3.org/2000/svg">
  <path fill="#8247E5" transform="scale(1.9) translate(16, 50)" d="M384.58,136.59c-9.28-5.3-21.22-5.3-31.83,0l-74.26,43.77L228.1,208.2,155.16,252c-9.28,5.3-21.22,5.3-31.83,0l-57-34.48a32.33,32.33,0,0,1-15.92-27.85V123.33c0-10.61,5.31-21.22,15.92-27.85l57-33.15c9.28-5.31,21.22-5.31,31.83,0l57,34.48a32.31,32.31,0,0,1,15.92,27.85v43.76l50.39-29.18V94.16c0-10.61-5.3-21.22-15.91-27.85L156.48,4c-9.28-5.31-21.21-5.31-31.82,0L15.91,67.63C5.3,72.94,0,83.55,0,94.16V218.81C0,229.42,5.3,240,15.91,246.66L123.33,309c9.28,5.31,21.22,5.31,31.83,0l72.94-42.44,50.39-29.17,72.94-42.44c9.28-5.3,21.22-5.3,31.83,0l57,33.16A32.32,32.32,0,0,1,456.19,256v66.3c0,10.61-5.3,21.22-15.91,27.85l-55.7,33.16c-9.28,5.3-21.22,5.3-31.83,0l-57-33.16a32.32,32.32,0,0,1-15.91-27.85V279.82L229.42,309v43.76c0,10.61,5.31,21.22,15.92,27.85l107.41,62.33c9.29,5.31,21.22,5.31,31.83,0L492,380.6a32.32,32.32,0,0,0,15.91-27.85v-126c0-10.61-5.3-21.22-15.91-27.85Z"/>
</svg>
