<svg id="Layer_1" data-name="Layer 1" xmlns="http://www.w3.org/2000/svg" viewBox="0 0 445 275"><title>polymath</title><g id="Group"><g id="Shape"><polygon points="378.3 43.8 360 30.5 402.8 8.9 378.3 43.8" style="fill:#3f4b80"/><polygon points="269.5 0 322.8 27.4 329.2 71.6 269.5 0" style="fill:#313a62"/><polygon points="329.2 71.6 320.7 109.2 269.5 0 329.2 71.6" style="fill:#3f4b80"/><polygon points="320.7 109.2 239.1 6.2 269.6 0.2 320.7 109.2" style="fill:#4b5897"/><polygon points="320.7 109.2 232.2 74.6 239.1 6.2 320.7 109.2" style="fill:#5161a4"/><polygon points="239.1 6.2 232.2 74.6 141 87.4 239.1 6.2" style="fill:#4b5897"/><polygon points="320.7 109.2 223.1 135.7 232.2 74.6 320.7 109.2" style="fill:#4b5897"/><polygon points="223.1 135.7 320.7 109.2 276.7 129.7 223.1 135.7" style="fill:#3f4b80"/><polygon points="169.2 144.9 223.1 135.7 224 154.1 169.2 144.9" style="fill:#3f4b80"/><polygon points="224 154.1 223.1 135.7 276.7 129.7 224 154.1" style="fill:#313a62"/><polygon points="141 87.4 232.2 74.6 223.1 135.7 141 87.4" style="fill:#3f4b80"/><polygon points="141 87.4 223.1 135.7 169.2 144.9 141 87.4" style="fill:#4b5897"/><polygon points="141 87.4 169.2 144.9 142 164.8 141 87.4" style="fill:#313a62"/><polygon points="94.7 102.9 105.6 168.4 75.6 123.3 94.7 102.9" style="fill:#5161a4"/><polygon points="41 123.7 75.6 123.3 75.8 144.4 41 123.7" style="fill:#313a62"/><polygon points="43.8 138 41 123.7 75.8 144.4 43.8 138" style="fill:#3f4b80"/><polygon points="43.8 138 24 155.5 41 123.7 43.8 138" style="fill:#4b5897"/><polygon points="24 155.5 22.6 166.1 0 162.4 24 155.5" style="fill:#313a62"/><polygon points="24 155.5 43.8 138 22.6 166.1 24 155.5" style="fill:#5161a4"/><polygon points="75.6 123.3 105.6 168.4 75.8 174.3 75.6 123.3" style="fill:#3f4b80"/><polygon points="84.4 207.9 62.7 252.8 59.5 218.2 84.4 207.9" style="fill:#3f4b80"/><polygon points="59.5 218.2 62.7 252.8 50.2 258.8 59.5 218.2" style="fill:#1f243e"/><polygon points="62.7 252.8 66 269.7 40.2 275 62.7 252.8" style="fill:#3f4b80"/><polygon points="50.2 258.8 62.7 252.8 40.2 275 50.2 258.8" style="fill:#313a62"/><polygon points="75.8 174.3 105.6 168.4 59.5 218.2 75.8 174.3" style="fill:#313a62"/><polygon points="105.6 168.4 125.9 191.5 59.5 218.2 105.6 168.4" style="fill:#4b5897"/><polygon points="94.7 102.9 141 87.4 105.6 168.4 94.7 102.9" style="fill:#4b5897"/><polygon points="105.6 168.4 141 87.4 142 164.8 105.6 168.4" style="fill:#3f4b80"/><polygon points="125.9 191.5 105.6 168.4 142 164.8 125.9 191.5" style="fill:#313a62"/><polygon points="276.7 129.7 319.6 129.4 292.2 171.2 276.7 129.7" style="fill:#4b5897"/><polygon points="276.7 129.7 320.7 109.2 319.6 129.4 276.7 129.7" style="fill:#5161a4"/><polygon points="268.3 166.7 276.7 129.7 292.2 171.2 268.3 166.7" style="fill:#3f4b80"/><polygon points="258 186.1 268.3 166.7 292.2 171.2 258 186.1" style="fill:#4b5897"/><polygon points="237.2 200 243.7 168.2 268.3 166.7 237.2 200" style="fill:#3f4b80"/><polygon points="237.2 200 268.3 166.7 258 186.1 237.2 200" style="fill:#313a62"/><polygon points="360 30.5 400.8 1.9 402.8 8.9 360 30.5" style="fill:#495692"/><polygon points="400.8 1.9 434.2 0.2 402.8 8.9 400.8 1.9" style="fill:#5d6cac"/><polygon points="379.4 67.2 360.8 54.1 423.7 54.2 379.4 67.2" style="fill:#4f60a3"/><polygon points="360.8 54.1 414.9 47.1 423.7 54.2 360.8 54.1" style="fill:#495692"/><polygon points="414.9 47.1 439.7 25.4 423.7 54.2 414.9 47.1" style="fill:#3f4b80"/><polygon points="423.7 54.2 439.7 25.4 445 27.9 423.7 54.2" style="fill:#4f60a3"/><polygon points="439.7 25.4 444.1 12.9 445 27.9 439.7 25.4" style="fill:#313a62"/></g><polygon id="Shape-2" data-name="Shape" points="329.2 71.6 335.2 124.2 320.7 109.2 329.2 71.6" style="fill:#313a62"/><polygon id="Shape-3" data-name="Shape" points="335.2 124.2 329.2 71.6 379.4 67.2 335.2 124.2" style="fill:#3f4b80"/><polygon id="Shape-4" data-name="Shape" points="379.4 67.2 329.2 71.6 322.8 27.4 379.4 67.2" style="fill:#4b5897"/><polygon id="Shape-5" data-name="Shape" points="378.3 43.8 386.4 51.1 360.8 54.1 378.3 43.8" style="fill:#313a62"/><polygon id="Shape-6" data-name="Shape" points="322.8 27.4 378.3 43.8 360.8 54.1 322.8 27.4" style="fill:#3f4b80"/><polygon id="Shape-7" data-name="Shape" points="322.8 27.4 360 30.5 378.3 43.8 322.8 27.4" style="fill:#313a62"/><polygon id="Shape-8" data-name="Shape" points="377.1 150.4 379.4 67.2 399.4 83.5 377.1 150.4" style="fill:#3f4b80"/><polygon id="Shape-9" data-name="Shape" points="377.1 150.4 379.4 67.2 335.2 124.2 377.1 150.4" style="fill:#495692"/><polygon id="Shape-10" data-name="Shape" points="399.4 83.5 393 62.7 379.4 67.2 399.4 83.5" style="fill:#313a62"/><polygon id="Shape-11" data-name="Shape" points="402.1 138.9 377.1 150.4 399.4 83.5 402.1 138.9" style="fill:#313a62"/></g></svg>