<?xml version="1.0" encoding="utf-8"?>
<!-- Generator: Adobe Illustrator 24.0.0, SVG Export Plug-In . SVG Version: 6.00 Build 0)  -->
<svg version="1.1" id="ant-web3-icon-ramp-colorful-Layer_1" xmlns="http://www.w3.org/2000/svg" xmlns:xlink="http://www.w3.org/1999/xlink" x="0px" y="0px" viewBox="0 0 273 317" style="enable-background:new 0 0 273 317;" xml:space="preserve">

<g id="ant-web3-icon-ramp-colorful-XMLID_435_">
	<g id="ant-web3-icon-ramp-colorful-XMLID_4_">
		<polygon id="ant-web3-icon-ramp-colorful-XMLID_11_" points="178,183.1 136,207.6 94,183.1 94,134 136,109.4 178,134 		" style="fill: #00B5D1;"/>
	</g>
	<path id="ant-web3-icon-ramp-colorful-XMLID_14_" d="M136.5,0L0,79.3v158.4L136.5,317L273,237.7V79.3L136.5,0z M70,196.9v-77.2l66-38.5l66,38.5
		v77.2l-66,38.5L70,196.9z M70,241.4v-26.8l89.3,52.2l-22.8,13.3L70,241.4z M241,219.3L174.5,258l-23.6-13.8l66.2-38.7v-94.4
		l-81-47.3l-81,47.3v3.4v91v27.2l-23-13.4V97.7L136.6,37L241,97.7V219.3z" style="fill: #0D285A;"/>
</g>
</svg>
