<svg width="24" height="24" viewBox="-2 0 24 24" fill="none" xmlns="http://www.w3.org/2000/svg" alt="Link to Home, Ripple’s Company Logo"><g clip-path="url(#clip0_2251_11855)"><path d="M17.5078 14.6486C16.7516 14.2103 15.8986 14.0839 15.0535 14.0563C14.3447 14.0326 13.2883 13.5784 13.2883 12.2792C13.2924 11.8112 13.4793 11.3634 13.8091 11.0313C14.1389 10.6993 14.5855 10.5094 15.0535 10.5022C15.8986 10.4726 16.7516 10.3462 17.5078 9.90983C18.1868 9.51664 18.7504 8.95173 19.1421 8.27182C19.5337 7.5919 19.7396 6.82092 19.739 6.03628C19.7384 5.25164 19.5314 4.48096 19.1387 3.80163C18.7461 3.1223 18.1816 2.55823 17.502 2.16606C16.8224 1.77389 16.0516 1.56742 15.267 1.56738C14.4823 1.56735 13.7115 1.77375 13.0318 2.16586C12.3522 2.55797 11.7877 3.12198 11.395 3.80128C11.0023 4.48057 10.7952 5.25123 10.7945 6.03587C10.7945 6.90267 11.1025 7.70037 11.4974 8.4408C11.8272 9.06277 11.995 10.2179 10.8597 10.8714C10.4493 11.0997 9.96585 11.1582 9.51293 11.0341C9.06001 10.9101 8.67373 10.6135 8.43697 10.208C7.99271 9.49716 7.44972 8.82583 6.70534 8.39737C6.02545 8.00519 5.25432 7.79886 4.46943 7.79909C3.68454 7.79933 2.91353 8.00613 2.23388 8.39871C1.55422 8.79129 0.989854 9.35582 0.597477 10.0356C0.205101 10.7154 -0.00146484 11.4864 -0.00146484 12.2713C-0.00146484 13.0562 0.205101 13.8273 0.597477 14.5071C0.989854 15.1868 1.55422 15.7514 2.23388 16.1439C2.91353 16.5365 3.68454 16.7433 4.46943 16.7436C5.25432 16.7438 6.02545 16.5375 6.70534 16.1453C7.45565 15.7109 7.99271 15.0455 8.43697 14.3347C8.80225 13.7423 9.71249 13.0078 10.8597 13.6712C11.2626 13.9126 11.5549 14.3023 11.6738 14.7568C11.7926 15.2112 11.7286 15.6941 11.4955 16.1018C11.1006 16.8423 10.7945 17.64 10.7945 18.5068C10.7946 19.2921 11.0013 20.0635 11.3939 20.7436C11.7866 21.4236 12.3513 21.9884 13.0313 22.3811C13.7114 22.7738 14.4828 22.9806 15.2681 22.9807C16.0534 22.9808 16.8248 22.7742 17.505 22.3817C18.1851 21.9892 18.75 21.4247 19.1429 20.7447C19.5357 20.0647 19.7426 19.2934 19.7429 18.5081C19.7432 17.7228 19.5368 16.9513 19.1445 16.2711C18.7521 15.5908 18.1877 15.0258 17.5078 14.6328V14.6486Z" fill="#008CFF"></path></g><defs><clipPath id="clip0_2251_11855"><rect width="93.5931" height="24" fill="white"></rect></clipPath></defs></svg>