<?xml version="1.0" encoding="UTF-8"?>
<svg width="40px" height="40px" viewBox="0 0 40 40" version="1.1" xmlns="http://www.w3.org/2000/svg" xmlns:xlink="http://www.w3.org/1999/xlink">
    <title>扫码icon@2x</title>
    <defs>
        <linearGradient x1="33.4560971%" y1="89.5614753%" x2="69.0076668%" y2="4.56897559%" id="linearGradient-1">
            <stop stop-color="#2F52FF" offset="0%"></stop>
            <stop stop-color="#8658FF" offset="56.1426998%"></stop>
            <stop stop-color="#E51DFF" offset="100%"></stop>
        </linearGradient>
        <linearGradient x1="50%" y1="0%" x2="50%" y2="100%" id="linearGradient-2">
            <stop stop-color="#FFFFFF" stop-opacity="0" offset="0%"></stop>
            <stop stop-color="#FFFFFF" stop-opacity="0.723639642" offset="100%"></stop>
        </linearGradient>
    </defs>
    <g id="组件" stroke="none" stroke-width="1" fill="none" fill-rule="evenodd">
        <g id="画板" transform="translate(-1153, -485)">
            <g id="编组-212备份-3" transform="translate(1121, 179)">
                <g id="编组-214" transform="translate(24, 76)">
                    <g id="编组-99" transform="translate(0, 30)">
                        <g id="编组-21备份-9" transform="translate(0, 192)">
                            <g id="扫码icon" transform="translate(8, 8)">
                                <rect id="矩形" fill="url(#linearGradient-1)" fill-rule="nonzero" x="0" y="0" width="40" height="40" rx="8"></rect>
                                <g id="编组-4" transform="translate(11.5, 14)">
                                    <rect id="矩形" fill="url(#linearGradient-2)" x="0" y="0" width="17" height="13"></rect>
                                    <rect id="矩形" fill="#FFFFFF" x="0" y="12" width="17" height="2" rx="1"></rect>
                                </g>
                                <polyline id="路径-2" stroke="#FFFFFF" stroke-width="2" stroke-linecap="round" stroke-linejoin="round" points="13 7.99670694 7.99244918 7.99670694 7.99244918 13"></polyline>
                                <polyline id="路径-2备份-2" stroke="#FFFFFF" stroke-width="2" stroke-linecap="round" stroke-linejoin="round" transform="translate(10.4962, 31.4984) scale(1, -1) translate(-10.4962, -31.4984)" points="13 28.9967069 7.99244918 28.9967069 7.99244918 34"></polyline>
                                <polyline id="路径-2备份" stroke="#FFFFFF" stroke-width="2" stroke-linecap="round" stroke-linejoin="round" transform="translate(29.4962, 10.4984) scale(-1, 1) translate(-29.4962, -10.4984)" points="32 7.99670694 26.9924492 7.99670694 26.9924492 13"></polyline>
                                <polyline id="路径-2备份-3" stroke="#FFFFFF" stroke-width="2" stroke-linecap="round" stroke-linejoin="round" transform="translate(29.4962, 31.4984) scale(-1, -1) translate(-29.4962, -31.4984)" points="32 28.9967069 26.9924492 28.9967069 26.9924492 34"></polyline>
                            </g>
                        </g>
                    </g>
                </g>
            </g>
        </g>
    </g>
</svg>