<?xml version="1.0" encoding="UTF-8"?>
<svg width="40px" height="40px" viewBox="0 0 40 40" version="1.1" xmlns="http://www.w3.org/2000/svg" xmlns:xlink="http://www.w3.org/1999/xlink">
    <title>编组 3</title>
    <defs>
        <linearGradient x1="33.4560971%" y1="89.5614753%" x2="69.0076668%" y2="4.56897559%" id="linearGradient-1">
            <stop stop-color="#2F52FF" offset="0%"></stop>
            <stop stop-color="#8658FF" offset="56.1426998%"></stop>
            <stop stop-color="#E51DFF" offset="100%"></stop>
        </linearGradient>
    </defs>
    <g id="swap补充" stroke="none" stroke-width="1" fill="none" fill-rule="evenodd">
        <g id="4月下补充组件" transform="translate(-1508, -963)">
            <g id="编组-212备份" transform="translate(1476, 657)">
                <g id="编组-214" transform="translate(24, 76)">
                    <g id="编组-99" transform="translate(0, 30)">
                        <g id="编组-21备份-9" transform="translate(0, 192)">
                            <g id="编组-3" transform="translate(8, 8)">
                                <rect id="矩形" fill="url(#linearGradient-1)" fill-rule="nonzero" x="0" y="0" width="40" height="40" rx="8"></rect>
                                <g id="扫描" transform="translate(4, 4)" fill="#FFFFFF" fill-rule="nonzero">
                                    <rect id="矩形" opacity="0" x="0" y="0" width="32" height="32"></rect>
                                    <path d="M22.14925,4.10334375 L27.756375,4.10334375 L27.756375,9.71046875 C27.756375,10.2912187 28.2273125,10.7618125 28.8077188,10.7618125 C29.388125,10.7618125 29.8590938,10.29125 29.8590938,9.71046875 L29.8590938,4.10334375 C29.8590938,2.7508125 29.1089063,2.00065625 27.7564063,2.00065625 L22.1492188,2.00065625 C21.5688125,2.00065625 21.097875,2.47121875 21.097875,3.052 C21.097875,3.63278125 21.5688125,4.10334375 22.14925,4.10334375 L22.14925,4.10334375 Z M2.87465625,10.7618125 C3.45540625,10.7618125 3.926,10.2909062 3.926,9.71046875 L3.926,4.10334375 L9.7959375,4.10334375 C10.3767188,4.10334375 10.8473125,3.63240625 10.8473125,3.05196875 C10.8473125,2.47153125 10.37675,2.000625 9.7959375,2.000625 L4.18875,2.000625 C2.83625,2.000625 1.8233125,2.7508125 1.8233125,4.1033125 L1.8233125,9.7104375 C1.8233125,10.2909062 2.293875,10.7618125 2.87465625,10.7618125 Z M28.8077813,21.2752188 C28.2273125,21.2752188 27.7564063,21.7458125 27.7564063,22.3265938 L27.7564063,27.9337813 L22.1492188,27.9337813 C21.5688125,27.9337813 21.097875,28.4043125 21.097875,28.985125 C21.097875,29.5659375 21.5688125,30.0364688 22.14925,30.0364688 L27.756375,30.0364688 C29.108875,30.0364688 29.8590625,29.2862813 29.8590625,27.9338125 L29.8590625,22.3265625 C29.8590625,21.7458125 29.3881563,21.2752188 28.80775,21.2752188 L28.8077813,21.2752188 Z M9.7959375,27.9337187 L3.926,27.9337187 L3.926,22.3265937 C3.926,21.7461562 3.4554375,21.27525 2.87465625,21.27525 C2.293875,21.27525 1.8233125,21.7461562 1.8233125,22.3265937 L1.8233125,27.9337812 C1.8233125,29.2862812 2.83628125,30.0364375 4.18878125,30.0364375 L9.79596875,30.0364375 C10.3767188,30.0364375 10.8473125,29.5655 10.8473125,28.9850937 C10.8473125,28.4046875 10.3766875,27.9337187 9.7959375,27.9337187 Z" id="形状"></path>
                                </g>
                                <rect id="矩形" fill="#FFFFFF" opacity="0.382579985" x="12" y="11" width="16" height="19"></rect>
                                <g id="手机号、手机" transform="translate(8, 8)" fill-rule="nonzero">
                                    <rect id="矩形" fill="#000000" opacity="0" x="0" y="0" width="24" height="24"></rect>
                                    <path d="M16.5000078,1.5 C19.2615,1.5 21.4999922,3.73851563 21.4999922,6.5 L21.4999922,18 C21.4999922,20.7615 19.2615,23 16.5000078,23 L7.50000781,23 C4.7385,23 2.50000781,20.7615 2.50000781,18 L2.50000781,6.5 C2.50000781,3.73851563 4.7385,1.5 7.50000781,1.5 L16.5000078,1.5 Z M16.5,3.25000781 L7.5,3.25000781 C5.75038355,3.25000781 4.31472889,4.63501595 4.25200781,6.38350781 L4.24999219,6.49999219 L4.24999219,18 C4.24999219,19.7496252 5.63501455,21.1852834 7.38351562,21.2479922 L7.50002344,21.2500078 L16.5000234,21.2500078 C18.2496396,21.2500078 19.6852837,19.8649764 19.7479922,18.1164844 L19.7500078,17.9999766 L19.7500078,6.49999219 C19.7500078,4.75036697 18.3649854,3.31470877 16.6164844,3.252 L16.4999766,3.25000781 L16.5,3.25000781 Z" id="形状" fill="#FFFFFF"></path>
                                    <path d="M14.5000078,17.1250078 C14.9690845,17.1252187 15.3545484,17.4952898 15.3738645,17.9639687 C15.3931805,18.4326476 15.0394763,18.8331826 14.5720078,18.8719922 L14.5000078,18.8749922 L9.49999219,18.8749922 C9.03091548,18.8747813 8.64545161,18.5047102 8.62613554,18.0360313 C8.60681947,17.5673524 8.96052366,17.1668174 9.42799219,17.1280078 L9.49999219,17.1250078 L14.5000078,17.1250078 L14.5000078,17.1250078 Z" id="路径" fill="#FFFFFF"></path>
                                </g>
                            </g>
                        </g>
                    </g>
                </g>
            </g>
        </g>
    </g>
</svg>