<svg t="1712570381128" class="icon" viewBox="0 0 1024 1024" version="1.1"
  xmlns="http://www.w3.org/2000/svg" p-id="1009">
  <path d="M0 0m512 0l0 0q512 0 512 512l0 0q0 512-512 512l0 0q-512 0-512-512l0 0q0-512 512-512Z" fill="#FCEFDE" p-id="1010"></path>
  <path d="M512 725.333333c0-68.266667-35.541333-106.666667-42.666667-106.666666h298.666667c21.333333 0 64 21.333333 64 106.666666s-42.666667 106.666667-64 106.666667h-320c21.333333-7.125333 64-38.4 64-106.666667z" fill="#E3C191" p-id="1011"></path>
  <path d="M333.226667 181.333333c-31.274667 0-68.48 13.226667-98.005334 36.565334-29.824 23.594667-53.888 59.306667-53.888 104.874666 0 34.858667 3.413333 61.482667 13.098667 85.248 9.728 23.808 25.045333 42.88 45.525333 63.744a19.541333 19.541333 0 0 0 28.032 0 20.48 20.48 0 0 0 0-28.586666c-19.157333-19.498667-30.208-34.133333-36.992-50.730667-6.826667-16.64-10.026667-37.162667-10.026666-69.674667 0-29.824 15.530667-54.741333 38.528-72.96 23.338667-18.389333 52.138667-28.074667 73.728-28.074666h422.570666c3.669333 0 6.613333 3.029333 6.613334 6.741333v350.250667c12.928 0 25.557333 3.882667 36.266666 11.178666l3.370667 2.261334V228.522667c0-26.026667-20.693333-47.146667-46.250667-47.146667H333.226667z" fill="#1D0F07" p-id="1012"></path>
  <path d="M401.621333 342.997333h250.88a20.010667 20.010667 0 0 0 19.84-20.224 20.010667 20.010667 0 0 0-19.797333-20.181333H401.621333v40.405333zM401.621333 531.584h248.533334a20.010667 20.010667 0 0 0 19.797333-20.224 20.010667 20.010667 0 0 0-19.797333-20.181333H401.621333v40.405333zM689.792 437.290667H401.621333v-40.405334h288.170667c10.922667 0 19.797333 9.045333 19.797333 20.181334a20.010667 20.010667 0 0 1-19.797333 20.224z" fill="#1D0F07" p-id="1013"></path>
  <path d="M280.362667 329.514667h-13.226667v-40.405334h13.226667c25.557333 0 46.250667 21.12 46.250666 47.146667v391.893333l-0.170666 1.28c-1.749333 14.378667 0.512 36.010667 12.202666 53.418667 10.88 16.128 31.786667 31.573333 73.813334 31.573333 14.421333 0 36.522667-4.565333 54.442666-17.706666 16.896-12.416 31.402667-33.28 31.402667-69.802667 0-36.522667-14.506667-57.386667-31.402667-69.845333a96.938667 96.938667 0 0 0-54.442666-17.706667 6.656 6.656 0 0 0-6.613334 6.698667v40.448c0 3.712 2.986667 6.698667 6.613334 6.698666h26.410666v40.448h-26.453333a46.677333 46.677333 0 0 1-46.208-47.146666v-40.448c0-26.026667 20.693333-47.146667 46.250667-47.146667h345.002666l1.621334 0.298667c33.109333 5.632 95.786667 39.68 95.786666 127.701333 0 87.978667-62.677333 122.026667-95.786666 127.658667l-1.621334 0.298666H412.458667c-53.077333 0-87.210667-20.48-106.496-49.194666-18.090667-26.965333-21.333333-58.453333-18.986667-79.957334V336.213333a6.656 6.656 0 0 0-6.613333-6.741333zM506.88 814.506667h247.168c20.309333-4.138667 61.226667-26.197333 61.226667-87.552 0-61.397333-40.96-83.413333-61.226667-87.552H506.88c18.432 20.138667 31.061333 48.768 31.061333 87.552s-12.629333 67.413333-31.061333 87.552z" fill="#1D0F07" p-id="1014"></path>
</svg>
