<svg t="1712570333265" class="icon" viewBox="0 0 1024 1024" version="1.1"
  xmlns="http://www.w3.org/2000/svg" p-id="918">
  <path d="M890.42038199 647.87805394V133.57961801c-0.67938988-43.14128212-34.98859906-77.79018548-78.12988264-77.79018549h-536.71831398c-115.83604124 1.69847546-208.91250877 96.47341842-208.91250876 212.64915535 0 39.06494133 10.53054988 72.69475911 26.4962203 102.24823614 13.58780511 24.45804918 34.98859906 47.55731859 56.04969734 64.88177027 6.11451191 4.75573216 3.05725671 2.71756102 21.40079393 13.92750078 25.13744054 15.28628055 54.0115262 23.09926942 54.01152621 23.09926941l-0.33969421 307.76379251c0.67938988 14.60689067 2.03817114 28.53439146 6.11451193 41.78250235 11.88932964 43.4809778 42.12219654 76.77110139 82.88561332 92.73677185 16.98475747 6.79390329 36.34737883 11.20993977 57.0687829 11.54963395l428.69526161 1.35878126c85.26347867 0 154.56128689-69.29780822 154.56128687-154.90098257 0.33969568-50.95427095-25.13744054-96.47341842-63.18329482-125.00780988z" fill="#FFEEDA" p-id="919"></path>
  <path d="M900.95093039 776.6225104C899.25245493 831.31342797 854.0730017 875.47379564 798.70269425 875.47379564l-294.85537731-1.01908556c23.43896509-27.1756102 37.70616007-62.50390494 37.70616007-101.22915057 0-60.4657338-36.00768462-102.24823614-36.00768462-102.24823615h293.49659755c56.389393 0 102.24823614 45.85884314 102.24823613 102.24823615l-0.33969568 3.39695089z" fill="#EBC28E" p-id="920"></path>
  <path d="M177.40029149 392.08761649c-33.96951349-32.27103803-57.74817278-73.7138447-57.74817279-123.30933441v-5.09542636c2.71756102-84.24439311 72.01536924-152.18342155 156.25976232-154.5612869h536.71831401c13.92750079 0.67938988 25.13744054 10.53054988 25.13744054 24.79774488v454.17239635c12.22902532 2.03817114 18.34353727 3.73664659 30.2328669 8.15268306 9.51146431 3.3969509 22.41987952 10.87024407 22.41987952 10.87024554V133.9193137c-0.67938988-43.14128212-34.98859906-77.79018548-78.12988264-77.7901855h-536.71831398c-115.83604124 1.69847546-208.91250877 96.47341842-208.91250876 212.64915388 0 67.5993313 30.91225679 125.34750555 81.18713784 165.77122665 3.3969509 2.71756102 6.79390329 6.45420761 15.62597625 6.45420759 15.62597625 0 26.83591599-12.56871953 26.1565261-26.15652462 0-11.54963395-5.09542636-15.62597625-12.22902531-22.75957521z" fill="#101010" p-id="921"></path>
  <path d="M798.70269425 617.98488272H377.82042149c-28.19469578 0.33969568-50.95427095 23.09926942-50.95427096 51.29396518v60.46573381c0.67938988 27.85500157 24.45804918 51.63366086 52.99244211 51.63366085h31.25195246v-51.63366085H379.51889696v-59.10695257h16.98475747c53.33213631 0 92.39707762 49.25579405 92.39707615 102.24823468 0 46.87792869-42.80158644 106.66427261-114.13756578 101.90854193-63.18329482-4.07634227-97.49250399-60.4657338-97.49250398-101.90854193v-512.93965469c0-23.09926942-19.02292715-42.12219654-42.12219655-42.12219655h-42.12219656v52.65274641h31.25195247v502.74880052c-1.69847546 102.24823614 72.69475911 153.54220132 150.48494462 153.54220131l424.27922514 1.35878124c85.26347867 0 154.56128689-69.29780822 154.56128687-154.90098255 0.33969568-85.60317435-69.29780822-155.24067677-154.90098256-155.24067679z m102.24823614 158.63762768C899.25245493 831.31342797 854.0730017 875.47379564 798.70269425 875.47379564l-294.85537731-1.01908556c23.43896509-27.1756102 37.70616007-62.50390494 37.70616007-101.22915057 0-60.4657338-36.00768462-102.24823614-36.00768462-102.24823615h293.49659755c56.389393 0 102.24823614 45.85884314 102.24823613 102.24823615l-0.33969568 3.39695089zM685.24451982 279.98822183h-317.27525682v-52.65274493H685.24451982c14.26719499 0 26.1565261 11.54963395 26.15652463 26.15652461 0.33969568 14.60689067-11.20993977 26.49622032-26.15652463 26.49622032z" fill="#101010" p-id="922"></path>
  <path d="M685.24451982 526.94658635h-317.27525682V474.63353561H685.24451982c14.26719499 0 26.1565261 11.54963395 26.15652463 26.15652462 0.33969568 14.26719499-11.20993977 26.1565261-26.15652463 26.15652612zM741.29421714 403.29755627H367.969263v-52.65274644h372.98525846c14.26719499 0 26.1565261 11.54963395 26.1565261 26.15652611 0.67938988 14.60689067-11.20993977 26.49622032-25.81683042 26.49622033z" fill="#101010" p-id="923"></path>
</svg>
