<?xml version="1.0" encoding="utf-8"?>
<!-- Generator: Adobe Illustrator 24.0.0, SVG Export Plug-In . SVG Version: 6.00 Build 0)  -->
<svg version="1.1"
	 id="svg1007" xmlns:cc="http://creativecommons.org/ns#" xmlns:dc="http://purl.org/dc/elements/1.1/" xmlns:inkscape="http://www.inkscape.org/namespaces/inkscape" xmlns:rdf="http://www.w3.org/1999/02/22-rdf-syntax-ns#" xmlns:sodipodi="http://sodipodi.sourceforge.net/DTD/sodipodi-0.dtd" xmlns:svg="http://www.w3.org/2000/svg"
	 xmlns="http://www.w3.org/2000/svg" xmlns:xlink="http://www.w3.org/1999/xlink" x="0px" y="0px" viewBox="0 0 50.5 79.8"
	 style="enable-background:new 0 0 50.5 79.8;" xml:space="preserve">
<sodipodi:namedview  bordercolor="#666666" borderopacity="1" fit-margin-bottom="0" fit-margin-left="0" fit-margin-right="0" fit-margin-top="0" gridtolerance="10" guidetolerance="10" id="namedview1009" inkscape:current-layer="g1015" inkscape:cx="-11.684271" inkscape:cy="31.77047" inkscape:pageopacity="0" inkscape:pageshadow="2" inkscape:window-height="1148" inkscape:window-maximized="1" inkscape:window-width="1920" inkscape:window-x="1912" inkscape:window-y="-8" inkscape:zoom="4" objecttolerance="10" pagecolor="#ffffff" showgrid="false">
	</sodipodi:namedview>
<g id="g1015" transform="translate(-45.7705,-31.15498)" inkscape:groupmode="layer" inkscape:label="Image">
	<path id="path1019" inkscape:connector-curvature="0" d="M66.6,90.8c0.1-20.2,0.1-20.2-1-20.3c-4.7-0.7-7.7-1.8-11-3.9
		c-4.5-2.9-7.2-6.8-8.4-11.8c-0.8-3.4-0.5-6.4,1-10.8c1.5-4.5,1.5-6,0.2-8.5l-1-1.9l4-1.4c4.5-1.5,4.4-1.6,5.6,1
		c1.2,2.6,1,6.4-0.3,10.6c-1.4,4.2-1.7,6.1-1.3,8.7c0.7,5,4,8.3,9.8,9.7c3.1,0.8,11.1,0.8,13.8,0c2.8-0.8,5.5-2.3,6.9-3.8
		c3.1-3.4,3.7-7.9,1.7-13.8C85,39.1,85.1,34.4,87,31.9c0.6-0.8,0.6-0.8,3.7,0.1c5.8,1.5,5.4,1.2,4.2,3.1c-1.4,2.2-1.3,4,0.2,9.2
		c1.8,5.9,1.6,9.6-0.6,14.4c-1.5,3.4-5.2,7-8.9,8.7c-2.9,1.3-7.8,2.9-9.2,2.9c-1.7,0-1.8,0.2-1.6,1.9C75,73,75.1,82,75.1,92.3
		l0,18.6h-4.3h-4.3L66.6,90.8z M46.4,100.7v-3.8h7.8H62v3.8v3.8h-7.8h-7.8V100.7z M79.6,100.7v-3.8h7.8h7.8v3.8v3.8h-7.8h-7.8V100.7
		z M46.4,88.2v-3.8h7.8H62v3.8V92h-7.8h-7.8V88.2z M79.6,88.2v-3.8h7.8h7.8v3.8V92h-7.8h-7.8V88.2z M46.4,75.7v-3.8h7.8H62v3.8v3.8
		h-7.8h-7.8V75.7z M79.6,75.7v-3.8h7.8h7.8v3.8v3.8h-7.8h-7.8V75.7z M74.3,58c-0.9-1.8-2.1-4.6-2.7-6.3l-1.1-3l-0.5,2
		C69.3,53.2,65.6,61,65.1,61c-0.2,0-1.9-0.8-3.8-1.7l-3.4-1.7l4.6-8.6l4.6-8.6l3.5,0l3.5,0l4.6,8.5c2.5,4.7,4.5,8.6,4.5,8.6
		c-0.2,0.2-6.9,3.7-7,3.7C76,61.3,75.2,59.8,74.3,58L74.3,58z"/>
</g>
</svg>
