<?xml version="1.0" encoding="UTF-8"?>
<svg viewBox="0 0 1024 1024" version="1.1" xmlns="http://www.w3.org/2000/svg" xmlns:xlink="http://www.w3.org/1999/xlink">
    <title>shiba-inu-shib-logo</title>
    <g id="shiba-inu-shib-logo" stroke="none" stroke-width="1" fill="none" fill-rule="evenodd">
        <g transform="translate(116, 112)">
            <g id="Group_931" transform="translate(0, 26.1707)" fill-rule="nonzero">
                <path d="M579.05843,44.2539071 C558.471558,64.8374436 539.610531,87.1465461 522.845173,110.934705 L517.544362,109.209139 C486.97224,99.2255077 455.290645,93.0627722 423.362502,90.9674421 C413.747076,90.2279138 377.874142,90.2279138 366.163047,90.9674421 C330.783212,93.3092816 303.662781,98.6092341 272.84411,109.332394 C271.611363,109.825413 270.501891,110.195177 269.392419,110.564941 C252.010688,86.9000367 232.656562,64.7141889 211.330041,44.3771618 C313.648031,-8.00608982 433.347751,-14.29208 540.473453,26.9982477 C551.937999,31.3121626 563.155996,36.3656057 574.127443,41.7888129 L579.05843,44.2539071 Z" id="Path_8573" fill="#555555"></path>
                <path d="M769.887644,511.759021 C754.355034,556.007462 731.056118,597.05128 700.85382,632.795146 C684.458287,652.022881 666.336908,669.648304 646.859507,685.671417 C601.247874,722.40132 547.993209,748.654573 491.163579,762.459101 C428.293489,777.61943 362.711356,777.61943 299.841266,762.459101 C242.888361,748.654573 189.756971,722.40132 144.145338,685.671417 C124.667937,669.648304 106.546558,652.022881 90.151025,632.795146 C3.24237133,530.123973 -23.1384115,389.120585 21.1172008,262.044979 C29.4998795,238.50333 39.9782278,215.824463 52.5522458,194.254889 C58.346156,184.394512 65.4960878,173.301588 68.947779,168.741164 C80.7821489,219.645359 95.3285619,264.386819 100.752648,280.533186 C100.382824,281.395969 99.8897252,282.382006 99.3966265,283.244789 C70.6736246,341.421012 55.1410142,397.501905 51.4427736,457.157185 C51.4427736,457.896713 51.3194989,458.759496 51.3194989,459.499024 C50.3333014,477.370957 50.8264002,485.875532 53.7849926,497.091711 C63.0305941,532.219303 91.5070466,570.921282 136.132483,608.883732 C209.234372,671.004106 308.347219,715.86882 383.421503,721.045518 C461.700929,726.345471 577.20931,680.617974 654.132714,613.813921 C666.213633,603.090761 677.554904,591.751328 688.156527,579.672366 C695.799558,570.798027 707.140829,555.514443 706.277906,555.514443 C706.031357,555.514443 706.277906,555.267934 706.771005,555.021424 C707.140829,554.774915 707.510653,554.405151 707.264104,554.158641 C707.140829,554.035387 707.387378,553.665622 707.757202,553.542368 C708.127026,553.419113 708.373576,553.172604 708.250301,552.926094 C708.127026,552.679585 708.250301,552.433075 708.7434,552.309821 C709.113224,552.186566 709.236499,551.816802 709.113224,551.570292 C708.989949,551.323783 709.113224,551.077274 709.359773,551.077274 C709.606323,551.077274 709.852872,550.707509 709.852872,550.461 C709.852872,550.214491 710.099421,549.844726 710.345971,549.844726 C710.59252,549.844726 710.83907,549.598217 710.83907,549.351708 C711.208894,548.36567 711.825267,547.379632 712.44164,546.516849 C714.290761,543.681991 721.687242,530.493737 722.673439,528.275152 C729.700097,512.375295 734.137985,498.201003 736.233655,484.026711 C737.219852,477.247702 737.836226,464.798977 737.343127,461.840864 C737.219852,461.347845 737.219852,460.485062 737.096578,459.12926 C736.850028,456.664166 736.726754,452.966525 736.480204,449.268883 C736.233655,443.722421 735.740556,435.957375 735.370732,432.136479 C730.069921,376.17884 715.770057,330.451343 688.649626,282.012242 C687.540154,280.163422 686.553956,278.314601 685.937583,276.835544 C685.691034,276.46578 685.567759,276.096016 685.444484,275.849507 L685.444484,275.849507 C689.266,264.386819 704.921885,216.440737 717.372628,161.592391 L717.619177,161.8389 L719.468298,164.303994 C722.673439,168.617909 731.179393,181.436399 735.000908,187.599135 C752.382639,215.947718 765.942854,246.391631 775.55828,278.191346 C797.870998,354.732521 796.021878,436.327139 769.887644,511.759021 Z" id="Path_8574" fill="#555555"></path>
                <path d="M609.877102,364.469643 C609.507278,366.441718 603.713367,372.357944 597.919457,376.671859 C580.90755,389.120585 550.458703,400.706528 519.516757,406.25299 C501.888477,409.457612 484.260197,409.950631 478.959385,407.362282 C475.507694,405.636716 475.014595,404.280914 476.247342,399.843745 C478.83611,390.599641 487.218789,380.492755 500.285906,371.002143 C506.942739,366.195209 533.939895,349.802333 546.513913,342.900069 C567.22406,331.560636 583.989418,324.781626 595.330689,323.179315 C598.905655,322.686296 603.220269,322.563042 604.57629,323.179315 C606.795235,324.042098 609.260728,330.574598 610.246926,338.462899 C610.740024,342.653559 610.493475,361.141766 609.877102,364.469643 Z" id="Path_8575" fill="#000000"></path>
                <path d="M319.441941,405.266952 C318.702293,406.746008 315.004052,408.34832 310.812713,408.964593 C306.621374,409.580867 293.800806,409.211103 286.5276,408.34832 C260.393367,404.897188 232.656562,396.885632 212.439514,387.025255 C201.098243,381.478793 192.962113,375.932331 186.921654,369.89285 L183.469962,366.318464 L183.100138,361.634785 C182.483765,353.499974 182.60704,340.681484 183.593237,336.12106 C184.209611,332.300164 185.565632,328.602522 187.414752,325.274645 C188.40095,324.042098 188.40095,324.042098 192.838839,324.042098 C198.262925,324.042098 202.824088,324.904881 210.220569,327.246721 C225.383356,331.9304 247.942623,343.269833 275.432878,359.785964 C298.11542,373.343982 306.621374,379.999736 313.154932,389.120585 C317.592821,394.790302 320.551413,402.801858 319.441941,405.266952 Z" id="Path_8576" fill="#000000"></path>
                <path d="M493.998897,576.837508 C493.998897,577.207272 492.5196,583.123498 490.67048,590.149017 C488.82136,597.174535 487.342064,602.844252 487.342064,603.090761 C485.986042,603.214016 484.753295,603.33727 483.397274,603.214016 L479.452484,603.214016 L474.028398,616.032506 C471.069805,623.058024 468.357762,629.590524 467.987938,630.576561 L467.24829,632.302127 L464.659521,628.111467 L462.070753,623.920807 L462.070753,589.779252 L461.084556,590.025762 C458.988886,590.518781 444.072649,592.490856 437.53909,593.10713 C410.541934,595.818733 383.421503,595.20246 356.547622,591.381564 C352.233008,590.76529 348.534767,590.272271 348.411492,590.395526 C348.288218,590.518781 348.411492,598.407082 348.658042,608.144204 L349.027866,625.646373 L346.932196,628.850995 C345.822724,630.576561 344.713252,632.055618 344.713252,632.178873 C344.343428,632.548637 343.110681,630.576561 340.275363,624.906845 C337.193496,618.990619 334.974552,612.704628 333.371981,606.172129 L332.509058,602.597742 L328.687543,602.844252 L324.866027,603.214016 L323.87983,598.653592 C323.386731,596.188497 322.770358,592.367601 322.523808,590.272271 L322.153984,586.328121 L318.948842,583.493262 C317.099722,581.890951 315.250602,580.28864 314.880778,580.04213 C314.264404,579.549112 314.017855,578.686329 314.017855,577.9468 L314.017855,576.467744 L329.427191,576.590998 L344.836527,576.714253 L345.329625,578.316564 L345.822724,579.918876 L351.123536,580.165385 C354.082128,580.28864 363.451004,580.535149 371.833683,580.781659 L387.243019,581.151423 L391.187809,574.988687 L395.255873,568.825952 L400.43341,568.825952 L400.310135,556.007462 L400.186861,543.188972 L393.406753,540.230859 C371.587133,530.616992 358.766566,519.647323 353.958853,506.335814 C352.972656,503.62421 352.972656,502.638173 352.726106,490.312702 C352.602832,478.110485 352.602832,477.001193 353.465755,474.289589 C355.1916,468.126854 359.999313,463.31992 366.163047,461.717609 C368.258717,461.101335 373.806078,461.101335 402.898904,461.101335 L437.169266,461.22459 L440.990782,463.073411 C445.551945,465.291996 447.647615,466.894307 450.236383,470.345439 C453.194976,474.289589 454.057898,477.370957 454.057898,484.889494 C454.057898,495.612654 453.31825,504.856757 452.208778,508.554399 C450.606207,513.607842 448.140713,518.414775 445.058846,522.72869 C438.895112,530.616992 427.677116,538.505293 417.445317,542.07968 L414.486724,543.188972 L414.609999,556.130717 L414.733274,569.072461 L417.445317,569.318971 L420.15736,569.56548 L423.8556,575.111942 L427.430566,580.658404 L443.949374,580.658404 C453.071701,580.658404 461.084556,580.781659 461.824204,580.904913 C463.056951,581.151423 463.3035,581.028168 464.536247,578.932838 L466.015543,576.714253 L480.192132,576.714253 C490.793755,576.221234 493.998897,576.467744 493.998897,576.837508 Z" id="Path_8577" fill="#000000"></path>
                <path d="M428.909862,612.21161 C426.567643,613.567411 424.965072,614.183685 424.595248,613.937176 C424.225424,613.813921 422.499579,612.334864 420.650458,610.979062 L417.322042,608.267459 L413.870351,611.9651 C406.350595,620.099911 406.104046,620.469675 403.885101,620.59293 C400.43341,620.962694 399.693762,620.34642 395.502423,614.06043 C393.283478,610.855808 391.557633,608.144204 391.557633,608.144204 C391.557633,608.144204 389.955062,607.897695 388.105941,607.77444 L384.65425,607.404676 L383.051679,610.732553 L381.449108,614.06043 L378.613791,613.197647 C376.394846,612.458119 374.175902,611.595336 372.080232,610.609298 L368.381992,608.760478 L368.381992,601.734959 L401.173058,601.858214 L433.964125,601.981469 L434.087399,605.309346 C434.210674,609.253497 434.333949,609.130242 428.909862,612.21161 Z" id="Path_8578" fill="#000000"></path>
            </g>
            <path d="M737.096578,488.011516 C736.973303,487.518497 736.973303,486.655714 736.850028,485.299912 C707.264104,482.09529 622.820944,480.123215 544.418243,544.831937 C544.418243,544.831937 519.146933,428.97251 400.803234,428.97251 C282.459535,428.97251 238.573747,544.831937 238.573747,544.831937 C172.251966,473.46746 83.494192,478.644158 51.4427736,483.327837 C51.4427736,484.067365 51.3194989,484.930148 51.3194989,485.669676 C50.3333014,503.541609 50.8264002,512.046184 53.7849926,523.262363 C63.0305941,558.389955 91.5070466,597.091934 136.132483,635.054385 C209.234372,697.174758 308.347219,742.039473 383.421503,747.216171 C461.700929,752.516123 577.20931,706.788626 654.132714,639.984573 C666.213633,629.261413 677.554904,617.92198 688.156527,605.843018 C695.799558,596.968679 707.140829,581.685095 706.277906,581.685095 C706.031357,581.685095 706.277906,581.438586 706.771005,581.192077 C707.140829,580.945567 707.510653,580.575803 707.264104,580.329294 C707.140829,580.206039 707.387378,579.836275 707.757202,579.71302 C708.127026,579.589765 708.373576,579.343256 708.250301,579.096746 C708.127026,578.850237 708.250301,578.603728 708.7434,578.480473 C709.113224,578.357218 709.236499,577.987454 709.113224,577.740945 C708.989949,577.494435 709.113224,577.247926 709.359773,577.247926 C709.606323,577.247926 709.852872,576.878162 709.852872,576.631652 C709.852872,576.385143 710.099421,576.015379 710.345971,576.015379 C710.59252,576.015379 710.83907,575.768869 710.83907,575.52236 C711.208894,574.536322 711.825267,573.550285 712.44164,572.687502 C714.290761,569.852643 721.687242,556.664389 722.673439,554.445805 C729.700097,538.545947 734.137985,524.371655 736.233655,510.197364 C736.973303,503.418355 737.589676,490.969629 737.096578,488.011516 Z M428.909862,638.382262 C426.567643,639.738064 424.965072,640.354337 424.595248,640.107828 C424.225424,639.984573 422.499579,638.505517 420.650458,637.149715 L417.322042,634.438111 L413.870351,638.135752 C406.350595,646.270563 406.104046,646.640327 403.885101,646.763582 C400.43341,647.133346 399.693762,646.517073 395.502423,640.231082 C393.283478,637.02646 391.557633,634.314856 391.557633,634.314856 C391.557633,634.314856 389.955062,634.068347 388.105941,633.945092 L384.65425,633.575328 L383.051679,636.903205 L381.449108,640.231082 L378.613791,639.3683 C376.394846,638.628771 374.175902,637.765988 372.080232,636.779951 L368.381992,634.93113 L368.381992,627.905612 L401.173058,628.028866 L433.964125,628.152121 L434.087399,631.479998 C434.210674,635.424149 434.333949,635.300894 428.909862,638.382262 Z M490.547206,616.196414 C488.698085,623.221933 487.218789,628.891649 487.218789,629.138159 C485.862767,629.261413 484.630021,629.384668 483.273999,629.261413 L479.329209,629.261413 L474.028398,642.203158 C471.069805,649.228676 468.357762,655.761176 467.987938,656.747214 L467.24829,658.47278 L464.659521,654.282119 L462.070753,650.091459 L462.070753,615.949905 L461.084556,616.196414 C458.988886,616.689433 444.072649,618.661508 437.53909,619.277782 C410.541934,621.989385 383.421503,621.373112 356.547622,617.552216 C352.233008,616.935942 348.534767,616.442924 348.411492,616.566178 C348.288218,616.689433 348.411492,624.577734 348.658042,634.314856 L349.027866,651.817025 L346.932196,655.021648 C345.822724,656.747214 344.713252,658.22627 344.713252,658.349525 C344.343428,658.719289 343.110681,656.747214 340.275363,651.077497 C337.193496,645.161271 334.974552,638.875281 333.371981,632.342781 L332.509058,628.768394 L328.687543,629.014904 L324.866027,629.384668 L323.87983,624.824244 C323.386731,622.35915 322.770358,618.538254 322.523808,616.442924 L322.153984,612.498773 L318.948842,609.663914 C317.099722,608.061603 315.250602,606.459292 314.880778,606.212783 C314.264404,605.719764 314.017855,604.856981 314.017855,604.117453 L314.017855,602.638396 L329.427191,602.761651 L344.836527,602.884905 L345.329625,604.487217 L345.822724,606.089528 L351.123536,606.336037 C354.082128,606.459292 363.451004,606.705801 371.833683,606.952311 L387.243019,607.322075 L391.187809,601.15934 L395.255873,594.996604 L400.43341,594.996604 L400.310135,582.178114 L400.186861,569.359624 L393.406753,566.401511 C371.587133,556.787644 358.766566,545.817975 353.958853,532.506466 C352.972656,529.794863 352.972656,528.808825 352.726106,516.483354 C352.602832,504.281138 352.602832,503.171845 353.465755,500.460242 C355.1916,494.297506 359.999313,489.490572 366.163047,487.888261 C368.258717,487.271988 373.806078,487.271988 402.898904,487.271988 L437.169266,487.395242 L440.990782,489.244063 C445.551945,491.462648 447.647615,493.064959 450.236383,496.516091 C453.194976,500.460242 454.057898,503.541609 454.057898,511.060147 C454.057898,521.783306 453.31825,531.02741 452.208778,534.725051 C450.606207,539.778494 448.140713,544.585428 445.058846,548.899343 C438.895112,556.787644 427.677116,564.675945 417.445317,568.250332 L414.486724,569.359624 L414.609999,582.301369 L414.733274,595.243113 L417.445317,595.489623 L420.15736,595.736132 L423.8556,601.282594 L427.430566,606.829056 L443.949374,606.829056 C453.071701,606.829056 461.084556,606.952311 461.824204,607.075566 C463.056951,607.322075 463.3035,607.19882 464.536247,605.10349 L466.015543,602.884905 L480.192132,602.884905 C491.163579,602.884905 494.368721,603.00816 494.368721,603.377924 C493.998897,603.25467 492.396326,609.29415 490.547206,616.196414 Z" id="Path_8579" fill="#FFFFFF" fill-rule="nonzero"></path>
            <path d="M51.1962242,483.327837 C43.429919,484.437129 38.8687556,485.669676 38.8687556,485.669676" id="Path_8580"></path>
            <path d="M747.821475,486.902224 C747.821475,486.902224 743.876685,486.039441 736.850028,485.299912" id="Path_8581"></path>
            <path d="M736.11038,475.439536 C735.863831,469.893074 735.370732,462.128027 735.000908,458.307131 C729.700097,402.349493 715.400233,356.621995 688.279802,308.182894 C687.17033,306.334074 686.184132,304.485253 685.567759,303.006197 C685.32121,302.636433 685.197935,302.266668 685.07466,302.020159 L685.07466,302.020159 C688.896175,290.557471 704.552061,242.611389 717.002804,187.763043 C733.891436,113.317198 744.616334,26.2993733 711.825267,0.169374817 C711.825267,0.169374817 655.118911,-4.02128531 579.181705,70.4245594 C558.594832,91.0080959 539.733805,113.317198 522.968448,137.105357 L517.667636,135.379791 C487.095514,125.39616 455.41392,119.233424 423.485776,117.138094 C413.870351,116.398566 377.997417,116.398566 366.286322,117.138094 C330.906487,119.479934 303.786056,124.779886 272.967385,135.503046 C271.734638,135.996065 270.625165,136.365829 269.515693,136.735593 C252.133963,113.070689 232.779837,90.8848412 211.453316,70.5478141 C132.434242,-4.26779473 73.6322171,0.0461201074 73.6322171,0.0461201074 C38.8687556,27.0389015 50.7031255,118.000877 68.7012297,194.911816 C80.5355995,245.816011 95.0820125,290.557471 100.506099,306.703838 C100.136275,307.566621 99.6431759,308.552659 99.1500771,309.415442 C70.4270753,367.591665 54.8944648,423.672557 51.1962242,483.327837 C83.3709173,478.644158 172.005417,473.344206 238.450472,544.831937 C238.450472,544.831937 282.336261,428.97251 400.679959,428.97251 C519.023658,428.97251 544.294969,544.831937 544.294969,544.831937 C622.697669,480.123215 707.140829,482.218545 736.726754,485.299912 C736.603479,482.834818 736.35693,479.137177 736.11038,475.439536 Z M123.805014,260.236812 C123.805014,260.236812 77.7002817,144.993659 89.5346516,79.1756438 C89.5346516,79.1756438 89.5346516,79.1756438 89.5346516,79.1756438 C91.5070466,68.0827199 95.2052872,58.3455978 100.999197,50.9503152 C100.999197,50.9503152 153.267664,56.127013 237.58755,149.800592 C237.58755,149.800592 221.56184,157.565639 200.112045,174.08177 C200.112045,174.08177 199.98877,174.205025 199.865496,174.205025 C176.56658,192.076958 146.734106,220.425541 123.805014,260.236812 L123.805014,260.236812 Z M319.441941,431.437604 C318.702293,432.916661 315.004052,434.518972 310.812713,435.135245 C306.621374,435.751519 293.800806,435.381755 286.5276,434.518972 C260.393367,431.06784 232.656562,423.056284 212.439514,413.195907 C201.098243,407.649445 192.962113,402.102983 186.921654,396.063503 L183.469962,392.489116 L183.100138,387.805437 C182.483765,379.670626 182.60704,366.852136 183.593237,362.291712 C184.209611,358.470816 185.565632,354.773175 187.414752,351.445298 C188.40095,350.21275 188.40095,350.21275 192.838839,350.21275 C198.262925,350.21275 202.824088,351.075533 210.220569,353.417373 C225.383356,358.101052 247.942623,369.440485 275.432878,385.956616 C298.11542,399.514634 306.621374,406.170389 313.154932,415.291237 C317.592821,420.960954 320.551413,428.97251 319.441941,431.437604 Z M609.877102,390.640295 C609.507278,392.612371 603.713367,398.528597 597.919457,402.842512 C580.90755,415.291237 550.458703,426.87718 519.516757,432.423642 C501.888477,435.628264 484.260197,436.121283 478.959385,433.532934 C475.507694,431.807368 475.014595,430.451567 476.247342,426.014397 C478.83611,416.770294 487.218789,406.663408 500.285906,397.172795 C506.942739,392.365861 533.939895,375.972985 546.513913,369.070721 C567.22406,357.731288 583.989418,350.952279 595.330689,349.349968 C598.905655,348.856949 603.220269,348.733694 604.57629,349.349968 C606.795235,350.21275 609.260728,356.74525 610.246926,364.633552 C610.740024,368.824212 610.493475,387.312418 609.877102,390.640295 Z M589.413504,174.08177 L589.166954,173.958516 C568.456807,157.442384 552.924197,149.677338 552.924197,149.677338 C634.408764,56.0037583 684.828111,50.8270605 684.828111,50.8270605 C690.375472,58.3455978 693.950438,67.9594652 695.922833,79.0523891 C695.922833,79.0523891 695.922833,79.0523891 695.922833,79.0523891 C707.387378,144.870404 662.885217,260.236812 662.885217,260.236812 C644.270739,227.081295 619.245978,197.746675 589.413504,174.08177 L589.413504,174.08177 Z" id="Path_8582" fill="#B0B0B0" fill-rule="nonzero"></path>
            <path d="M522.845173,137.105357 C522.598624,137.351867 522.475349,137.721631 522.2288,137.96814" id="Path_8583"></path>
            <path d="M684.951385,301.896904 C684.335012,303.62247 684.088463,304.485253 684.088463,304.485253" id="Path_8584"></path>
            <g id="Group_934" transform="translate(552.9242, 50.8271)" fill-rule="nonzero">
                <g id="Group_933" transform="translate(-0, 0)">
                    <g id="Group_932" fill="#8A8A8A">
                        <path d="M143.121911,28.2253285 C133.506485,26.9927814 88.0181259,26.746272 36.4893071,123.25471 L36.2427577,123.131455 C15.5326104,106.615324 0,98.8502772 0,98.8502772 C81.4845675,5.17669781 131.903914,0 131.903914,0 C137.57455,7.51853729 141.149516,17.1324047 143.121911,28.2253285 Z" id="Path_8585"></path>
                    </g>
                    <path d="M110.084295,209.409752 C91.3465424,176.13098 66.4450558,146.919614 36.4893071,123.25471 C88.0181259,26.746272 133.38321,26.9927814 143.121911,28.2253285 C143.121911,28.2253285 143.121911,28.2253285 143.121911,28.2253285 C154.586456,94.1665982 110.084295,209.409752 110.084295,209.409752 Z" id="Path_8586" fill="#555555"></path>
                    <path d="M144.971031,28.5950927 C144.354657,28.471838 143.738284,28.3485832 143.121911,28.2253285 L144.971031,28.5950927 Z" id="Path_8587" fill="#FF8300"></path>
                </g>
            </g>
            <path d="M273.213934,141.912291 C271.981187,140.186725 270.625165,138.461159 269.392419,136.735593" id="Path_8588"></path>
            <path d="M100.506099,306.703838 C101.86212,310.894498 102.725043,313.113083 102.725043,313.113083" id="Path_8589"></path>
            <g id="Group_937" transform="translate(87.5623, 50.8271)" fill-rule="nonzero">
                <g id="Group_936">
                    <g id="Group_935" transform="translate(1.8491, 0)" fill="#8A8A8A">
                        <path d="M148.176173,98.8502772 C148.176173,98.8502772 132.150464,106.615324 110.700668,123.131455 C110.700668,123.131455 110.577393,123.25471 110.454119,123.25471 C57.0761797,26.6230173 10.1085243,26.9927814 0,28.2253285 C1.97239498,17.1324047 5.67063556,7.39528258 11.4645458,0 C11.5878205,0 63.8562874,5.17669781 148.176173,98.8502772 Z" id="Path_8590"></path>
                    </g>
                    <path d="M112.426514,123.25471 C89.0043234,141.249897 59.1718493,169.475226 36.2427577,209.409752 C36.2427577,209.409752 -9.86197489,94.1665982 1.97239498,28.2253285 C1.97239498,28.2253285 1.97239498,28.2253285 1.97239498,28.2253285 C11.9576446,26.9927814 59.0485746,26.746272 112.426514,123.25471 Z" id="Path_8591" fill="#555555"></path>
                    <path d="M1.97239498,28.2253285 C1.35602155,28.3485832 0.616373431,28.471838 0,28.5950927 L1.97239498,28.2253285 Z" id="Path_8592" fill="#FF8300"></path>
                </g>
            </g>
            <path d="M538.254509,324.206007 C538.254509,324.206007 498.806609,326.671101 503.737597,295.857423 C508.668584,265.043746 539.487256,261.346105 548.116484,262.578652 C556.745712,263.811199 591.262624,276.13667 585.09889,302.020159 C578.935155,327.903648 570.305927,322.97346 565.37494,324.206007 C560.443953,325.438554 538.254509,324.206007 538.254509,324.206007 Z" id="Path_8593" fill="#FFFFFF" fill-rule="nonzero"></path>
            <path d="M247.32625,324.206007 C247.32625,324.206007 207.87835,326.671101 212.809338,295.857423 C217.740325,265.043746 248.558997,261.346105 257.188225,262.578652 C265.817453,263.811199 300.334365,276.13667 294.170631,302.020159 C288.006896,327.903648 279.377668,322.97346 274.446681,324.206007 C269.515693,325.438554 247.32625,324.206007 247.32625,324.206007 Z" id="Path_8594" fill="#FFFFFF" fill-rule="nonzero"></path>
        </g>
    </g>
</svg>
