<svg xmlns="http://www.w3.org/2000/svg" width="48" height="48" viewBox="0 0 48 48" fill="none">
<path d="M0 24C0 10.7452 10.7452 0 24 0C37.2548 0 48 10.7452 48 24C48 37.2548 37.2548 48 24 48C10.7452 48 0 37.2548 0 24Z" fill="#0C0A1F"/>
<path d="M13.1358 32.1085C14.1701 35.9683 18.0331 39.4624 26.0255 37.3208C33.6515 35.2774 38.4309 29.004 37.1916 24.3789C36.7636 22.7817 35.4746 21.7006 33.4872 21.8765L15.7165 23.3572C14.5973 23.443 14.0842 23.2596 13.7881 22.5543C13.501 21.8823 13.6646 21.1609 15.0163 20.4777L28.5401 13.5374C29.5767 13.01 30.2671 12.7893 30.898 13.0126C31.2934 13.1563 31.5538 13.7284 31.3147 14.4344L30.4378 17.0232C29.3617 20.2002 31.6653 20.9382 32.9641 20.5902C34.9289 20.0637 35.3911 18.1923 34.7581 15.8299C33.1533 9.84054 26.799 8.90411 21.0378 10.4478C15.1767 12.0183 10.096 16.7676 11.6474 22.5573C12.0129 23.9216 13.2687 25.0116 14.7232 24.9785L16.9438 24.9731C17.4004 24.9625 17.236 25 18.117 24.9271C18.998 24.8541 21.3509 24.5646 21.3509 24.5646L32.8962 23.258L33.1937 23.2148C33.8689 23.0997 34.3792 23.275 34.8106 24.0183C35.4563 25.1304 34.4712 25.9691 33.292 26.9731C33.2605 27 33.2288 27.027 33.197 27.0541L23.0482 35.8005C21.3087 37.3008 20.0867 36.7367 19.6588 35.1395L18.1431 29.4829C17.7687 28.0854 16.4041 26.9889 14.8056 27.4172C12.8075 27.9526 12.6455 30.2784 13.1358 32.1085Z" fill="#FBFAFF"/>
</svg>
