<?xml version="1.0" encoding="UTF-8"?>
<svg viewBox="0 0 1024 1024" version="1.1" xmlns="http://www.w3.org/2000/svg" xmlns:xlink="http://www.w3.org/1999/xlink">
    <title>snowswap-snow-logo</title>
    <defs>
        <linearGradient x1="103.469583%" y1="44.3075%" x2="-4.70333333%" y2="55.8241667%" id="linearGradient-1">
            <stop stop-color="#1ADBC5" offset="0%"></stop>
            <stop stop-color="#04D3DD" offset="100%"></stop>
        </linearGradient>
    </defs>
    <g id="snowswap-snow-logo" stroke="none" stroke-width="1" fill="none" fill-rule="evenodd">
        <g transform="translate(112, 112)">
            <path d="M400,800 C620,800 800,620 800,400 C800,180 620,0 400,0 C180,0 0,180 0,400 C0,620 180,800 400,800 Z" id="路径" fill="url(#linearGradient-1)"></path>
            <path d="M640,536.666667 L593.333333,510 L630,500 C640,496.666667 646.666667,486.666667 643.333333,476.666667 C640,466.666667 630,460 623.333333,463.333333 L583.333333,473.333333 C563.333333,480 543.333333,476.666667 526.666667,466.666667 C510,456.666667 500,440 500,420 L500,413.333333 C500,393.333333 510,376.666667 526.666667,366.666667 C543.333333,356.666667 563.333333,353.333333 583.333333,360 C630,373.333333 626.666667,373.333333 630,373.333333 C636.666667,373.333333 643.333333,366.666667 646.666667,360 C650,350 643.333333,340 633.333333,336.666667 L596.666667,326.666667 L640,300 C650,296.666667 650,283.333333 646.666667,276.666667 C643.333333,266.666667 630,266.666667 623.333333,270 L576.666667,296.666667 L586.666667,260 C590,250 583.333333,240 573.333333,236.666667 C563.333333,233.333333 553.333333,240 553.333333,250 L543.333333,293.333333 C540,313.333333 526.666667,326.666667 510,336.666667 C493.333333,346.666667 473.333333,346.666667 456.666667,336.666667 L453.333333,333.333333 C436.666667,323.333333 426.666667,306.666667 426.666667,286.666667 C426.666667,266.666667 433.333333,246.666667 450,233.333333 L480,203.333333 C486.666667,196.666667 486.666667,186.666667 480,176.666667 C473.333333,170 463.333333,170 456.666667,176.666667 L430,203.333333 L430,150 C430,140 423.333333,133.333333 413.333333,133.333333 C403.333333,133.333333 396.666667,140 396.666667,150 L396.666667,206.666667 L370,180 C363.333333,173.333333 353.333333,173.333333 346.666667,180 C340,186.666667 340,196.666667 346.666667,206.666667 L363.333333,233.333333 C376.666667,246.666667 386.666667,266.666667 386.666667,286.666667 C386.666667,306.666667 376.666667,323.333333 360,333.333333 L356.666667,336.666667 C340,346.666667 320,346.666667 303.333333,336.666667 C286.666667,326.666667 273.333333,310 270,293.333333 L253.333333,250 C250,240 240,233.333333 230,236.666667 C223.333333,240 216.666667,250 220,260 L230,296.666667 L183.333333,270 C173.333333,263.333333 163.333333,266.666667 156.666667,276.666667 C153.333333,283.333333 156.666667,296.666667 163.333333,300 L210,326.666667 L173.333333,336.666667 C163.333333,340 156.666667,350 160,360 C163.333333,366.666667 170,373.333333 176.666667,373.333333 C180,373.333333 176.666667,373.333333 223.333333,360 C243.333333,353.333333 263.333333,356.666667 280,366.666667 C296.666667,376.666667 306.666667,393.333333 306.666667,413.333333 L306.666667,420 C306.666667,440 296.666667,456.666667 280,466.666667 C263.333333,476.666667 243.333333,480 223.333333,473.333333 L183.333333,466.666667 C173.333333,463.333333 163.333333,470 163.333333,480 C160,490 166.666667,500 176.666667,503.333333 L213.333333,513.333333 L166.666667,540 C150,550 156.666667,573.333333 176.666667,573.333333 C183.333333,573.333333 180,573.333333 233.333333,543.333333 L223.333333,580 C220,590 226.666667,600 236.666667,603.333333 C246.666667,606.666667 256.666667,600 256.666667,590 L266.666667,546.666667 C270,526.666667 283.333333,513.333333 300,503.333333 C316.666667,493.333333 336.666667,493.333333 353.333333,503.333333 L356.666667,506.666667 C373.333333,516.666667 383.333333,533.333333 383.333333,553.333333 C383.333333,573.333333 376.666667,593.333333 360,606.666667 L333.333333,633.333333 C326.666667,640 326.666667,650 333.333333,660 C340,666.666667 350,666.666667 356.666667,660 L383.333333,633.333333 L383.333333,690 C383.333333,700 390,706.666667 400,706.666667 C410,706.666667 416.666667,700 416.666667,690 L416.666667,633.333333 L443.333333,660 C446.666667,663.333333 450,666.666667 456.666667,666.666667 C473.333333,666.666667 480,646.666667 470,636.666667 L440,606.666667 C426.666667,593.333333 416.666667,573.333333 416.666667,553.333333 C416.666667,533.333333 426.666667,516.666667 443.333333,506.666667 L446.666667,503.333333 C463.333333,493.333333 483.333333,493.333333 500,503.333333 C516.666667,513.333333 530,530 533.333333,546.666667 L543.333333,590 C546.666667,596.666667 553.333333,603.333333 560,603.333333 C570,603.333333 580,593.333333 576.666667,580 L566.666667,543.333333 L613.333333,570 C623.333333,573.333333 633.333333,573.333333 636.666667,563.333333 C650,553.333333 650,543.333333 640,536.666667 Z M460,420 C460,440 450,460 430,470 C410,480 390,480 370,470 C353.333333,460 340,440 340,420 L340,420 C340,400 350,380 370,370 C390,360 410,360 430,370 C450,376.666667 460,396.666667 460,420 L460,420 Z" id="形状" fill="#FFFFFF" fill-rule="nonzero"></path>
            <path d="M400,800 C620,800 800,620 800,400 C800,180 620,0 400,0 C180,0 0,180 0,400 C0,620 180,800 400,800 Z" id="路径" fill="#555555"></path>
            <path d="M640,536.666667 L593.333333,510 L630,500 C640,496.666667 646.666667,486.666667 643.333333,476.666667 C640,466.666667 630,460 623.333333,463.333333 L583.333333,473.333333 C563.333333,480 543.333333,476.666667 526.666667,466.666667 C510,456.666667 500,440 500,420 L500,413.333333 C500,393.333333 510,376.666667 526.666667,366.666667 C543.333333,356.666667 563.333333,353.333333 583.333333,360 C630,373.333333 626.666667,373.333333 630,373.333333 C636.666667,373.333333 643.333333,366.666667 646.666667,360 C650,350 643.333333,340 633.333333,336.666667 L596.666667,326.666667 L640,300 C650,296.666667 650,283.333333 646.666667,276.666667 C643.333333,266.666667 630,266.666667 623.333333,270 L576.666667,296.666667 L586.666667,260 C590,250 583.333333,240 573.333333,236.666667 C563.333333,233.333333 553.333333,240 553.333333,250 L543.333333,293.333333 C540,313.333333 526.666667,326.666667 510,336.666667 C493.333333,346.666667 473.333333,346.666667 456.666667,336.666667 L453.333333,333.333333 C436.666667,323.333333 426.666667,306.666667 426.666667,286.666667 C426.666667,266.666667 433.333333,246.666667 450,233.333333 L480,203.333333 C486.666667,196.666667 486.666667,186.666667 480,176.666667 C473.333333,170 463.333333,170 456.666667,176.666667 L430,203.333333 L430,150 C430,140 423.333333,133.333333 413.333333,133.333333 C403.333333,133.333333 396.666667,140 396.666667,150 L396.666667,206.666667 L370,180 C363.333333,173.333333 353.333333,173.333333 346.666667,180 C340,186.666667 340,196.666667 346.666667,206.666667 L363.333333,233.333333 C376.666667,246.666667 386.666667,266.666667 386.666667,286.666667 C386.666667,306.666667 376.666667,323.333333 360,333.333333 L356.666667,336.666667 C340,346.666667 320,346.666667 303.333333,336.666667 C286.666667,326.666667 273.333333,310 270,293.333333 L253.333333,250 C250,240 240,233.333333 230,236.666667 C223.333333,240 216.666667,250 220,260 L230,296.666667 L183.333333,270 C173.333333,263.333333 163.333333,266.666667 156.666667,276.666667 C153.333333,283.333333 156.666667,296.666667 163.333333,300 L210,326.666667 L173.333333,336.666667 C163.333333,340 156.666667,350 160,360 C163.333333,366.666667 170,373.333333 176.666667,373.333333 C180,373.333333 176.666667,373.333333 223.333333,360 C243.333333,353.333333 263.333333,356.666667 280,366.666667 C296.666667,376.666667 306.666667,393.333333 306.666667,413.333333 L306.666667,420 C306.666667,440 296.666667,456.666667 280,466.666667 C263.333333,476.666667 243.333333,480 223.333333,473.333333 L183.333333,466.666667 C173.333333,463.333333 163.333333,470 163.333333,480 C160,490 166.666667,500 176.666667,503.333333 L213.333333,513.333333 L166.666667,540 C150,550 156.666667,573.333333 176.666667,573.333333 C183.333333,573.333333 180,573.333333 233.333333,543.333333 L223.333333,580 C220,590 226.666667,600 236.666667,603.333333 C246.666667,606.666667 256.666667,600 256.666667,590 L266.666667,546.666667 C270,526.666667 283.333333,513.333333 300,503.333333 C316.666667,493.333333 336.666667,493.333333 353.333333,503.333333 L356.666667,506.666667 C373.333333,516.666667 383.333333,533.333333 383.333333,553.333333 C383.333333,573.333333 376.666667,593.333333 360,606.666667 L333.333333,633.333333 C326.666667,640 326.666667,650 333.333333,660 C340,666.666667 350,666.666667 356.666667,660 L383.333333,633.333333 L383.333333,690 C383.333333,700 390,706.666667 400,706.666667 C410,706.666667 416.666667,700 416.666667,690 L416.666667,633.333333 L443.333333,660 C446.666667,663.333333 450,666.666667 456.666667,666.666667 C473.333333,666.666667 480,646.666667 470,636.666667 L440,606.666667 C426.666667,593.333333 416.666667,573.333333 416.666667,553.333333 C416.666667,533.333333 426.666667,516.666667 443.333333,506.666667 L446.666667,503.333333 C463.333333,493.333333 483.333333,493.333333 500,503.333333 C516.666667,513.333333 530,530 533.333333,546.666667 L543.333333,590 C546.666667,596.666667 553.333333,603.333333 560,603.333333 C570,603.333333 580,593.333333 576.666667,580 L566.666667,543.333333 L613.333333,570 C623.333333,573.333333 633.333333,573.333333 636.666667,563.333333 C650,553.333333 650,543.333333 640,536.666667 Z M460,420 C460,440 450,460 430,470 C410,480 390,480 370,470 C353.333333,460 340,440 340,420 L340,420 C340,400 350,380 370,370 C390,360 410,360 430,370 C450,376.666667 460,396.666667 460,420 L460,420 Z" id="形状" fill="#FFFFFF" fill-rule="nonzero"></path>
        </g>
    </g>
</svg>
