<?xml version="1.0" encoding="UTF-8"?>
<svg viewBox="0 0 1024 1024"
  xmlns="http://www.w3.org/2000/svg">
    <defs>
        <linearGradient x1="8.4411619%" y1="89.7662611%" x2="88.1121112%" y2="9.44102356%" id="ant-web3-icon-solana-colorful-linear">
            <stop stop-color="#9945FF" offset="8%"></stop>
            <stop stop-color="#8752F3" offset="30%"></stop>
            <stop stop-color="#5497D5" offset="50%"></stop>
            <stop stop-color="#43B4CA" offset="60%"></stop>
            <stop stop-color="#28E0B9" offset="72%"></stop>
            <stop stop-color="#19FB9B" offset="97%"></stop>
        </linearGradient>
    </defs>
    <g stroke="none" stroke-width="1" fill="none" fill-rule="evenodd">
        <g transform="translate(0, 66)" fill="url(#ant-web3-icon-solana-colorful-linear)" fill-rule="nonzero">
            <path d="M1018.72715,703.433731 L849.684138,880.046222 C846.009907,883.882671 841.563115,886.941488 836.622572,889.032069 C831.682029,891.122649 826.352164,892.200383 820.966536,892.197348 L19.6245902,892.197348 C15.8009163,892.197348 12.0605817,891.108455 8.86318976,889.06654 C5.66574712,887.023611 3.15047046,884.115859 1.62639463,880.699148 C0.102321837,877.283452 -0.364159487,873.507835 0.28426825,869.836646 C0.932694973,866.165456 2.66778156,862.758885 5.27635367,860.035655 L174.445871,683.423164 C178.110977,679.596854 182.542562,676.544119 187.466883,674.454553 C192.392218,672.363972 197.704848,671.281169 203.077295,671.272044 L1004.37494,671.272044 C1008.1982,671.272044 1011.93834,672.360931 1015.13808,674.402846 C1018.33174,676.445775 1020.84612,679.354541 1022.37704,682.770237 C1023.89784,686.186948 1024.36421,689.961551 1023.71534,693.63274 C1023.06647,697.303929 1021.33277,700.710501 1018.72715,703.433731 Z M849.684138,347.786635 C846.009907,343.950186 841.563115,340.891369 836.622572,338.800788 C831.682029,336.711221 826.352164,335.633487 820.966536,335.636523 L19.6245902,335.636523 C15.8009163,335.636523 12.0605817,336.724401 8.86318976,338.767331 C5.66574712,340.81026 3.15047046,343.718012 1.62639463,347.133708 C0.102321837,350.550419 -0.364159487,354.326036 0.28426825,357.997225 C0.932694973,361.6674 2.66778156,365.073972 5.27635367,367.798215 L174.445871,544.410707 C178.110977,548.237017 182.542562,551.288737 187.466883,553.379318 C192.392218,555.468885 197.704848,556.552702 203.077295,556.560813 L1004.37494,556.560813 C1008.1982,556.560813 1011.93834,555.47294 1015.13808,553.430011 C1018.33174,551.387082 1020.84612,548.47933 1022.37704,545.063633 C1023.89784,541.646923 1024.36421,537.871306 1023.71534,534.200117 C1023.06647,530.529941 1021.33277,527.12337 1018.72715,524.399126 L849.684138,347.786635 Z M19.6245902,220.9253 L820.966536,220.9253 C826.352164,220.9253 831.682029,219.850605 836.622572,217.760025 C841.563115,215.669444 846.009907,212.610627 849.684138,208.774178 L1018.72715,32.1615851 C1021.33277,29.4381527 1023.06647,26.0316824 1023.71534,22.3606959 C1024.36421,18.6897094 1023.89784,14.9141938 1022.37704,11.4979905 C1020.84612,8.08178712 1018.33174,5.17369017 1015.13808,3.13103477 C1011.93834,1.08836923 1008.1982,0 1004.37494,0 L203.077295,0 C197.704848,0.00890572123 192.392218,1.09191774 187.466883,3.18198126 C182.542562,5.27205492 178.110977,8.32467771 174.445871,12.1509167 L5.31995982,188.763611 C2.71391222,191.483799 0.979590081,194.887329 0.329692247,198.553449 C-0.320206602,202.220583 0.142573118,205.993158 1.66127143,209.407841 C3.1799738,212.822523 5.68857926,215.730276 8.87943181,217.776246 C12.0703148,219.822217 15.8046676,220.916173 19.6245902,220.9253 Z"></path>
        </g>
    </g>
</svg>
