<?xml version="1.0" encoding="UTF-8"?>
<svg viewBox="0 0 1024 1024"
  xmlns="http://www.w3.org/2000/svg">
    <g stroke="none" stroke-width="1" fill="none" fill-rule="evenodd">
        <g transform="translate(128, 177)" fill="currentColor" fill-rule="nonzero">
            <path d="M764.04536,527.575298 L637.263104,660.034667 C634.507431,662.912003 631.172336,665.206116 627.466929,666.774052 C623.761522,668.341987 619.764123,669.150287 615.724902,669.148011 L14.7184427,669.148011 C11.8506872,669.148011 9.04543628,668.331341 6.64739232,666.799905 C4.24931034,665.267708 2.36285284,663.086894 1.21979597,660.524361 C0.076741378,657.962589 -0.273119615,655.130876 0.213201187,652.377484 C0.699521229,649.624092 2.00083617,647.069164 3.95726526,645.026741 L130.834404,512.567373 C133.583233,509.69764 136.906922,507.40809 140.600162,505.840915 C144.294164,504.272979 148.278636,503.460877 152.307971,503.454033 L753.281202,503.454033 C756.148653,503.454033 758.953752,504.270698 761.35356,505.802134 C763.748806,507.334331 765.634586,509.515906 766.782783,512.077678 C767.923377,514.640211 768.273159,517.471163 767.786505,520.224555 C767.299852,522.977947 765.999576,525.532876 764.04536,527.575298 Z M637.263104,260.839976 C634.507431,257.96264 631.172336,255.668526 627.466929,254.100591 C623.761522,252.533416 619.764123,251.725116 615.724902,251.727392 L14.7184427,251.727392 C11.8506872,251.727392 9.04543628,252.543301 6.64739232,254.075498 C4.24931034,255.607695 2.36285284,257.788509 1.21979597,260.350281 C0.076741378,262.912814 -0.273119615,265.744527 0.213201187,268.497919 C0.699521229,271.25055 2.00083617,273.805479 3.95726526,275.848662 L130.834404,408.30803 C133.583233,411.177763 136.906922,413.466553 140.600162,415.034488 C144.294164,416.601664 148.278636,417.414526 152.307971,417.420609 L753.281202,417.420609 C756.148653,417.420609 758.953752,416.604705 761.35356,415.072508 C763.748806,413.540311 765.634586,411.359497 766.782783,408.797725 C767.923377,406.235192 768.273159,403.40348 767.786505,400.650088 C767.299852,397.897456 765.999576,395.342527 764.04536,393.299345 L637.263104,260.839976 Z M14.7184427,165.693975 L615.724902,165.693975 C619.764123,165.693975 623.761522,164.887954 627.466929,163.320018 C631.172336,161.752083 634.507431,159.45797 637.263104,156.580633 L764.04536,24.1211888 C765.999576,22.0786145 767.299852,19.5237618 767.786505,16.7705219 C768.273159,14.017282 767.923377,11.1856454 766.782783,8.62349285 C765.634586,6.06134034 763.748806,3.88026762 761.35356,2.34827608 C758.953752,0.816276924 756.148653,0 753.281202,0 L152.307971,0 C148.278636,0.00667929092 144.294164,0.818938308 140.600162,2.38648595 C136.906922,3.95404119 133.583233,6.24350828 130.834404,9.11318753 L3.98996986,141.572708 C2.03543416,143.612849 0.734692561,146.165497 0.247269185,148.915087 C-0.240154951,151.665437 0.106929838,154.494869 1.24595357,157.055881 C2.38498035,159.616893 4.26643445,161.797707 6.65957386,163.332185 C9.05273608,164.866663 11.8535007,165.68713 14.7184427,165.693975 Z"></path>
        </g>
    </g>
</svg>
