<svg xmlns="http://www.w3.org/2000/svg" viewBox="0 0 1024 1024">
<defs>
  <linearGradient id="ant-web3-icon-solflare-circle-colorful-01" x1="13.375%" x2="70.241%" y1="15.907%" y2="67.602%">
    <stop offset="0%" stop-color="#FFC10B"/>
    <stop offset="100%" stop-color="#FB3F2E"/>
  </linearGradient>
  <radialGradient id="ant-web3-icon-solflare-circle-colorful-02" cx="38.58%" cy="31.54%" r="73.493%" fx="38.58%" fy="31.54%" gradientTransform="matrix(.3782 .92401 -.91394 .38237 .528 -.162)">
    <stop offset="0%" stop-color="#FFC10B"/>
    <stop offset="100%" stop-color="#FB3F2E"/>
  </radialGradient>
  </defs>
  <g fill="none" fill-rule="nonzero">
    <path fill="url(#ant-web3-icon-solflare-circle-colorful-01)" d="M388.242 739.001c8.113 0 14.669 6.494 14.669 14.5 0 8.02-6.556 14.499-14.654 14.499-8.047.034-14.602-6.453-14.653-14.5 0-8.005 6.555-14.499 14.653-14.499zM372.339 46.197a15.27 15.27 0 0 1 13.928 13.065l17.43 126.715c5.862 41.878 56.362 60.002 87.536 31.559L665.965 58.49c4.229-3.828 10.743-3.567 14.653.586a10.18 10.18 0 0 1 .263 13.62l-152.397 175.78c-28.042 32.3-7.342 82.74 35.415 86.333l134.458 12.957a12.08 12.08 0 0 1 10.951 13.157 12.09 12.09 0 0 1-10.242 10.72l-141.275 22.058c-41.03 5.6-59.601 54.172-32.917 85.731l49.668 58.552a11.044 11.044 0 0 1-1.388 15.703 11.38 11.38 0 0 1-14.114.308l-61.22-46.243c-33.04-24.834-80.672-3.718-84.158 37.405l-13.497 160.371c-.604 6.66-6.48 11.578-13.142 10.998a12.124 12.124 0 0 1-11.06-10.365L354.57 551.235c-5.738-41.863-56.238-60.002-87.535-31.559l-185.9 169.272a9.563 9.563 0 0 1-13.388-.54 9.27 9.27 0 0 1-.232-12.432L229.768 488.75c28.042-32.3 7.465-82.739-35.292-86.348L59.987 389.445a12.08 12.08 0 0 1-10.952-13.158 12.11 12.11 0 0 1 10.242-10.72L200.46 343.51c41.03-5.584 59.725-54.157 33.04-85.716l-33.81-39.857a13.697 13.697 0 0 1 1.742-19.466 14.114 14.114 0 0 1 17.476-.386l41.524 31.374c33.04 24.85 80.672 3.733 84.158-37.39l11.167-132.036c.767-8.389 8.175-14.576 16.566-13.836zM14.669 361.48c8.098 0 14.654 6.478 14.654 14.499 0 8.005-6.556 14.5-14.654 14.5-8.053.042-14.618-6.447-14.669-14.5 0-8.02 6.571-14.5 14.654-14.5zm735.453-14.731c8.083 0 14.654 6.478 14.654 14.5 0 8.02-6.571 14.499-14.654 14.499-8.052.042-14.618-6.447-14.669-14.5 0-8.02 6.556-14.499 14.654-14.499zM370.195 0c8.098 0 14.653 6.494 14.653 14.5 0 8.02-6.555 14.499-14.653 14.499a14.577 14.577 0 0 1-14.654-14.5C355.541 6.494 362.097 0 370.195 0" transform="translate(130 128)"/>
    <path fill="url(#ant-web3-icon-solflare-circle-colorful-02)" d="M379.002 505.624c76.507 0 138.515-61.344 138.515-137.018 0-75.659-62.008-137.003-138.515-137.003s-138.514 61.344-138.514 137.003c0 75.674 62.007 137.003 138.514 137.003z" transform="translate(130 128)"/>
  </g>
</svg>
