<svg xmlns="http://www.w3.org/2000/svg" viewBox="0 0 1024 1024">
  <defs>
    <linearGradient id="ant-web3-icon-solflare-circle-colorful-01" x1="13.375%" x2="70.241%" y1="15.907%" y2="67.602%">
      <stop offset="0%" stop-color="#FFC10B"/>
      <stop offset="100%" stop-color="#FB3F2E"/>
    </linearGradient>
    <radialGradient id="ant-web3-icon-solflare-circle-colorful-02" cx="38.58%" cy="31.54%" r="73.493%" fx="38.58%" fy="31.54%" gradientTransform="matrix(.3782 .92401 -.91394 .38237 .528 -.162)">
      <stop offset="0%" stop-color="#FFC10B"/>
      <stop offset="100%" stop-color="#FB3F2E"/>
    </radialGradient>
  </defs>
  <g fill="none" fill-rule="nonzero">
      <path fill="url(#ant-web3-icon-solflare-circle-colorful-01)" d="M517.656 985.335c10.817 0 19.558 8.658 19.558 19.332 0 10.695-8.74 19.333-19.538 19.333-10.73.045-19.47-8.604-19.538-19.333 0-10.674 8.74-19.332 19.538-19.332zM496.452 61.596a20.36 20.36 0 0 1 18.571 17.42l23.24 168.953c7.815 55.837 75.15 80.003 116.714 42.079l232.976-212.06c5.639-5.104 14.325-4.756 19.538.781a13.574 13.574 0 0 1 .35 18.16L704.645 331.304c-37.39 43.066-9.79 110.318 47.22 115.11l179.277 17.275a16.103 16.103 0 0 1 14.603 17.544 16.124 16.124 0 0 1-13.656 14.293l-188.368 29.41c-54.706 7.466-79.468 72.23-43.889 114.308l66.224 78.07a14.726 14.726 0 0 1-1.85 20.936 15.18 15.18 0 0 1-18.819.412l-81.628-61.658c-44.053-33.112-107.562-4.957-112.21 49.873l-17.996 213.829c-.804 8.88-8.64 15.436-17.522 14.664a16.165 16.165 0 0 1-14.746-13.82l-28.526-206.57c-7.65-55.817-74.985-80.003-116.714-42.078L108.179 918.597c-5.152 4.666-13.092 4.346-17.851-.72a12.36 12.36 0 0 1-.309-16.576l216.338-249.635c37.39-43.066 9.954-110.318-47.056-115.13L79.983 519.26a16.103 16.103 0 0 1-14.603-17.543 16.145 16.145 0 0 1 13.657-14.294l188.244-29.41c54.706-7.445 79.633-72.208 44.053-114.287l-45.082-53.144a18.263 18.263 0 0 1 2.324-25.954 18.82 18.82 0 0 1 23.302-.515l55.365 41.832c44.053 33.133 107.562 4.977 112.21-49.853l14.89-176.048c1.022-11.185 10.9-19.435 22.088-18.448zM19.559 481.973c10.797 0 19.538 8.638 19.538 19.332 0 10.674-8.741 19.333-19.538 19.333C8.82 520.695.068 512.042 0 501.305c0-10.694 8.761-19.332 19.538-19.332zm980.604-19.641c10.777 0 19.538 8.638 19.538 19.332s-8.761 19.333-19.538 19.333c-10.737.057-19.49-8.595-19.558-19.333 0-10.694 8.74-19.332 19.538-19.332zM493.593 0c10.797 0 19.538 8.658 19.538 19.332 0 10.695-8.74 19.333-19.538 19.333a19.437 19.437 0 0 1-19.538-19.333C474.055 8.658 482.795 0 493.593 0" transform="translate(2)"/>
      <path fill="url(#ant-web3-icon-solflare-circle-colorful-02)" d="M505.336 674.166c102.01 0 184.686-81.793 184.686-182.691 0-100.878-82.676-182.67-184.686-182.67-102.009 0-184.686 81.792-184.686 182.67 0 100.898 82.677 182.67 184.686 182.67z" transform="translate(2)"/>
  </g>
</svg>
