<svg xmlns="http://www.w3.org/2000/svg" viewBox="0 0 1024 1024">
  <path fill-rule="nonzero" d="M517.89 866.995c8.134 0 14.725 6.491 14.725 14.501S526.024 896 517.891 896c-8.134 0-14.727-6.493-14.727-14.504s6.593-14.501 14.727-14.501m-15.997-692.802c7.196.591 13.008 6.021 13.982 13.061l17.514 126.724c5.883 41.866 56.592 60.007 87.894 31.556l175.486-159.05c4.233-3.837 10.825-3.57 14.724.594a10.13 10.13 0 0 1 .252 13.616L658.719 376.47c-28.172 32.302-7.387 82.743 35.558 86.343l135.02 12.961c6.726.646 11.645 6.532 10.988 13.147-.541 5.456-4.761 9.865-10.266 10.719l-141.876 22.06c-41.194 5.592-59.849 54.166-33.055 85.723l49.878 58.552c4.018 4.718 3.389 11.747-1.408 15.7-4.062 3.35-9.941 3.481-14.154.313l-61.486-46.24c-33.18-24.846-81.007-3.728-84.513 37.395l-13.549 160.377c-.56 6.624-6.472 11.55-13.206 10.998-5.714-.466-10.331-4.777-11.107-10.368L484.058 679.23c-5.76-41.867-56.467-60.008-87.894-31.555L209.482 816.942c-3.865 3.504-9.884 3.262-13.445-.54a9.25 9.25 0 0 1-.232-12.431L358.728 616.74c28.172-32.302 7.513-82.743-35.433-86.343l-135.051-12.963c-6.724-.646-11.644-6.532-10.988-13.149.541-5.456 4.762-9.863 10.265-10.719l141.783-22.057c41.194-5.59 59.975-54.165 33.182-85.722l-33.954-39.857c-4.982-5.85-4.202-14.567 1.744-19.47 5.04-4.154 12.334-4.313 17.556-.383l41.697 31.384c33.18 24.847 81.007 3.729 84.513-37.394l11.216-132.033c.709-8.342 8.156-14.539 16.635-13.841M142.726 489.465c8.132 0 14.725 6.493 14.725 14.502s-6.593 14.503-14.725 14.503S128 511.977 128 503.967s6.593-14.502 14.726-14.502m738.548-14.726c8.133 0 14.726 6.493 14.726 14.501 0 8.01-6.593 14.504-14.726 14.504-8.132 0-14.725-6.493-14.725-14.504 0-8.008 6.593-14.501 14.725-14.501M499.766 128c8.133 0 14.726 6.493 14.726 14.503s-6.593 14.503-14.726 14.503c-8.131 0-14.725-6.493-14.725-14.503S491.635 128 499.766 128"/>
</svg>
