<svg height="2050.13" viewBox="0 0 2050.13 2050.13" width="2050.13" xmlns="http://www.w3.org/2000/svg"><g fill="#17105d"><path d="m1030.38 971.68 694.62-155.59a44.93 44.93 0 0 0 35.1-43.84v-1.46a44.92 44.92 0 0 0 -39.22-44.56l-694.92-89a44.65 44.65 0 0 0 -12 .08l-624.48 88.47a44.92 44.92 0 0 0 -38.63 44.48 44.93 44.93 0 0 0 33.94 43.56l624.78 157.58a45 45 0 0 0 20.81.28z"/><path d="m635.07 941.45-68.07 296.06s0 50.33 130.27 82.89 239.81 56.25 316.78 56.25 263.5-35.52 263.5-35.52 192.43-50.33 201.32-106.58l-71.06-293.1-384.87 102.14z"/><rect height="390.8" rx="29.61" width="59.21" x="1588.38" y="891.12"/><rect height="113" rx="29.61" width="59.21" x="1588.38" y="1345.57"/></g><circle cx="1025.06" cy="1025.06" fill="none" r="1000" stroke="#17105d" stroke-miterlimit="10" stroke-width="50.127714"/></svg>