<?xml version="1.0" encoding="UTF-8"?>
<svg width="1024px" height="1024px" viewBox="0 0 1024 1024" version="1.1" xmlns="http://www.w3.org/2000/svg" xmlns:xlink="http://www.w3.org/1999/xlink">
    <g stroke="none" stroke-width="1" fill="none" fill-rule="evenodd">
        <g transform="translate(112, 112)">
            <rect fill="#FFFFFF" fill-rule="nonzero" x="152.596538" y="136.884154" width="494.274301" height="449.533955"></rect>
            <path d="M800,400 C800,620.916112 620.916112,800 400,800 C179.086019,800 0,620.916112 0,400 C0,179.086019 179.086019,0 400,0 C620.916112,0 800,179.086019 800,400 Z" fill="#4DA2FF"></path>
        </g>
        <g transform="translate(293, 232)" fill="#FFFFFF">
            <path d="M351.346333,233.44895 C374.174333,262.073282 387.929667,298.437867 387.929667,337.869344 C387.929667,377.300821 373.881667,414.687704 350.322,443.60412 L348.273333,446.086843 L347.688,442.873908 C347.249,440.245143 346.663667,437.470335 346.078333,434.695527 C334.371667,383.142522 296.032333,338.891642 232.816333,302.965185 C190.233333,278.868171 165.795667,249.805711 159.357,216.800104 C155.259667,195.477898 158.332667,174.009649 164.186,155.608293 C170.185667,137.206937 178.965667,121.872474 186.428667,112.671796 L211.012667,82.7330812 C215.256333,77.4755509 223.451,77.4755509 227.694667,82.7330812 L351.346333,233.44895 L351.346333,233.44895 Z M390.124667,203.510236 L225.646,2.84782892 C222.573,-0.949276307 216.573333,-0.949276307 213.500333,2.84782892 L48.8753333,203.510236 L48.29,204.240449 C18.1453333,241.773373 0,289.383231 0,341.228322 C0,462.005477 98.336,560 219.5,560 C340.664,560 439,462.005477 439,341.228322 C439,289.383231 420.854667,241.773373 390.563667,204.240449 L390.124667,203.510236 L390.124667,203.510236 Z M88.239,232.86478 L102.872333,214.901552 L103.311333,218.260529 C103.604,220.889295 104.043,223.51806 104.628333,226.146825 C114.14,275.94732 148.235667,317.569435 205.013,349.698787 C254.473667,377.738949 283.155,410.014343 291.496,445.502673 C295.008,460.252966 295.593333,474.857217 294.13,487.562916 L293.983667,488.293128 L293.252,488.585213 C271.009333,499.392359 245.84,505.526144 219.353667,505.526144 C126.432,505.526144 51.0703333,430.460295 51.0703333,337.869344 C51.0703333,298.145782 64.972,261.489112 88.239,232.86478 L88.239,232.86478 Z"></path>
        </g>
    </g>
</svg>
