<?xml version="1.0" encoding="UTF-8"?>
<svg width="1024px" height="1024px" viewBox="0 0 1024 1024" version="1.1" xmlns="http://www.w3.org/2000/svg" xmlns:xlink="http://www.w3.org/1999/xlink">
    <g stroke="none" stroke-width="1" fill="none" fill-rule="evenodd">
        <g>
            <g>
                <rect fill="#FFFFFF" fill-rule="nonzero" x="195.323569" y="175.211718" width="632.671105" height="575.403462"></rect>
                <path d="M1024,512 C1024,794.772623 794.772623,1024 512,1024 C229.230104,1024 0,794.772623 0,512 C0,229.230104 229.230104,0 512,0 C794.772623,0 1024,229.230104 1024,512 Z" fill="#4DA2FF"></path>
            </g>
            <g transform="translate(231.68, 153.6)" fill="#FFFFFF">
                <path d="M449.723307,298.814656 C478.943147,335.453801 496.549973,382.000469 496.549973,432.47276 C496.549973,482.945052 478.568533,530.800261 448.41216,567.813274 L445.789867,570.991159 L445.04064,566.878602 C444.47872,563.513783 443.729493,559.962029 442.980267,556.410275 C427.995733,490.422428 378.921387,433.781301 298.004907,387.795436 C243.498667,356.951258 212.218453,319.75131 203.97696,277.504134 C198.732373,250.211709 202.665813,222.732351 210.15808,199.178615 C217.837653,175.624879 229.076053,155.996766 238.628693,144.219898 L270.096213,105.898344 C275.528107,99.1687052 286.01728,99.1687052 291.449173,105.898344 L449.723307,298.814656 L449.723307,298.814656 Z M499.359573,260.493102 L288.82688,3.64522102 C284.89344,-1.21507367 277.213867,-1.21507367 273.280427,3.64522102 L62.5604267,260.493102 L61.8112,261.427774 C23.2260267,309.469918 0,370.410536 0,436.772252 C0,591.36701 125.87008,716.8 280.96,716.8 C436.04992,716.8 561.92,591.36701 561.92,436.772252 C561.92,370.410536 538.693973,309.469918 499.921493,261.427774 L499.359573,260.493102 L499.359573,260.493102 Z M112.94592,298.066919 L131.676587,275.073986 L132.238507,279.373478 C132.61312,282.738297 133.17504,286.103116 133.924267,289.467936 C146.0992,353.21257 189.741653,406.488877 262.41664,447.614448 C325.726293,483.505855 362.4384,524.81836 373.11488,570.243422 C377.61024,589.123797 378.359467,607.817238 376.4864,624.080532 L376.299093,625.015204 L375.36256,625.389073 C346.891947,639.222219 314.6752,647.073465 280.772693,647.073465 C161.83296,647.073465 65.3700267,550.989177 65.3700267,432.47276 C65.3700267,381.626601 83.16416,334.706063 112.94592,298.066919 L112.94592,298.066919 Z"></path>
            </g>
        </g>
    </g>
</svg>
