<?xml version="1.0" encoding="utf-8"?>
<!-- Generator: Adobe Illustrator 24.0.0, SVG Export Plug-In . SVG Version: 6.00 Build 0)  -->
<svg version="1.1" id="Layer_1" xmlns="http://www.w3.org/2000/svg" xmlns:xlink="http://www.w3.org/1999/xlink" x="0px" y="0px"
	 viewBox="0 0 153.7 364.7" style="enable-background:new 0 0 153.7 364.7;" xml:space="preserve">
<title>Monolith_Logo</title>
<path d="M21,52.2l74.8,42.9c3.1,1.7,5,5,5,8.6v141.8c0,0.4-0.2,0.9-0.6,1.1l-81.1,46c-0.6,0.3-1.3,0.1-1.7-0.5c0,0,0,0,0,0
	c-0.1-0.2-0.2-0.4-0.2-0.6l0.1-237.1c0-1.3,1.1-2.4,2.4-2.4C20.2,51.9,20.6,52,21,52.2z M17.4,43c-1.8-1-4-0.4-5,1.4
	c-0.3,0.6-0.5,1.2-0.5,1.8l-0.4,248.4c0,1.8,0.9,3.4,2.5,4.3l86.8,49.8c1.8,1,4,0.4,5-1.4c0.3-0.6,0.5-1.2,0.5-1.8V101.1
	c0-4.4-2.4-8.5-6.2-10.7L17.4,43z M153.7,70.3v262.3c0,4.4-2.4,8.5-6.2,10.7l-34.7,19.8c-3.8,2.2-8.5,2.2-12.3,0L6.2,308.6
	C2.4,306.4,0,302.4,0,298V29.1c0-4.5,2.5-8.7,6.5-10.8L37.6,1.5c3.8-2,8.4-2,12.1,0.2l97.9,58C151.4,61.9,153.7,65.9,153.7,70.3z"/>
</svg>
