<?xml version="1.0" encoding="UTF-8"?>
<svg width="1024px" height="1024px" viewBox="0 0 1024 1024" version="1.1" xmlns="http://www.w3.org/2000/svg" xmlns:xlink="http://www.w3.org/1999/xlink">
    <title>TON_Colorful</title>
    <g id="TON_Colorful" stroke="none" stroke-width="1" fill="none" fill-rule="evenodd">
        <g id="toncoin-ton-logo" transform="translate(113, 140)" fill="#0088CC">
            <path d="M126.529213,0 L674.378506,0 C695.315422,0 712.762851,3.48908297 733.699767,13.9563319 C758.126169,24.4235808 772.084112,41.8689956 779.063084,55.8253275 C779.063084,55.8253275 779.063084,59.3144105 782.55257,59.3144105 C793.021028,76.7598253 800,97.6943231 800,122.117904 C800,143.052402 796.510514,163.9869 782.55257,184.921397 C782.55257,184.921397 782.55257,184.921397 782.55257,184.921397 L437.093462,778.065502 C430.11449,792.021834 416.156546,799 398.709116,799 C384.751173,799 370.793229,792.021834 360.324771,778.065502 L21.8446342,184.921397 C21.8446342,184.921397 21.8446342,184.921397 21.8446342,184.921397 C14.8656623,170.965066 0.907718544,153.519651 0.907718544,125.606987 C-2.5817674,101.183406 4.39720449,80.2489083 14.8656623,59.3144105 C25.3341202,38.3799127 42.7815499,20.9344978 67.2079515,13.9563319 C88.1448672,0 112.571269,0 126.529213,0 Z M356.835285,83.7379913 L126.529213,83.7379913 C112.571269,83.7379913 105.592297,83.7379913 102.102811,87.2270742 C95.1238391,90.7161572 91.6343531,94.2052402 88.1448672,101.183406 C84.6553812,104.672489 84.6553812,111.650655 84.6553812,118.628821 C84.6553812,122.117904 88.1448672,125.606987 95.1238391,139.563319 C95.1238391,139.563319 95.1238391,139.563319 95.1238391,139.563319 L356.835285,593.144105 L356.835285,83.7379913 Z M440.582948,83.7379913 L440.582948,596.633188 L705.783879,139.563319 C709.273365,132.585153 709.273365,125.606987 709.273365,118.628821 C709.273365,111.650655 709.273365,104.672489 705.783879,101.183406 C702.294394,97.6943231 702.294394,94.2052402 698.804908,94.2052402 C698.804908,94.2052402 695.315422,90.7161572 695.315422,90.7161572 C688.33645,87.2270742 681.357478,87.2270742 670.88902,87.2270742 L440.582948,87.2270742 L440.582948,83.7379913 Z" id="形状"></path>
        </g>
    </g>
</svg>