<?xml version="1.0" encoding="UTF-8"?>
<svg viewBox="0 0 1024 1024" version="1.1" xmlns="http://www.w3.org/2000/svg" xmlns:xlink="http://www.w3.org/1999/xlink">
    <title>toncoin-ton-logo</title>
    <g id="toncoin-ton-logo" stroke="none" stroke-width="1" fill="none" fill-rule="evenodd">
        <g transform="translate(112, 112)">
            <circle id="椭圆形" fill="#555555" fill-rule="nonzero" cx="400" cy="400" r="400"></circle>
            <path d="M288.571429,264.285714 L512.857143,264.285714 C521.428571,264.285714 528.571429,265.714286 537.142857,270 C547.142857,274.285714 552.857143,281.428571 555.714286,287.142857 C555.714286,287.142857 555.714286,288.571429 557.142857,288.571429 C561.428571,295.714286 564.285714,304.285714 564.285714,314.285714 C564.285714,322.857143 562.857143,331.428571 557.142857,340 C557.142857,340 557.142857,340 557.142857,340 L415.714286,582.857143 C412.857143,588.571429 407.142857,591.428571 400,591.428571 C394.285714,591.428571 388.571429,588.571429 384.285714,582.857143 L245.714286,340 C245.714286,340 245.714286,340 245.714286,340 C242.857143,334.285714 237.142857,327.142857 237.142857,315.714286 C235.714286,305.714286 238.571429,297.142857 242.857143,288.571429 C247.142857,280 254.285714,272.857143 264.285714,270 C272.857143,264.285714 282.857143,264.285714 288.571429,264.285714 Z M382.857143,298.571429 L288.571429,298.571429 C282.857143,298.571429 280,298.571429 278.571429,300 C275.714286,301.428571 274.285714,302.857143 272.857143,305.714286 C271.428571,307.142857 271.428571,310 271.428571,312.857143 C271.428571,314.285714 272.857143,315.714286 275.714286,321.428571 C275.714286,321.428571 275.714286,321.428571 275.714286,321.428571 L382.857143,507.142857 L382.857143,298.571429 Z M417.142857,298.571429 L417.142857,508.571429 L525.714286,321.428571 C527.142857,318.571429 527.142857,315.714286 527.142857,312.857143 C527.142857,310 527.142857,307.142857 525.714286,305.714286 C524.285714,304.285714 524.285714,302.857143 522.857143,302.857143 C522.857143,302.857143 521.428571,301.428571 521.428571,301.428571 C518.571429,300 515.714286,300 511.428571,300 L417.142857,300 L417.142857,298.571429 Z" id="形状" fill="#FFFFFF"></path>
        </g>
    </g>
</svg>
