<svg xmlns="http://www.w3.org/2000/svg" viewBox="0 0 54 54" ><script xmlns="" charset="utf-8"/><link xmlns=""/><script xmlns=""/>
  <rect width="54" height="54" rx="27" fill="#F3F3F3"/>
  <path fill-rule="evenodd" clip-rule="evenodd" d="M22.2327 14.4817C22.2853 14.458 22.3424 14.4458 22.4001 14.4458H31.6001C31.6578 14.4458 31.7149 14.458 31.7676 14.4817L37.9643 17.2721C38.0367 17.3046 38.098 17.3575 38.1409 17.4243L41.673 22.9239C41.7697 23.0746 41.7581 23.2708 41.6442 23.4088L27.3153 40.7712C27.1516 40.9695 26.8486 40.9695 26.685 40.7712L12.3561 23.4088C12.2422 23.2708 12.2305 23.0746 12.3273 22.9239L15.8593 17.4243C15.9023 17.3575 15.9636 17.3046 16.0358 17.2721L22.2327 14.4817Z" fill="url(#paint0_linear_144_910)"/>
  <path fill-rule="evenodd" clip-rule="evenodd" d="M22.2327 14.4817C22.2853 14.458 22.3424 14.4458 22.4001 14.4458H31.6001C31.6578 14.4458 31.7149 14.458 31.7676 14.4817L37.9643 17.2721C38.0367 17.3046 38.098 17.3575 38.1409 17.4243L41.673 22.9239C41.7697 23.0746 41.7581 23.2708 41.6442 23.4088H12.3561C12.2422 23.2708 12.2305 23.0746 12.3273 22.9239L15.8593 17.4243C15.9023 17.3575 15.9636 17.3046 16.0358 17.2721L22.2327 14.4817Z" fill="url(#paint1_linear_144_910)"/>
  <path d="M27.0004 19.9102L32.5907 27.2971H21.4102L27.0004 19.9102Z" fill="#95B0FF"/>
  <path d="M26.6666 40.7273C26.8379 40.9343 27.1571 40.9301 27.3228 40.7187L28.895 38.714L32.5907 27.2974H21.4102L24.9999 38.714L26.6666 40.7273Z" fill="url(#paint2_linear_144_910)"/>
  <path d="M27.0004 19.9101L17.0903 18.4429L21.4101 27.2971L27.0004 19.9101Z" fill="#D7D6FC"/>
  <path d="M12.356 23.4088L17.0898 18.4429L21.4096 27.2971L12.356 23.4088Z" fill="#BDB3F9"/>
  <path d="M27 19.9101L36.91 18.4429L32.5902 27.2971L27 19.9101Z" fill="#6E97FF"/>
  <path d="M41.6443 23.4088L36.9106 18.4429L32.5908 27.2971L41.6443 23.4088Z" fill="#A4CCFA"/>
  <path d="M41.6441 23.4094L36.9104 18.4435L37.9777 17.2798C37.9977 17.2901 38.0562 17.3154 38.1153 17.3884C38.1913 17.4821 40.4088 20.7717 41.6729 22.9246C41.7889 23.122 41.7299 23.306 41.6441 23.4094Z" fill="#799FF0"/>
  <path d="M12.3562 23.4094L17.0898 18.4435L16.0226 17.2798C16.0025 17.2901 15.9441 17.3154 15.8849 17.3884C15.8089 17.4821 13.5915 20.7717 12.3273 22.9246C12.2114 23.122 12.2704 23.306 12.3562 23.4094Z" fill="#B28DFF"/>
  <path d="M18.7307 28.8135C18.691 28.8321 18.6528 28.7854 18.6791 28.7503L19.9484 27.0574C20.321 26.5604 20.3889 25.8988 20.1247 25.3368L19.2252 23.4224C19.2066 23.3828 19.2535 23.3447 19.2886 23.371L20.985 24.6376C21.4831 25.0095 22.146 25.0772 22.7092 24.8136L24.6275 23.916C24.6672 23.8974 24.7053 23.9442 24.6791 23.9792L23.4098 25.6721C23.0371 26.1692 22.9693 26.8307 23.2334 27.3928L24.1329 29.3071C24.1515 29.3467 24.1047 29.3848 24.0695 29.3586L22.3731 28.0919C21.8751 27.72 21.2121 27.6523 20.6489 27.9159L18.7307 28.8135Z" fill="white"/>
  <defs>
  <linearGradient id="paint0_linear_144_910" x1="12.2619" y1="23.5857" x2="42.4751" y2="23.2692" gradientUnits="userSpaceOnUse">
  <stop stop-color="#9889FE"/>
  <stop offset="0.495027" stop-color="#68A3F1"/>
  <stop offset="1" stop-color="#61A8EA"/>
  </linearGradient>
  <linearGradient id="paint1_linear_144_910" x1="15.8412" y1="17.2823" x2="37.6326" y2="17.1768" gradientUnits="userSpaceOnUse">
  <stop stop-color="#B69EFD"/>
  <stop offset="1" stop-color="#9BB7FC"/>
  </linearGradient>
  <linearGradient id="paint2_linear_144_910" x1="27.0004" y1="27.2974" x2="27.0004" y2="40.8799" gradientUnits="userSpaceOnUse">
  <stop stop-color="#B3C9FA"/>
  <stop offset="1" stop-color="#A3D2F6"/>
  </linearGradient>
  </defs>
  </svg>
