<?xml version="1.0" encoding="UTF-8"?>
<svg viewBox="0 0 1024 1024" version="1.1" xmlns="http://www.w3.org/2000/svg" xmlns:xlink="http://www.w3.org/1999/xlink">
    <title>tron-trx-logo</title>
    <g id="tron-trx-logo" stroke="none" stroke-width="1" fill="none" fill-rule="evenodd">
        <circle id="椭圆形" stroke="#979797" fill="#FF060A" cx="512" cy="512" r="399.5"></circle>
        <g transform="translate(259, 260)" fill="#FFFFFF" fill-rule="nonzero" id="形状">
            <path d="M562.246847,180.755563 C534.134505,154.787158 495.245765,115.131434 463.572526,87.0068073 L461.69837,85.6943247 C458.580072,83.1891537 455.064197,81.2244729 451.296803,79.8819019 L451.296803,79.8819019 C374.924939,65.6320909 19.491224,-0.835777044 12.5568463,0.00796175984 C10.6137968,0.280208679 8.75652654,0.98499834 7.1217934,2.07043439 L5.34134505,3.47666573 C3.14899739,5.70414349 1.48387195,8.3951369 0.46853904,11.3515612 L0,12.5702951 L0,19.2264567 L0,20.2576931 C40.013234,131.724964 198.004598,496.876368 229.11559,582.562731 C230.989747,588.375154 234.550643,599.437507 241.203898,600 L242.703222,600 C246.264119,600 261.444784,579.937766 261.444784,579.937766 C261.444784,579.937766 532.822596,250.692135 560.278983,215.630101 C563.832996,211.311189 566.970572,206.665548 569.649764,201.755285 C571.040805,193.940382 568.230498,185.968433 562.246847,180.755563 Z M331.069685,219.098804 L446.892536,123.00633 L514.830697,185.630499 L331.069685,219.098804 Z M286.089938,212.817638 L86.6797223,49.3198074 L409.315705,108.850267 L286.089938,212.817638 Z M304.081837,255.660819 L508.177442,222.755006 L274.845001,504.001274 L304.081837,255.660819 Z M59.5981658,65.6320909 L269.409948,243.754727 L239.048618,504.188771 L59.5981658,65.6320909 Z"></path>
        </g>
    </g>
</svg>
