<?xml version="1.0" encoding="UTF-8"?>
<svg xmlns="http://www.w3.org/2000/svg"
 viewBox="0 0 230 230"
 preserveAspectRatio="xMidYMid meet">
  <g transform="translate(0,230) scale(0.1,-0.1)" fill="#2C5CC6" stroke="none">
    <path d="M0 1150 l0 -1150 580 0 c459 0 578 3 575 13 -3 6 -165 410 -359 897 -195 487 -351 886 -347 888 4 1 342 -59 752 -133 409 -75 817 -150 906 -166 88 -16 168 -32 177 -35 14 -6 16 34 16 415 l0 421 -1150 0 -1150 0 0 -1150z"/>
    <path d="M880 1546 c0 -2 64 -55 143 -118 78 -63 303 -243 500 -401 197 -158 361 -287 364 -287 3 0 97 73 209 163 l203 162 1 118 c0 64 -2 117 -5 117 -5 0 -930 164 -1212 215 -204 37 -203 37 -203 31z"/>
    <path d="M790 1369 c12 -30 107 -268 212 -529 287 -714 328 -819 328 -830 0 -6 75 -10 215 -10 214 0 215 0 219 22 7 30 55 441 58 494 l3 41 -235 193 c-353 291 -793 652 -808 663 -8 6 -5 -10 8 -44z"/>
    <path d="M2208 768 c-48 -40 -86 -73 -84 -75 1 -2 42 4 89 13 l87 16 0 59 c0 32 -1 59 -2 59 -2 0 -42 -33 -90 -72z"/>
    <path d="M2185 525 c-33 -7 -95 -18 -138 -25 -42 -7 -77 -15 -77 -18 0 -7 -48 -396 -55 -444 l-5 -38 195 0 195 0 0 270 0 270 -27 -1 c-16 0 -55 -6 -88 -14z"/>
  </g>
</svg>
