<?xml version="1.0" encoding="UTF-8"?>
<svg viewBox="0 0 1024 1024" version="1.1" xmlns="http://www.w3.org/2000/svg" xmlns:xlink="http://www.w3.org/1999/xlink">
    <title>uniswap-uni-logo</title>
    <g id="uniswap-uni-logo" stroke="none" stroke-width="1" fill="none" fill-rule="evenodd">
        <g id="编组" transform="translate(112, 112)" fill="#555555">
            <circle id="椭圆形" cx="400" cy="400" r="400"></circle>
        </g>
        <g transform="translate(252, 212)" fill="#FFFFFF">
            <path d="M204.268154,136.462094 C197.76915,135.53378 197.459674,135.224342 200.554437,134.914905 C206.434488,133.986591 220.051447,135.224342 229.645214,137.390407 C251.927511,142.650851 272.043473,156.266117 293.397341,180.092831 L298.967915,186.591026 L307.0143,185.353275 C341.366175,179.783394 376.646478,184.115523 406.046731,197.730789 C414.093116,201.444043 426.781646,208.870552 428.329028,210.727179 C428.94798,211.346055 429.876409,215.368747 430.495362,219.391439 C432.661697,233.935018 431.733267,244.765343 427.091122,253.120165 C424.615312,257.761733 424.615312,258.999484 426.162693,263.022176 C427.400599,266.116555 431.114315,268.28262 434.518555,268.28262 C441.945987,268.28262 449.682896,256.523981 453.396612,240.123775 L454.943993,233.62558 L457.72928,236.719959 C473.512574,254.357916 485.891628,278.803507 487.748486,296.132027 L488.367439,300.773595 L485.582152,296.750903 C480.940006,289.633832 476.607338,284.992264 470.727287,280.969572 C460.205091,273.852501 449.063943,271.686436 419.66369,270.139247 C393.048724,268.592058 377.884383,266.425993 363.029519,261.474987 C337.652458,253.120165 324.654452,242.28984 294.635246,202.372357 C281.327764,184.734399 272.971902,175.141826 264.616041,167.096441 C246.356937,149.458484 228.097832,140.175348 204.268154,136.462094 Z" id="路径" fill-rule="nonzero"></path>
            <path d="M434.828031,175.760701 C435.446984,164.002063 436.994365,156.266117 440.398605,149.149046 C441.636511,146.364105 442.874416,143.888602 443.183892,143.888602 C443.493369,143.888602 442.874416,146.054667 441.945987,148.53017 C439.470176,155.337803 439.1607,164.930376 440.708081,175.760701 C442.874416,189.685405 443.802845,191.542032 458.65771,206.704487 C465.466189,213.821558 473.512574,222.795255 476.607338,226.50851 L481.868435,233.316142 L476.607338,228.365137 C470.108334,222.17638 455.25347,210.417741 451.84923,208.870552 C449.682896,207.6328 449.373419,207.6328 447.826037,209.17999 C446.588132,210.417741 446.278656,212.274368 446.278656,221.248066 C445.969179,235.172769 444.112321,243.837029 439.470176,252.810727 C436.994365,257.452295 436.684889,256.523981 438.851223,251.263538 C440.398605,247.240846 440.708081,245.384219 440.708081,232.078391 C440.708081,205.157298 437.613318,198.659103 418.735261,187.828778 C414.093116,185.043837 406.046731,181.021145 401.404586,178.85508 C396.452964,176.689015 392.739248,174.832388 393.048724,174.832388 C393.667677,174.213512 411.926781,179.473956 419.044737,182.568334 C429.876409,186.900464 431.733267,187.209902 432.971173,186.900464 C433.899602,185.972151 434.518555,183.496648 434.828031,175.760701 Z" id="路径" fill-rule="nonzero"></path>
            <path d="M216.956684,221.866942 C203.958677,203.919546 195.602816,176.070139 197.459674,155.337803 L198.078627,148.839608 L201.17339,149.458484 C206.743964,150.386797 216.337731,154.100052 220.979876,156.884992 C233.35893,164.311501 238.929504,174.52295 244.190602,199.896854 C245.737984,207.323363 247.904318,215.987622 248.832747,218.772563 C250.380129,223.414131 256.26018,234.244456 261.211801,241.052089 C264.616041,246.003094 262.449707,248.478597 254.712798,247.859722 C242.952697,246.62197 227.169403,235.791645 216.956684,221.866942 Z" id="路径" fill-rule="nonzero"></path>
            <path d="M419.044737,356.472408 C357.768421,331.71738 336.105077,310.366168 336.105077,274.161939 C336.105077,268.901496 336.414553,264.569366 336.414553,264.569366 C336.724029,264.569366 338.890364,266.425993 341.675651,268.592058 C354.054705,278.494069 367.98114,282.826199 406.665684,288.39608 C429.257457,291.799897 442.255463,294.2754 454.015564,298.298092 C491.462202,310.675606 514.672928,336.04951 520.243502,370.397112 C521.790884,380.299123 520.862455,399.174832 518.386644,409.076844 C516.22031,416.81279 510.030783,431.046931 508.483401,431.356369 C508.173925,431.356369 507.554972,429.80918 507.554972,427.333677 C506.936019,414.337287 500.437016,401.959773 489.605344,392.3672 C476.607338,381.227437 459.895615,372.872615 419.044737,356.472408 Z" id="路径" fill-rule="nonzero"></path>
            <path d="M375.718049,366.683858 C375.099096,362.04229 373.551715,356.162971 372.623286,353.687468 L371.075904,349.0459 L373.861191,352.449716 C377.884383,357.091284 380.979147,362.661166 383.764434,370.397112 C385.930768,376.276431 385.930768,378.133058 385.930768,387.725632 C385.930768,397.008767 385.621292,399.174832 383.764434,404.435276 C380.66967,412.790098 376.955954,418.669417 370.766427,425.167612 C359.625279,436.616813 345.079891,442.80557 324.344976,445.590511 C320.631259,445.899948 310.109064,446.828262 300.824773,447.447138 C277.614047,448.684889 262.14023,451.160392 248.213795,456.111398 C246.356937,456.730273 244.500079,457.349149 244.190602,457.039711 C243.571649,456.420835 253.165416,450.850954 260.902325,447.1377 C271.733997,441.877256 282.875145,439.092316 307.323777,434.760186 C319.393354,432.903559 331.772408,430.428056 334.867171,429.190304 C365.50533,419.597731 380.66967,395.771016 375.718049,366.683858 Z" id="路径" fill-rule="nonzero"></path>
            <path d="M403.880396,416.503352 C395.834011,398.865395 393.977153,382.15575 398.309822,366.37442 C398.928775,364.827231 399.547728,363.280041 400.16668,363.280041 C400.785633,363.280041 402.642491,364.208355 404.499349,365.446106 C408.213065,367.921609 415.949974,372.253739 435.75646,383.084064 C460.824044,396.69933 475.059956,407.220217 484.963199,419.288293 C493.628537,429.80918 498.889634,441.877256 501.365445,456.730273 C502.912827,465.085095 501.984398,485.198556 499.818063,493.553378 C493.009584,519.855596 477.535767,540.89737 454.943993,552.965446 C451.539754,554.822073 448.754466,556.059825 448.44499,556.059825 C448.135514,556.059825 449.373419,552.965446 451.230277,549.252192 C458.65771,533.470861 459.586139,518.308406 454.015564,501.289324 C450.611325,490.768437 443.493369,478.081485 429.257457,456.730273 C412.236258,431.975245 408.213065,425.47705 403.880396,416.503352 Z" id="路径" fill-rule="nonzero"></path>
            <path d="M173.320519,511.191336 C196.221769,492.006189 224.384116,478.390923 250.380129,474.058793 C261.521278,472.202166 280.089858,472.821042 290.302578,475.605982 C306.704824,479.938112 321.559689,489.221248 329.296597,500.670449 C336.724029,511.810211 340.128269,521.402785 343.532509,542.753997 C344.770414,551.108819 346.317796,559.773079 346.627272,561.629706 C349.103083,572.769469 354.054705,581.433729 360.244232,586.075297 C369.837998,593.192367 386.549721,593.501805 402.951967,587.313048 C405.737254,586.384734 408.213065,585.456421 408.213065,585.765859 C408.832018,586.384734 400.476157,591.954616 394.905582,594.739556 C387.168674,598.762249 380.979147,600 372.623286,600 C357.768421,600 345.079891,592.264054 334.867171,576.792161 C332.700837,573.697782 328.368168,564.724085 324.654452,556.369263 C313.82278,531.304796 308.252206,523.878288 295.563676,515.523466 C284.422527,508.406395 270.186615,506.859206 259.354943,512.119649 C245.119031,518.927282 241.405315,537.184116 251.308558,548.323878 C255.331751,552.965446 262.759183,556.6787 268.94871,557.607014 C280.399335,559.154203 290.302578,550.180505 290.302578,538.731305 C290.302578,531.304796 287.517291,526.972666 280.089858,523.56885 C270.186615,519.23672 259.354943,524.187726 259.664419,533.780299 C259.664419,537.802991 261.521278,540.278494 265.54447,542.135121 C268.020281,543.372873 268.020281,543.372873 266.163423,543.063435 C257.188609,541.206808 255.022274,530.067045 262.14023,522.949974 C270.805568,514.285714 289.064672,517.998969 295.254199,530.067045 C297.73001,535.018051 298.039486,544.920062 295.873152,551.108819 C290.612054,564.724085 275.757189,571.841155 260.592848,567.818463 C250.380129,565.033522 246.04746,562.248582 233.668406,549.56163 C212.005062,527.282104 203.649201,522.949974 172.701566,518.308406 L166.821516,517.380093 L173.320519,511.191336 Z" id="路径" fill-rule="nonzero"></path>
            <path d="M10.5359614,13.3058277 C82.6439499,100.876741 193.745958,237.029397 199.316532,244.455905 C203.958677,250.644662 202.101819,256.523981 194.364911,260.856111 C190.032242,263.331614 181.057428,265.807117 176.724759,265.807117 C171.773137,265.807117 165.893087,263.331614 161.869894,259.308922 C159.084607,256.523981 147.01503,238.886024 119.781111,196.493038 C99.0461962,164.002063 81.4060445,137.08097 81.0965681,136.771532 C79.8586628,136.152656 79.8586628,136.152656 117.614777,203.610108 C141.444456,246.003094 149.181364,261.165549 149.181364,263.022176 C149.181364,267.044868 147.943459,269.210933 142.991837,274.780815 C134.635976,284.06395 130.92226,294.584838 128.136973,316.554925 C125.042209,341.000516 116.686348,358.329036 92.8566693,387.725632 C78.9302337,405.054152 76.7638993,408.14853 73.3596595,415.265601 C69.0269907,423.929861 67.7890853,428.880866 67.1701326,440.020629 C66.5511799,451.779268 67.7890853,459.205776 71.1933251,470.345539 C74.2880886,480.24755 77.6923283,486.745745 86.0481897,499.432697 C93.1661456,510.57246 97.4988145,518.927282 97.4988145,522.021661 C97.4988145,524.497163 98.1177671,524.497163 109.258916,522.021661 C135.873881,515.832904 157.846702,505.312017 169.916279,492.315627 C177.343712,484.270242 179.20057,479.938112 179.20057,468.79835 C179.20057,461.681279 178.891093,460.13409 177.034235,455.80196 C173.939472,448.994327 168.059421,443.424446 155.370891,434.760186 C138.659168,423.310985 131.541212,414.027849 129.684354,401.650335 C128.136973,391.129448 129.993831,384.012378 139.278121,364.517793 C148.871888,344.404332 151.347699,336.04951 152.89508,315.626612 C153.823509,302.630222 155.370891,297.369778 159.084607,293.347086 C163.1078,289.014956 166.512039,287.467767 176.105806,286.230015 C191.8891,284.06395 202.101819,280.041258 210.148204,272.305312 C217.26616,265.807117 220.360924,259.308922 220.6704,249.716349 L220.979876,242.599278 L216.956684,238.267148 C202.411296,221.557504 0.942194692,0 0.0137656554,0 C-0.29571069,0 4.65591084,5.87931924 10.5359614,13.3058277 Z M105.545199,453.326457 C108.949439,447.447138 107.092581,440.020629 101.522007,436.307375 C96.2609091,432.903559 88.2145241,434.450748 88.2145241,439.092316 C88.2145241,440.330067 88.8334768,441.567818 90.6903349,442.186694 C93.475622,443.733883 93.7850983,445.281073 91.6187639,448.684889 C89.4524295,452.088706 89.4524295,455.183084 92.2377166,457.349149 C96.5703854,460.752965 102.450436,458.896338 105.545199,453.326457 Z" id="形状"></path>
            <path d="M230.883119,290.562145 C223.455687,292.72821 216.337731,300.773595 214.171397,308.818979 C212.933491,313.769985 213.552444,322.743682 215.718778,325.528623 C219.123018,329.860753 222.217782,331.098504 230.883119,331.098504 C247.904318,331.098504 262.449707,323.671996 263.997088,314.698298 C265.54447,307.27179 259.045467,297.06034 250.070653,292.418773 C245.428508,289.94327 235.834741,289.014956 230.883119,290.562145 Z M250.689605,306.034038 C253.165416,302.320784 252.236987,298.298092 247.594842,295.513151 C239.238981,290.252708 226.55045,294.584838 226.55045,302.630222 C226.55045,306.652914 233.049454,310.985044 239.238981,310.985044 C243.262173,310.985044 248.832747,308.509541 250.689605,306.034038 Z" id="形状"></path>
        </g>
    </g>
</svg>
