<?xml version="1.0" encoding="UTF-8"?>
<svg viewBox="0 0 1024 1024" version="1.1" xmlns="http://www.w3.org/2000/svg" xmlns:xlink="http://www.w3.org/1999/xlink">
    <title>uniswap-uni-logo</title>
    <g id="uniswap-uni-logo" stroke="none" stroke-width="1" fill="none" fill-rule="evenodd">
        <g transform="translate(165, 112)" fill="#555555">
            <path d="M272.488228,181.949458 C263.818732,180.711707 263.405899,180.299123 267.53423,179.886539 C275.37806,178.648788 293.542718,180.299123 306.340545,183.18721 C336.06453,190.201135 362.898683,208.354822 391.384169,240.123775 L398.815165,248.788035 L409.548827,247.1377 C455.373304,239.711191 502.436281,245.487365 541.655428,263.641052 C552.389089,268.592058 569.315247,278.494069 571.379413,280.969572 C572.205079,281.79474 573.443579,287.158329 574.269245,292.521919 C577.159077,311.913357 575.920578,326.353791 569.728081,337.493553 C566.425416,343.68231 566.425416,345.332646 568.489581,350.696235 C570.140914,354.822073 575.094911,357.71016 579.636076,357.71016 C589.544071,357.71016 599.864899,342.031975 604.818897,320.165034 L606.883062,311.500774 L610.59856,315.626612 C631.65305,339.143889 648.166375,371.738009 650.643374,394.842702 L651.46904,401.03146 L647.753542,395.66787 C641.561045,386.178442 635.781381,379.989685 627.937552,374.626096 C613.901225,365.136668 599.039233,362.248582 559.820086,360.185663 C524.316436,358.122744 504.087613,355.234657 484.271623,348.633316 C450.419306,337.493553 433.080315,323.05312 393.035502,269.829809 C375.283677,246.312532 364.137183,233.522434 352.990688,222.795255 C328.633533,199.277978 304.276379,186.900464 272.488228,181.949458 Z" id="路径" fill-rule="nonzero"></path>
            <path d="M580.048909,234.347602 C580.874575,218.669417 582.938741,208.354822 587.479905,198.865395 C589.131238,195.15214 590.78257,191.85147 591.195403,191.85147 C591.608236,191.85147 590.78257,194.739556 589.544071,198.040227 C586.241406,207.117071 585.828573,219.907169 587.892738,234.347602 C590.78257,252.913873 592.02107,255.389376 611.83706,275.605982 C620.919389,285.09541 631.65305,297.06034 635.781381,302.011346 L642.799544,311.08819 L635.781381,304.486849 C627.111886,296.235173 607.295895,280.556988 602.754731,278.494069 C599.864899,276.843734 599.452066,276.843734 597.3879,278.906653 C595.736568,280.556988 595.323735,283.032491 595.323735,294.997421 C594.910901,313.563693 592.433903,325.116039 586.241406,337.08097 C582.938741,343.269727 582.525908,342.031975 585.41574,335.018051 C587.479905,329.654461 587.892738,327.178958 587.892738,309.437855 C587.892738,273.543063 583.764407,264.878804 558.581586,250.43837 C552.389089,246.725116 541.655428,241.361527 535.462931,238.47344 C528.857601,235.585353 523.903603,233.10985 524.316436,233.10985 C525.142103,232.284683 549.499257,239.298608 558.994419,243.424446 C573.443579,249.200619 575.920578,249.613203 577.57191,249.200619 C578.810409,247.962867 579.636076,244.662197 580.048909,234.347602 Z" id="路径" fill-rule="nonzero"></path>
            <path d="M289.414386,295.822589 C272.075395,271.892728 260.9289,234.760186 263.405899,207.117071 L264.231565,198.452811 L268.359897,199.277978 C275.790893,200.51573 288.58872,205.466735 294.781217,209.17999 C311.294542,219.082001 318.725538,232.697267 325.743702,266.529139 C327.807867,276.43115 330.697699,287.983497 331.936198,291.696751 C334.000364,297.885508 341.844194,312.325941 348.449524,321.402785 C352.990688,328.004126 350.100856,331.304796 339.780028,330.479629 C324.092369,328.829293 303.037879,314.38886 289.414386,295.822589 Z" id="路径" fill-rule="nonzero"></path>
            <path d="M558.994419,475.296545 C477.25346,442.28984 448.355141,413.821558 448.355141,365.549252 C448.355141,358.535327 448.767974,352.759154 448.767974,352.759154 C449.180807,352.759154 452.070639,355.234657 455.786137,358.122744 C472.299462,371.325425 490.876953,377.101599 542.481094,384.528107 C572.617913,389.066529 589.956904,392.3672 605.644563,397.730789 C655.597371,414.234141 686.559856,448.066013 693.990852,493.862816 C696.055018,507.065498 694.816519,532.23311 691.513854,545.435792 C688.624022,555.750387 680.367359,574.729242 678.303193,575.141826 C677.89036,575.141826 677.064694,573.078907 677.064694,569.778236 C676.239028,552.449716 667.569532,535.946364 653.120373,523.156266 C635.781381,508.303249 613.488392,497.163486 558.994419,475.296545 Z" id="路径" fill-rule="nonzero"></path>
            <path d="M501.197781,488.91181 C500.372115,482.723053 498.307949,474.883961 497.06945,471.58329 L495.005284,465.394533 L498.720782,469.932955 C504.087613,476.121712 508.215944,483.548221 511.931443,493.862816 C514.821274,501.701908 514.821274,504.177411 514.821274,516.967509 C514.821274,529.345023 514.408441,532.23311 511.931443,539.247035 C507.803111,550.386797 502.849114,558.22589 494.592451,566.89015 C479.730459,582.15575 460.327302,590.407427 432.667482,594.120681 C427.713484,594.533265 413.677158,595.771016 401.292164,596.596184 C370.329679,598.246519 349.688023,601.547189 331.110532,608.14853 C328.633533,608.973698 326.156535,609.798865 325.743702,609.386282 C324.918035,608.561114 337.715862,601.134605 348.036691,596.1836 C362.48585,589.169675 377.347843,585.456421 409.96166,579.680248 C426.062152,577.204745 442.575477,573.904074 446.703808,572.253739 C487.574288,559.463641 507.803111,527.694688 501.197781,488.91181 Z" id="路径" fill-rule="nonzero"></path>
            <path d="M538.765596,555.337803 C528.031935,531.820526 525.554936,509.541001 531.3346,488.499226 C532.160266,486.436307 532.985932,484.373388 533.811598,484.373388 C534.637265,484.373388 537.114263,485.61114 539.591262,487.261475 C544.54526,490.562145 554.866088,496.338319 581.287408,510.778752 C614.726892,528.932439 633.717216,542.960289 646.927876,559.051057 C658.487203,573.078907 665.505366,589.169675 668.808032,608.973698 C670.872197,620.113461 669.633698,646.931408 666.743866,658.071171 C657.661537,693.140794 637.019881,721.196493 606.883062,737.287261 C602.341898,739.762764 598.6264,741.4131 598.213566,741.4131 C597.800733,741.4131 599.452066,737.287261 601.929065,732.336256 C611.83706,711.294482 613.075559,691.077875 605.644563,668.385766 C601.103398,654.357916 591.608236,637.44198 572.617913,608.973698 C549.91209,575.966993 544.54526,567.302733 538.765596,555.337803 Z" id="路径" fill-rule="nonzero"></path>
            <path d="M231.204915,681.588448 C261.754567,656.008252 299.322381,637.854564 334.000364,632.078391 C348.862357,629.602888 373.632344,630.428056 387.255838,634.14131 C409.135994,639.917483 428.951984,652.294997 439.272812,667.560598 C449.180807,682.413615 453.721971,695.203713 458.263136,723.671996 C459.914468,734.811759 461.978634,746.364105 462.391467,748.839608 C465.694132,763.692625 472.299462,775.244972 480.556125,781.433729 C493.353952,790.923156 515.646941,791.33574 537.527097,783.084064 C541.242595,781.846313 544.54526,780.608561 544.54526,781.021145 C545.370926,781.846313 534.224432,789.272821 526.793435,792.986075 C516.472607,798.349665 508.215944,800 497.06945,800 C477.25346,800 460.327302,789.685405 446.703808,769.056215 C443.813976,764.930376 438.034313,752.965446 433.080315,741.825683 C418.631156,708.406395 411.200159,698.504384 394.274001,687.364621 C379.412008,677.875193 360.421684,675.812274 345.972525,682.826199 C326.982201,691.903043 322.028203,716.245487 335.238864,731.098504 C340.605694,737.287261 350.513689,742.238267 358.770352,743.476019 C374.045178,745.538938 387.255838,733.574007 387.255838,718.308406 C387.255838,708.406395 383.54034,702.630222 373.632344,698.0918 C360.421684,692.315627 345.972525,698.916968 346.385358,711.707065 C346.385358,717.070655 348.862357,720.371325 354.229187,722.846828 C357.531852,724.497163 357.531852,724.497163 355.054854,724.08458 C343.082693,721.609077 340.192861,706.75606 349.688023,697.266632 C361.247351,685.714286 385.604505,690.665291 393.861168,706.75606 C397.163833,713.357401 397.576666,726.560083 394.686834,734.811759 C387.668671,752.965446 367.852681,762.454874 347.623857,757.091284 C334.000364,753.37803 328.2207,749.664776 311.707375,732.74884 C282.809056,703.042806 271.662562,697.266632 230.379249,691.077875 L222.535419,689.840124 L231.204915,681.588448 Z" id="路径" fill-rule="nonzero"></path>
            <path d="M14.0546894,17.7411037 C110.244808,134.502321 258.451902,316.039195 265.882898,325.941207 C272.075395,334.192883 269.598396,342.031975 259.277568,347.808149 C253.497904,351.108819 241.525743,354.409489 235.746079,354.409489 C229.140749,354.409489 221.29692,351.108819 215.930089,345.745229 C212.214591,342.031975 196.114099,318.514698 159.784784,261.990717 C132.124964,218.669417 108.593476,182.774626 108.180643,182.362042 C106.52931,181.536875 106.52931,181.536875 156.894952,271.480144 C188.683103,328.004126 199.003931,348.220732 199.003931,350.696235 C199.003931,356.059825 197.352599,358.947911 190.747268,366.37442 C179.600774,378.751934 174.646776,392.779783 170.931278,422.073234 C166.802947,454.667354 155.656453,477.772047 123.868302,516.967509 C105.290811,540.072202 102.400979,544.19804 97.8598145,553.687468 C92.0801507,565.239814 90.4288182,571.841155 89.6031519,586.694172 C88.7774857,602.372357 90.4288182,612.274368 94.9699826,627.127385 C99.0983139,640.330067 103.639478,648.994327 114.785973,665.910263 C124.281135,680.76328 130.060799,691.903043 130.060799,696.028881 C130.060799,699.329551 130.886465,699.329551 145.748457,696.028881 C181.252107,687.777205 210.563259,673.749355 226.663751,656.420835 C236.571746,645.693657 239.048745,639.917483 239.048745,625.064466 C239.048745,615.575039 238.635911,613.51212 236.158913,607.735946 C232.030581,598.659103 224.186752,591.232594 207.260594,579.680248 C184.967605,564.414647 175.472443,552.037133 172.995444,535.53378 C170.931278,521.505931 173.408277,512.016503 185.793271,486.023724 C198.591098,459.205776 201.893763,448.066013 203.957929,420.835482 C205.196428,403.506962 207.260594,396.493038 212.214591,391.129448 C217.581422,385.353275 222.122586,383.290356 234.920413,381.640021 C255.974903,378.751934 269.598396,373.388345 280.332057,363.073749 C289.827219,354.409489 293.955551,345.745229 294.368384,332.955132 L294.781217,323.465704 L289.414386,317.689531 C270.011229,295.410005 1.2568624,0 0.0183630145,0 C-0.394470114,0 6.21085994,7.83909232 14.0546894,17.7411037 Z M140.79446,604.435276 C145.335624,596.596184 142.858626,586.694172 135.427629,581.743167 C128.409466,577.204745 117.675805,579.267664 117.675805,585.456421 C117.675805,587.106756 118.501471,588.757091 120.97847,589.582259 C124.693968,591.645178 125.106801,593.708097 122.216969,598.246519 C119.327137,602.784941 119.327137,606.910779 123.042635,609.798865 C128.822299,614.337287 136.666129,611.861784 140.79446,604.435276 Z" id="形状"></path>
            <path d="M307.991877,387.416194 C298.083882,390.304281 288.58872,401.03146 285.698888,411.758638 C284.047556,418.359979 284.873222,430.32491 287.763054,434.038164 C292.304218,439.814337 296.432549,441.464673 307.991877,441.464673 C330.697699,441.464673 350.100856,431.562661 352.165022,419.597731 C354.229187,409.695719 345.559692,396.080454 333.587531,389.891697 C327.395034,386.591026 314.597207,385.353275 307.991877,387.416194 Z M334.413197,408.045384 C337.715862,403.094379 336.477363,397.730789 330.284866,394.017535 C319.138371,387.00361 302.212213,392.779783 302.212213,403.506962 C302.212213,408.870552 310.881709,414.646725 319.138371,414.646725 C324.505202,414.646725 331.936198,411.346055 334.413197,408.045384 Z" id="形状"></path>
        </g>
    </g>
</svg>
