<svg xmlns="http://www.w3.org/2000/svg" viewBox="0 0 1024 1024">
  <g fill="none" fill-rule="evenodd">
    <circle cx="512" cy="512" r="511.5" fill="currentColor"/>
    <g fill="#FFF" fill-rule="nonzero" transform="translate(211 128)">
      <path d="m424.628 69.095 157.608 156.1c13.416 13.26 20.02 26.676 19.817 40.196-.213 13.52-5.985 25.843-17.269 37.023-11.803 11.7-24.543 17.627-38.167 17.887-13.624.208-27.143-6.344-40.56-19.603L344.862 141.06c-18.303-18.147-35.983-30.991-52.986-38.531-17.004-7.54-34.892-8.736-53.611-3.536-18.772 5.148-38.896 18.408-60.475 39.727-29.743 29.484-43.94 57.147-42.483 82.99 1.456 25.844 16.224 52.675 44.25 80.39l162.497 160.99c13.572 13.415 20.228 26.83 20.02 40.142-.208 13.364-6.032 25.688-17.524 37.076-11.44 11.335-24.075 17.263-37.803 17.731s-27.403-6.032-40.923-19.447L108.214 382.492q-38.453-38.063-55.534-72.07c-11.388-22.672-15.652-48.307-12.688-76.907 2.652-24.491 10.504-48.203 23.607-71.186 13.052-22.984 31.772-46.487 56.055-70.563 28.912-28.651 56.523-50.595 82.834-65.882 26.26-15.288 51.687-23.764 76.23-25.532 24.596-1.768 48.828 3.12 72.8 14.664 23.97 11.544 48.306 29.535 73.058 54.079z"/>
      <path d="m177.373 698.957-157.557-156.1C6.401 529.545-.204 516.18 0 502.66c.213-13.52 5.985-25.843 17.268-37.023 11.804-11.7 24.544-17.627 38.168-17.887 13.623-.208 27.143 6.292 40.559 19.603l161.144 159.637c18.356 18.147 35.983 30.991 52.987 38.531s34.891 8.684 53.663 3.536 38.895-18.408 60.475-39.78c29.743-29.483 43.939-57.146 42.483-82.99s-16.224-52.674-44.251-80.442l-86.578-85.018c-13.572-13.416-20.228-26.831-20.02-40.143.208-13.364 6.032-25.688 17.524-37.075 11.44-11.336 24.075-17.264 37.803-17.732s27.403 6.032 40.923 19.448l81.638 80.13q38.453 38.063 55.535 72.07c11.388 22.672 15.652 48.307 12.688 76.907-2.652 24.491-10.504 48.203-23.608 71.186-13.051 22.984-31.771 46.487-56.055 70.563-28.91 28.651-56.522 50.595-82.834 65.882-26.311 15.288-51.739 23.816-76.334 25.584s-48.827-3.12-72.799-14.664c-23.971-11.544-48.307-29.535-73.058-54.079z"/>
      <circle cx="275.651" cy="238.299" r="57.875"/>
    </g>
  </g>
</svg>
