<?xml version="1.0" encoding="utf-8"?>
<!-- Generator: Adobe Illustrator 24.0.0, SVG Export Plug-In . SVG Version: 6.00 Build 0)  -->
<svg version="1.1" id="Layer_1" xmlns="http://www.w3.org/2000/svg" xmlns:xlink="http://www.w3.org/1999/xlink" x="0px" y="0px"
	 viewBox="0 0 584.4 561.4" style="enable-background:new 0 0 584.4 561.4;" xml:space="preserve">
<style type="text/css">
	.st0{fill:#E85C50;}
	.st1{fill:#CF3339;}
	.st2{fill:#E33936;}
	.st3{fill:#E34C37;}
	.st4{fill:#E9654C;}
	.st5{fill:#E7563D;}
	.st6{fill:#E33937;}
	.st7{fill:#E75840;}
	.st8{fill:#E04437;}
	.st9{fill:#E24837;}
</style>
<title>uquid coin logo</title>
<path class="st0" d="M193.6,0.6c0.5,0.2,0.8,0.6,0.7,1.1c0,1,0,1.9,0,2.9v353.1c0,1.2-0.1,2.3-0.1,3.5c0.5,1,1.4,0.5,2,0.5
	c63.4,0,126.8,0,190.3,0.1c2,0,2.9-0.5,2.6-2.6c0-0.7,0-1.3,0-2c0-117.6,0-235.1,0-352.7c0-1.2-0.7-2.8,0.8-3.7
	c0.5-0.4,1.3-0.3,1.7,0.2c0,0,0,0.1,0.1,0.1c0.5,0.7,1,1.4,1.4,2.2c7.2,14.3,14.6,28.7,21.7,43c5.9,12,11.9,24,17.8,35.9
	c6.6,13.2,13.3,26.5,19.9,39.7c6,11.9,11.9,23.9,17.8,35.8c5.3,10.8,10.8,21.4,16,32.2c0.8,1.6,2,2.9,2.5,4.6c0.3,2,0.3,4.1,0.2,6.1
	v344c0,1,0,1.9,0,2.9c0,3.8,0,3.8,3.7,4.5c0.5,0.1,0.9,0.3,1.3,0.7c-2.5,1.2-5.1,1.6-7.8,2.2c-11.8,2.8-23.7,4.6-35.8,5.5
	c-5.6,0.4-11.2,0.5-16.8,0.6c-28.9,0.5-57.9,0.3-86.8,0.3c-50.2,0-100.5,0-150.8-0.1c-1,0-2.1,0.3-3.1-0.3c0.3-0.2,0.6-0.5,1-0.6
	c1.8-0.4,3.6-0.5,5.5-0.4h183.9c1.6,0.1,3.3,0,4.9-0.2c1.5-0.7,0.9-2,1-3.1c0-40.8,0-81.7,0-122.5v-63.9c-0.1-1.3,0-2.6,0.1-3.9
	c-1.5,4.7-4,9.1-6.2,13.6c-8.1,16.9-16,33.9-24.1,50.9c-4.4,9.3-8.8,18.5-13.2,27.8c-0.6,1.3-1.2,2.7-2.6,3.4
	c-1.4,0.4-2.9,0.5-4.3,0.4h-94.6c-1.3,0.1-2.5,0-3.8-0.3c-1.9-0.6-2.5-2.3-3.2-3.9c-5.5-11.7-11.1-23.4-16.6-35.2
	c-6-12.7-12-25.3-18-38c-2.9-6-5.6-12.1-8.8-18.4c0,1.7,0,3.1,0,4.5c0,61.4,0,122.7,0,184.1c0,1.9,0.5,3.9-0.9,5.6
	c-1,0-1.9,0.2-2.9,0.2c-14.3,0-28.6,0-42.9,0c-3.7,0-7.3-0.2-11-0.3c-0.7,0-1.4,0.1-1.9-0.4c0.7-0.6,1.5-0.3,2.2-0.3
	c17.5,0,35,0,52.5,0c0.7,0,1.3-0.1,1.5,0c-17.4,0-35.2,0-53.1,0c-1,0-2.1-0.4-3.1,0.4c-4.4,0.2-8.9-0.4-13.3-0.9
	c-8.6-0.8-17-2.6-25.4-4c-0.3-0.1-0.5-0.2-0.8-0.4c1-2.2,0.9-4.5,0.9-6.8c0-115.4,0-230.8,0-346.2c-0.1-2,0-4.1,0.2-6.1
	c0.5-2.1,1.3-4.1,2.3-5.9c6-11.9,12-23.8,17.9-35.8c21.8-44.7,44.3-89,66.4-133.5c2.8-5.6,5.6-11,8.3-16.6c0.4-0.9,0.7-2.8,2.5-1.2
	c0,110.4,0,220.8,0,331.2c0,8.6,0,17.2,0,25.9c0-118.1,0-236.1,0-354.2C193.2,4,192.6,2.3,193.6,0.6z"/>
<path class="st1" d="M96.5,194.7c0,118.6,0,237.2,0,355.7c0,1,0,1.9,0,2.9c0.1,1.4-0.8,1.6-1.8,1.7c-14.3-3.3-28.2-7.7-41.2-14.4
	c-7.2-3.7-14.2-7.6-20.4-12.7c-17.2-14.1-29.2-31.4-31.8-54.1c0-0.8,0-1.5,0-2.3c-0.3-1-0.4-2.1-0.2-3.2c0-153.9,0-307.7,0-461.6
	c-0.1-1.1,0-2.1,0.2-3.2c1.4,0.1,1.7,1.3,2.1,2.2C8.7,16.5,14,27.2,19.4,37.9c6.5,12.9,13,25.7,19.4,38.7c6,12,12.1,24,18,36.1
	c3.7,7.6,7.6,15.1,11.3,22.6c3.5,6.9,7,13.8,10.4,20.8c4,8.4,8.2,16.7,12.5,24.9c1.9,3.5,3.3,7.2,5.1,10.8
	C96.7,192.6,96.8,193.7,96.5,194.7z"/>
<path class="st1" d="M494,552.7c-1.4-0.1-2.7,0.1-4,0.5c-1.1,0.2-1.9-0.1-1.9-1.5c0-0.7,0-1.3,0-2V193.6c-0.9-1.6,0.3-2.8,0.9-4
	c9.6-18.7,19.1-37.5,28.5-56.4c0.2-0.4,0.5-0.9,0.8-1.3c0.1-0.2,0.2-0.4,0.3-0.6c0.2-0.3,0.3-0.6,0.5-0.9s0.2-0.4,0.3-0.6
	c0.3-0.6,0.6-1.3,0.9-1.9c0.1-0.2,0.3-0.5,0.4-0.7c5-9.4,9.6-19,14.4-28.6c2.6-5,5-10,7.5-15.1c2.3-4.5,4.5-8.9,6.7-13.4
	c0.2-0.3,0.3-0.6,0.5-0.8c7.4-14.4,14.4-29,21.8-43.3c3.1-5.9,6.1-11.9,9.2-17.8c0.5-1.1,0.9-2.4,2.5-2.7c0.6,1.2,0.3,2.4,0.3,3.6
	c0,91.4,0,182.8,0,274.1c0,60.7,0,121.4,0,182.1c0.1,1.2,0.1,2.3-0.2,3.5c0.4,4.2-1.2,8-2.2,11.9c-3.2,12.4-10,22.7-18.4,32.1
	c-6.3,7.3-13.6,13.8-21.7,19.1c-10.2,6.7-21.2,12.2-32.7,16.4C503.8,549.9,498.9,551.5,494,552.7z"/>
<path class="st2" d="M96.5,194.7c-0.2-1-0.5-1.9-1.1-2.7c-2.7-5.7-5.7-11.2-8.3-16.9c-2.6-5.5-5.8-10.7-8.2-16.3
	c-2.2-5.2-5.3-9.9-7.5-15c-2.8-6.5-6.7-12.4-9.3-19c-1-2.6-2.7-4.9-3.9-7.4c-1.9-3.8-3.4-7.8-5.5-11.5c-4.1-7.2-7.4-14.9-11.2-22.2
	c-2.5-4.8-5.1-9.5-7.3-14.5c-2.4-5.4-5.6-10.4-7.9-15.8c-2.8-6.6-6.7-12.6-9.5-19.2c-1.3-3.2-3.4-6.1-4.8-9.3
	C8.8,17.9,4.7,11.3,1.2,4.2V468c0,1.2,0,2.3,0,3.5c-1-3.2-0.7-6.5-0.7-9.8c-0.1-41-0.1-82.1,0-123.1V9.3c0.1-2.9,0-5.8-0.3-8.7
	C1.1,0.3,2.1,0.2,3,0.4c62.3,0,124.7,0,187,0h1.7c2.1,0,1.3,1.1,0.7,2l-37.9,75.5c-7.9,15.8-15.8,31.5-23.6,47.3
	c-2.9,5.8-5.6,11.7-8.5,17.5c-8,16-16,32-24,48L96.5,194.7z"/>
<path class="st2" d="M518.3,132.6c-0.1,0.8-0.4,1.5-0.8,2.1c-6.3,12.7-12.6,25.5-19.1,38.1c-3.1,6-6.1,12-9.2,18.1
	c-0.5,0.8-0.9,1.7-1.1,2.7c-1.1,0-1.4-1-1.7-1.7c-1.3-2.5-2.3-5.1-3.6-7.6c-1.5-3-3.2-6-4.7-9c-2.8-5.5-5.7-11-8.3-16.6
	c-2.7-5.9-6.1-11.4-8.7-17.4c-2.8-6.4-6.5-12.3-9.2-18.7c-1.5-3.5-3.6-6.8-5.3-10.3c-2.7-5.4-5.6-10.8-8.1-16.3
	c-2.9-6.3-6.5-12.3-9.2-18.7c-1.5-3.5-3.7-6.8-5.3-10.3c-3-6.7-6.8-13-9.7-19.8c-1.5-3.5-3.6-6.8-5.3-10.3
	c-5.5-11.1-11.1-22.1-16.6-33.2c-0.6-0.9-1-1.9-1.2-2.9l0.5-0.3c37.9-0.1,75.8,0,113.8,0c25.2,0,50.3,0,75.5,0c1,0,2.1-0.3,3.1,0.3
	c0.1,0.8,1,1.5,0.1,2.4c-2.8,3.3-4.1,7.4-6,11.1c-9.6,18.6-18.9,37.4-28.3,56.2l0,0c-2.4,4.4-4.7,8.9-6.8,13.4
	c-2.6,5-5.1,10-7.6,15.1c-5,9.6-9.6,19.5-14.7,29l0,0c-0.5,0.7-0.9,1.5-1.2,2.3l0,0c-0.4,0.3-0.3,0.9-0.6,1.2l0,0
	C518.5,131.7,518.6,132.3,518.3,132.6z"/>
<path class="st3" d="M549.7,70.4c1.5-5.2,4.3-9.9,6.9-14.6c0.9-1.6,1.5-3.3,2.3-5c3.5-6.8,6.8-13.6,10.2-20.4c2.7-5.3,5.2-10.7,8-16
	c1.9-3.5,3.5-7,5.3-10.6c0.4-0.8,0.7-1.4,1.7-0.8c0,18.8,0,37.6,0,56.3c0,133.8,0,267.6,0,401.4c0,2.6,0.2,5.2-0.5,7.8
	c0-1-0.1-1.9-0.1-2.9V5.9c-0.9,0.1-1,0.8-1.2,1.4c-1,1.9-1.9,3.8-2.9,5.7c-9.5,18.3-18.7,36.7-27.9,55.2C551,69,550.7,70,549.7,70.4
	z"/>
<path class="st4" d="M391.1,0.7c-1.2,0.2-2,1.3-1.8,2.5c0,0,0,0.1,0,0.1c0,0.8,0,1.5,0,2.3c0,117.4,0,234.9,0,352.3
	c0,4.6,0.5,4.2-4.2,4.2c-62.4,0-124.9,0-187.3,0c-1.2,0-2.7,0.7-3.7-0.8c1,0.4,2.1,0.5,3.1,0.4h188.6c0.4,0,0.8,0,1.2,0
	c1.4,0.1,2-0.4,1.9-1.8c-0.1-0.9,0-1.7,0-2.6V4.5c0-0.7,0-1.3,0-2c-0.2-1.7,0.7-2.3,2.2-2.2L391.1,0.7L391.1,0.7z"/>
<path class="st5" d="M192.3,2.5c0-0.8,0.7-1.9-1-1.7c-0.8,0-1.6,0-2.3,0H0c0.8-1.1,2-0.5,2.9-0.5c13.3-0.1,26.5,0,39.7,0
	c49,0,98.1,0,147.1,0c1.2,0,2.5-0.4,3.7,0.5c0,40.3,0,80.6,0,120.8v239.3c-0.9-0.4-0.5-1.1-0.6-1.6c0-0.7,0-1.3,0-2
	c0-116.9,0-233.9,0-350.9C192.9,5,193.4,3.6,192.3,2.5z"/>
<path class="st0" d="M391.1,0.7c0-0.1,0-0.3,0-0.4c1.1-0.1,2.1-0.2,3.2-0.2c62.2,0,124.3,0,186.5,0c1.1,0,2.3-0.5,3.2,0.5L391.1,0.7
	z"/>
<path class="st1" d="M389.3,560.7c-1.3,0-2.5,0-3.8,0H197c-1.2,0-2.3-0.1-3.5-0.1c-0.2-1.2,0-2.3,0.6-3.4c5-10.5,9.9-21,14.9-31.5
	c9.9-20.7,19.6-41.5,29.5-62.1c0.3-0.8,0.8-1.6,1.4-2.1h103.4c2.5,4.4,4.5,9,6.6,13.5c4,8.7,8.2,17.3,12.3,26
	c8.8,18.5,17.6,37.1,26.3,55.6C389.3,557.9,389.6,559.3,389.3,560.7z"/>
<path class="st6" d="M240,461.5c-0.4,1.7-1,3.3-1.9,4.9c-4.8,10-9.7,20-14.4,30c-3.2,6.8-6.4,13.6-9.6,20.4
	c-3.7,7.9-7.4,15.7-11.2,23.5c-2.8,5.8-5.5,11.7-8.2,17.6c-0.4,0.9-0.7,1.8-1.1,2.7l-0.7,0.2l0,0c0-1.3,0-2.5,0-3.8V364
	c0.9,0.6,1.6,1.5,1.9,2.5c1.9,4.2,3.8,8.5,5.8,12.6c3.1,6.5,6.3,12.9,9.3,19.3c5.3,11.4,10.7,22.7,16.1,34
	c3.2,6.7,6.3,13.5,9.6,20.2C237,455.6,238,458.8,240,461.5z"/>
<path class="st6" d="M389.3,560.7c-0.7-3.5-2.7-6.4-4-9.6c-1.7-4.1-3.7-8-5.7-12.1c-4.5-9.4-9.1-18.8-13.5-28.2
	c-3.6-7.6-7.2-15.2-10.8-22.8c-3.9-8-7.5-16.1-11.3-24.1c-0.4-0.8-0.7-1.6-0.7-2.5c5.8-12.2,11.7-24.4,17.4-36.7
	c3.4-7.2,6.8-14.3,10.2-21.5c3.8-8,7.5-15.9,11.3-23.8c2-4.2,3.9-8.4,5.8-12.6c0.3-1,0.9-2,1.8-2.7v3c0,63.4,0,126.9,0,190.3
	C389.9,558.6,390.3,559.8,389.3,560.7z"/>
<path class="st7" d="M134.1,560.3c0.6-0.8,1.6-0.7,2.4-0.7h54.3c0.4,0,0.8,0.1,1.2,0.2c-1.1,0.4-2.2,0.5-3.3,0.3h-52
	C135.9,560.2,135,560.3,134.1,560.3L134.1,560.3z"/>
<path class="st8" d="M520.6,127.9c0.1-0.7,0.3-1.3,0.7-1.9c4.3-8.6,8.6-17.2,12.9-25.8c0.2-0.6,0.5-1,1-1.4c0.2-0.3,0.4-0.3,0.6,0
	c-4.4,8.9-8.9,17.7-13.3,26.6C522,126.3,521.7,127.5,520.6,127.9z"/>
<path class="st9" d="M535.7,98.9h-0.6c1.2-3.6,3.3-6.9,4.9-10.4c0.8-1.6,1.3-3.4,2.6-4.7c0.2-0.3,0.4-0.3,0.6,0L535.7,98.9z"/>
<path class="st3" d="M543.3,83.8h-0.6c1.9-4.7,3.9-9.3,7-13.4c0.1,0.6-0.1,1.2-0.3,1.7C547,75.8,545.3,79.9,543.3,83.8z"/>
<path class="st8" d="M519.5,130.2c-0.2-1,0.3-1.9,1.2-2.3C520.6,128.8,520.2,129.7,519.5,130.2z"/>
<path class="st8" d="M518.9,131.5c-0.1-0.5,0.2-0.9,0.6-1.2C519.5,130.8,519.3,131.2,518.9,131.5z"/>
<path class="st8" d="M518.3,132.6c-0.1-0.5,0.2-0.9,0.6-1.2C518.9,131.9,518.7,132.3,518.3,132.6z"/>
</svg>
