<?xml version="1.0" encoding="UTF-8"?>
<svg viewBox="0 0 1024 1024" version="1.1" xmlns="http://www.w3.org/2000/svg" xmlns:xlink="http://www.w3.org/1999/xlink">
    <title>usd-coin-usdc-logo_Circle Filled</title>
    <g id="usd-coin-usdc-logo_Circle-Filled" stroke="none" stroke-width="1" fill="none" fill-rule="evenodd">
        <g id="usd-coin-usdc-logo备份" transform="translate(112, 112)" fill-rule="nonzero">
            <path d="M400,800 C621.668,800 800,621.668 800,400 C800,178.332 621.668,0 400,0 C178.332,0 0,178.332 0,400 C0,621.668 178.332,800 400,800 Z" id="路径" fill="#555555"></path>
            <path d="M510,463.332 C510,405 475,385 405,376.668 C355,370 345,356.668 345,333.332 C345,309.996 361.668,295 395,295 C425,295 441.668,305 450,330 C451.668,335 456.668,338.332 461.668,338.332 L488.332,338.332 C495,338.332 500,333.332 500,326.668 L500,325 C493.332,288.332 463.332,260 425,256.668 L425,216.668 C425,210 420,205 411.668,203.332 L386.668,203.332 C380,203.332 375,208.332 373.332,216.668 L373.332,255 C323.332,261.668 291.668,295 291.668,336.668 C291.668,391.668 325,413.332 395,421.668 C441.668,430 456.668,440 456.668,466.668 C456.668,493.336 433.332,511.668 401.668,511.668 C358.332,511.668 343.332,493.332 338.332,468.332 C336.668,461.668 331.668,458.332 326.668,458.332 L298.332,458.332 C291.668,458.332 286.668,463.332 286.668,470 L286.668,471.668 C293.332,513.332 320,543.332 375,551.668 L375,591.668 C375,598.332 380,603.332 388.332,605 L413.332,605 C420,605 425,600 426.668,591.668 L426.668,551.668 C476.668,543.332 510,508.332 510,463.332 L510,463.332 Z" id="路径" fill="#FFFFFF"></path>
            <path d="M315,638.332 C185,591.668 118.332,446.668 166.668,318.332 C191.668,248.332 246.668,195 315,170 C321.668,166.668 325,161.668 325,153.332 L325,130 C325,123.332 321.668,118.332 315,116.668 C313.332,116.668 310,116.668 308.332,118.332 C150,168.332 63.332,336.668 113.332,495 C143.332,588.332 215,660 308.332,690 C315,693.332 321.668,690 323.332,683.332 C325,681.668 325,680 325,676.668 L325,653.332 C325,648.332 320,641.668 315,638.332 Z M491.668,118.332 C485,115 478.332,118.332 476.668,125 C475,126.668 475,128.332 475,131.668 L475,155 C475,161.668 480,168.332 485,171.668 C615,218.332 681.668,363.332 633.332,491.668 C608.332,561.668 553.332,615 485,640 C478.332,643.332 475,648.332 475,656.668 L475,680 C475,686.668 478.332,691.668 485,693.332 C486.668,693.332 490,693.332 491.668,691.668 C650,641.668 736.668,473.332 686.668,315 C656.668,220 583.332,148.332 491.668,118.332 Z" id="形状" fill="#FFFFFF"></path>
        </g>
    </g>
</svg>
