<?xml version="1.0" encoding="UTF-8"?>
<svg viewBox="0 0 1024 1024" version="1.1" xmlns="http://www.w3.org/2000/svg" xmlns:xlink="http://www.w3.org/1999/xlink">
    <title>usd-coin-usdc-logo_Filled</title>
    <g id="usd-coin-usdc-logo_Filled" stroke="none" stroke-width="1" fill="none" fill-rule="evenodd">
        <g id="usd-coin-usdc-logo" transform="translate(112, 129)" fill="#555555" fill-rule="nonzero">
            <path d="M546.269911,461.085291 C546.269911,383.5 499.729485,356.898721 406.648632,345.816628 C340.162309,336.947762 326.865044,319.215349 326.865044,288.176977 C326.865044,257.138604 349.028925,237.192965 393.351368,237.192965 C433.243162,237.192965 455.407042,250.493605 466.486323,283.745203 C468.704307,290.395523 475.352939,294.827296 482.001572,294.827296 L517.457398,294.827296 C526.324014,294.827296 532.972647,288.176977 532.972647,279.31343 L532.972647,277.094884 C524.106031,228.324099 484.214237,190.640727 433.243162,186.208954 L433.243162,133.006395 C433.243162,124.137529 426.594529,117.487209 415.515248,115.268663 L382.272087,115.268663 C373.405471,115.268663 366.756838,121.918982 364.538855,133.006395 L364.538855,183.990407 C298.052531,192.859273 255.948072,237.192965 255.948072,292.61407 C255.948072,365.767587 300.270515,394.582093 393.351368,405.669506 C455.407042,416.751599 475.352939,430.052238 475.352939,465.522384 C475.352939,500.992529 444.322443,525.375262 402.217984,525.375262 C344.592958,525.375262 324.647061,500.987209 317.998428,467.73561 C315.785763,458.872064 309.137131,454.434971 302.488499,454.434971 L264.80937,454.434971 C255.948072,454.434971 249.29944,461.085291 249.29944,469.954157 L249.29944,472.172704 C258.160737,527.588488 293.621883,567.490407 366.756838,578.57782 L366.756838,631.780378 C366.756838,640.643924 373.405471,647.294244 384.484752,649.512791 L417.727913,649.512791 C426.594529,649.512791 433.243162,642.862471 435.461145,631.780378 L435.461145,578.57782 C501.947469,567.490407 546.269911,520.938169 546.269911,461.085291 L546.269911,461.085291 Z" id="路径"></path>
            <path d="M286.97325,693.846483 C114.10881,631.780378 25.4586057,438.921105 89.7322642,268.226017 C122.975426,175.12154 196.110381,104.18657 286.97325,70.9349708 C295.839866,66.5031977 300.270515,59.8528779 300.270515,48.7654648 L300.270515,17.7324126 C300.270515,8.86354619 295.839866,2.21322642 286.97325,0 C284.755267,0 280.324618,0 278.106634,2.21322642 C67.5683834,68.7164241 -47.6763499,292.61407 18.8099734,503.205756 C58.7017674,627.343285 154.000604,722.666308 278.106634,762.568227 C286.97325,767 295.839866,762.568227 298.052531,753.69936 C300.270515,751.486134 300.270515,749.267587 300.270515,744.835814 L300.270515,713.797442 C300.270515,707.147122 293.621883,698.283576 286.97325,693.846483 Z M521.893366,2.21322642 C513.02675,-2.21854668 504.160134,2.21322642 501.947469,11.0820929 C499.729485,13.3006395 499.729485,15.513866 499.729485,19.9509593 L499.729485,50.9840115 C499.729485,59.8528779 506.378117,68.7164241 513.02675,73.1535175 C685.89119,135.219622 774.541394,328.078895 710.267736,498.773983 C677.024574,591.87846 603.889619,662.81343 513.02675,696.065029 C504.160134,700.496802 499.729485,707.147122 499.729485,718.234535 L499.729485,749.267587 C499.729485,758.136454 504.160134,764.786774 513.02675,767 C515.244733,767 519.675382,767 521.893366,764.786774 C732.431617,698.283576 847.67635,474.38593 781.190027,263.794244 C741.298233,137.438169 643.781413,42.115145 521.893366,2.21322642 Z" id="形状"></path>
        </g>
    </g>
</svg>
