<?xml version="1.0" encoding="UTF-8"?>
<svg viewBox="0 0 1024 1024"
  xmlns="http://www.w3.org/2000/svg">
  <g stroke="none" stroke-width="1" fill="none" fill-rule="evenodd">
    <g>
      <circle fill="currentColor" cx="513" cy="512" r="512"></circle>
        <rect fill-opacity="0" fill="#FFFFFF" x="0" y="0" width="1024" height="1024"></rect>
        <path d="M576.950552,535.212229 L576.950552,535.212229 C573.327956,535.48798 554.611211,536.621622 512.860795,536.621622 C479.653666,536.621622 456.076605,535.610536 447.805011,535.212229 L447.805011,535.212229 C319.474555,529.482742 223.687084,506.809906 223.687084,479.663781 C223.687084,452.517655 319.474555,429.875458 447.805011,424.054054 L447.805011,512.63131 C456.197358,513.244089 480.227244,514.684121 513.434372,514.684121 C553.282926,514.684121 573.237391,512.998977 576.829799,512.661949 L576.829799,424.115332 C704.888561,429.906097 800.464714,452.578933 800.464714,479.663781 C800.464714,506.748628 704.918749,529.421464 576.829799,535.18159 L576.829799,535.18159 L576.950552,535.212229 Z M577.303944,414.791292 L577.303944,335.663908 L755.865429,335.663908 L755.865429,215 L269.707657,215 L269.707657,335.663908 L448.238979,335.663908 L448.238979,414.760705 C303.12761,421.520331 194,450.669306 194,485.599136 C194,520.528967 303.12761,549.647355 448.238979,556.437567 L448.238979,810 L577.273782,810 L577.273782,556.345808 C722.053364,549.586182 831,520.467794 831,485.56855 C831,450.669306 722.143852,421.550918 577.273782,414.760705 L577.273782,414.760705 L577.303944,414.791292 Z" fill="#FFFFFF"></path>
      </g>
  </g>
</svg>
