<?xml version="1.0" encoding="UTF-8"?>
<svg width="1024px" height="1024px" viewBox="0 0 1024 1024" version="1.1" xmlns="http://www.w3.org/2000/svg" xmlns:xlink="http://www.w3.org/1999/xlink">
    <title>USDT_CircleColorful</title>
    <g id="USDT_CircleColorful" stroke="none" stroke-width="1" fill="none" fill-rule="evenodd">
        <g id="tether-usdt-logo" transform="translate(112, 112)">
            <path d="M800,400 C800,620.916112 620.916112,800 400,800 C179.086019,800 0,620.916112 0,400 C0,179.086019 179.086019,0 400,0 C620.916112,0 800,179.086019 800,400 Z" id="路径" fill="#50AF95"></path>
            <path d="M458.589564,419.752378 L458.589564,419.752378 C455.345092,419.995733 438.581988,420.996196 401.18945,420.996196 C371.448459,420.996196 350.332355,420.103891 342.924144,419.752378 L342.924144,419.752378 C227.988731,414.695985 142.199489,394.686732 142.199489,370.729708 C142.199489,346.772683 227.988731,326.790469 342.924144,321.652958 L342.924144,399.824243 C350.440504,400.365034 371.962167,401.635892 401.703158,401.635892 C437.392348,401.635892 455.26398,400.148717 458.481415,399.851283 L458.481415,321.707037 C573.173493,326.817509 658.773474,346.826762 658.773474,370.729708 C658.773474,394.632653 573.20053,414.641906 458.481415,419.725338 L458.481415,419.725338 L458.589564,419.752378 Z M458.589564,313.622218 L458.589564,243.67095 L618.650173,243.67095 L618.650173,137 L182.863535,137 L182.863535,243.67095 L342.897107,243.67095 L342.897107,313.595178 C212.820825,319.570915 115,345.339588 115,376.218732 C115,407.097877 212.820825,432.839511 342.897107,438.842287 L342.897107,663 L458.562527,663 L458.562527,438.761168 C588.341399,432.785432 686,407.043798 686,376.191693 C686,345.339588 588.422511,319.597954 458.562527,313.595178 L458.562527,313.595178 L458.589564,313.622218 Z" id="形状" fill="#FFFFFF"></path>
        </g>
    </g>
</svg>