<?xml version="1.0" encoding="UTF-8"?>
<svg viewBox="0 0 1024 1024"
  xmlns="http://www.w3.org/2000/svg">
  <g stroke="none" stroke-width="1" fill="none" fill-rule="evenodd">
    <g>
      <rect fill-opacity="0" fill="#FFFFFF" x="0" y="0" width="1024" height="1024"></rect>
      <circle fill="#FFFFFF" cx="513" cy="512" r="512"></circle>
      <path d="M577.950552,535.212229 L577.950552,535.212229 C574.327956,535.48798 555.611211,536.621622 513.860795,536.621622 C480.653666,536.621622 457.076605,535.610536 448.805011,535.212229 L448.805011,535.212229 C320.474555,529.482742 224.687084,506.809906 224.687084,479.663781 C224.687084,452.517655 320.474555,429.875458 448.805011,424.054054 L448.805011,512.63131 C457.197358,513.244089 481.227244,514.684121 514.434372,514.684121 C554.282926,514.684121 574.237391,512.998977 577.829799,512.661949 L577.829799,424.115332 C705.888561,429.906097 801.464714,452.578933 801.464714,479.663781 C801.464714,506.748628 705.918749,529.421464 577.829799,535.18159 L577.829799,535.18159 L577.950552,535.212229 Z M578.303944,414.791292 L578.303944,335.663908 L756.865429,335.663908 L756.865429,215 L270.707657,215 L270.707657,335.663908 L449.238979,335.663908 L449.238979,414.760705 C304.12761,421.520331 195,450.669306 195,485.599136 C195,520.528967 304.12761,549.647355 449.238979,556.437567 L449.238979,810 L578.273782,810 L578.273782,556.345808 C723.053364,549.586182 832,520.467794 832,485.56855 C832,450.669306 723.143852,421.550918 578.273782,414.760705 L578.273782,414.760705 L578.303944,414.791292 Z" id="形状" fill="#000000"></path>
    </g>
  </g>
</svg>
