<?xml version="1.0" encoding="UTF-8"?>
<svg viewBox="0 0 1024 1024"
  xmlns="http://www.w3.org/2000/svg">
  <path d="M587.277 538.568c-4.231 0.322-26.092 1.648-74.856 1.648-38.785 0-66.322-1.182-75.983-1.648-149.887-6.702-261.764-33.224-261.764-64.978 0-31.754 111.877-58.24 261.764-65.05v103.614c9.802 0.716 37.868 2.4 76.653 2.4 46.542 0 69.849-1.97 74.045-2.365V408.612c149.569 6.774 261.2 33.295 261.2 64.978 0 31.682-111.596 58.204-261.2 64.942l0.14 0.036z m0.412-140.863v-92.559h208.556V164h-567.82v141.146h208.52v92.524C267.458 405.577 140 439.674 140 480.533s127.458 74.92 296.945 82.863V860h150.71V563.289C756.752 555.38 884 521.32 884 480.497s-127.141-74.884-296.346-82.827l0.035 0.035z" fill-opacity=".85"></path>
</svg>
