<?xml version="1.0" encoding="utf-8"?>
<!-- Generator: Adobe Illustrator 24.0.0, SVG Export Plug-In . SVG Version: 6.00 Build 0)  -->
<svg version="1.1" id="ant-web3-icon-veil-colorful-svg2" xmlns:cc="http://creativecommons.org/ns#ant-web3-icon-veil-colorful-" xmlns:dc="http://purl.org/dc/elements/1.1/" xmlns:rdf="http://www.w3.org/1999/02/22-rdf-syntax-ns#ant-web3-icon-veil-colorful-" xmlns:svg="http://www.w3.org/2000/svg" xmlns="http://www.w3.org/2000/svg" xmlns:xlink="http://www.w3.org/1999/xlink" x="0px" y="0px" viewBox="0 0 247.3 214.2" enable-background="new 0 0 247.3 214.2" xml:space="preserve">

<path id="ant-web3-icon-veil-colorful-path28" d="M153.5,132.4l0-0.7" style="fill: none; stroke: #ABABAB; stroke-width: 0.3333; stroke-miterlimit: 1.3333;"/>
<g id="ant-web3-icon-veil-colorful-g30">
	<g>
		<defs>
			<path id="ant-web3-icon-veil-colorful-SVGID_1_" d="M208.8,66.7L208.8,66.7L247.3,0c-9.6,1.2-19,4.1-27.7,8.4c-7.4,14.5-7.6,29.1-16.5,42.1
				c-31.3,46-83.9,60.3-130,30.1C46.6,63.3,30.7,18.5,27.7,8.4C19,4.1,9.6,1.2,0,0c12.8,22.2,25.7,44.5,38.5,66.7
				c46.9,16.5,78.1,73.4,84.9,117C129.4,133.4,164.9,86.2,208.8,66.7L208.8,66.7z"/>
		</defs>
		<clipPath id="ant-web3-icon-veil-colorful-SVGID_2_">
			<use xlink:href="#ant-web3-icon-veil-colorful-SVGID_1_" overflow="visible"/>
		</clipPath>
		<g id="ant-web3-icon-veil-colorful-g32" clip-path=" url(#ant-web3-icon-veil-colorful-SVGID_2_)">
			
				<linearGradient id="ant-web3-icon-veil-colorful-path44_1_" gradientUnits="userSpaceOnUse" x1="-880.6928" y1="711.856" x2="-879.6928" y2="711.856" gradientTransform="matrix(0 183.7613 -183.7613 0 130935.2578 161837.2813)">
				<stop offset="0" stop-color="#0090FF"/>
				<stop offset="1" stop-color="#0A3979"/>
			</linearGradient>
			<path id="ant-web3-icon-veil-colorful-path44" d="M208.8,66.7L208.8,66.7L247.3,0c-9.6,1.2-19,4.1-27.7,8.4c-7.4,14.5-7.6,29.1-16.5,42.1
				c-31.3,46-83.9,60.3-130,30.1C46.6,63.3,30.7,18.5,27.7,8.4C19,4.1,9.6,1.2,0,0c12.8,22.2,25.7,44.5,38.5,66.7
				c46.9,16.5,78.1,73.4,84.9,117C129.4,133.4,164.9,86.2,208.8,66.7" fill=" url(#ant-web3-icon-veil-colorful-path44_1_)"/>
		</g>
	</g>
</g>
<g id="ant-web3-icon-veil-colorful-g46">
	<g>
		<defs>
			<path id="ant-web3-icon-veil-colorful-SVGID_3_" d="M208.8,66.7c-64.1,17.4-102.1,83.3-85.1,147.5l0,0L208.8,66.7z"/>
		</defs>
		<clipPath id="ant-web3-icon-veil-colorful-SVGID_4_">
			<use xlink:href="#ant-web3-icon-veil-colorful-SVGID_3_" overflow="visible"/>
		</clipPath>
		<g id="ant-web3-icon-veil-colorful-g48" clip-path=" url(#ant-web3-icon-veil-colorful-SVGID_4_)">
			
				<linearGradient id="ant-web3-icon-veil-colorful-path62_1_" gradientUnits="userSpaceOnUse" x1="-874.149" y1="717.3034" x2="-873.149" y2="717.3034" gradientTransform="matrix(89.158 0 0 89.158 78057.0078 -63812.8789)">
				<stop offset="0" stop-color="#0090FF"/>
				<stop offset="0.96" stop-color="#084A93"/>
				<stop offset="1" stop-color="#084A93"/>
			</linearGradient>
			<path id="ant-web3-icon-veil-colorful-path62" d="M208.8,66.7c-64.1,17.4-102.1,83.3-85.1,147.5l0,0L208.8,66.7" fill=" url(#ant-web3-icon-veil-colorful-path62_1_)"/>
		</g>
	</g>
</g>
<g id="ant-web3-icon-veil-colorful-g64">
	<g>
		<defs>
			<path id="ant-web3-icon-veil-colorful-SVGID_5_" d="M38.5,66.7l85.1,147.5C140.6,150,102.6,84.2,38.5,66.7z"/>
		</defs>
		<clipPath id="ant-web3-icon-veil-colorful-SVGID_6_">
			<use xlink:href="#ant-web3-icon-veil-colorful-SVGID_5_" overflow="visible"/>
		</clipPath>
		<g id="ant-web3-icon-veil-colorful-g66" clip-path=" url(#ant-web3-icon-veil-colorful-SVGID_6_)">
			
				<linearGradient id="ant-web3-icon-veil-colorful-path80_1_" gradientUnits="userSpaceOnUse" x1="-880.4731" y1="710.9677" x2="-879.4731" y2="710.9677" gradientTransform="matrix(0 147.456 -147.456 0 104919.5547 129897.7656)">
				<stop offset="0" stop-color="#0090FF"/>
				<stop offset="0.96" stop-color="#084A93"/>
				<stop offset="1" stop-color="#084A93"/>
			</linearGradient>
			<path id="ant-web3-icon-veil-colorful-path80" d="M38.5,66.7l85.1,147.5C140.6,150,102.6,84.2,38.5,66.7" fill=" url(#ant-web3-icon-veil-colorful-path80_1_)"/>
		</g>
	</g>
</g>
<g id="ant-web3-icon-veil-colorful-g82">
	<g>
		<defs>
			<path id="ant-web3-icon-veil-colorful-SVGID_7_" d="M205.5,51.1c8-12.9,12.9-27.5,14.2-42.7c-20.9,10.4-36.9,28.7-44.3,50.8c-16.6,49.7-86.8,49.7-103.4,0
				C64.5,37.1,48.6,18.8,27.7,8.5c4.5,53,51.1,92.3,104.1,87.8C162.1,93.7,189.4,77,205.5,51.1L205.5,51.1z"/>
		</defs>
		<clipPath id="ant-web3-icon-veil-colorful-SVGID_8_">
			<use xlink:href="#ant-web3-icon-veil-colorful-SVGID_7_" overflow="visible"/>
		</clipPath>
		<g id="ant-web3-icon-veil-colorful-g84" clip-path=" url(#ant-web3-icon-veil-colorful-SVGID_8_)">
			
				<linearGradient id="ant-web3-icon-veil-colorful-path98_1_" gradientUnits="userSpaceOnUse" x1="-883.4448" y1="722.9814" x2="-882.4448" y2="722.9814" gradientTransform="matrix(0 -88.1949 88.1949 0 -63639.6289 -77818.7109)">
				<stop offset="0" stop-color="#13D5D2"/>
				<stop offset="0.43" stop-color="#12E0E4"/>
				<stop offset="1" stop-color="#76BDFF"/>
			</linearGradient>
			<path id="ant-web3-icon-veil-colorful-path98" d="M205.5,51.1c8-12.9,12.9-27.5,14.2-42.7c-20.9,10.4-36.9,28.7-44.3,50.8
				c-16.6,49.7-86.8,49.7-103.4,0C64.5,37.1,48.6,18.8,27.7,8.5c4.5,53,51.1,92.3,104.1,87.8C162.1,93.7,189.4,77,205.5,51.1
				L205.5,51.1" fill=" url(#ant-web3-icon-veil-colorful-path98_1_)"/>
		</g>
	</g>
</g>
</svg>
