<?xml version="1.0" encoding="UTF-8"?>
<svg viewBox="0 0 1024 1024"
  xmlns="http://www.w3.org/2000/svg">
    <g stroke="none" stroke-width="1" fill="none" fill-rule="evenodd">
        <g transform="translate(-1712.000000, -1165.000000)">
            <g transform="translate(1712.000000, 1165.000000)">
                <path d="M217.311305,331.574113 C380.06365,172.141962 643.937339,172.141962 806.689677,331.574113 L826.277185,350.762027 C834.414801,358.733634 834.414801,371.658164 826.277185,379.629775 L759.272231,445.267808 C755.203421,449.253615 748.606579,449.253615 744.537769,445.267808 L717.583035,418.862955 C604.042932,307.639102 419.958053,307.639102 306.417948,418.862955 L277.551654,447.140374 C273.482843,451.126178 266.885999,451.126178 262.817194,447.140374 L195.81224,381.502341 C187.674623,373.53073 187.674623,360.6062 195.81224,352.634593 L217.311305,331.574113 Z M945.26225,467.320506 L1004.89679,525.738686 C1013.03436,533.710256 1013.03441,546.634709 1004.89689,554.606332 L736.000639,818.021149 C727.863079,825.992815 714.669395,825.992905 706.531722,818.021355 C706.531688,818.021322 706.531648,818.021282 706.531615,818.021249 L515.685415,631.068085 C513.651012,629.075184 510.352589,629.075184 508.318186,631.068085 C508.318172,631.068099 508.318162,631.068112 508.318149,631.068122 L317.476014,818.021149 C309.338478,825.992835 296.144792,825.992969 288.007093,818.021439 C288.007046,818.021392 288.006995,818.021345 288.006944,818.021292 L19.1032105,554.602976 C10.9655965,546.63137 10.9655965,533.706838 19.1032105,525.735231 L78.7378562,467.31715 C86.8754701,459.345543 100.069156,459.345543 108.206774,467.31715 L299.055751,654.272927 C301.090157,656.265828 304.388574,656.265828 306.42298,654.272927 C306.42301,654.272897 306.423037,654.27287 306.423068,654.272847 L497.26248,467.31715 C505.39991,459.345359 518.593598,459.34506 526.731401,467.316484 C526.731514,467.316596 526.731627,467.316708 526.731737,467.31682 L717.580462,654.272847 C719.614866,656.265745 722.913288,656.265745 724.947692,654.272847 L915.793333,467.320506 C923.930949,459.348896 937.124633,459.348896 945.26225,467.320506 L945.26225,467.320506 Z" fill="#3B99FC" fill-rule="nonzero"></path>
            </g>
        </g>
    </g>
</svg>
