<?xml version="1.0" encoding="UTF-8"?>
<svg viewBox="0 0 1024 1024"
  xmlns="http://www.w3.org/2000/svg">
  <path d="M911.14951111 265.10222222h-798.29902222C73.97717333 265.10222222 42.09777778 297.03054222 42.09777778 337.16110222v504.41557333C42.09777778 881.70723555 73.97717333 913.63555555 112.85048889 913.63555555h798.29902222c38.76864 0 70.64803555-31.92832 70.75271111-72.05888V706.79893333H705.56785778c-69.82656-0.37888-126.76892445-57.40771555-126.82012445-128.10581333 0.0512-70.03591111 56.99356445-127.06588445 126.82012445-126.7712H981.90222222V337.16224C981.90222222 297.03054222 950.02282667 265.10222222 911.14951111 265.10222222zM685.54296889 586.69966222c2.59072 12.8 12.01038222 22.79879111 24.02986666 26.68885333 12.6464 3.51345778 26.01756445 0.35726222 36.04366223-8.00654222 8.72106667-9.28768 12.67256889-22.44152889 9.34456889-34.69539555-2.58958222-12.8-12.01038222-22.79765333-24.02986667-26.68885333-12.6464-3.51345778-26.01756445-0.35612445-36.04366222 8.00654222-8.72106667 9.28768-12.67256889 22.44152889-9.34456889 34.69539555z"></path>
  <path d="M910.19719111 231.37848889c3.45656889 0 6.91313778 0.31175111 10.26503111 0.72817778a70.26915555 70.26915555 0 0 0-32.47217777-13.93777778l-666.94257778-105.77578667c-38.8608-6.13603555-75.41873778 20.07381333-81.59914667 58.66040889L129.70666667 231.48316445h780.49052444v-0.10467556z"></path>
</svg>
