<?xml version="1.0" encoding="UTF-8"?>
<svg viewBox="0 0 1024 1024"
  xmlns="http://www.w3.org/2000/svg">
  <g stroke="none" stroke-width="1" fill="none" fill-rule="evenodd">
    <g fill-rule="nonzero">
      <rect fill-opacity="0" fill="#000000" opacity="0" x="0" y="0" width="1024" height="1024"></rect>
      <path d="M849.815341,295 L174.184659,295 C140.018746,295 112,323.061538 112,358.333333 L112,801.666667 C112,836.938462 140.018746,865 174.184659,865 L849.815341,865 C883.889087,865 911.907833,836.938462 912,801.666667 L912,683.209877 L682.127841,683.209877 C620.756974,682.876923 570.710333,632.753846 570.664773,570.617284 C570.710333,509.061538 620.756974,458.938462 682.127841,459.197531 L912,459.197531 L912,358.333333 C912,323.061538 883.981254,295 849.815341,295 Z M685.647727,601.111111 C696.762997,604.199089 708.515464,601.425028 717.326705,594.074074 C724.992453,585.911487 728.465353,574.350445 725.539773,563.580247 C723.263547,552.329683 714.983981,543.542701 704.420455,540.123457 C693.305185,537.035479 681.552718,539.80954 672.741477,547.160494 C665.075729,555.323081 661.602829,566.884123 664.528409,577.654321 C666.804635,588.904885 675.084201,597.691867 685.647727,601.111111 Z" fill="#000000"></path>
      <path d="M861.977613,265.360106 C865.015764,265.360106 868.053914,265.634346 871,266 C862.99033,259.783882 853.231421,255.396035 842.459796,253.750592 L256.280832,160.783067 C222.124652,155.389671 189.993906,178.425872 184.562061,212.340278 L176,265.451519 L861.977613,265.451519 L861.977613,265.360106 Z" fill="#888888"></path>
    </g>
  </g>
</svg>
