<?xml version="1.0" encoding="UTF-8"?>
<svg viewBox="0 0 1024 1024"
  xmlns="http://www.w3.org/2000/svg">
  <path d="M862.815 295h-701.63C127.019 295 99 323.062 99 358.333v443.334C99 836.938 127.019 865 161.185 865h701.63c34.074 0 62.093-28.062 62.185-63.333V683.21H682.128c-61.371-0.333-111.418-50.456-111.463-112.593 0.045-61.555 50.092-111.679 111.463-111.42H925V358.334C925 323.062 896.981 295 862.815 295zM664.528 577.654c2.277 11.25 10.556 20.038 21.12 23.457 11.115 3.088 22.867 0.314 31.679-7.037 7.665-8.163 11.138-19.724 8.213-30.494-2.276-11.25-10.556-20.037-21.12-23.457-11.115-3.088-22.867-0.313-31.679 7.037-7.665 8.163-11.138 19.724-8.213 30.494z"></path>
  <path d="M861.978 265.36c3.038 0 6.076 0.274 9.022 0.64a61.76 61.76 0 0 0-28.54-12.25l-586.18-92.967c-34.155-5.393-66.286 17.643-71.718 51.557L176 265.452h685.978v-0.092z"></path>
</svg>
