<?xml version="1.0" encoding="utf-8"?>
<!-- Generator: Adobe Illustrator 26.0.1, SVG Export Plug-In . SVG Version: 6.00 Build 0)  -->
<svg version="1.1" id="Layer_1" xmlns="http://www.w3.org/2000/svg" xmlns:xlink="http://www.w3.org/1999/xlink" x="0px" y="0px"
	 viewBox="0 0 99.7 37.8" style="enable-background:new 0 0 99.7 37.8;" xml:space="preserve">
<style type="text/css">
	.st0{fill:#3AAC59;}
</style>
<path class="st0" d="M59.9,12.3h8.7v25.1h-8.7V12.3z"/>
<path class="st0" d="M48,10.4c-3.3,0-6.7,0.8-7.6,2.3c0,0,0,0,0,0.1V2.2h-8.9v16.7v0c0.9,0.4,1.8,0.9,2.7,1.4
	c0.3,0.2,0.6,0.3,0.8,0.4c0.1,0.1,0.2,0.1,0.4,0.2c0,0-5.1,7.9-12,9.5c-4.1,1-8.9-0.2-9.9-4.3c0-0.2-0.1-0.3-0.1-0.5
	c0.7-0.4,1.3-0.7,2-1.1c1.7-0.7,3-1.3,3.5-1.5c0,0,0.1,0,0.1,0c0,0,0,0,0,0c0,0,0,0,0,0c4.1-1.5,7.5-2,7.5-2c-3.1-0.3-5.7-0.1-8,0.4
	c0,0,0,0,0,0s0,0,0,0c-2,0.4-3.7,1-4.9,1.6c0.7-2.9,3.3-5.5,6.4-6.2c0.3-0.1,0.5-0.1,0.8-0.2c0.1,0,0.2,0,0.2,0
	c0.2,0,0.4-0.1,0.6-0.1c0.1,0,0.1,0,0.2,0c0.3,0,0.5,0,0.8,0c0.1,0,0.1,0,0.2,0c0.2,0,0.5,0,0.7,0c0.1,0,0.2,0,0.2,0
	c0.1,0,0.2,0,0.2,0c1.3,0.1,2.9,0.5,4.7,1.1V12c-0.9-0.3-1.8-0.5-2.7-0.8C23.3,10.6,19,9.9,14.3,11c-7.6,1.8-9.7,7.4-9.7,14.2
	c0,0.9,0.1,1.7,0.2,2.4c-1.6,1.1-3.3,2.3-4.7,3.7c0,0,2.2-1,5.1-2.2c1.9,6.5,8.7,8.7,13.7,8.7c5.3,0,8.7-1.5,12.7-4V37h8.9V21.3
	c0,0,0,0,0-0.1V21c0.8-2.2,2.3-2.8,3.9-2.8c2.1,0,3.4,1.5,3.4,3.9v15h8.9V19.5C56.7,14,53.2,10.4,48,10.4z"/>
<path class="st0" d="M64.1,0c-2.7,0-4.6,1.9-4.6,4.6c0,2.7,1.9,4.6,4.6,4.6c2.7,0,4.6-1.9,4.6-4.6C68.7,1.9,66.8,0,64.1,0z"/>
<path class="st0" d="M98.2,22.8L98.2,22.8l0-11.2h-8.9l0,1.6c-8.6-5.5-14.1,0.2-14.1,0.2c-2.6,2.4-4.1,6.1-4.1,10.9
	c0,8.4,5.1,13.4,11.6,13.4c2.5,0,4.7-0.6,6.7-3.3c0.2,0.6,0.7,2.2,1.1,2.7h9.3C98.1,34.4,98.1,25.4,98.2,22.8z M84.7,30.3
	c-2.9,0-4.9-2.5-4.9-6c0-3.5,2-6,4.9-6c2,0,3.6,1.2,4.4,3.2v5.7C88.3,29.1,86.7,30.3,84.7,30.3z"/>
</svg>
