<?xml version="1.0" encoding="utf-8"?>
<!-- Generator: Adobe Illustrator 26.0.1, SVG Export Plug-In . SVG Version: 6.00 Build 0)  -->
<svg version="1.1" id="Layer_1" xmlns="http://www.w3.org/2000/svg" xmlns:xlink="http://www.w3.org/1999/xlink" x="0px" y="0px"
	 viewBox="0 0 220 220" style="enable-background:new 0 0 220 220;" xml:space="preserve">
<style type="text/css">
	.st0{fill:#131218;}
	.st1{fill:#40D8C8;}
</style>
<path class="st0" d="M110,220c60.8,0,110-49.2,110-110C220,49.2,170.8,0,110,0C49.2,0,0,49.2,0,110C0,170.8,49.2,220,110,220z"/>
<path class="st1" d="M106.1,96.7L70.1,61c-1-1-2.8-1.1-3.9-0.1c-0.9,0.8-1.9,1.8-2.7,2.7c-1,1.1-1,2.9,0.1,3.9l36.1,35.8
	c3.7,3.6,3.7,9.6,0,13.2l-43,42.7c-0.9,0.9-2.4,0.8-3.3-0.2l-0.1-0.1c-2.5-3-2.3-7.4,0.5-10.1l37.3-37c1.1-1.1,1.1-2.9,0-3.9
	L54.8,72.2c-3.5-3.5-3.8-9-0.5-12.7c2.3-2.7,5-5.2,7.6-7.6c3.8-3.3,9.3-3,12.8,0.5l36.1,35.8c1.1,1.1,2.9,1.1,3.9,0l37-37
	c2.7-2.7,7-3,10-0.6l0.1,0.1c1.2,1,1.1,2.5,0.6,3.2l-43.2,42.9C115.7,100.4,109.8,100.4,106.1,96.7z"/>
<path class="st1" d="M42.3,78.1l-0.8,2c-0.8,2.1-0.4,4.5,1.2,6.2l23.2,23c0.4,0.4,0.4,0.9,0,1.3l-23.2,23c-1.6,1.6-2.1,4.1-1.2,6.2
	c0.3,0.7,0.6,1.3,0.9,2c0.8,1.8,3.2,2.1,4.5,0.8l30.8-30.7c1.1-1.1,1.1-2.9,0-3.9L46.9,77.2C45.4,75.9,43.1,76.3,42.3,78.1z"/>
<path class="st1" d="M171.8,71c2.7-2.8,2.9-7.1,0.4-10.2c-0.8-1-2.4-1.1-3.3,0l-42.8,42.7c-3.7,3.6-3.7,9.5,0,13.2l35.9,35.7
	c1.1,1.1,1.1,2.8,0.1,3.9l-2.8,2.8c-1.1,1-2.9,1-3.9-0.1l-35.8-35.8c-3.7-3.6-9.7-3.6-13.3,0l-43,42.7c-0.9,0.9-0.8,2.4,0.2,3.3
	l0.1,0.1c2.9,2.4,7.3,2.2,10-0.5l37.4-37.1c1-1.1,2.8-1.1,3.9,0l35.9,35.8c3.4,3.4,9.2,3.6,12.8,0.6c2.6-2.2,5.2-4.8,7.5-7.5
	c3.3-3.7,3.1-9.3-0.4-12.8l-35.9-35.9c-1.1-1-1.1-2.8,0-3.9L171.8,71z"/>
</svg>
