<?xml version="1.0" encoding="utf-8"?>
<!-- Generator: Adobe Illustrator 26.0.1, SVG Export Plug-In . SVG Version: 6.00 Build 0)  -->
<svg version="1.1" id="ant-web3-icon-xht-colorful-Layer_1" xmlns="http://www.w3.org/2000/svg" xmlns:xlink="http://www.w3.org/1999/xlink" x="0px" y="0px" viewBox="0 0 267 220.2" style="enable-background:new 0 0 267 220.2;" xml:space="preserve">

<path d="M176.7,0H90.2L0,110.1l90.3,110.1h86.5L267,110.1L176.7,0L176.7,0z"/>
<path d="M167.6,20.4l73.5,89.4l-73.5,89.4H99.4l-73.6-89.1l73.5-89.4h68.2 M173.6,8.1H93.4l-83.7,102l83.7,102h80.2
	l83.7-102L173.6,8.1L173.6,8.1z" style="fill: #FFFFFF;"/>
<path d="M160.6,178.6h-54.1l-56.4-68.5l56.3-68.5h54.1l56.3,68.5L160.6,178.6z M108.4,174.4h50.1l52.8-64.3l-52.8-64.3
	h-50.1l-52.8,64.3L108.4,174.4z" style="fill: #00D9FF;"/>
<path d="M146.3,142.6h-25.6l-0.2-0.5l-26.3-32l26.5-32.5h25.6l0.2,0.4l26.3,32L146.3,142.6z M121.8,140.4h23.6
	l24.7-30.3l-24.7-30.3h-23.6l-25,30.3L121.8,140.4z" style="fill: #00D9FF;"/>
</svg>
