<svg xmlns="http://www.w3.org/2000/svg" viewBox="0 0 1024 1024">
  <g fill="none" fill-rule="nonzero">
    <path fill="#181818" d="M1019.123 1004.52V819.015c0-7.356-2.923-14.37-8.134-19.582L221.693 10.135C216.481 4.923 209.466 2 202.11 2H16.611C7.453 2 0 9.453 0 18.611v172.347c0 7.356 2.923 14.37 8.135 19.583l283.316 283.314c6.478 6.482 6.478 17.004 0 23.482L4.87 803.914A16.64 16.64 0 0 0 0 815.655v188.865c0 9.149 7.453 16.61 16.611 16.61h309.961c9.158 0 16.61-7.461 16.61-16.61V893.256c0-4.385 1.755-8.623 4.873-11.741l153.737-153.74c6.479-6.479 17-6.479 23.482 0l285.263 285.269c5.211 5.211 12.226 8.134 19.582 8.134h172.345c9.16 0 16.611-7.458 16.611-16.61z"/>
    <path fill="#EE7A30" d="M605.649 247.658h155.25c9.203 0 16.706 7.502 16.706 16.709v155.247c0 14.907 18.025 22.362 28.547 11.79l212.971-213.314a16.68 16.68 0 0 0 4.877-11.789V19.486c0-9.206-7.462-16.708-16.713-16.708l-189.592-.244c-4.43 0-8.668 1.754-11.837 4.872L593.812 219.112c-10.522 10.522-3.07 28.546 11.789 28.546z"/>
  </g>
</svg>
