<?xml version="1.0" encoding="utf-8"?>
<!-- Generator: Adobe Illustrator 26.0.1, SVG Export Plug-In . SVG Version: 6.00 Build 0)  -->
<svg version="1.1" id="ant-web3-icon-yooshi-circle-colorful-Layer_1" xmlns="http://www.w3.org/2000/svg" xmlns:xlink="http://www.w3.org/1999/xlink" x="0px" y="0px" viewBox="0 0 50 50" style="enable-background:new 0 0 50 50;" xml:space="preserve">

<circle id="ant-web3-icon-yooshi-circle-colorful-path-1" cx="25" cy="25" r="25" style="fill: #1D972F;"/>
<g id="ant-web3-icon-yooshi-circle-colorful-edit-group-10-Clipped">
	<g id="ant-web3-icon-yooshi-circle-colorful-path-1_00000034071703851628017220000003397851960346808224_">
	</g>
	<defs>
		<filter id="ant-web3-icon-yooshi-circle-colorful-Adobe_OpacityMaskFilter" filterUnits="userSpaceOnUse" x="5.2" y="4.1" width="39.7" height="62.2">
			<feColorMatrix type="matrix" values="1 0 0 0 0  0 1 0 0 0  0 0 1 0 0  0 0 0 1 0"/>
		</filter>
	</defs>
	
		<mask maskUnits="userSpaceOnUse" x="5.2" y="4.1" width="39.7" height="62.2" id="ant-web3-icon-yooshi-circle-colorful-mask-2_00000091705656252258425660000000787210855926554258_">
		<g style="filter: url(#ant-web3-icon-yooshi-circle-colorful-Adobe_OpacityMaskFilter);">
			<circle id="ant-web3-icon-yooshi-circle-colorful-path-1_00000052064544253088881570000002472190182971880112_" cx="25" cy="25" r="25" style="fill-rule: evenodd; clip-rule: evenodd; fill: #FFFFFF;"/>
		</g>
	</mask>
	<g id="ant-web3-icon-yooshi-circle-colorful-edit-group-10" style="mask: url(#ant-web3-icon-yooshi-circle-colorful-mask-2_00000091705656252258425660000000787210855926554258_);">
		<g id="ant-web3-icon-yooshi-circle-colorful-edit-group" transform="translate(5.612245, 4.387755)">
			<g transform="translate(0.000000, 0.000000)">
				<g transform="translate(-0.000000, 0.000000)">
					<path id="ant-web3-icon-yooshi-circle-colorful-Fill-1" d="M30.1,49.7c2.2-3.8-1.9-4.2-1.9-4.2s0,5.3,1.9,6c1.9,0.7,3.1-1,3.1-1
						C32.6,47.9,30.1,49.7,30.1,49.7" style="fill: #FEC91D;"/>
					<g id="ant-web3-icon-yooshi-circle-colorful-Fill-3-Clipped" transform="translate(9.358163, 36.568782)">
						<g id="ant-web3-icon-yooshi-circle-colorful-path-3_00000008149501964429219150000011793676073199705502_">
						</g>
						<defs>
							
								<filter id="ant-web3-icon-yooshi-circle-colorful-Adobe_OpacityMaskFilter_00000090291412630898755070000008958523855790815631_" filterUnits="userSpaceOnUse" x="0" y="0" width="25.2" height="25">
								<feColorMatrix type="matrix" values="1 0 0 0 0  0 1 0 0 0  0 0 1 0 0  0 0 0 1 0"/>
							</filter>
						</defs>
						
							<mask maskUnits="userSpaceOnUse" x="0" y="0" width="25.2" height="25" id="ant-web3-icon-yooshi-circle-colorful-mask-4_00000116917371200868130200000015472001115774130058_">
							<g style="filter:url(#ant-web3-icon-yooshi-circle-colorful-Adobe_OpacityMaskFilter_00000090291412630898755070000008958523855790815631_);">
								<path id="ant-web3-icon-yooshi-circle-colorful-path-3_00000012474270701329803900000014022945633564367778_" d="M2.8,0C2.8,0,0,8.9,0,12.4l0,0
									c0,3.5,1.7,9.9,1.7,9.9l0,0c0,0-1.4,1.2-0.5,2.7l0,0H8l0.9-6.1l2,0l0.8,3.7c-1.2,1.7,0.2,2.4,0.2,2.4l0,0h6.8l0.6-6.4
									c0,0,4.6-0.5,6-4.2l0,0c-2.4,0-6.1-2.7-6.4-3.8l0,0C18.5,9.5,17,0,17,0l0,0H2.8z" style="fill-rule: evenodd; clip-rule: evenodd; fill: #FFFFFF;"/>
							</g>
						</mask>
						<path id="ant-web3-icon-yooshi-circle-colorful-Fill-3" d="M2.8,0C2.8,0,0,8.9,0,12.4l0,0c0,3.5,1.7,9.9,1.7,9.9l0,0c0,0-1.4,1.2-0.5,2.7l0,0H8l0.9-6.1
							l2,0l0.8,3.7c-1.2,1.7,0.2,2.4,0.2,2.4l0,0h6.8l0.6-6.4c0,0,4.6-0.5,6-4.2l0,0c-2.4,0-6.1-2.7-6.4-3.8l0,0C18.5,9.5,17,0,17,0
							l0,0H2.8z" style="mask: url(#ant-web3-icon-yooshi-circle-colorful-mask-4_00000116917371200868130200000015472001115774130058_); fill: none;"/>
					</g>
					<g transform="translate(9.358000, 36.568843)">
						
							<linearGradient id="ant-web3-icon-yooshi-circle-colorful-Stroke-5backup_00000085945113927732270020000004160525258243195534_" gradientUnits="userSpaceOnUse" x1="-184.459" y1="388.3152" x2="-184.459" y2="388.0765" gradientTransform="matrix(25.2453 0 0 -24.9737 4669.3477 9716.6699)">
							<stop offset="0" style="stop-color:#44C423"/>
							<stop offset="1" style="stop-color:#B6E43F"/>
						</linearGradient>
						<path id="ant-web3-icon-yooshi-circle-colorful-Stroke-5backup" style="fill:url(#ant-web3-icon-yooshi-circle-colorful-Stroke-5backup_00000085945113927732270020000004160525258243195534_);" d="
							M11.6,22.6l-0.8-3.7l-2,0L8,25H1.2c-0.9-1.5,0.5-2.7,0.5-2.7S0,16.9,0,13.4S2.4,0,2.4,0h14.1c0,0,2.2,9.5,2.5,10.6
							c0.9,3.2,3.8,3.8,6.2,3.8c-1.4,3.7-6,4.2-6,4.2L18.8,25h-7.2C11.6,25,10.8,24.2,11.6,22.6z"/>
						<path id="ant-web3-icon-yooshi-circle-colorful-Stroke-5" d="M11.6,22.6l-0.8-3.7l-2,0L8,25H1.2c-0.9-1.5,0.5-2.7,0.5-2.7S0,16.9,0,13.4S2.4,0,2.4,0
							h14.1c0,0,2.2,9.5,2.5,10.6c0.9,3.2,3.8,3.8,6.2,3.8c-1.4,3.7-6,4.2-6,4.2L18.8,25h-7.2C11.6,25,10.8,24.2,11.6,22.6z" style="fill: none; stroke: #050000; stroke-width: 0.8163; stroke-linecap: round; stroke-linejoin: round;"/>
					</g>
					<g transform="translate(20.520328, 41.071231)">
						<g id="ant-web3-icon-yooshi-circle-colorful-Fill-11-Clipped">
							<g id="ant-web3-icon-yooshi-circle-colorful-path-6_00000121261985421495736110000003075488550404609676_">
							</g>
							<defs>
								
									<filter id="ant-web3-icon-yooshi-circle-colorful-Adobe_OpacityMaskFilter_00000004512469651614653940000009337777335112049314_" filterUnits="userSpaceOnUse" x="0" y="0" width="6" height="6.6">
									<feColorMatrix type="matrix" values="1 0 0 0 0  0 1 0 0 0  0 0 1 0 0  0 0 0 1 0"/>
								</filter>
							</defs>
							
								<mask maskUnits="userSpaceOnUse" x="0" y="0" width="6" height="6.6" id="ant-web3-icon-yooshi-circle-colorful-mask-7_00000152257679461119298200000009922484166457955468_">
								<g style="filter:url(#ant-web3-icon-yooshi-circle-colorful-Adobe_OpacityMaskFilter_00000004512469651614653940000009337777335112049314_);">
									<path id="ant-web3-icon-yooshi-circle-colorful-path-6_00000124880448567688753190000008423625983864465792_" d="M0.9,6.6C3.2,7.4,6,2,6,2l0,0L1.7,0
										C1.7,0-1.5,5.7,0.9,6.6" style="fill-rule: evenodd; clip-rule: evenodd; fill: #FFFFFF;"/>
								</g>
							</mask>
							<path id="ant-web3-icon-yooshi-circle-colorful-Fill-11" d="M0.9,6.6C3.2,7.4,6,2,6,2l0,0L1.7,0C1.7,0-1.5,5.7,0.9,6.6" style="mask: url(#ant-web3-icon-yooshi-circle-colorful-mask-7_00000152257679461119298200000009922484166457955468_); fill: none;"/>
						</g>
						<g id="ant-web3-icon-yooshi-circle-colorful-Fill-11backup-Clipped">
							<g id="ant-web3-icon-yooshi-circle-colorful-path-8_00000107572063556382639280000017561929124290836359_">
							</g>
							<defs>
								
									<filter id="ant-web3-icon-yooshi-circle-colorful-Adobe_OpacityMaskFilter_00000064334655208733307150000001637460838556969617_" filterUnits="userSpaceOnUse" x="0" y="0" width="6" height="6.6">
									<feColorMatrix type="matrix" values="1 0 0 0 0  0 1 0 0 0  0 0 1 0 0  0 0 0 1 0"/>
								</filter>
							</defs>
							
								<mask maskUnits="userSpaceOnUse" x="0" y="0" width="6" height="6.6" id="ant-web3-icon-yooshi-circle-colorful-mask-9_00000003815308830816734220000012057425190026225848_">
								<g style="filter:url(#ant-web3-icon-yooshi-circle-colorful-Adobe_OpacityMaskFilter_00000064334655208733307150000001637460838556969617_);">
									<path id="ant-web3-icon-yooshi-circle-colorful-path-8_00000005983369458558847800000016417019160303011238_" d="M0.9,6.6C3.2,7.4,6,2,6,2l0,0L1.7,0
										C1.7,0-1.5,5.7,0.9,6.6" style="fill-rule: evenodd; clip-rule: evenodd; fill: #FFFFFF;"/>
								</g>
							</mask>
							
								<linearGradient id="ant-web3-icon-yooshi-circle-colorful-Fill-11backup_00000156581461884705000930000008746274966579619470_" gradientUnits="userSpaceOnUse" x1="-173.1507" y1="340.3638" x2="-173.4479" y2="339.8638" gradientTransform="matrix(5.9936 0 0 -6.6447 1040.4854 2264.73)">
								<stop offset="0" style="stop-color:#44C423"/>
								<stop offset="1" style="stop-color:#ABE13D"/>
							</linearGradient>
							
								<path id="ant-web3-icon-yooshi-circle-colorful-Fill-11backup" style="mask:url(#ant-web3-icon-yooshi-circle-colorful-mask-9_00000003815308830816734220000012057425190026225848_);fill:url(#ant-web3-icon-yooshi-circle-colorful-Fill-11backup_00000156581461884705000930000008746274966579619470_);" d="
								M0.9,6.6C3.2,7.4,6,2,6,2l0,0L1.7,0C1.7,0-1.5,5.7,0.9,6.6"/>
						</g>
					</g>
					<g transform="translate(11.272041, 40.737353)">
						<g id="ant-web3-icon-yooshi-circle-colorful-Fill-13-Clipped">
							<g id="ant-web3-icon-yooshi-circle-colorful-path-11_00000159442521618366141650000014140683833263613337_">
							</g>
							<defs>
								
									<filter id="ant-web3-icon-yooshi-circle-colorful-Adobe_OpacityMaskFilter_00000003069433718716329610000008652809493310727300_" filterUnits="userSpaceOnUse" x="0" y="0" width="5.6" height="6.9">
									<feColorMatrix type="matrix" values="1 0 0 0 0  0 1 0 0 0  0 0 1 0 0  0 0 0 1 0"/>
								</filter>
							</defs>
							
								<mask maskUnits="userSpaceOnUse" x="0" y="0" width="5.6" height="6.9" id="ant-web3-icon-yooshi-circle-colorful-mask-12_00000065770954105195124670000017287811827783251083_">
								<g style="filter:url(#ant-web3-icon-yooshi-circle-colorful-Adobe_OpacityMaskFilter_00000003069433718716329610000008652809493310727300_);">
									<path id="ant-web3-icon-yooshi-circle-colorful-path-11_00000061435198760947824570000010453543061394254226_" d="M0,2.6c0,0,2.4,4.9,4.7,4.1l0,0
										C7.1,6,4.1,0,4.1,0l0,0L0,2.6z" style="fill-rule: evenodd; clip-rule: evenodd; fill: #FFFFFF;"/>
								</g>
							</mask>
							<path id="ant-web3-icon-yooshi-circle-colorful-Fill-13" d="M0,2.6c0,0,2.4,4.9,4.7,4.1l0,0C7.1,6,4.1,0,4.1,0l0,0L0,2.6z" style="mask: url(#ant-web3-icon-yooshi-circle-colorful-mask-12_00000065770954105195124670000017287811827783251083_); fill: none;"/>
						</g>
						<g id="ant-web3-icon-yooshi-circle-colorful-Fill-13backup-Clipped">
							<g id="ant-web3-icon-yooshi-circle-colorful-path-13_00000052083343758383902140000007948577694941484162_">
							</g>
							<defs>
								
									<filter id="ant-web3-icon-yooshi-circle-colorful-Adobe_OpacityMaskFilter_00000010270697111002461440000012233789062492630455_" filterUnits="userSpaceOnUse" x="0" y="0" width="5.6" height="6.9">
									<feColorMatrix type="matrix" values="1 0 0 0 0  0 1 0 0 0  0 0 1 0 0  0 0 0 1 0"/>
								</filter>
							</defs>
							
								<mask maskUnits="userSpaceOnUse" x="0" y="0" width="5.6" height="6.9" id="ant-web3-icon-yooshi-circle-colorful-mask-14_00000004509061990701478750000004517244679479217843_">
								<g style="filter:url(#ant-web3-icon-yooshi-circle-colorful-Adobe_OpacityMaskFilter_00000010270697111002461440000012233789062492630455_);">
									<path id="ant-web3-icon-yooshi-circle-colorful-path-13_00000085944586674541922860000015254222348383147657_" d="M0,2.6c0,0,2.4,4.9,4.7,4.1l0,0
										C7.1,6,4.1,0,4.1,0l0,0L0,2.6z" style="fill-rule: evenodd; clip-rule: evenodd; fill: #FFFFFF;"/>
								</g>
							</mask>
							
								<linearGradient id="ant-web3-icon-yooshi-circle-colorful-Fill-13backup_00000004526788105091985330000012433176336269637048_" gradientUnits="userSpaceOnUse" x1="-162.017" y1="342.7754" x2="-161.7367" y2="342.0542" gradientTransform="matrix(5.6239 0 0 -6.8546 913.3949 2351.0923)">
								<stop offset="0" style="stop-color:#44C423"/>
								<stop offset="1" style="stop-color:#ABE13D"/>
							</linearGradient>
							
								<path id="ant-web3-icon-yooshi-circle-colorful-Fill-13backup" style="mask:url(#ant-web3-icon-yooshi-circle-colorful-mask-14_00000004509061990701478750000004517244679479217843_);fill:url(#ant-web3-icon-yooshi-circle-colorful-Fill-13backup_00000004526788105091985330000012433176336269637048_);" d="
								M0,2.6c0,0,2.4,4.9,4.7,4.1l0,0C7.1,6,4.1,0,4.1,0l0,0L0,2.6z"/>
						</g>
					</g>
					<g transform="translate(0.023327, 0.000000)">
						<path id="ant-web3-icon-yooshi-circle-colorful-Stroke-15" d="M22.2,41.2c0,0-3.1,5.7-0.8,6.6c2.3,0.8,4.6-3.7,4.6-3.7" style="fill: none; stroke: #050000; stroke-width: 0.8163; stroke-linecap: round; stroke-linejoin: round;"/>
						<path id="ant-web3-icon-yooshi-circle-colorful-Stroke-17" d="M15.3,40.9c0,0,2.7,5.7,0.7,6.6c-2.1,0.9-4.2-3.6-4.2-3.6" style="fill: none; stroke: #050000; stroke-width: 0.8163; stroke-linecap: round; stroke-linejoin: round;"/>
						<path id="ant-web3-icon-yooshi-circle-colorful-Fill-19" d="M17.4,5.2c0,0,3.5-5.5,6.5-4.8c3,0.7,2.5,6,2.5,6L17.4,5.2z" style="fill: #D39E1D;"/>
						<path id="ant-web3-icon-yooshi-circle-colorful-Fill-21" d="M17.4,5.2c0,0,4.3-7,6.5-4.8c1,1,0,5.2,0,5.2L17.4,5.2z" style="fill: #FEC91D;"/>
						<path id="ant-web3-icon-yooshi-circle-colorful-Stroke-23" d="M17.4,5c0,0,3.5-5.5,6.5-4.8c3,0.7,2.5,6,2.5,6L17.4,5z" style="fill: none; stroke: #050000; stroke-width: 0.8163;"/>
						<path id="ant-web3-icon-yooshi-circle-colorful-Fill-25" d="M38.9,23.8c0,9.6-8.4,15.3-19.2,15.3C8.8,39,0,32.9,0,23.3C0,13.8,8.2,5,19.6,5
							C30.5,5,38.9,14.2,38.9,23.8" style="fill: #1D972F;"/>
					</g>
					<g id="ant-web3-icon-yooshi-circle-colorful-Fill-27-Clipped" transform="translate(0.023265, 5.020210)">
						<g id="ant-web3-icon-yooshi-circle-colorful-path-16_00000061464651884961432100000009446834381217580433_">
						</g>
						<defs>
							
								<filter id="ant-web3-icon-yooshi-circle-colorful-Adobe_OpacityMaskFilter_00000099623748466705633640000010173218490167482791_" filterUnits="userSpaceOnUse" x="0" y="0" width="38.9" height="30.8">
								<feColorMatrix type="matrix" values="1 0 0 0 0  0 1 0 0 0  0 0 1 0 0  0 0 0 1 0"/>
							</filter>
						</defs>
						
							<mask maskUnits="userSpaceOnUse" x="0" y="0" width="38.9" height="30.8" id="ant-web3-icon-yooshi-circle-colorful-mask-17_00000046335377197258898680000016933871070991078585_">
							<g style="filter:url(#ant-web3-icon-yooshi-circle-colorful-Adobe_OpacityMaskFilter_00000099623748466705633640000010173218490167482791_);">
								<path id="ant-web3-icon-yooshi-circle-colorful-path-16_00000068657119389546762670000015515162349296264365_" d="M0,16.6c0,8.7,8.8,14.2,19.6,14.2
									l0,0c10.8,0,19.2-5.2,19.2-13.8l0,0c0-8.7-8.4-17-19.2-17l0,0C8.2,0,0,7.9,0,16.6" style="fill-rule: evenodd; clip-rule: evenodd; fill: #FFFFFF;"/>
							</g>
						</mask>
						
							<linearGradient id="ant-web3-icon-yooshi-circle-colorful-Fill-27_00000005968605898077887190000008346607933670793111_" gradientUnits="userSpaceOnUse" x1="-177.5201" y1="423.4593" x2="-177.6116" y2="422.889" gradientTransform="matrix(38.8608 0 0 -30.799 6920.3652 13047.1953)">
							<stop offset="0" style="stop-color:#B6E43F"/>
							<stop offset="1" style="stop-color:#44C323"/>
						</linearGradient>
						
							<path id="ant-web3-icon-yooshi-circle-colorful-Fill-27" style="mask:url(#ant-web3-icon-yooshi-circle-colorful-mask-17_00000046335377197258898680000016933871070991078585_);fill:url(#ant-web3-icon-yooshi-circle-colorful-Fill-27_00000005968605898077887190000008346607933670793111_);" d="
							M0,16.6c0,8.7,8.8,14.2,19.6,14.2l0,0c10.8,0,19.2-5.2,19.2-13.8l0,0c0-8.7-8.4-17-19.2-17l0,0C8.2,0,0,7.9,0,16.6"/>
					</g>
					<g transform="translate(0.000000, 4.903802)">
						<path id="ant-web3-icon-yooshi-circle-colorful-Fill-29" d="M34.6,20.1c0,0-2,0.1-3.8-0.6c-2.1-0.7-6.6-3.7-11.6-4.1c-6.9-0.4-9.6,1.8-13.2,2
							c-2.5,0.1-2.9-0.2-2.9-0.2s3.6,5.3,14.8,6.7C29.1,25.4,34.6,20.1,34.6,20.1" style="fill: #C13636;"/>
						<path id="ant-web3-icon-yooshi-circle-colorful-Fill-31" d="M16.7,15.5c0,0,0.2,2.9,2.3,3.1c2.1,0.2,2.8-2.6,2.8-2.6S19.2,15.3,16.7,15.5" style="fill: #FFFFFF;"/>
						<path id="ant-web3-icon-yooshi-circle-colorful-Fill-33" d="M15.7,15.7c0,0,0.2,2.7-1.7,3c-1.9,0.4-2.8-2.3-2.8-2.3S13.6,15.5,15.7,15.7" style="fill: #FFFFFF;"/>
						<path id="ant-web3-icon-yooshi-circle-colorful-Fill-35" d="M10,16.7c0,0,0.5,1.9-1,2.4c-1.6,0.4-2.4-1.2-2.4-1.2S8,16.8,10,16.7" style="fill: #FFFFFF;"/>
						<path id="ant-web3-icon-yooshi-circle-colorful-Fill-37" d="M27,17.9c0,0-1.5,2.2-3.2,1.5c-1.8-0.7-1.1-3.1-1.1-3.1S24.8,16.2,27,17.9" style="fill: #FFFFFF;"/>
						<path id="ant-web3-icon-yooshi-circle-colorful-Fill-39" d="M31.2,19.9c0,0-1.4,1.4-2.6,0.9c-1.1-0.5-0.9-2.5-0.9-2.5S29.9,18.4,31.2,19.9" style="fill: #FFFFFF;"/>
						<path id="ant-web3-icon-yooshi-circle-colorful-Stroke-41" d="M34.6,20.1c0,0-2,0.1-3.8-0.6c-2.1-0.7-6.6-3.7-11.6-4.1c-6.9-0.4-9.6,1.8-13.2,2
							c-2.5,0.1-2.9-0.2-2.9-0.2s2.4,5.3,13.6,6.7C27.9,25.4,34.6,20.1,34.6,20.1z" style="fill: none; stroke: #050000; stroke-width: 0.8163; stroke-linecap: round; stroke-linejoin: round;"/>
						<path id="ant-web3-icon-yooshi-circle-colorful-Stroke-43" d="M38.9,18.7c0,9.6-8.4,15.3-19.2,15.3C8.8,34,0,27.9,0,18.3C0,8.8,8.2,0,19.6,0
							C30.5,0,38.9,9.2,38.9,18.7z" style="fill: none; stroke: #050000; stroke-width: 0.8163;"/>
						<path id="ant-web3-icon-yooshi-circle-colorful-Stroke-45" d="M16.5,15.6c0,0,0.4,2.9,2.5,3.1c2.1,0.2,3-2.6,3-2.6" style="fill: none; stroke: #050000; stroke-width: 0.8163; stroke-linecap: round; stroke-linejoin: round;"/>
						<path id="ant-web3-icon-yooshi-circle-colorful-Stroke-47" d="M10.8,16.6c0,0,1.2,2.5,3,2.1c1.9-0.4,1.9-3,1.9-3" style="fill: none; stroke: #050000; stroke-width: 0.8163; stroke-linecap: round; stroke-linejoin: round;"/>
						<path id="ant-web3-icon-yooshi-circle-colorful-Stroke-49" d="M10,16.6c0,0,0.5,1.9-1,2.4c-1.6,0.4-2.4-1.2-2.4-1.2" style="fill: none; stroke: #050000; stroke-width: 0.8163; stroke-linecap: round; stroke-linejoin: round;"/>
						<path id="ant-web3-icon-yooshi-circle-colorful-Stroke-51" d="M22.4,16.2c0,0-0.5,2.4,1.3,3.1c1.8,0.7,3.2-1.5,3.2-1.5" style="fill: none; stroke: #050000; stroke-width: 0.8163; stroke-linecap: round; stroke-linejoin: round;"/>
						<path id="ant-web3-icon-yooshi-circle-colorful-Stroke-53" d="M27.5,18.2c0,0-0.2,1.9,0.9,2.5c1.7,0.9,2.8-0.9,2.8-0.9" style="fill: none; stroke: #050000; stroke-width: 0.8163; stroke-linecap: round; stroke-linejoin: round;"/>
						<path id="ant-web3-icon-yooshi-circle-colorful-Fill-55" d="M34.6,7.7c1.5,3.2,0.5,6.9-2.3,8.2c-2.8,1.4-6.4-0.1-7.9-3.3c-1.5-3.2-0.5-6.9,2.3-8.2
							C29.5,3,33.1,4.5,34.6,7.7" style="fill: #FFFFFF;"/>
						<path id="ant-web3-icon-yooshi-circle-colorful-Stroke-57" d="M34.6,7.7c1.5,3.2,0.5,6.9-2.3,8.2c-2.8,1.4-6.4-0.1-7.9-3.3c-1.5-3.2-0.5-6.9,2.3-8.2
							C29.5,3,33.1,4.5,34.6,7.7z" style="fill: none; stroke: #050000; stroke-width: 0.8163;"/>
						<path id="ant-web3-icon-yooshi-circle-colorful-Fill-59" d="M31.5,9.2c1.4,2.8,0.9,5.9-1.1,6.8c-1.9,0.9-4.6-0.6-6-3.4c-1.4-2.8-0.9-5.9,1.1-6.8
							C27.4,4.8,30.1,6.4,31.5,9.2" style="fill: #050000;"/>
						<line id="ant-web3-icon-yooshi-circle-colorful-Stroke-61" x1="24.2" y1="5.8" x2="30.1" y2="2.7" style="fill: none; stroke: #050000; stroke-width: 1.6327; stroke-linecap: round; stroke-linejoin: round;"/>
						<path id="ant-web3-icon-yooshi-circle-colorful-Fill-63" d="M5.1,6.3c-1.5,3.2-0.5,6.9,2.3,8.2c2.8,1.4,6.3-0.1,7.9-3.3C16.9,8,15.8,4.3,13,2.9
							S6.7,3.1,5.1,6.3" style="fill: #FFFFFF;"/>
						<path id="ant-web3-icon-yooshi-circle-colorful-Stroke-65" d="M5.1,6.3c-1.5,3.2-0.5,6.9,2.3,8.2c2.8,1.4,6.3-0.1,7.9-3.3C16.9,8,15.8,4.3,13,2.9
							S6.7,3.1,5.1,6.3z" style="fill: none; stroke: #050000; stroke-width: 0.8163;"/>
						<path id="ant-web3-icon-yooshi-circle-colorful-Fill-67" d="M8.3,7.8c-1.4,2.8-0.9,5.9,1.1,6.8c1.9,0.9,4.6-0.6,6-3.4c1.4-2.8,0.9-5.9-1.1-6.8
							C12.3,3.4,9.6,5,8.3,7.8" style="fill: #050000;"/>
						<line id="ant-web3-icon-yooshi-circle-colorful-Stroke-69" x1="15.5" y1="4.4" x2="9.7" y2="1.3" style="fill: none; stroke: #050000; stroke-width: 1.6327; stroke-linecap: round; stroke-linejoin: round;"/>
						<path id="ant-web3-icon-yooshi-circle-colorful-Fill-71" d="M28.9,9.7C29,10.1,30,10.2,31,9.9c1-0.3,1.7-1,1.6-1.4c-0.1-0.4-1.1-0.5-2.1-0.2
							C29.5,8.6,28.7,9.3,28.9,9.7" style="fill: #FFFFFF;"/>
						<path id="ant-web3-icon-yooshi-circle-colorful-Fill-73" d="M10.8,9.7c-0.1,0.4-1.1,0.5-2.1,0.2c-1-0.3-1.7-1-1.6-1.4C7.2,8.1,8.2,8,9.2,8.3
							C10.2,8.6,11,9.3,10.8,9.7" style="fill: #FFFFFF;"/>
						<path id="ant-web3-icon-yooshi-circle-colorful-Fill-75" d="M18.3,12.2c-0.1,0.1-0.4,0.1-0.5,0s-0.2-0.4-0.1-0.5c0.1-0.1,0.4-0.1,0.5,0
							C18.3,11.9,18.4,12.1,18.3,12.2" style="fill: #050000;"/>
						<path id="ant-web3-icon-yooshi-circle-colorful-Fill-77" d="M21,12.2c0.1,0.1,0.4,0.1,0.5,0s0.2-0.4,0.1-0.5c-0.1-0.1-0.4-0.1-0.5,0
							C21,11.9,20.9,12.1,21,12.2" style="fill: #050000;"/>
						<path id="ant-web3-icon-yooshi-circle-colorful-Stroke-87" d="M28.1,40.6c0,0,4.1,0.4,1.9,4.2" style="fill: none; stroke: #050000; stroke-width: 0.8163; stroke-linecap: round; stroke-linejoin: round;"/>
					</g>
				</g>
			</g>
		</g>
	</g>
</g>
</svg>
